<svg width="200" height="200" viewBox="0 0 200 200" fill="none" xmlns="http://www.w3.org/2000/svg">
<rect width="200" height="200" fill="white"/>
<g clip-path="url(#clip0_835_3207)">
<path d="M78.0156 108.589C76.7883 101.981 74.7827 96.3288 72.0496 91.7895C71.9156 91.5639 71.6723 91.4268 71.4088 91.4268H67.5279C67.2637 91.4268 67.0218 91.5639 66.8857 91.7895C65.6115 93.9065 64.3821 96.7512 63.2359 100.236C62.2845 103.045 61.5178 105.849 60.9531 108.574C60.9075 108.794 60.9632 109.023 61.1051 109.198C61.247 109.373 61.4606 109.474 61.685 109.474H64.8302C65.1923 109.474 65.5028 109.215 65.5673 108.86C65.7041 108.101 65.8685 107.328 66.051 106.563C66.0821 106.428 66.2023 106.332 66.342 106.332H72.6498C72.7931 106.332 72.9169 106.436 72.9437 106.575C73.1196 107.492 73.2609 108.247 73.3716 108.858C73.4361 109.214 73.746 109.474 74.1079 109.474H77.28C77.503 109.474 77.7136 109.374 77.8555 109.205C77.9974 109.034 78.0561 108.808 78.0156 108.589ZM71.8309 102.173C71.7744 102.245 71.6846 102.287 71.5941 102.287H67.3969C67.3028 102.287 67.213 102.242 67.158 102.165C67.1008 102.09 67.0834 101.99 67.1109 101.9C67.7328 99.8865 68.4468 98.0124 69.2381 96.3322C69.2843 96.2306 69.3878 96.1649 69.5005 96.1608C69.5037 96.1608 69.5066 96.1612 69.5098 96.1612C69.5124 96.1612 69.5147 96.1609 69.5173 96.1609C69.628 96.1642 69.7275 96.2257 69.7768 96.326C70.7188 98.2136 71.4283 100.094 71.8844 101.915C71.9069 102.005 71.8859 102.099 71.8309 102.173Z" fill="#3498DB"/>
<path d="M96.9054 91.4268H93.6987C93.286 91.4268 92.95 91.7623 92.95 92.1754V96.4048C92.95 96.5282 92.8762 96.6365 92.7618 96.6832C92.6495 96.7274 92.5163 96.6977 92.4338 96.6112C91.4628 95.5895 90.2718 94.5716 88.8954 93.5818C87.6096 92.6583 86.4431 91.956 85.4259 91.4941C85.3289 91.4492 85.2232 91.4268 85.1168 91.4268H81.0839C80.6705 91.4268 80.3359 91.7623 80.3359 92.1754V108.725C80.3359 109.139 80.6705 109.474 81.0839 109.474H84.2906C84.704 109.474 85.0385 109.139 85.0385 108.725V97.2842C85.0385 97.1763 85.0986 97.076 85.1913 97.0231C85.2839 96.9706 85.4049 96.9739 85.4947 97.0286C86.6756 97.7547 87.9578 98.7109 89.2995 99.8697C90.7337 101.118 91.9379 102.34 92.8841 103.503C92.9262 103.556 92.95 103.624 92.95 103.693V108.725C92.95 109.139 93.286 109.474 93.6987 109.474H96.9054C97.3188 109.474 97.654 109.139 97.654 108.725V92.1754C97.654 91.7623 97.3188 91.4268 96.9054 91.4268Z" fill="#3498DB"/>
<path d="M116.53 97.5325H110.635C110.223 97.5325 109.886 97.8682 109.886 98.2812V100.081C109.886 100.495 110.223 100.83 110.635 100.83H112.276C112.442 100.83 112.576 100.964 112.576 101.129V105.954C112.576 106.104 112.463 106.233 112.314 106.252C112.033 106.286 111.632 106.303 111.094 106.303C109.374 106.303 107.982 105.751 106.956 104.664C105.936 103.581 105.417 102.172 105.417 100.476C105.417 98.5162 106.02 97.0105 107.208 95.9998C108.297 95.0702 109.84 94.598 111.798 94.598C112.533 94.598 113.312 94.6553 114.114 94.7689C114.327 94.7993 114.544 94.7356 114.709 94.5937C114.872 94.4515 114.967 94.2458 114.967 94.0286V92.0173C114.967 91.647 114.696 91.3323 114.329 91.2777C113.114 91.0938 112.034 91 111.119 91C107.683 91 104.997 91.9344 103.141 93.7745C101.406 95.4771 100.562 97.6763 100.562 100.501C100.562 104.41 102.196 107.161 105.419 108.674C107.162 109.488 109.189 109.901 111.448 109.901C113.536 109.901 115.341 109.601 116.811 109.01C117.093 108.896 117.278 108.621 117.278 108.316V98.2812C117.278 97.8682 116.944 97.5325 116.53 97.5325Z" fill="#3498DB"/>
<path d="M131.632 105.901H125.444C125.278 105.901 125.144 105.767 125.144 105.602V92.1754C125.144 91.7623 124.809 91.4268 124.396 91.4268H121.189C120.775 91.4268 120.441 91.7623 120.441 92.1754V108.725C120.441 109.139 120.775 109.474 121.189 109.474H131.632C132.047 109.474 132.38 109.139 132.38 108.725V106.649C132.38 106.236 132.047 105.901 131.632 105.901Z" fill="#3498DB"/>
<path d="M145.405 105.901H139.14C138.975 105.901 138.841 105.767 138.841 105.602V102.009C138.841 101.843 138.975 101.709 139.14 101.709H144.55C144.965 101.709 145.299 101.375 145.299 100.96V98.8846C145.299 98.4715 144.965 98.136 144.55 98.136H139.14C138.975 98.136 138.841 98.002 138.841 97.8373V95.2985C138.841 95.1349 138.975 95.0002 139.14 95.0002H144.928C145.34 95.0002 145.676 94.6646 145.676 94.2515V92.1754C145.676 91.7623 145.34 91.4268 144.928 91.4268H134.886C134.471 91.4268 134.137 91.7623 134.137 92.1754V108.725C134.137 109.139 134.471 109.474 134.886 109.474H145.405C145.818 109.474 146.153 109.139 146.153 108.725V106.649C146.153 106.236 145.818 105.901 145.405 105.901Z" fill="#3498DB"/>
<path d="M164.04 105.782C162.884 105.555 161.54 105.041 159.933 104.21C159.819 104.15 159.755 104.026 159.774 103.899C159.793 103.772 159.892 103.67 160.018 103.648C161.586 103.373 162.787 102.732 163.688 101.687C164.587 100.645 165.023 99.3686 165.023 97.7874C165.023 95.3365 164.102 93.5902 162.29 92.5971C160.883 91.8206 158.792 91.4268 156.074 91.4268H149.659C149.246 91.4268 148.91 91.7623 148.91 92.1754V108.725C148.91 109.139 149.246 109.474 149.659 109.474H152.865C153.279 109.474 153.613 109.139 153.613 108.725V105.124C153.613 105.014 153.674 104.913 153.771 104.86C153.868 104.81 153.989 104.815 154.08 104.876C157.586 107.224 160.825 108.814 163.699 109.6C163.764 109.618 163.831 109.627 163.897 109.627C164.058 109.627 164.219 109.573 164.35 109.473C164.536 109.332 164.645 109.111 164.645 108.878V106.516C164.645 106.159 164.391 105.852 164.04 105.782ZM159.233 100.681C158.616 101.261 157.764 101.554 156.701 101.554C156.291 101.554 155.813 101.486 155.218 101.343C154.73 101.24 154.109 101.111 153.932 101.081C153.916 101.079 153.9 101.076 153.882 101.075C153.731 101.06 153.613 100.93 153.613 100.777V95.2985C153.613 95.1349 153.748 95.0002 153.913 95.0002H156.149C158.816 95.0002 160.167 96.0725 160.167 98.1885C160.167 99.2586 159.854 100.097 159.233 100.681Z" fill="#3498DB"/>
<path d="M178.599 101.611C178.162 101.141 177.086 100.3 175.406 99.1141C174.446 98.4288 173.86 97.9847 173.62 97.762C173.145 97.3063 172.913 96.8378 172.913 96.3288C172.913 95.722 173.231 95.0002 174.745 95.0002H179.051C179.464 95.0002 179.799 94.6646 179.799 94.2515V92.1754C179.799 91.7623 179.464 91.4268 179.051 91.4268H173.036C171.129 91.4268 169.691 91.8488 168.761 92.6837C167.962 93.407 167.557 94.3876 167.557 95.6004C167.557 96.9077 167.999 98.0158 168.9 98.982C169.214 99.3288 170.425 100.328 172.493 101.948C173.365 102.634 173.858 103.035 174.002 103.177C174.434 103.61 174.643 104.057 174.643 104.546C174.643 105.164 174.317 105.901 172.76 105.901H167.928C167.514 105.901 167.18 106.236 167.18 106.649V108.725C167.18 109.139 167.514 109.474 167.928 109.474H173.89C175.318 109.474 176.515 109.278 177.438 108.896C179.162 108.2 180 106.958 180 105.099C180 103.759 179.54 102.617 178.599 101.611Z" fill="#3498DB"/>
<path fill-rule="evenodd" clip-rule="evenodd" d="M29.9551 100.465C29.9317 101.457 29.0243 102.339 28.0449 102.323C26.9947 102.306 26.1218 101.385 26.1699 100.348C26.2175 99.3418 27.1076 98.5127 28.115 98.5364C29.0948 98.5598 29.9775 99.4865 29.9551 100.465Z" fill="#3498DB"/>
<path fill-rule="evenodd" clip-rule="evenodd" d="M54.0711 96.7342C55.3751 95.4224 55.3751 93.2956 54.0711 91.9838C52.7671 90.6721 50.6529 90.6721 49.3489 91.9838C48.4945 92.8433 48.2004 94.0525 48.4658 95.1533C48.5012 95.3003 48.6372 95.5523 48.3714 95.8197L46.4222 97.7804C46.2707 97.9329 46.2707 98.1823 46.4222 98.3347L47.7578 99.6783C47.9094 99.8307 48.1573 99.8307 48.3088 99.6783L50.26 97.7155C50.5208 97.4532 50.7694 97.5854 50.913 97.6208C52.0092 97.8908 53.2148 97.5956 54.0711 96.7342Z" fill="#3498DB"/>
<path fill-rule="evenodd" clip-rule="evenodd" d="M54.0884 104.167C53.2341 103.307 52.032 103.012 50.9378 103.279C50.7916 103.314 50.5412 103.451 50.2754 103.184C50.0447 102.952 46.8337 99.7214 46.8337 99.7214L46.8335 99.7215C45.786 98.6663 44.7303 97.6194 43.6791 96.5681C40.0114 92.9004 37.0125 91.7769 33.0484 91.7769C32.1915 91.7769 31.3213 91.874 30.4377 92.0525C25.745 92.9988 22.441 95.8134 20.1487 99.9492C19.9376 100.331 19.9584 100.632 20.1658 101.004C21.0921 102.673 22.2096 104.181 23.6435 105.451C27.0071 108.433 30.9131 109.629 35.335 108.954C39.2673 108.354 42.2188 106.035 44.8345 103.193C45.0539 102.955 45.0132 102.753 44.7966 102.541C44.4141 102.165 44.0468 101.773 43.661 101.402C43.2628 101.019 43.2518 101.022 42.8327 101.419C41.9864 102.221 41.1928 103.085 40.2919 103.819C37.7313 105.907 34.8176 106.845 31.5099 106.351C27.9717 105.821 25.2955 103.947 23.2721 101.032C22.9649 100.59 23.0245 100.254 23.3109 99.837C24.0658 98.7333 24.9537 97.766 26.0037 96.9397C28.083 95.3036 30.9149 94.4079 33.039 94.4079C35.1289 94.4079 38.1329 94.8132 41.1382 97.8185C42.4064 99.0866 43.6858 100.344 44.9475 101.619L44.947 101.619L48.3908 105.083C48.6515 105.346 48.5201 105.596 48.4849 105.74C48.2165 106.843 48.5099 108.056 49.3662 108.917C50.6702 110.229 52.7844 110.229 54.0884 108.917C55.3924 107.605 55.3924 105.479 54.0884 104.167Z" fill="#3498DB"/>
</g>
<defs>
<clipPath id="clip0_835_3207">
<rect width="160" height="18.9012" fill="white" transform="translate(20 91)"/>
</clipPath>
</defs>
</svg>
