<svg width="200" height="200" viewBox="0 0 200 200" fill="none" xmlns="http://www.w3.org/2000/svg">
<rect width="200" height="200" fill="white"/>
<g clip-path="url(#clip0_835_2496)">
<path d="M59.4347 91.9868L49.8414 76L47.6601 86.9626L29.4961 88.771L59.4347 91.9868Z" fill="#E9570D"/>
<path d="M69.9653 85.0781L58.9727 86.1648L64.1191 95.4312L69.9653 85.0781Z" fill="#1281BA"/>
<path d="M58.8795 105.943L69.0722 108.739L60.329 93.8552L44.7031 123.794L58.8795 105.943Z" fill="#8CBD2A"/>
<path d="M53.6316 96.2572L29.8539 89.9238L40.8846 97.2476L20 119.88L46.1715 100.756L43.7195 123.445L53.6316 96.2572Z" fill="#F6AA00"/>
<path d="M43.1793 106.61L23.2891 119.742L42.5377 112.943L43.1793 106.61Z" fill="#FBD394"/>
<path d="M96.6206 88.1575H100.392L97.1639 95.8501H95.5039L96.6206 88.1575Z" fill="#7E7D7D"/>
<path d="M155.636 87.8167L156.087 90.3428H158.744L156.368 91.9046L156.819 94.4307L154.899 92.8689L152.523 94.4307L153.712 91.9046L151.789 90.3428H154.446L155.636 87.8167Z" fill="#7E7D7D"/>
<path d="M176.306 88.3401C176.112 89.5009 175.889 90.8021 175.634 92.2436C175.378 93.685 175.023 95.3651 174.566 97.2798C174.161 96.6121 173.618 96.1109 172.93 95.7761C172.244 95.4413 171.506 95.2749 170.715 95.2749C169.818 95.2749 168.992 95.5035 168.237 95.9606C167.481 96.4177 166.825 97.0251 166.272 97.781C165.718 98.5368 165.287 99.4029 164.981 100.379C164.672 101.356 164.52 102.362 164.52 103.399C164.52 104.084 164.608 104.74 164.782 105.363C164.959 105.989 165.229 106.532 165.6 106.999C165.969 107.466 166.444 107.825 167.024 108.082C167.603 108.337 168.299 108.465 169.107 108.465C169.969 108.465 170.715 108.254 171.348 107.833C171.982 107.41 172.483 106.935 172.852 106.408C172.782 106.725 172.707 107.041 172.627 107.358C172.547 107.675 172.465 107.956 172.377 108.202H175.857C175.909 107.797 176.011 107.17 176.16 106.316C176.31 105.464 176.491 104.483 176.701 103.377C176.912 102.268 177.148 101.073 177.413 99.7899C177.677 98.5067 177.954 97.2016 178.243 95.8744C178.534 94.5471 178.826 93.236 179.127 91.9448C179.426 90.6517 179.714 89.4528 179.997 88.3441H176.306V88.3401ZM171.996 105.824C171.512 106.388 170.883 106.669 170.109 106.669C169.792 106.669 169.516 106.598 169.279 106.458C169.043 106.318 168.844 106.129 168.686 105.891C168.527 105.652 168.409 105.385 168.329 105.087C168.251 104.788 168.21 104.471 168.21 104.136C168.21 103.82 168.237 103.425 168.289 102.95C168.341 102.474 168.429 101.971 168.551 101.434C168.674 100.899 168.828 100.361 169.012 99.8259C169.197 99.2906 169.421 98.8075 169.686 98.3764C169.949 97.9454 170.257 97.5945 170.608 97.3219C170.959 97.0492 171.356 96.9129 171.795 96.9129C172.515 96.9129 173.046 97.1635 173.391 97.6647C173.734 98.1659 173.904 98.7413 173.904 99.3909C173.904 99.9182 173.852 100.592 173.746 101.408C173.64 102.226 173.441 103.026 173.152 103.808C172.862 104.589 172.475 105.263 171.992 105.824H171.996Z" fill="#7E7D7D"/>
<path d="M161.17 88.3401C161.047 89.0618 160.889 89.946 160.694 90.9905C160.502 92.0371 160.281 93.1618 160.035 94.3667C159.788 95.5716 159.53 96.8207 159.257 98.1118C158.984 99.4029 158.708 100.666 158.427 101.895C158.144 103.126 157.864 104.291 157.583 105.389C157.302 106.488 157.038 107.424 156.793 108.198H160.855C161.154 106.476 161.474 104.782 161.817 103.122C162.16 101.462 162.507 99.7778 162.86 98.0717C163.07 97.1053 163.273 96.2112 163.465 95.3952C163.658 94.5772 163.852 93.7873 164.047 93.0214C164.239 92.2576 164.433 91.4957 164.628 90.7399C164.82 89.9841 165.023 89.1841 165.233 88.3401H161.172H161.17Z" fill="#7E7D7D"/>
<path d="M152.311 95.5916C152.239 96.2592 152.105 97.1253 151.902 98.1899C151.7 99.2544 151.471 100.379 151.216 101.566C150.962 102.753 150.689 103.936 150.398 105.113C150.108 106.292 149.831 107.32 149.566 108.198H153.548C153.652 107.372 153.821 106.352 154.049 105.139C154.278 103.926 154.528 102.705 154.801 101.472C155.074 100.241 155.346 99.094 155.619 98.0315C155.892 96.9689 156.116 96.1549 156.291 95.5916H152.309H152.311Z" fill="#7E7D7D"/>
<path d="M147.601 96.0809C147.029 95.5796 146.215 95.329 145.161 95.329C144.353 95.329 143.557 95.5095 142.775 95.8703C141.993 96.2292 141.259 96.8327 140.574 97.6767C140.925 95.9185 141.289 94.2524 141.668 92.6786C142.047 91.1048 142.446 89.6593 142.869 88.3401H138.992C138.904 88.8674 138.777 89.5671 138.609 90.4372C138.44 91.3073 138.248 92.2917 138.027 93.3903C137.807 94.489 137.562 95.6679 137.29 96.9249C137.017 98.182 136.736 99.4611 136.446 100.762C136.155 102.063 135.862 103.35 135.562 104.626C135.263 105.901 134.972 107.092 134.691 108.2H138.489C138.541 107.883 138.621 107.414 138.727 106.789C138.831 106.165 138.956 105.498 139.096 104.786C139.234 104.074 139.391 103.359 139.557 102.637C139.724 101.915 139.904 101.283 140.097 100.738C140.219 100.351 140.373 99.9563 140.558 99.5513C140.742 99.1483 140.975 98.7794 141.257 98.4446C141.538 98.1098 141.859 97.8351 142.22 97.6146C142.581 97.394 142.99 97.2858 143.447 97.2858C143.956 97.2858 144.339 97.4141 144.593 97.6687C144.848 97.9233 144.976 98.2541 144.976 98.6571C144.976 98.8155 144.95 99.0481 144.898 99.3548C144.846 99.6635 144.78 99.9923 144.7 100.345C144.621 100.696 144.537 101.039 144.449 101.374C144.361 101.707 144.291 101.979 144.239 102.19C144.064 102.859 143.91 103.443 143.777 103.944C143.645 104.445 143.519 104.92 143.395 105.367C143.272 105.816 143.144 106.27 143.012 106.727C142.879 107.184 142.727 107.677 142.55 108.204H146.532C146.725 106.957 146.909 105.915 147.085 105.079C147.26 104.245 147.384 103.685 147.454 103.405C147.525 103.088 147.617 102.707 147.731 102.258C147.845 101.811 147.956 101.344 148.062 100.86C148.168 100.377 148.26 99.8981 148.339 99.423C148.419 98.9478 148.457 98.5348 148.457 98.184C148.457 97.2878 148.17 96.5881 147.599 96.0869L147.601 96.0809Z" fill="#7E7D7D"/>
<path d="M134.906 91.0044C134.519 90.8119 134.062 90.6295 133.534 90.4631C133.007 90.2967 132.4 90.1563 131.714 90.042C131.028 89.9278 130.254 89.8696 129.394 89.8696C127.794 89.8696 126.325 90.1383 124.99 90.6736C123.654 91.2109 122.502 91.9487 121.535 92.889C120.567 93.8292 119.821 94.9299 119.294 96.1849C118.767 97.442 118.504 98.7913 118.504 100.233C118.504 101.165 118.644 102.117 118.925 103.094C119.206 104.068 119.699 104.962 120.403 105.77C121.106 106.58 122.051 107.23 123.237 107.723C124.424 108.214 125.914 108.461 127.708 108.461C128.622 108.461 129.372 108.407 129.964 108.302C130.553 108.198 131.129 108.04 131.692 107.829C131.85 107.424 132.005 107.059 132.153 106.735C132.301 106.41 132.474 106.053 132.666 105.666L132.43 105.481C131.778 106.027 131.058 106.422 130.266 106.668C129.475 106.915 128.659 107.037 127.814 107.037C126.074 107.037 124.763 106.528 123.885 105.508C123.007 104.487 122.566 103.126 122.566 101.42C122.566 100.313 122.698 99.1702 122.961 97.9913C123.223 96.8145 123.642 95.7359 124.214 94.7615C124.783 93.7851 125.527 92.9812 126.441 92.3476C127.355 91.7141 128.472 91.3973 129.791 91.3973C130.846 91.3973 131.746 91.5858 132.494 91.9647C133.24 92.3416 133.877 92.9792 134.406 93.8773H134.669L135.882 91.5036C135.619 91.3633 135.293 91.1968 134.906 91.0024V91.0044Z" fill="#7E7D7D"/>
<path d="M107.369 99.5311C106.745 99.2103 106.222 98.9317 105.799 98.7011C105.376 98.4705 105.039 98.254 104.789 98.0515C104.538 97.851 104.361 97.6506 104.261 97.4481C104.161 97.2476 104.111 97.015 104.111 96.7544C104.111 96.2311 104.327 95.784 104.76 95.4111C105.193 95.0402 105.801 94.8538 106.585 94.8538C107.188 94.8538 107.676 94.954 108.048 95.1565C108.419 95.357 108.716 95.5996 108.939 95.8803C109.159 96.1629 109.315 96.4436 109.406 96.7243C109.496 97.007 109.562 97.2375 109.602 97.418H110.236L111.11 94.3706C110.647 94.1701 110.079 93.9636 109.406 93.7511C108.732 93.5406 107.942 93.4343 107.038 93.4343C106.072 93.4343 105.228 93.5847 104.504 93.8874C103.78 94.1902 103.177 94.5811 102.693 95.0643C102.21 95.5475 101.849 96.0908 101.607 96.6942C101.366 97.2977 101.246 97.9012 101.246 98.5046C101.246 99.1081 101.336 99.6554 101.517 100.088C101.699 100.522 101.94 100.898 102.24 101.219C102.543 101.54 102.884 101.819 103.267 102.049C103.648 102.282 104.031 102.496 104.414 102.697C105.258 103.16 105.917 103.563 106.39 103.904C106.864 104.247 107.1 104.708 107.1 105.291C107.1 105.814 106.864 106.271 106.39 106.662C105.917 107.055 105.32 107.252 104.596 107.252C104.213 107.252 103.842 107.192 103.479 107.069C103.116 106.949 102.786 106.777 102.485 106.556C102.182 106.336 101.926 106.059 101.715 105.726C101.505 105.395 101.368 105.016 101.308 104.595H100.735L99.8906 107.613C100.534 107.933 101.188 108.17 101.851 108.322C102.515 108.473 103.209 108.549 103.932 108.549C104.716 108.549 105.486 108.459 106.24 108.276C106.994 108.096 107.674 107.799 108.277 107.388C108.88 106.975 109.364 106.448 109.724 105.804C110.085 105.161 110.268 104.397 110.268 103.511C110.268 102.504 109.987 101.7 109.424 101.097C108.86 100.493 108.177 99.9702 107.373 99.5291L107.369 99.5311Z" fill="#7E7D7D"/>
<path d="M92.3776 104.239C92.1952 102.791 92.0308 101.311 91.8884 99.8038C91.7441 98.2961 91.6098 96.8265 91.4855 95.3991C91.3612 93.9716 91.2589 92.6785 91.1787 91.5217C91.0985 90.3649 91.0324 89.4106 90.9822 88.6567C90.9301 87.9029 90.902 87.4558 90.902 87.3135H88.6085C88.3298 87.7566 88.0772 88.1535 87.8486 88.5044C87.6221 88.8572 87.3775 89.2241 87.1169 89.605C86.8562 89.988 86.5575 90.415 86.2247 90.8861C85.8919 91.3593 85.4949 91.9227 85.0378 92.5762C84.5787 93.2298 84.0294 94.0097 83.3878 94.9139C82.7463 95.8181 81.9804 96.9047 81.0902 98.1718C79.8813 99.882 78.6644 101.572 77.4394 103.24C76.2144 104.91 75.0055 106.55 73.8086 108.158H76.5232C77.4815 106.67 78.2935 105.427 78.9571 104.433C79.6207 103.437 80.1961 102.607 80.6853 101.943C81.1905 101.923 81.6757 101.909 82.1388 101.899C82.6019 101.889 83.2274 101.883 84.0113 101.883C84.7952 101.883 85.4829 101.889 86.0763 101.899C86.6678 101.909 87.2532 101.925 87.8346 101.943C87.8446 102.023 87.8526 102.186 87.8607 102.426C87.8687 102.669 87.8767 102.923 87.8807 103.196C87.8847 103.467 87.8968 103.723 87.9148 103.966C87.9328 104.206 87.9469 104.379 87.9529 104.479C87.9689 105.283 87.9689 105.997 87.9589 106.62C87.9489 107.244 87.9469 107.757 87.9529 108.158H92.931C92.7425 106.991 92.5561 105.684 92.3736 104.237L92.3776 104.239ZM86.3931 100.181C85.92 100.191 85.4508 100.195 84.9877 100.195C84.4644 100.195 83.9472 100.191 83.4359 100.181C82.9247 100.171 82.4175 100.157 81.9183 100.135C82.7402 98.9276 83.5883 97.7408 84.4664 96.5739C85.3426 95.4071 86.2207 94.2403 87.0968 93.0734C87.191 93.7371 87.2712 94.3505 87.3374 94.9139C87.4036 95.4773 87.4577 96.0346 87.4958 96.588C87.5319 97.1413 87.57 97.7047 87.606 98.2781C87.6421 98.8515 87.6762 99.469 87.7103 100.135C87.3053 100.155 86.8663 100.169 86.3931 100.181Z" fill="#7E7D7D"/>
</g>
<defs>
<clipPath id="clip0_835_2496">
<rect width="160" height="47.7939" fill="white" transform="translate(20 76)"/>
</clipPath>
</defs>
</svg>
