<?xml version="1.0" encoding="UTF-8"?>
<svg xmlns="http://www.w3.org/2000/svg" xmlns:xlink="http://www.w3.org/1999/xlink" viewBox="0 0 600 600">
  <defs>
    <style>
      .cls-1 {
        fill: url(#_名称未設定グラデーション_5);
      }

      .cls-1, .cls-2 {
        mix-blend-mode: multiply;
        opacity: .2;
      }

      .cls-2 {
        fill: url(#_名称未設定グラデーション_3);
      }

      .cls-3 {
        fill: #1623fe;
      }

      .cls-4 {
        isolation: isolate;
      }

      .cls-5 {
        fill: #fc5203;
      }
    </style>
    <linearGradient id="_名称未設定グラデーション_3" data-name="名称未設定グラデーション 3" x1="202.26" y1="237.06" x2="396.67" y2="384.43" gradientUnits="userSpaceOnUse">
      <stop offset="0" stop-color="#000"/>
      <stop offset=".58" stop-color="#000" stop-opacity="0"/>
    </linearGradient>
    <linearGradient id="_名称未設定グラデーション_5" data-name="名称未設定グラデーション 5" x1="184.74" y1="151.37" x2="91.26" y2="-1.36" gradientUnits="userSpaceOnUse">
      <stop offset="0" stop-color="#000"/>
      <stop offset=".57" stop-color="#000" stop-opacity="0"/>
    </linearGradient>
  </defs>
  <g class="cls-4">
    <g id="Logo">
      <g>
        <g>
          <path d="M113.48,534.8c-13.51,0-24.49-4.65-30.69-9.43v-92.62h19.99v38.71c2.67-2.11,9.43-4.22,16.05-4.22,17.59,0,32.09,12.53,32.09,32.66s-12.53,34.91-37.44,34.91ZM115.17,485.39c-5.91,0-10.42,2.82-12.39,4.93v24.35c2.11,1.55,6.47,3.1,10.42,3.1,10.56,0,17.17-7.18,17.17-16.47s-6.2-15.91-15.2-15.91Z"/>
          <path d="M180.49,535.5c-13.09-.56-21.82-7.32-21.82-22.66v-80.09h20.41v77.56c0,5.21,2.96,8.02,8.58,8.45l-7.18,16.75Z"/>
          <path d="M224.97,534.94c-19.28,0-34.77-13.65-34.77-33.92s15.48-33.92,34.77-33.92,34.77,13.65,34.77,33.92-15.62,33.92-34.77,33.92ZM224.97,485.11c-7.74,0-14.36,6.76-14.36,16.19s6.62,16.19,14.36,16.19,14.36-6.76,14.36-16.19-6.76-16.19-14.36-16.19Z"/>
          <path d="M299.3,534.94c-19.28,0-34.77-13.65-34.77-33.92s15.48-33.92,34.77-33.92,34.77,13.65,34.77,33.92-15.63,33.92-34.77,33.92ZM299.3,485.11c-7.74,0-14.36,6.76-14.36,16.19s6.62,16.19,14.36,16.19,14.36-6.76,14.36-16.19-6.76-16.19-14.36-16.19Z"/>
          <path d="M419.79,532.97v-39.13c0-4.65-2.25-8.73-9.01-8.73s-9.57,3.94-9.57,9.01v38.85h-20.69v-39.13c0-4.65-2.25-8.73-9.01-8.73s-9.57,3.94-9.57,9.01v38.85h-20.69v-63.76h19.14v8.59h.14c2.53-6.76,8.87-10.56,18.86-10.56,9.15,0,16.04,3.66,18.86,10.42,2.67-6.19,10.14-10.42,19.71-10.42,14.5,0,22.52,7.88,22.52,21.4v44.34h-20.69Z"/>
          <path d="M482.43,534.94c-19.28,0-34.77-13.65-34.77-33.92s15.48-33.92,34.77-33.92,34.77,13.65,34.77,33.92-15.63,33.92-34.77,33.92ZM482.43,485.11c-7.74,0-14.36,6.76-14.36,16.19s6.62,16.19,14.36,16.19,14.36-6.76,14.36-16.19-6.76-16.19-14.36-16.19Z"/>
        </g>
        <g>
          <path class="cls-3" d="M424.22,153.64c-3.24-4.06-9.36-4.82-13.54-1.73l-35.89,26.49c-3.63,2.68-8.05,3.86-12.6,3.33-8.96-1.05-15.53-8.99-15.53-18.01v-55.44c0-4.53-3.08-8.47-7.47-9.59-12.53-3.18-25.66-4.87-39.18-4.87-22.16,0-43.25,4.54-62.41,12.74v-27.22c0-8.19-6.64-14.82-14.82-14.82h-67.45c-7.83,0-14.18,6.35-14.18,14.18v173.06s.01.04.01.06c0,.3-.01.59-.01.88,0,88.12,71.74,159.48,160,158.87,87.56-.61,158.61-72.93,157.73-160.49-.37-36.83-13.27-70.65-34.64-97.42ZM303.16,313.29c-36.01,1.82-65.59-27.75-63.76-63.76,1.56-30.83,26.62-55.89,57.45-57.45,36.01-1.82,65.59,27.75,63.76,63.76-1.56,30.83-26.62,55.89-57.45,57.45Z"/>
          <path class="cls-5" d="M361.47,72.99v87.05c0,4.05,4.61,6.38,7.87,3.97l68.43-50.5c2.49-1.84,2.71-5.5.43-7.61-19.63-18.1-43.83-31.33-70.67-37.73-3.09-.74-6.05,1.64-6.05,4.81Z"/>
          <path class="cls-2" d="M360.69,252.68c0,34.3-28.46,61.96-63.06,60.64-31.43-1.2-57.05-26.8-58.27-58.23-1.34-34.55,26.23-62.99,60.46-63.09v-.05c-67.45.11-120.63,61.02-107.66,130.86,8.17,43.97,42.85,78.64,86.82,86.79,69.88,12.96,130.83-40.33,130.83-107.85,0-9.68-.14-56.98-41.43-56.98h0c-4.25,0-7.69,3.45-7.69,7.7v.21Z"/>
          <path class="cls-1" d="M237.59,106.36v-27.03c0-8.19-6.64-14.82-14.82-14.82h-67.45c-7.83,0-14.18,6.35-14.18,14.18v163.98c3.88-61.37,42.52-113.3,96.46-136.31Z"/>
        </g>
      </g>
    </g>
  </g>
</svg>