<svg width="200" height="200" viewBox="0 0 200 200" fill="none" xmlns="http://www.w3.org/2000/svg">
<rect width="200" height="200" fill="white"/>
<g clip-path="url(#clip0_835_2713)">
<path d="M48.4779 164.917C44.7459 164.917 41.7127 163.633 40 162.312V136.727H45.5221V147.42C46.2597 146.837 48.1271 146.254 49.9558 146.254C54.8149 146.254 58.8204 149.716 58.8204 155.276C58.8204 160.837 55.3591 164.92 48.4779 164.92V164.917ZM48.942 151.268C47.3094 151.268 46.0635 152.047 45.5193 152.63V159.356C46.1022 159.785 47.3066 160.213 48.3978 160.213C51.3149 160.213 53.1409 158.229 53.1409 155.663C53.1409 153.097 51.4282 151.268 48.942 151.268Z" fill="black"/>
<path d="M66.9847 165.111C63.3686 164.956 60.957 163.088 60.957 158.851V136.727H66.5952V158.152C66.5952 159.591 67.4128 160.367 68.9653 160.486L66.9819 165.113L66.9847 165.111Z" fill="black"/>
<path d="M79.2729 164.956C73.947 164.956 69.668 161.185 69.668 155.586C69.668 149.986 73.9442 146.216 79.2729 146.216C84.6017 146.216 88.8779 149.986 88.8779 155.586C88.8779 161.185 84.563 164.956 79.2729 164.956ZM79.2729 151.191C77.1348 151.191 75.3061 153.058 75.3061 155.663C75.3061 158.268 77.1348 160.135 79.2729 160.135C81.4111 160.135 83.2398 158.268 83.2398 155.663C83.2398 153.058 81.3724 151.191 79.2729 151.191Z" fill="black"/>
<path d="M99.8081 164.956C94.4821 164.956 90.2031 161.185 90.2031 155.586C90.2031 149.986 94.4794 146.216 99.8081 146.216C105.137 146.216 109.413 149.986 109.413 155.586C109.413 161.185 105.095 164.956 99.8081 164.956ZM99.8081 151.191C97.67 151.191 95.8412 153.058 95.8412 155.663C95.8412 158.268 97.67 160.135 99.8081 160.135C101.946 160.135 103.775 158.268 103.775 155.663C103.775 153.058 101.908 151.191 99.8081 151.191Z" fill="black"/>
<path d="M133.091 164.412V153.602C133.091 152.318 132.469 151.191 130.602 151.191C128.734 151.191 127.958 152.279 127.958 153.68V164.412H122.243V153.602C122.243 152.318 121.621 151.191 119.754 151.191C117.886 151.191 117.11 152.279 117.11 153.68V164.412H111.395V146.798H116.682V149.171H116.72C117.419 147.304 119.171 146.254 121.93 146.254C124.458 146.254 126.361 147.265 127.14 149.133C127.878 147.423 129.941 146.254 132.585 146.254C136.591 146.254 138.806 148.431 138.806 152.166V164.414H133.091V164.412Z" fill="black"/>
<path d="M150.394 164.956C145.068 164.956 140.789 161.185 140.789 155.586C140.789 149.986 145.065 146.216 150.394 146.216C155.723 146.216 159.999 149.986 159.999 155.586C159.999 161.185 155.681 164.956 150.394 164.956ZM150.394 151.191C148.256 151.191 146.427 153.058 146.427 155.663C146.427 158.268 148.256 160.135 150.394 160.135C152.532 160.135 154.361 158.268 154.361 155.663C154.361 153.058 152.493 151.191 150.394 151.191Z" fill="black"/>
<path d="M134.313 59.6243C133.418 58.5028 131.728 58.2928 130.573 59.1464L120.659 66.4641C119.656 67.2044 118.435 67.5304 117.178 67.384C114.703 67.0939 112.888 64.9005 112.888 62.4088V47.0939C112.888 45.8425 112.037 44.7541 110.824 44.4447C107.363 43.5663 103.736 43.0994 100.001 43.0994C93.8796 43.0994 88.0537 44.3536 82.7608 46.6188V39.0939C82.7608 36.8315 80.9266 35 78.6669 35H60.0343C57.8713 35 56.1172 36.7541 56.1172 38.9171V86.7238C56.1172 86.7238 56.12 86.7348 56.12 86.7403C56.12 86.8232 56.1172 86.9033 56.1172 86.9834C56.1172 111.326 75.9349 131.039 100.316 130.87C124.504 130.702 144.131 110.724 143.888 86.5359C143.786 76.3619 140.222 67.0193 134.319 59.6243H134.313ZM100.871 103.727C90.9238 104.229 82.7525 96.0608 83.2581 86.1133C83.689 77.5967 90.6117 70.674 99.1282 70.2431C109.076 69.7403 117.247 77.9088 116.741 87.8563C116.311 96.3729 109.388 103.296 100.871 103.727Z" fill="#1623FE"/>
<path d="M116.98 37.3453V61.3923C116.98 62.5111 118.254 63.1547 119.155 62.489L138.058 48.5387C138.746 48.0304 138.806 47.0194 138.177 46.4365C132.754 41.4365 126.069 37.7818 118.655 36.0138C117.801 35.8094 116.983 36.4669 116.983 37.3426L116.98 37.3453Z" fill="#FC5203"/>
<path style="mix-blend-mode:multiply" opacity="0.2" d="M116.764 86.9835C116.764 96.4587 108.903 104.1 99.3445 103.735C90.6622 103.403 83.5849 96.3316 83.2479 87.6493C82.8777 78.1051 90.4937 70.2487 99.9495 70.2211V70.2073C81.3169 70.2377 66.6263 87.0636 70.2092 106.356C72.4661 118.503 82.0462 128.08 94.1926 130.332C113.496 133.912 130.333 119.191 130.333 100.539C130.333 97.8647 130.295 84.7984 118.889 84.7984C117.715 84.7984 116.764 85.7515 116.764 86.9255V86.9835Z" fill="url(#paint0_linear_835_2713)"/>
<path style="mix-blend-mode:multiply" opacity="0.2" d="M82.7597 46.5635V39.0939C82.7597 36.8343 80.9254 35 78.663 35H60.0304C57.8674 35 56.1133 36.7541 56.1133 38.9199V84.2182C57.1851 67.2652 67.8591 52.9199 82.7597 46.5635Z" fill="url(#paint1_linear_835_2713)"/>
</g>
<defs>
<linearGradient id="paint0_linear_835_2713" x1="72.9992" y1="82.6686" x2="126.706" y2="123.379" gradientUnits="userSpaceOnUse">
<stop/>
<stop offset="0.58" stop-opacity="0"/>
</linearGradient>
<linearGradient id="paint1_linear_835_2713" x1="68.1602" y1="58.9972" x2="42.3398" y2="16.8066" gradientUnits="userSpaceOnUse">
<stop/>
<stop offset="0.57" stop-opacity="0"/>
</linearGradient>
<clipPath id="clip0_835_2713">
<rect width="120" height="130.11" fill="white" transform="translate(40 35)"/>
</clipPath>
</defs>
</svg>
