<?xml version="1.0" encoding="UTF-8"?>
<svg id="Layer_2" data-name="Layer 2" xmlns="http://www.w3.org/2000/svg" viewBox="0 0 127.24 151.57">
  <defs>
    <style>
      .cls-1 {
        fill: #fff;
      }

      .cls-2 {
        fill: #f93;
      }

      .cls-3 {
        fill: #401c00;
      }
    </style>
  </defs>
  <g id="logo">
    <g>
      <rect class="cls-1" x="0" y="0" width="127.24" height="151.57" rx="10.63" ry="10.63"/>
      <g>
        <g>
          <path class="cls-2" d="M106.3,63.78c0-23.48-19.04-42.52-42.52-42.52S21.26,40.3,21.26,63.78s19.04,42.52,42.52,42.52,42.52-19.04,42.52-42.52Z"/>
          <path class="cls-3" d="M83.49,42.81c-3.03,0-5.81,1.05-8.02,2.8-1.97-4.67-6.58-7.95-11.94-7.95-4.54,0-8.54,2.37-10.86,5.94-1.64-.76-3.47-1.18-5.4-1.18-7.15,0-12.97,5.85-12.97,13.04,0,5.65,3.59,10.46,8.6,12.28l-2.44,19.78c-.08.6.11,1.22.5,1.69.4.45.96.72,1.55.72h35.29c1.04,0,1.92-.8,2.05-1.87l2.36-19.21c.42.04.84.07,1.27.07,7.15,0,12.96-5.86,12.96-13.05s-5.82-13.04-12.96-13.04ZM83.49,64.62c-.25,0-.5-.02-.75-.04l.29-2.32c.14-1.17-.66-2.24-1.79-2.39-1.13-.14-2.16.68-2.31,1.85,0,0-.86,6.94-1.65,13.4h-26.9c-1.14,0-2.07.96-2.07,2.14s.92,2.13,2.07,2.13h26.38c-.37,2.93-.65,5.32-.77,6.24h-31.13c.39-3.18,2.02-16.41,2.63-21.42-.07,0-.15,0-.22,0-4.87,0-8.84-3.94-8.84-8.77s3.97-8.77,8.84-8.77c2.78,0,5.25,1.28,6.88,3.26.22.31.52.31.58-.11.44-4.43,4.22-7.91,8.8-7.91s8.07,3.21,8.73,7.4c-.32.56-.6,1.14-.84,1.74l3.69,1.99c1.18-3.47,4.49-5.97,8.38-5.97,4.87,0,8.84,3.93,8.84,8.77s-3.97,8.77-8.84,8.77Z"/>
        </g>
        <g>
          <path class="cls-3" d="M88.79,114.91c-1.14,0-2.55.21-3.83.65-.27.09-.76.3-.76.3l.63,2.27.11-.04s.43-.13.68-.21c.01,0,1.51-.52,2.82-.52.89,0,1.55.18,1.96.54.38.32.58.88.6,1.67h-2.28c-1.67,0-2.99.35-3.91,1.05-.88.66-1.32,1.58-1.32,2.73,0,1.06.38,1.93,1.13,2.59.68.59,1.55.89,2.65.93.05,0,.11,0,.17,0,.71,0,1.64-.05,2.57-.43.28-.12.63-.27.99-.5v.92h2.57v-7.43c0-1.23-.39-2.27-1.15-3.09-.86-.95-2.07-1.43-3.61-1.43ZM90.98,121.99v1c-.3.36-.78.73-1.31,1-.58.29-1.08.44-1.62.47-1.39.09-2.19-.37-2.19-1.23,0-.45.45-.83.9-1.01.54-.21,1.37-.24,2.18-.24h2.03Z"/>
          <path class="cls-3" d="M76.66,114.89c-1.07,0-2.03.22-2.85.64v-.64h-2.74v15.42h2.74v-4.09c.82.43,1.78.64,2.85.64,1.74,0,3.15-.56,4.21-1.66,1.05-1.11,1.58-2.57,1.58-4.33s-.53-3.21-1.59-4.32c-1.05-1.1-2.47-1.66-4.21-1.66ZM74.53,123.6c-.29-.27-.54-.63-.73-1.08-.19-.45-.29-1-.29-1.65s.1-1.21.29-1.65c.54-1.24,1.47-1.85,2.86-1.85.84,0,1.55.26,2.12.78.69.64,1.03,1.55,1.03,2.71s-.35,2.13-1.03,2.75c-.3.27-.64.46-1.02.59-.76.26-1.47.26-2.24,0-.37-.12-.7-.32-1-.59Z"/>
          <path class="cls-3" d="M103.55,111.42v4.11c-.82-.43-1.78-.64-2.85-.64-1.74,0-3.15.56-4.21,1.66-1.05,1.11-1.58,2.57-1.58,4.33s.53,3.21,1.59,4.32c1.05,1.1,2.47,1.66,4.21,1.66,1.07,0,2.03-.22,2.85-.64v.64h2.74v-15.44h-2.74ZM103.85,120.89c0,.65-.1,1.21-.29,1.65-.54,1.24-1.47,1.85-2.86,1.85-.84,0-1.55-.26-2.12-.78-.69-.64-1.03-1.55-1.03-2.71s.35-2.13,1.03-2.75c.3-.27.64-.46,1.02-.59.38-.13.75-.19,1.12-.19s.74.06,1.12.19c.37.12.7.32,1,.59.29.27.54.63.73,1.08.19.45.29,1,.29,1.65Z"/>
          <polygon class="cls-3" points="69.79 117 68.09 114.84 62.1 119.55 62.1 111.42 59.36 111.42 59.36 126.86 62.1 126.86 62.1 123.04 63.56 121.9 67.84 126.91 69.93 125.13 65.72 120.2 69.79 117"/>
          <path class="cls-3" d="M38.99,114.89c-1.82,0-3.34.58-4.39,1.66-1.08,1.1-1.62,2.55-1.62,4.32s.55,3.22,1.62,4.32c1.05,1.09,2.57,1.66,4.39,1.66s3.34-.57,4.39-1.66c1.08-1.1,1.62-2.55,1.62-4.32s-.55-3.22-1.62-4.32c-1.05-1.09-2.57-1.66-4.39-1.66ZM41.18,123.59c-.31.27-.67.46-1.05.59-.38.13-.77.19-1.14.19-.38,0-.76-.07-1.14-.19-.38-.13-.74-.32-1.05-.59-.7-.62-1.06-1.54-1.06-2.75s.35-2.07,1.06-2.71c.59-.52,1.32-.78,2.19-.78s1.6.26,2.19.78c.72.64,1.06,1.53,1.06,2.71s-.36,2.13-1.06,2.74Z"/>
          <path class="cls-3" d="M51.94,114.89c-1.82,0-3.34.58-4.39,1.66-1.08,1.1-1.62,2.55-1.62,4.32s.55,3.22,1.62,4.32c1.05,1.09,2.57,1.66,4.39,1.66s3.34-.57,4.39-1.66c1.08-1.1,1.62-2.55,1.62-4.32s-.55-3.22-1.62-4.32c-1.05-1.09-2.57-1.66-4.39-1.66ZM54.14,123.59c-.31.27-.67.46-1.05.59-.39.13-.76.19-1.14.19-.38,0-.76-.07-1.14-.19-.38-.13-.74-.32-1.05-.59-.7-.62-1.06-1.54-1.06-2.75s.35-2.07,1.06-2.71c.59-.52,1.32-.78,2.19-.78s1.6.26,2.19.78c.72.64,1.06,1.53,1.06,2.71s-.36,2.13-1.06,2.74Z"/>
          <path class="cls-3" d="M24,120.87c0,.49.11,1.27.41,1.82.24.45.6.83,1.05,1.14.51.35,1.15.53,1.86.53.33,0,.66-.04.99-.12.87-.21,1.64-.69,2.33-1.46l.08-.09,1.79,1.74s-.5.57-1.07,1c-1.14.84-2.53,1.41-4.2,1.41-2.03,0-3.86-.9-4.87-2.31-.76-1.07-1.11-2.37-1.11-3.67s.35-2.61,1.11-3.67c1.01-1.41,2.84-2.31,4.87-2.31,1.67,0,3.06.56,4.2,1.41.57.42,1.07,1,1.07,1l-1.79,1.74-.08-.09c-.7-.77-1.46-1.24-2.33-1.46-.33-.08-.66-.12-.99-.12-.71,0-1.36.18-1.86.53-.45.31-.81.7-1.05,1.14-.3.55-.41,1.33-.41,1.82Z"/>
        </g>
        <path class="cls-1" d="M83.49,64.62c-.25,0-.5-.02-.75-.04l.29-2.32c.14-1.17-.66-2.24-1.79-2.39-1.13-.14-2.16.68-2.31,1.85,0,0-.86,6.94-1.65,13.4h-26.9c-1.14,0-2.07.96-2.07,2.14s.92,2.13,2.07,2.13h26.38c-.37,2.93-.65,5.32-.77,6.24h-31.13c.39-3.18,2.02-16.41,2.63-21.42-.07,0-.15,0-.22,0-4.87,0-8.84-3.94-8.84-8.77s3.97-8.77,8.84-8.77c2.78,0,5.25,1.28,6.88,3.26.22.31.52.31.58-.11.44-4.43,4.22-7.91,8.8-7.91s8.07,3.21,8.73,7.4c-.32.56-.6,1.14-.84,1.74l3.69,1.99c1.18-3.47,4.49-5.97,8.38-5.97,4.87,0,8.84,3.93,8.84,8.77s-3.97,8.77-8.84,8.77Z"/>
      </g>
    </g>
  </g>
</svg>