<svg width="320" height="320" viewBox="0 0 320 320" fill="none" xmlns="http://www.w3.org/2000/svg">
<rect width="320" height="320" fill="white"/>
<g clip-path="url(#clip0_835_2194)">
<path d="M261.149 15H58.3419C47.1074 15 38 24.1058 38 35.3385V284.662C38 295.894 47.1074 305 58.3419 305H261.149C272.383 305 281.491 295.894 281.491 284.662V35.3385C281.491 24.1058 272.383 15 261.149 15Z" fill="white"/>
<path d="M241.419 137.031C241.419 92.1061 204.983 55.6768 160.051 55.6768C115.119 55.6768 78.6836 92.1061 78.6836 137.031C78.6836 181.955 115.119 218.384 160.051 218.384C204.983 218.384 241.419 181.955 241.419 137.031Z" fill="#FF9933"/>
<path d="M197.768 96.9087C191.97 96.9087 186.65 98.9177 182.421 102.266C178.651 93.3308 169.829 87.0552 159.572 87.0552C150.884 87.0552 143.23 91.5897 138.79 98.4202C135.652 96.9661 132.15 96.1625 128.457 96.1625C114.774 96.1625 103.637 107.355 103.637 121.112C103.637 131.922 110.507 141.125 120.094 144.607L115.425 182.453C115.272 183.601 115.635 184.787 116.382 185.686C117.147 186.547 118.219 187.064 119.348 187.064H186.88C188.87 187.064 190.554 185.533 190.803 183.486L195.319 146.731C196.123 146.808 196.926 146.865 197.749 146.865C211.432 146.865 222.55 135.653 222.55 121.896C222.55 108.14 211.412 96.947 197.749 96.947L197.768 96.9087ZM197.768 138.638C197.29 138.638 196.811 138.6 196.333 138.561L196.888 134.123C197.156 131.884 195.625 129.837 193.463 129.55C191.3 129.282 189.329 130.851 189.042 133.089C189.042 133.089 187.396 146.368 185.885 158.728H134.408C132.226 158.728 130.447 160.564 130.447 162.822C130.447 165.08 132.207 166.897 134.408 166.897H184.89C184.182 172.503 183.646 177.076 183.416 178.837H123.845C124.591 172.752 127.71 147.439 128.878 137.853C128.744 137.853 128.59 137.853 128.457 137.853C119.137 137.853 111.54 130.315 111.54 121.074C111.54 111.833 119.137 104.294 128.457 104.294C133.776 104.294 138.503 106.743 141.622 110.531C142.043 111.125 142.617 111.125 142.732 110.321C143.574 101.845 150.808 95.1867 159.572 95.1867C168.337 95.1867 175.015 101.328 176.278 109.345C175.666 110.417 175.13 111.526 174.671 112.674L181.732 116.482C183.99 109.843 190.324 105.059 197.768 105.059C207.088 105.059 214.685 112.579 214.685 121.839C214.685 131.1 207.088 138.619 197.768 138.619V138.638Z" fill="#401C00"/>
<path d="M207.912 234.858C205.73 234.858 203.032 235.26 200.583 236.102C200.066 236.274 199.128 236.676 199.128 236.676L200.334 241.019L200.544 240.942C200.544 240.942 201.367 240.694 201.846 240.541C201.865 240.541 204.735 239.546 207.242 239.546C208.945 239.546 210.208 239.89 210.993 240.579C211.72 241.191 212.103 242.263 212.141 243.774H207.778C204.582 243.774 202.056 244.444 200.296 245.783C198.612 247.046 197.77 248.806 197.77 251.006C197.77 253.035 198.497 254.699 199.932 255.962C201.233 257.091 202.898 257.665 205.003 257.741C205.099 257.741 205.214 257.741 205.328 257.741C206.687 257.741 208.467 257.646 210.246 256.919C210.782 256.689 211.452 256.402 212.141 255.962V257.722H217.059V243.506C217.059 241.153 216.313 239.163 214.858 237.594C213.213 235.777 210.897 234.858 207.95 234.858H207.912ZM212.103 248.404V250.318C211.529 251.006 210.61 251.714 209.596 252.231C208.486 252.786 207.529 253.073 206.496 253.13C203.836 253.302 202.305 252.422 202.305 250.777C202.305 249.916 203.166 249.189 204.027 248.844C205.06 248.443 206.649 248.385 208.199 248.385H212.084L212.103 248.404Z" fill="#401C00"/>
<path d="M184.697 234.82C182.65 234.82 180.813 235.241 179.243 236.044V234.82H174V264.323H179.243V256.498C180.813 257.32 182.65 257.722 184.697 257.722C188.027 257.722 190.725 256.651 192.754 254.546C194.763 252.422 195.777 249.629 195.777 246.261C195.777 242.894 194.763 240.12 192.734 237.996C190.725 235.891 188.008 234.82 184.678 234.82H184.697ZM180.621 251.485C180.066 250.968 179.588 250.279 179.224 249.418C178.861 248.557 178.669 247.505 178.669 246.261C178.669 245.018 178.861 243.946 179.224 243.104C180.258 240.732 182.037 239.565 184.697 239.565C186.305 239.565 187.663 240.062 188.754 241.057C190.075 242.282 190.725 244.023 190.725 246.242C190.725 248.462 190.055 250.318 188.754 251.504C188.18 252.02 187.529 252.384 186.802 252.633C185.348 253.13 183.989 253.13 182.516 252.633C181.808 252.403 181.176 252.02 180.602 251.504L180.621 251.485Z" fill="#401C00"/>
<path d="M236.155 228.181V236.044C234.586 235.222 232.749 234.82 230.701 234.82C227.371 234.82 224.673 235.891 222.645 237.996C220.635 240.12 219.621 242.913 219.621 246.281C219.621 249.648 220.635 252.422 222.664 254.546C224.673 256.651 227.39 257.722 230.72 257.722C232.768 257.722 234.605 257.301 236.174 256.498V257.722H241.417V228.181H236.174H236.155ZM236.729 246.3C236.729 247.543 236.538 248.615 236.174 249.457C235.141 251.829 233.361 252.996 230.701 252.996C229.094 252.996 227.735 252.499 226.644 251.504C225.324 250.279 224.673 248.538 224.673 246.319C224.673 244.099 225.343 242.243 226.644 241.057C227.218 240.541 227.869 240.177 228.596 239.928C229.323 239.68 230.031 239.565 230.739 239.565C231.447 239.565 232.155 239.68 232.883 239.928C233.591 240.158 234.222 240.541 234.796 241.057C235.351 241.574 235.83 242.263 236.193 243.124C236.557 243.985 236.748 245.037 236.748 246.281L236.729 246.3Z" fill="#401C00"/>
<path d="M171.553 238.857L168.3 234.724L156.837 243.736V228.181H151.594V257.722H156.837V250.413L159.631 248.232L167.821 257.818L171.821 254.412L163.764 244.98L171.553 238.857Z" fill="#401C00"/>
<path d="M112.614 234.82C109.131 234.82 106.223 235.93 104.213 237.996C102.147 240.101 101.113 242.875 101.113 246.261C101.113 249.648 102.166 252.422 104.213 254.527C106.223 256.612 109.131 257.703 112.614 257.703C116.097 257.703 119.006 256.612 121.015 254.527C123.082 252.422 124.115 249.648 124.115 246.261C124.115 242.875 123.063 240.101 121.015 237.996C119.006 235.91 116.097 234.82 112.614 234.82ZM116.805 251.466C116.212 251.982 115.523 252.346 114.796 252.594C114.069 252.843 113.322 252.958 112.614 252.958C111.887 252.958 111.16 252.824 110.433 252.594C109.705 252.346 109.017 251.982 108.423 251.466C107.084 250.279 106.395 248.519 106.395 246.204C106.395 243.889 107.065 242.243 108.423 241.019C109.552 240.024 110.949 239.527 112.614 239.527C114.279 239.527 115.676 240.024 116.805 241.019C118.183 242.243 118.834 243.946 118.834 246.204C118.834 248.462 118.145 250.279 116.805 251.446V251.466Z" fill="#401C00"/>
<path d="M137.395 234.82C133.913 234.82 131.004 235.93 128.995 237.996C126.928 240.101 125.895 242.875 125.895 246.261C125.895 249.648 126.947 252.422 128.995 254.527C131.004 256.612 133.913 257.703 137.395 257.703C140.878 257.703 143.787 256.612 145.796 254.527C147.863 252.422 148.896 249.648 148.896 246.261C148.896 242.875 147.844 240.101 145.796 237.996C143.787 235.91 140.878 234.82 137.395 234.82ZM141.605 251.466C141.012 251.982 140.323 252.346 139.596 252.594C138.85 252.843 138.142 252.958 137.415 252.958C136.687 252.958 135.96 252.824 135.233 252.594C134.506 252.346 133.817 251.982 133.224 251.466C131.884 250.279 131.195 248.519 131.195 246.204C131.195 243.889 131.865 242.243 133.224 241.019C134.353 240.024 135.75 239.527 137.415 239.527C139.079 239.527 140.476 240.024 141.605 241.019C142.983 242.243 143.634 243.946 143.634 246.204C143.634 248.462 142.945 250.279 141.605 251.446V251.466Z" fill="#401C00"/>
<path d="M83.9269 246.262C83.9269 247.199 84.1374 248.691 84.7115 249.744C85.1708 250.605 85.8597 251.332 86.7208 251.925C87.6968 252.595 88.9215 252.939 90.2802 252.939C90.9117 252.939 91.5432 252.862 92.1747 252.709C93.8396 252.308 95.3131 251.389 96.6335 249.916L96.7866 249.744L100.212 253.073C100.212 253.073 99.2551 254.163 98.1644 254.986C95.9828 256.593 93.3229 257.684 90.1271 257.684C86.2424 257.684 82.7405 255.962 80.8077 253.264C79.3534 251.217 78.6836 248.73 78.6836 246.242C78.6836 243.755 79.3534 241.249 80.8077 239.221C82.7405 236.523 86.2424 234.801 90.1271 234.801C93.3229 234.801 95.9828 235.872 98.1644 237.499C99.2551 238.302 100.212 239.412 100.212 239.412L96.7866 242.741L96.6335 242.569C95.2939 241.096 93.8396 240.196 92.1747 239.775C91.5432 239.622 90.9117 239.546 90.2802 239.546C88.9215 239.546 87.6777 239.89 86.7208 240.56C85.8597 241.153 85.1708 241.899 84.7115 242.741C84.1374 243.793 83.9269 245.286 83.9269 246.223V246.262Z" fill="#401C00"/>
<path d="M197.767 138.638C197.289 138.638 196.811 138.599 196.332 138.561L196.887 134.122C197.155 131.884 195.624 129.837 193.462 129.55C191.299 129.282 189.328 130.851 189.041 133.089C189.041 133.089 187.395 146.368 185.884 158.727H134.407C132.225 158.727 130.446 160.564 130.446 162.822C130.446 165.08 132.206 166.897 134.407 166.897H184.889C184.181 172.503 183.645 177.076 183.415 178.836H123.844C124.59 172.752 127.709 147.439 128.877 137.853C128.743 137.853 128.59 137.853 128.456 137.853C119.136 137.853 111.539 130.315 111.539 121.074C111.539 111.832 119.136 104.294 128.456 104.294C133.775 104.294 138.502 106.743 141.621 110.531C142.042 111.124 142.616 111.124 142.731 110.321C143.573 101.845 150.807 95.1865 159.571 95.1865C168.336 95.1865 175.014 101.328 176.277 109.345C175.665 110.416 175.129 111.526 174.67 112.674L181.731 116.482C183.989 109.842 190.323 105.059 197.767 105.059C207.087 105.059 214.684 112.578 214.684 121.839C214.684 131.099 207.087 138.619 197.767 138.619V138.638Z" fill="white"/>
</g>
<defs>
<clipPath id="clip0_835_2194">
<rect width="243.491" height="290" fill="white" transform="translate(38 15)"/>
</clipPath>
</defs>
</svg>
