<svg width="200" height="200" viewBox="0 0 200 200" fill="none" xmlns="http://www.w3.org/2000/svg">
<rect width="200" height="200" fill="white"/>
<g clip-path="url(#clip0_835_2594)">
<path d="M200 0H0V200H200V0Z" fill="white"/>
<path d="M118.716 88.1667L118.7 87.5L118.6 86.8333L119.15 86.6833L119.65 86.35L119.45 85.7667L119.2 85.2L118.6 85.3L118.1 85.5667L117.733 85L117.3 84.4833L117.716 84.0833L118 83.5333L117.533 83.1333L117.05 82.7667L116.566 83.15L116.266 83.6333L115.683 83.3167L115.05 83.0833L115.233 82.5333L115.2 81.9333L114.6 81.8167L113.983 81.75L113.75 82.3167L113.733 82.8833L113.066 82.9L112.4 83L112.25 82.45L111.916 81.95L111.333 82.15L110.766 82.4L110.866 83L111.133 83.5L110.566 83.8667L110.05 84.3L109.65 83.8833L109.1 83.6L108.7 84.0667L108.333 84.55L108.716 85.0333L109.2 85.3333L108.883 85.9167L108.65 86.55L108.1 86.3667L107.5 86.4L107.383 87L107.316 87.6167L107.883 87.85L108.45 87.8667L108.466 88.5333L108.566 89.2L108.016 89.35L107.516 89.6833L107.716 90.2667L107.966 90.8333L108.566 90.7333L109.066 90.4667L109.433 91.0333L109.866 91.55L109.45 91.95L109.166 92.5L109.633 92.9L110.116 93.2667L110.6 92.8833L110.9 92.4L111.483 92.7167L112.116 92.95L111.95 93.5L111.983 94.1L112.583 94.2167L113.2 94.2833L113.433 93.7167L113.45 93.15L114.116 93.1333L114.783 93.0333L114.933 93.5833L115.266 94.0833L115.85 93.8833L116.416 93.6333L116.316 93.0333L116.05 92.5333L116.616 92.1667L117.133 91.7333L117.533 92.15L118.083 92.4333L118.483 91.9667L118.85 91.4833L118.466 91L117.983 90.7L118.3 90.1167L118.533 89.4833L119.083 89.6667L119.683 89.6333L119.8 89.0333L119.866 88.4167L119.3 88.1833L118.716 88.1667ZM115.2 84.4L115.666 84.6333L116.083 84.9333L116.45 85.2833L116.783 85.6833L117.066 86.1167L117.283 86.5833L117.433 87.0833L117.516 87.6167L117.533 88.15L114.116 87.6L114.666 84.1833L115.2 84.4ZM109.933 86.3833L110.166 85.9167L110.466 85.5L110.816 85.1333L111.216 84.8L111.65 84.5167L112.116 84.3L112.616 84.15L113.15 84.0667L113.683 84.05L113.133 87.4667L109.716 86.9167L109.933 86.3833ZM111.933 91.6667L111.466 91.4333L111.05 91.1333L110.683 90.7833L110.35 90.3833L110.066 89.95L109.85 89.4833L109.7 88.9833L109.616 88.45L109.6 87.9167L113.016 88.4667L112.466 91.8833L111.933 91.6667ZM116.966 90.1167L116.666 90.5333L116.316 90.9L115.916 91.2333L115.483 91.5167L115.016 91.7333L114.516 91.8833L113.983 91.9667L113.45 91.9833L114 88.5667L117.416 89.1167L117.233 89.6L116.966 90.1167Z" fill="black"/>
<path d="M80.0151 78.6331L80.0318 77.8998L80.0151 77.1665L80.5818 77.1331L81.1484 76.8998L81.1151 76.3331L81.0484 75.7665L80.4651 75.6331L79.8984 75.7165L79.7818 74.9998L79.6484 74.2998L80.1984 74.1665L80.7151 73.8331L80.5818 73.2831L80.4318 72.7498L79.8318 72.7165L79.2984 72.8998L79.0651 72.2165L78.9818 72.0331L78.7984 71.5498L79.3318 71.3331L79.7818 70.9165L79.5484 70.3998L79.2984 69.8998L78.6984 69.9831L78.1984 70.2498L77.8484 69.6165L77.4651 68.9998L77.9484 68.6998L78.3151 68.2165L77.9984 67.7498L77.6651 67.2998L77.0818 67.4831L76.6318 67.8331L76.1818 67.2665L75.6984 66.7331L76.1318 66.3498L76.4151 65.8165L76.0318 65.4165L75.6318 65.0331L75.0984 65.3165L74.7151 65.7498L74.1818 65.2665L73.6151 64.8165L73.9651 64.3665L74.1484 63.7831L73.6984 63.4498L73.2318 63.1331L72.7484 63.4998L72.4484 63.9831L71.8318 63.5998L71.1984 63.2498L71.4651 62.7498L71.5484 62.1498L71.0484 61.8998L70.5318 61.6665L70.1151 62.1165L69.8984 62.6498L69.2151 62.3831L68.5318 62.1498L68.7151 61.6165L68.6818 61.0165L68.1484 60.8665L67.5984 60.7331L67.2651 61.2498L67.1318 61.7998L66.4318 61.6665L65.7151 61.5498L65.7984 60.9831L65.6651 60.3998L65.0984 60.3331L64.5318 60.2998L64.2984 60.8665L64.2651 61.4331L63.5318 61.4165L62.7984 61.4331L62.7651 60.8665L62.5318 60.2998L61.9651 60.3331L61.3984 60.3998L61.2651 60.9831L61.3484 61.5498L60.6318 61.6665L59.9318 61.7998L59.7984 61.2498L59.4651 60.7331L58.9151 60.8665L58.3818 61.0165L58.3484 61.6165L58.5318 62.1498L57.8484 62.3831L57.1318 62.6165L56.9151 62.0831L56.4984 61.6331L55.9818 61.8665L55.4818 62.1165L55.5651 62.7165L55.8318 63.2165L55.1984 63.5665L54.5818 63.9498L54.2818 63.4665L53.7984 63.0998L53.3318 63.4165L52.8818 63.7498L53.0651 64.3331L53.4151 64.7831L52.8484 65.2331L52.3318 65.6665L51.9484 65.2331L51.4151 64.9498L51.0151 65.3331L50.6318 65.7331L50.9151 66.2665L51.3484 66.6498L50.8651 67.1831L50.4151 67.7498L49.9651 67.3998L49.3818 67.2165L49.0484 67.6665L48.7318 68.1331L49.0984 68.6165L49.5818 68.9165L49.1984 69.5331L48.8484 70.1665L48.3484 69.8998L47.7484 69.8165L47.4984 70.3165L47.2651 70.8331L47.7151 71.2498L48.2484 71.4665L47.9818 72.1498L47.7484 72.8331L47.2151 72.6498L46.6151 72.6831L46.4651 73.2165L46.3318 73.7665L46.8484 74.0998L47.3984 74.2331L47.2651 74.9331L47.1484 75.6498L46.5818 75.5665L45.9984 75.6998L45.9318 76.2665L45.8984 76.8331L46.4651 77.0665L47.0318 77.0998L47.0151 77.8331L47.0318 78.5665L46.4651 78.5998L45.8984 78.8331L45.9318 79.3998L45.9984 79.9665L46.5818 80.0998L47.1484 80.0165L47.2651 80.7331L47.3984 81.4331L46.8484 81.5665L46.2818 81.9331L46.4151 82.4831L46.5651 83.0165L47.1651 83.0498L47.6984 82.8665L47.9318 83.5498L48.1984 84.2331L47.6651 84.4498L47.2151 84.8665L47.4484 85.3831L47.6984 85.8831L48.2984 85.7998L48.7984 85.5331L49.1484 86.1665L49.5318 86.7831L49.0484 87.0831L48.6818 87.5665L48.9984 88.0331L49.3318 88.4831L49.9151 88.2998L50.3651 87.9498L50.8151 88.5165L51.2984 89.0498L50.8651 89.4331L50.5818 89.9665L50.9651 90.3665L51.3651 90.7498L51.8984 90.4665L52.2818 90.0331L52.8151 90.5165L53.3818 90.9665L53.0318 91.4165L52.8484 91.9998L53.2984 92.3331L53.7651 92.6498L54.2484 92.2831L54.5484 91.7998L55.1651 92.1831L55.7984 92.5331L55.5318 93.0331L55.4484 93.6331L55.9484 93.8831L56.4651 94.1165L56.8818 93.6665L57.0984 93.1331L57.7818 93.3998L58.4651 93.6331L58.2818 94.1665L58.3151 94.7665L58.8484 94.9165L59.3984 95.0498L59.7318 94.5331L59.8651 93.9831L60.5651 94.1165L61.2818 94.2331L61.1651 94.8331L61.2984 95.4165L61.8651 95.4831L62.4318 95.5165L62.6651 94.9498L62.6984 94.3831L63.4318 94.3998L64.1651 94.3831L64.1984 94.9498L64.4318 95.5165L64.9984 95.4831L65.5651 95.4165L65.6984 94.8331L65.6151 94.2665L66.3318 94.1498L67.0318 94.0165L67.1651 94.5665L67.4984 95.0831L68.0484 94.9498L68.5818 94.7998L68.6151 94.1998L68.4318 93.6665L69.1151 93.4331L69.7984 93.1665L70.0151 93.6998L70.4318 94.1498L70.9484 93.9165L71.4484 93.6665L71.3651 93.0665L71.0984 92.5665L71.7318 92.2165L72.3484 91.8331L72.6484 92.3165L73.1318 92.6831L73.5984 92.3665L74.0484 92.0331L73.8651 91.4498L73.5151 90.9998L74.0818 90.5498L74.6151 90.0665L74.9984 90.4998L75.5318 90.7831L75.9318 90.3998L76.3151 89.9998L76.0318 89.4665L75.5984 89.0831L76.0818 88.5498L76.5318 87.9831L76.9818 88.3331L77.5651 88.5165L77.8984 88.0665L78.2151 87.5998L77.8484 87.1165L77.3651 86.8165L77.7484 86.1998L78.0984 85.5665L78.5984 85.8331L79.1984 85.9165L79.4484 85.4165L79.6818 84.8998L79.2318 84.4831L78.6984 84.2665L78.9651 83.5831L79.1984 82.8998L79.7318 83.0831L80.3318 83.0498L80.4818 82.5165L80.6151 81.9665L80.0984 81.6331L79.5484 81.4998L79.6818 80.7998L79.7984 80.0831L80.3651 80.1665L80.9484 80.0331L81.0151 79.4665L81.0484 78.8998L80.4818 78.6665L80.0151 78.6331ZM68.5318 78.7831L68.4818 79.0165L68.4318 79.2331L68.3651 79.4498L68.2818 79.6665L68.1984 79.8831L68.1151 80.0831L68.0151 80.2831L67.8984 80.4831L67.7818 80.6665L67.6484 80.8498L67.5151 81.0331L67.3818 81.2165L67.2318 81.3831L67.0818 81.5498L66.9151 81.6998L66.7484 81.8498L66.5651 81.9831L66.3818 82.1165L66.1984 82.2498L66.0151 82.3665L65.8151 82.4831L65.6151 82.5831L65.4151 82.6665L65.1984 82.7498L64.9818 82.8331L64.7651 82.8998L64.5484 82.9498L64.3151 82.9831L64.0818 83.0165L63.8484 83.0498L63.6151 83.0665H63.3818H63.1484L62.9151 83.0498L62.6818 83.0165L62.4484 82.9831L62.2151 82.9331L61.9984 82.8831L61.7984 82.8165L61.5818 82.7331L61.3651 82.6498L61.1651 82.5665L60.9651 82.4665L60.7651 82.3498L60.5818 82.2331L60.3984 82.0998L60.2151 81.9665L60.0318 81.8331L59.8651 81.6831L59.6984 81.5331L59.5484 81.3665L59.3984 81.1998L59.2651 81.0165L59.1318 80.8331L58.9984 80.6498L58.8818 80.4665L58.7651 80.2665L58.6651 80.0665L58.5818 79.8665L58.4984 79.6498L58.4151 79.4331L58.3484 79.2165L58.2984 78.9998L58.2651 78.7665L58.2318 78.5331L58.1984 78.2998L58.1818 78.0665V77.8331V77.5998L58.1984 77.3665L58.2318 77.1331L58.2651 76.8998L58.3151 76.6665L58.3651 76.4498L58.4318 76.2331L58.5151 76.0165L58.5984 75.7998L58.6818 75.5998L58.7818 75.3998L58.8984 75.1998L59.0151 75.0165L59.1484 74.8331L59.2818 74.6498L59.4151 74.4665L59.5651 74.2998L59.7151 74.1331L59.8818 73.9831L60.0484 73.8331L60.2318 73.6998L60.4151 73.5665L60.5984 73.4331L60.7818 73.3165L60.9818 73.1998L61.1818 73.0998L61.3818 73.0165L61.5984 72.9331L61.8151 72.8498L62.0318 72.7831L62.2484 72.7331L62.4818 72.6998L62.7151 72.6665L62.9484 72.6331L63.1818 72.6165H63.4151H63.6484L63.8818 72.6331L64.1151 72.6665L64.3484 72.6998L64.5818 72.7498L64.7984 72.7998L65.0151 72.8665L65.2318 72.9498L65.4484 73.0331L65.6484 73.1165L65.8484 73.2165L66.0484 73.3331L66.2318 73.4498L66.4151 73.5831L66.5984 73.7165L66.7818 73.8498L66.9484 73.9998L67.1151 74.1498L67.2651 74.3165L67.4151 74.4831L67.5484 74.6665L67.6818 74.8498L67.8151 75.0331L67.9318 75.2165L68.0484 75.4165L68.1484 75.6165L68.2318 75.8165L68.3151 76.0331L68.3984 76.2498L68.4651 76.4665L68.5151 76.6831L68.5484 76.9165L68.5818 77.1498L68.6151 77.3831L68.6318 77.6165V77.8498V78.0831L68.6151 78.3165L68.5818 78.5498L68.5318 78.7831Z" fill="black"/>
<path d="M134.414 75.1165L134.481 74.4165L134.514 73.6998H135.098L135.664 73.4832L135.631 72.8998L135.581 72.3165L134.998 72.1832L134.431 72.2665L134.314 71.5665L134.148 70.8832L134.698 70.7332L135.181 70.3832L134.998 69.8332L134.798 69.2998L134.198 69.3332L133.664 69.5498L133.381 68.9165L133.048 68.2832L133.531 67.9998L133.914 67.5332L133.598 67.0498L133.264 66.5665L132.681 66.7498L132.231 67.0998L131.781 66.5498L131.298 66.0332L131.698 65.6332L131.948 65.0832L131.514 64.6998L131.081 64.3332L130.564 64.6665L130.214 65.1165L129.631 64.6998L129.031 64.3165L129.314 63.8332L129.414 63.2332L128.898 62.9665L128.364 62.7332L127.948 63.1832L127.731 63.7165L127.064 63.4665L126.381 63.2665L126.531 62.7165L126.481 62.1165L125.914 61.9832L125.348 61.8832L125.064 62.4165L124.981 62.9832L124.281 62.9165L123.564 62.8832V62.2998L123.348 61.7332L122.764 61.7665L122.181 61.8165L122.048 62.3998L122.131 62.9665L121.431 63.0832L120.748 63.2498L120.598 62.6998L120.248 62.2165L119.698 62.3998L119.164 62.5998L119.198 63.1998L119.414 63.7332L118.781 64.0165L118.148 64.3498L117.864 63.8665L117.398 63.4832L116.914 63.7998L116.431 64.1332L116.614 64.7165L116.964 65.1665L116.414 65.6165L115.898 66.0998L115.498 65.6998L114.948 65.4498L114.564 65.8832L114.198 66.3165L114.531 66.8332L114.981 67.1832L114.564 67.7665L114.181 68.3665L113.698 68.0832L113.098 67.9832L112.831 68.4998L112.598 69.0332L113.048 69.4498L113.581 69.6665L113.331 70.3332L113.131 71.0165L112.581 70.8665L111.981 70.9165L111.848 71.4832L111.748 72.0498L112.281 72.3332L112.848 72.4165L112.781 73.1165L112.748 73.8332H112.164L111.598 74.0498L111.631 74.6332L111.681 75.2165L112.264 75.3498L112.831 75.2665L112.948 75.9665L113.114 76.6498L112.564 76.7998L112.081 77.1498L112.264 77.6998L112.464 78.2332L113.064 78.1998L113.598 77.9832L113.881 78.6165L114.214 79.2498L113.731 79.5332L113.348 79.9998L113.664 80.4832L113.998 80.9665L114.581 80.7832L115.031 80.4332L115.481 80.9832L115.964 81.4998L115.564 81.8998L115.314 82.4498L115.748 82.8332L116.181 83.1998L116.698 82.8665L117.048 82.4165L117.631 82.8332L118.231 83.2165L117.948 83.6998L117.848 84.2998L118.364 84.5665L118.898 84.7998L119.314 84.3498L119.531 83.8165L120.198 84.0665L120.881 84.2665L120.731 84.8165L120.781 85.4165L121.348 85.5498L121.914 85.6498L122.198 85.1165L122.281 84.5498L122.981 84.6165L123.698 84.6498V85.2332L123.914 85.7998L124.498 85.7665L125.081 85.7165L125.214 85.1332L125.131 84.5665L125.831 84.4498L126.514 84.2832L126.664 84.8332L127.014 85.3165L127.564 85.1332L128.098 84.9332L128.064 84.3332L127.848 83.7998L128.481 83.5165L129.114 83.1832L129.398 83.6665L129.864 84.0498L130.348 83.7332L130.831 83.3998L130.648 82.8165L130.298 82.3665L130.848 81.9165L131.364 81.4332L131.764 81.8332L132.314 82.0832L132.698 81.6498L133.064 81.2165L132.731 80.6998L132.281 80.3498L132.698 79.7665L133.081 79.1665L133.564 79.4498L134.164 79.5498L134.431 79.0332L134.664 78.4998L134.214 78.0832L133.681 77.8665L133.931 77.1998L134.131 76.5165L134.681 76.6665L135.281 76.6165L135.414 76.0498L135.514 75.4832L134.981 75.1998L134.414 75.1165ZM131.231 76.2665L131.048 76.7498L130.831 77.2332L130.581 77.6998L130.298 78.1332L129.998 78.5665L129.664 78.9665L129.314 79.3498L128.931 79.7165L128.531 80.0498L128.098 80.3498L127.664 80.6332L127.198 80.8832L126.714 81.0998L126.231 81.2832L125.731 81.4332L125.214 81.5665L124.698 81.6498L124.181 81.6998L123.648 81.7165L123.114 81.6998L122.598 81.6498L122.081 81.5665L121.564 81.4498L121.064 81.2998L120.581 81.1165L120.098 80.8998L119.631 80.6498L119.198 80.3665L118.764 80.0665L118.364 79.7332L117.981 79.3832L117.664 78.9998L117.331 78.5998L117.031 78.1665L116.748 77.7332L116.498 77.2665L116.281 76.7832L116.098 76.2998L115.948 75.7998L115.814 75.2832L115.731 74.7665L115.681 74.2498L115.664 73.7165L115.681 73.1832L115.731 72.6665L115.814 72.1498L115.931 71.6332L116.081 71.1332L116.264 70.6498L116.481 70.1665L116.731 69.6998L117.014 69.2665L117.314 68.8332L117.648 68.4332L117.998 68.0498L118.381 67.6832L118.781 67.3498L119.214 67.0498L119.648 66.7665L120.114 66.5165L120.598 66.2998L121.081 66.1165L121.581 65.9665L122.098 65.8332L122.614 65.7498L123.131 65.6998L123.664 65.6832L124.198 65.6998L124.714 65.7498L125.231 65.8332L125.748 65.9498L126.248 66.0998L126.731 66.2832L127.214 66.4998L127.681 66.7498L128.114 67.0332L128.548 67.3332L128.948 67.6665L129.331 68.0165L129.698 68.3998L130.031 68.7998L130.331 69.2332L130.614 69.6665L130.864 70.1332L131.081 70.6165L131.264 71.0998L131.414 71.5998L131.548 72.1165L131.631 72.6332L131.681 73.1498L131.698 73.6832L131.681 74.2165L131.631 74.7332L131.548 75.2498L131.431 75.7665L131.231 76.2665Z" fill="black"/>
<path d="M91.7664 111.7L92.3331 111.733L92.9164 111.55L92.9331 110.983V110.417L92.3497 110.233L91.7831 110.25L91.7497 109.533L91.6664 108.833L92.2331 108.767L92.7664 108.483L92.6831 107.917L92.5831 107.367L91.9831 107.283L91.4164 107.4L91.2497 106.7L91.0664 106.017L91.6164 105.85L92.0997 105.483L91.9164 104.95L91.7164 104.417L91.1164 104.433L90.5831 104.65L90.2997 103.983L89.9831 103.333L90.4997 103.083L90.9164 102.65L90.6497 102.15L90.3664 101.667L89.7831 101.8L89.2997 102.1L88.9164 101.5L88.4997 100.917L88.9497 100.583L89.2831 100.083L88.9331 99.65L88.5664 99.2166L87.9997 99.45L87.5664 99.8333L87.0831 99.3L86.5664 98.8L86.9497 98.3833L87.1831 97.8333L86.7497 97.45L86.3164 97.0833L85.7997 97.4L85.4497 97.85L84.8664 97.4166L84.2831 97L84.5997 96.5166L84.7331 95.9333L84.2497 95.6333L83.7664 95.35L83.3164 95.75L83.0331 96.25L82.3997 95.9166L81.7497 95.6166L81.9831 95.0833L82.0164 94.4833L81.4831 94.2666L80.9497 94.0833L80.5664 94.5666L80.3831 95.1L79.6997 94.8833L78.9997 94.7L79.1331 94.15L79.0497 93.55L78.4997 93.4333L77.9497 93.3333L77.6664 93.8666L77.5831 94.4333L76.8664 94.35L76.1497 94.3L76.1831 93.7333L75.9997 93.15L75.4331 93.1333H74.8664L74.6831 93.7166L74.6997 94.2833L73.9831 94.3166L73.2664 94.4L73.1997 93.8333L72.9164 93.3L72.3497 93.3833L71.7997 93.4833L71.7164 94.0833L71.8331 94.65L71.1331 94.8166L70.4497 95L70.2831 94.45L69.9164 93.9666L69.3831 94.15L68.8497 94.35L68.8664 94.95L69.0831 95.4833L68.4164 95.7666L67.7664 96.0833L67.5164 95.5666L67.0831 95.15L66.5831 95.4166L66.0997 95.7L66.2331 96.2833L66.5331 96.7666L65.9331 97.15L65.3497 97.5666L65.0164 97.1166L64.5164 96.7833L64.0831 97.1333L63.6497 97.5L63.8831 98.0666L64.2664 98.5L63.7331 98.9833L63.2331 99.5L62.8164 99.1166L62.2664 98.8833L61.8831 99.3166L61.5164 99.75L61.8331 100.267L62.2831 100.617L61.8497 101.2L61.4331 101.783L60.9497 101.467L60.3664 101.333L60.0664 101.817L59.7831 102.3L60.1831 102.75L60.6831 103.033L60.3497 103.667L60.0497 104.317L59.5164 104.083L58.9164 104.05L58.6997 104.583L58.5164 105.117L58.9997 105.5L59.5331 105.683L59.3164 106.367L59.1331 107.067L58.5831 106.933L57.9831 107.017L57.8664 107.567L57.7664 108.117L58.2997 108.4L58.8664 108.483L58.7831 109.2L58.7331 109.917L58.1664 109.883L57.5831 110.067L57.5664 110.633V111.2L58.1497 111.383L58.7164 111.367L58.7497 112.083L58.8331 112.8L58.2664 112.867L57.7331 113.15L57.8164 113.717L57.9164 114.267L58.5164 114.35L59.0831 114.233L59.2497 114.933L59.4331 115.617L58.8831 115.783L58.3997 116.15L58.5831 116.683L58.7831 117.217L59.3831 117.2L59.9164 116.983L60.1997 117.65L60.5164 118.3L59.9997 118.55L59.5831 118.983L59.8497 119.483L60.1331 119.967L60.7164 119.833L61.1997 119.533L61.5831 120.133L61.9997 120.717L61.5497 121.05L61.2164 121.55L61.5664 121.983L61.9331 122.417L62.4997 122.183L62.9331 121.8L63.4164 122.333L63.9331 122.833L63.5497 123.25L63.3164 123.8L63.7497 124.183L64.1831 124.55L64.6997 124.233L65.0497 123.783L65.6331 124.217L66.2164 124.633L65.8997 125.117L65.7664 125.7L66.2497 126L66.7331 126.283L67.1831 125.883L67.4664 125.383L68.0997 125.717L68.7497 126.017L68.5164 126.55L68.4831 127.15L69.0164 127.367L69.5497 127.55L69.9331 127.067L70.1164 126.533L70.7997 126.75L71.4997 126.933L71.3664 127.483L71.4497 128.083L71.9997 128.2L72.5497 128.3L72.8331 127.767L72.9164 127.2L73.6331 127.283L74.3497 127.333L74.3164 127.9L74.4997 128.483L75.0664 128.5H75.6331L75.8164 127.917L75.7997 127.35L76.5164 127.317L77.2331 127.233L77.2997 127.8L77.5831 128.333L78.1497 128.25L78.6997 128.15L78.7831 127.55L78.6664 126.983L79.3664 126.817L80.0497 126.633L80.2164 127.183L80.5831 127.667L81.1164 127.483L81.6497 127.283L81.6331 126.683L81.4164 126.15L82.0831 125.867L82.7331 125.55L82.9831 126.067L83.4164 126.483L83.9164 126.217L84.3997 125.933L84.2664 125.35L83.9664 124.867L84.5664 124.483L85.1497 124.067L85.4831 124.517L85.9831 124.85L86.4164 124.5L86.8497 124.133L86.6164 123.567L86.2331 123.133L86.7664 122.65L87.2664 122.133L87.6831 122.517L88.2331 122.75L88.6164 122.317L88.9831 121.883L88.6664 121.367L88.2164 121.017L88.6497 120.433L89.0664 119.85L89.5497 120.167L90.1331 120.3L90.4331 119.817L90.7164 119.333L90.3164 118.883L89.8164 118.6L90.1497 117.967L90.4497 117.317L90.9831 117.55L91.5831 117.583L91.7997 117.05L91.9831 116.517L91.4997 116.133L90.9664 115.95L91.1831 115.267L91.3664 114.567L91.9164 114.7L92.5164 114.617L92.6331 114.067L92.7331 113.517L92.1997 113.233L91.6331 113.15L91.7164 112.433L91.7664 111.7ZM88.7497 108.567L88.8331 109.15L88.8997 109.733L88.9331 110.333V110.933L88.8997 111.533L84.1164 111.05L83.9997 109.167L88.6497 107.983L88.7497 108.567ZM82.2497 113.483L81.9997 114.017L81.7164 114.55L80.8831 115.7L80.4664 116.133L80.0331 116.55L78.8497 117.35L78.3164 117.617L77.7664 117.85L76.3831 118.2L75.7997 118.267L75.1997 118.3L73.7831 118.167L73.1997 118.017L72.6164 117.833L71.3331 117.217L70.8497 116.883L70.3664 116.517L69.3831 115.5L69.0331 115.017L68.6997 114.517L68.1164 113.217L67.9497 112.633L67.8164 112.05L67.7164 110.633L67.7664 110.033L67.8497 109.45L68.2331 108.083L68.4831 107.55L68.7664 107.017L69.5997 105.867L70.0164 105.433L70.4497 105.017L71.6331 104.217L72.1664 103.95L72.7164 103.717L74.0997 103.367L74.6831 103.3L75.2831 103.267L76.6997 103.4L77.2831 103.55L77.8664 103.733L79.1497 104.35L79.6331 104.683L80.1164 105.05L81.0997 106.067L81.4497 106.55L81.7831 107.05L82.3664 108.35L82.5331 108.933L82.6664 109.517L82.7664 110.933L82.7164 111.517L82.6331 112.1L82.2497 113.483ZM87.1831 104.083L87.4664 104.617L87.7331 105.15L87.9664 105.7L88.1831 106.267L88.3664 106.833L83.7164 108.017L82.9331 106.267L86.8997 103.55L87.1831 104.083ZM84.1831 100.383L84.6164 100.783L85.0497 101.2L85.4664 101.633L85.8497 102.083L86.2164 102.567L82.2497 105.283L80.9164 103.917L83.7331 100.017L84.1831 100.383ZM80.0831 97.95L80.6331 98.1833L81.1664 98.4333L81.6997 98.7166L82.2164 99L82.7164 99.3166L79.8997 103.217L78.1831 102.383L79.4831 97.7666L80.0831 97.95ZM75.3997 97.0833L75.9997 97.1166L76.5831 97.1666L77.1664 97.25L77.7497 97.35L78.3331 97.4833L77.0331 102.1L75.1331 101.917L74.7664 97.1166L75.3997 97.0833ZM70.7164 97.8333L71.2831 97.65L71.8664 97.4833L72.4497 97.35L73.0331 97.2333L73.6164 97.15L73.9831 101.95L72.1331 102.433L70.1664 98.05L70.7164 97.8333ZM66.5497 100.167L67.0331 99.8L67.5164 99.45L68.0164 99.1166L68.5331 98.8166L69.0664 98.5333L71.0331 102.917L69.4497 104L66.0997 100.567L66.5497 100.167ZM63.4497 103.783L63.7664 103.283L64.0997 102.8L64.4664 102.317L64.8497 101.85L65.2497 101.417L68.5997 104.85L67.4831 106.4L63.1497 104.317L63.4497 103.783ZM61.7831 108.233L61.9164 107.65L62.0664 107.067L62.2497 106.483L62.4497 105.917L62.6831 105.367L67.0164 107.45L66.4997 109.283L61.7164 108.8L61.7831 108.233ZM61.7164 112.983L61.6331 112.4L61.5664 111.817L61.5331 111.217V110.617L61.5664 110.017L66.3497 110.5L66.4831 112.4L61.8331 113.583L61.7164 112.983ZM63.2831 117.483L62.9997 116.95L62.7331 116.417L62.4997 115.867L62.2831 115.3L62.0997 114.733L66.7497 113.55L67.5331 115.3L63.5831 118L63.2831 117.483ZM66.2997 121.15L65.8664 120.75L65.4331 120.333L65.0164 119.9L64.6331 119.45L64.2664 118.967L68.2331 116.25L69.5664 117.617L66.7497 121.517L66.2997 121.15ZM70.3831 123.583L69.8331 123.35L69.2997 123.1L68.7664 122.817L68.2497 122.533L67.7497 122.217L70.5664 118.317L72.2831 119.15L70.9831 123.767L70.3831 123.583ZM75.0664 124.483L74.4664 124.45L73.8831 124.4L73.2997 124.317L72.7164 124.217L72.1331 124.083L73.4331 119.467L75.3331 119.65L75.6997 124.45L75.0664 124.483ZM79.7664 123.717L79.1997 123.9L78.6164 124.067L78.0331 124.2L77.4497 124.317L76.8664 124.4L76.4997 119.6L78.3497 119.117L80.3164 123.5L79.7664 123.717ZM83.9164 121.383L83.4331 121.75L82.9497 122.1L82.4497 122.433L81.9331 122.733L81.3997 123.017L79.4331 118.633L81.0164 117.55L84.3664 120.983L83.9164 121.383ZM87.0164 117.783L86.6997 118.283L86.3664 118.767L85.9997 119.25L85.6164 119.717L85.2164 120.15L81.8664 116.717L82.9831 115.167L87.3164 117.25L87.0164 117.783ZM88.6997 113.333L88.5664 113.917L88.4164 114.5L88.2331 115.083L88.0331 115.65L87.7997 116.2L83.4664 114.117L83.9831 112.283L88.7664 112.767L88.6997 113.333Z" fill="black"/>
<path d="M117.797 51.1999L118.363 51.1499L118.93 50.8832L118.88 50.3332L118.813 49.7832L118.213 49.6666L117.647 49.7666L117.513 49.0499L117.363 48.3332L117.913 48.1999L118.413 47.8832L118.28 47.3499L118.147 46.8165L117.547 46.7832L116.997 46.9499L116.797 46.2499L116.563 45.5499L117.097 45.3666L117.563 44.9832L117.38 44.4665L117.163 43.9499L116.563 43.9832L116.063 44.1832L115.763 43.5332L115.447 42.8832L115.947 42.6166L116.347 42.1666L116.08 41.6832L115.797 41.1999L115.213 41.3166L114.73 41.5999L114.347 40.9832L113.947 40.3832L114.413 40.0499L114.763 39.5666L114.43 39.1166L114.097 38.6666L113.53 38.8666L113.08 39.2166L112.613 38.6666L112.113 38.1332L112.547 37.7499L112.83 37.2166L112.447 36.8166L112.047 36.4166L111.513 36.6832L111.113 37.0999L110.58 36.5999L110.047 36.1166L110.413 35.6999L110.63 35.1499L110.213 34.8166L109.78 34.4832L109.28 34.8166L108.947 35.2832L108.363 34.8666L107.747 34.4666L108.047 33.9832L108.163 33.3832L107.697 33.0999L107.213 32.8166L106.747 33.2166L106.463 33.7166L105.83 33.3832L105.18 33.0666L105.43 32.5499L105.48 31.9499L104.963 31.7166L104.447 31.4999L104.047 31.9666L103.83 32.4999L103.13 32.2166L102.43 31.9832L102.613 31.4332L102.58 30.8332L102.047 30.6666L101.513 30.5166L101.18 31.0166L101.03 31.5666L100.33 31.3999L99.6299 31.2499L99.7299 30.6832L99.6299 30.0832L99.0799 29.9832L98.5299 29.8999L98.2466 30.4499L98.1633 31.0166L97.4299 30.9499L96.6966 30.8999L96.7133 30.3332L96.5299 29.7666L95.9799 29.7332L95.4299 29.7166L95.2466 30.2832L95.2633 30.8499L94.5299 30.8832L93.7966 30.9332L93.7466 30.3666L93.4799 29.7999L92.9299 29.8499L92.3799 29.9166L92.2633 30.5166L92.3633 31.0832L91.6466 31.2166L90.9299 31.3666L90.7966 30.8166L90.4799 30.3166L89.9466 30.4499L89.4133 30.5832L89.3799 31.1832L89.5466 31.7332L88.8466 31.9332L88.1466 32.1666L87.9633 31.6332L87.5799 31.1666L87.0633 31.3499L86.5466 31.5666L86.5799 32.1666L86.8133 32.6832L86.1633 32.9832L85.5133 33.2999L85.2466 32.7999L84.7966 32.3999L84.3133 32.6666L83.8299 32.9499L83.9466 33.5332L84.2299 34.0166L83.6133 34.3999L83.0133 34.7999L82.6799 34.3332L82.1966 33.9832L81.7466 34.3166L81.2966 34.6499L81.4966 35.2166L81.8466 35.6666L81.2966 36.1332L80.7633 36.6332L80.3799 36.1999L79.8466 35.9166L79.4466 36.2999L79.0466 36.6999L79.3133 37.2332L79.7299 37.6332L79.2299 38.1666L78.7466 38.6999L78.3299 38.3332L77.7799 38.1166L77.4466 38.5332L77.1133 38.9666L77.4466 39.4666L77.9133 39.7999L77.4966 40.3832L77.0966 40.9999L76.6133 40.6999L76.0133 40.5832L75.7299 41.0499L75.4466 41.5332L75.8466 41.9999L76.3466 42.2832L76.0133 42.9166L75.6966 43.5666L75.1799 43.3166L74.5799 43.2666L74.3466 43.7832L74.1299 44.2999L74.5966 44.6999L75.1299 44.9166L74.8633 45.5999L74.6299 46.2999L74.0799 46.1166L73.4799 46.1499L73.3133 46.6832L73.1633 47.2165L73.6633 47.5499L74.2133 47.6999L74.0466 48.3999L73.8966 49.0999L73.3299 48.9999L72.7299 49.0999L72.6299 49.6499L72.5466 50.1999L73.0966 50.4832L73.6633 50.5665L73.5966 51.2999L73.5466 52.0332L72.9799 52.0166L72.4133 52.1999L72.3799 52.7499L72.3633 53.2999L72.9299 53.4832L73.4966 53.4665L73.5299 54.1999L73.5799 54.9332L73.0133 54.9832L72.4466 55.2499L72.4966 55.7999L72.5633 56.3499L73.1633 56.4665L73.7299 56.3666L73.8633 57.0832L74.0133 57.7999L73.4633 57.9332L72.9633 58.2499L73.0966 58.7832L73.2299 59.3165L73.8299 59.3499L74.3799 59.1832L74.5799 59.8832L74.8133 60.5832L74.2799 60.7666L73.8133 61.1499L73.9966 61.6665L74.2133 62.1832L74.8133 62.1499L75.3299 61.9165L75.6299 62.5665L75.9466 63.2165L75.4466 63.4832L75.0466 63.9332L75.3133 64.4165L75.5966 64.8999L76.1799 64.7832L76.6633 64.4999L77.0466 65.1166L77.4466 65.7165L76.9799 66.0499L76.6299 66.5332L76.9633 66.9832L77.2966 67.4332L77.8633 67.2332L78.3133 66.8832L78.7799 67.4332L79.2799 67.9665L78.8466 68.3499L78.5633 68.8832L78.9466 69.2832L79.3466 69.6832L79.8799 69.4165L80.2799 68.9999L80.8133 69.4999L81.3466 69.9832L80.9799 70.4499L80.7633 70.9999L81.1799 71.3332L81.6133 71.6665L82.1133 71.3332L82.4466 70.8666L83.0299 71.2832L83.6466 71.6832L83.3466 72.1665L83.2299 72.7665L83.6966 73.0499L84.1799 73.3332L84.6466 72.9332L84.9299 72.4332L85.5633 72.7665L86.2133 73.0832L85.9633 73.5999L85.9133 74.1999L86.4299 74.4332L86.9466 74.6499L87.3466 74.1832L87.5633 73.6499L88.2466 73.9166L88.9466 74.1499L88.7633 74.6999L88.7966 75.2999L89.3299 75.4665L89.8633 75.6166L90.1966 75.1166L90.3466 74.5665L91.0466 74.7332L91.7466 74.8832L91.6466 75.4499L91.7466 76.0499L92.2966 76.1499L92.8466 76.2332L93.1299 75.6832L93.2133 75.1166L93.9466 75.1832L94.6799 75.2332L94.6633 75.7999L94.8466 76.3666L95.3966 76.3999L95.9466 76.4166L96.1299 75.8499L96.1133 75.2832L96.8466 75.2499L97.5799 75.1999L97.6299 75.7665L97.8966 76.3332L98.4466 76.2832L98.9966 76.2165L99.1133 75.6166L99.0133 75.0499L99.7299 74.9166L100.447 74.7665L100.58 75.3165L100.897 75.8165L101.43 75.6832L101.963 75.5499L101.997 74.9499L101.83 74.3999L102.53 74.1999L103.23 73.9665L103.413 74.4999L103.797 74.9665L104.313 74.7832L104.83 74.5665L104.797 73.9665L104.563 73.4499L105.213 73.1499L105.863 72.8332L106.13 73.3332L106.58 73.7332L107.063 73.4665L107.547 73.1832L107.43 72.5999L107.147 72.1166L107.763 71.7332L108.363 71.3332L108.697 71.7999L109.18 72.1499L109.63 71.8165L110.08 71.4832L109.88 70.9165L109.53 70.4665L110.08 69.9999L110.613 69.4999L110.997 69.9332L111.53 70.2165L111.93 69.8332L112.33 69.4332L112.063 68.8999L111.647 68.4999L112.147 67.9665L112.63 67.4332L113.047 67.7999L113.597 68.0166L113.93 67.5999L114.263 67.1665L113.93 66.6665L113.463 66.3332L113.88 65.7499L114.28 65.1332L114.763 65.4332L115.363 65.5499L115.647 65.0832L115.93 64.5999L115.53 64.1332L115.03 63.8499L115.363 63.2165L115.68 62.5665L116.197 62.8165L116.797 62.8666L117.03 62.3499L117.247 61.8332L116.78 61.4332L116.247 61.2165L116.513 60.5332L116.747 59.8332L117.297 60.0166L117.897 59.9832L118.063 59.4499L118.213 58.9165L117.713 58.5832L117.163 58.4332L117.33 57.7332L117.48 57.0332L118.047 57.1332L118.647 57.0332L118.747 56.4832L118.83 55.9332L118.28 55.6499L117.713 55.5665L117.78 54.8332L117.83 54.0999L118.397 54.1166L118.963 53.9332L118.997 53.3832L119.013 52.8332L118.447 52.6499L117.88 52.6666L117.847 51.9332L117.797 51.1999ZM104.447 35.7666L105.013 36.0666L105.563 36.3999L106.097 36.7332L106.613 37.0832L107.147 37.4666L107.663 37.8499L108.163 38.2499L108.647 38.6666L109.113 39.0999L109.563 39.5332L109.997 39.9832L110.413 40.4666L110.813 40.9666L111.197 41.4666L111.563 41.9832L111.913 42.5166L112.263 43.0666L112.597 43.6166L112.897 44.1666L96.8299 51.7999L103.33 35.2499L103.913 35.5166L104.447 35.7666ZM88.4466 34.9999L89.0466 34.7666L89.6466 34.5666L90.2633 34.3666L90.8799 34.1999L91.4966 34.0499L92.1133 33.9166L92.7466 33.8166L93.3799 33.7332L94.0133 33.6666L94.6466 33.6332L95.2799 33.6166H95.9133L96.5466 33.6332L97.1799 33.6666L97.8299 33.7332L98.4633 33.8166L99.0966 33.9166L99.7133 34.0332L100.33 34.1832L100.93 34.3499L101.53 34.5332L102.13 34.7332L95.5799 51.4332L87.8799 35.2332L88.4466 34.9999ZM78.3133 44.2165L78.6133 43.6499L78.9466 43.0999L79.2799 42.5666L79.6299 42.0499L80.0133 41.5166L80.3966 40.9999L80.7966 40.4999L81.2133 40.0166L81.6466 39.5499L82.0799 39.0999L82.5299 38.6666L83.0133 38.2499L83.5133 37.8499L84.0133 37.4666L84.5299 37.0999L85.0633 36.7499L85.6133 36.3999L86.1633 36.0666L86.7133 35.7666L94.3799 51.8999L77.5466 45.9166L77.7799 45.3166L78.0466 44.7332L78.3133 44.2165ZM77.1299 59.0166L76.9299 58.3999L76.7633 57.7832L76.6133 57.1665L76.4799 56.5499L76.3799 55.9166L76.2966 55.2832L76.2299 54.6499L76.1966 54.0166L76.1799 53.3832V52.7499L76.1966 52.1166L76.2299 51.4832L76.2966 50.8332L76.3799 50.1999L76.4799 49.5665L76.5966 48.9499L76.7466 48.3332L76.9133 47.7332L77.0966 47.1332L93.9299 53.1166L77.7966 60.7832L77.5466 60.1832L77.3133 59.5832L77.1299 59.0166ZM86.7633 70.3499L86.1966 70.0499L85.6466 69.7165L85.1133 69.3832L84.5966 69.0332L84.0633 68.6499L83.5466 68.2666L83.0466 67.8666L82.5633 67.4499L82.0966 67.0166L81.6466 66.5832L81.2133 66.1332L80.7966 65.6499L80.3966 65.1499L80.0133 64.6499L79.6466 64.1332L79.2966 63.5999L78.9466 63.0499L78.6133 62.4999L78.3133 61.9499L94.3966 54.3165L87.8966 70.8666L87.3133 70.5999L86.7633 70.3499ZM101.58 71.5166L100.963 71.7165L100.347 71.8832L99.7299 72.0332L99.1133 72.1665L98.4799 72.2666L97.8466 72.3499L97.2133 72.4166L96.5799 72.4499L95.9466 72.4665H95.3133L94.6799 72.4499L94.0466 72.4166L93.3966 72.3499L92.7633 72.2666L92.1299 72.1665L91.5133 72.0499L90.8966 71.8999L90.2966 71.7332L89.6966 71.5499L89.0966 71.3499L95.6466 54.6499L103.33 70.8332L102.73 71.0832L102.13 71.3165L101.58 71.5166ZM113.413 60.7332L113.147 61.3165L112.863 61.8832L112.563 62.4499L112.23 62.9999L111.897 63.5332L111.547 64.0499L111.163 64.5832L110.78 65.0999L110.38 65.5999L109.963 66.0832L109.53 66.5499L109.097 66.9999L108.647 67.4332L108.163 67.8499L107.663 68.2499L107.163 68.6332L106.647 68.9999L106.113 69.3499L105.563 69.6999L105.013 70.0332L104.463 70.3332L96.7966 54.1999L113.63 60.1832L113.413 60.7332ZM115.013 52.6999V53.3332L114.997 53.9665L114.963 54.5999L114.897 55.2499L114.813 55.8832L114.713 56.5166L114.597 57.1332L114.447 57.7499L114.28 58.3499L114.097 58.9499L97.2633 52.9665L113.397 45.2999L113.647 45.8999L113.88 46.4999L114.08 47.0999L114.28 47.7165L114.447 48.3332L114.597 48.9499L114.73 49.5665L114.83 50.1999L114.913 50.8332L114.98 51.4665L115.013 52.0999V52.6999Z" fill="black"/>
<path d="M137.565 116.783H138.131L138.715 116.583L138.698 116.017L138.665 115.467L138.081 115.3L137.515 115.35L137.448 114.617L137.348 113.883L137.915 113.8L138.431 113.517L138.331 112.95L138.231 112.4L137.631 112.317L137.065 112.433L136.915 111.717L136.731 111L137.281 110.85L137.765 110.5L137.615 109.967L137.448 109.433L136.848 109.417L136.315 109.617L136.065 108.95L135.798 108.283L136.331 108.067L136.765 107.65L136.498 107.167L136.248 106.667L135.648 106.733L135.148 106.983L134.815 106.35L134.465 105.717L134.948 105.417L135.331 104.95L135.031 104.483L134.731 104.017L134.148 104.167L133.681 104.483L133.265 103.883L132.831 103.317L133.281 102.967L133.598 102.45L133.248 102.033L132.881 101.617L132.315 101.833L131.898 102.217L131.398 101.683L130.898 101.167L131.298 100.767L131.548 100.217L131.148 99.8333L130.731 99.4666L130.215 99.7666L129.848 100.2L129.298 99.7333L128.715 99.2833L129.065 98.8333L129.248 98.2499L128.798 97.9333L128.331 97.6166L127.848 97.9833L127.531 98.4666L126.915 98.0666L126.281 97.7L126.565 97.2L126.665 96.6166L126.165 96.3499L125.665 96.0999L125.231 96.5333L124.981 97.0499L124.315 96.7333L123.631 96.45L123.848 95.9166L123.865 95.3166L123.348 95.1166L122.831 94.9333L122.465 95.4166L122.281 95.95L121.598 95.7333L120.915 95.5333L121.065 94.9833L121.015 94.3833L120.481 94.2499L119.948 94.1333L119.631 94.6666L119.515 95.2166L118.798 95.0999L118.081 94.9999L118.148 94.4333L118.015 93.8499L117.465 93.7833L116.915 93.7333L116.665 94.2999L116.631 94.8666L115.898 94.8499H115.165V94.2833L114.965 93.7L114.415 93.7166L113.865 93.7499L113.698 94.3333L113.748 94.9L113.015 94.9666L112.281 95.0666L112.198 94.4999L111.915 93.9833L111.365 94.0833L110.815 94.1833L110.731 94.7833L110.848 95.3499L110.131 95.4999L109.415 95.6833L109.265 95.1333L108.915 94.65L108.381 94.7999L107.848 94.9666L107.831 95.5666L108.031 96.0999L107.365 96.3499L106.698 96.6166L106.481 96.0833L106.065 95.65L105.548 95.8833L105.048 96.1333L105.115 96.7333L105.365 97.2333L104.665 97.4999L104.048 97.8499L103.748 97.3666L103.281 96.9833L102.815 97.2833L102.348 97.5833L102.498 98.1666L102.815 98.6333L102.215 99.0499L101.648 99.4833L101.298 99.0333L100.781 98.7166L100.365 99.0666L99.9479 99.4333L100.165 99.9999L100.548 100.417L100.015 100.917L99.4979 101.417L99.0979 101.017L98.5479 100.767L98.1646 101.167L97.7979 101.583L98.0979 102.1L98.5312 102.467L98.0646 103.017L97.6146 103.6L97.1646 103.25L96.5812 103.067L96.2646 103.517L95.9479 103.983L96.3146 104.467L96.7979 104.783L96.3979 105.4L96.0312 106.033L95.5312 105.75L94.9479 105.65L94.6812 106.15L94.4312 106.65L94.8646 107.083L95.3812 107.333L95.0646 108L94.7812 108.683L94.2479 108.467L93.6479 108.45L93.4479 108.967L93.2646 109.483L93.7479 109.85L94.2812 110.033L94.0646 110.717L93.8646 111.4L93.3146 111.25L92.7146 111.3L92.5812 111.833L92.4646 112.367L92.9979 112.683L93.5479 112.8L93.4312 113.517L93.3312 114.233L92.7646 114.167L92.1812 114.3L92.1146 114.85L92.0646 115.4L92.6312 115.65L93.1979 115.683L93.1812 116.417V117.15H92.6146L92.0312 117.35L92.0479 117.9L92.0812 118.45L92.6646 118.617L93.2313 118.567L93.2979 119.3L93.3979 120.033L92.8312 120.117L92.3146 120.4L92.4146 120.95L92.5146 121.5L93.1146 121.583L93.6812 121.467L93.8312 122.183L94.0146 122.9L93.4646 123.05L92.9813 123.4L93.1312 123.933L93.2979 124.467L93.8979 124.483L94.4312 124.283L94.6812 124.95L94.9479 125.617L94.4146 125.833L93.9813 126.25L94.2146 126.767L94.4646 127.267L95.0646 127.2L95.5646 126.95L95.8979 127.583L96.2479 128.2L95.7646 128.5L95.3812 128.967L95.6812 129.433L95.9813 129.9L96.5646 129.75L97.0312 129.433L97.4479 130.033L97.8812 130.6L97.4312 130.95L97.1146 131.467L97.4646 131.883L97.8312 132.3L98.3979 132.083L98.8146 131.7L99.3146 132.233L99.8146 132.75L99.4146 133.15L99.1646 133.7L99.5646 134.083L99.9813 134.45L100.498 134.15L100.865 133.717L101.415 134.183L101.998 134.633L101.648 135.083L101.465 135.667L101.915 135.983L102.381 136.3L102.865 135.933L103.181 135.45L103.798 135.85L104.431 136.217L104.148 136.717L104.048 137.3L104.548 137.567L105.048 137.817L105.481 137.383L105.731 136.867L106.398 137.183L107.081 137.467L106.865 138L106.848 138.6L107.365 138.8L107.881 138.983L108.248 138.5L108.431 137.967L109.115 138.183L109.798 138.383L109.648 138.933L109.698 139.533L110.231 139.667L110.765 139.783L111.081 139.25L111.198 138.7L111.915 138.817L112.631 138.917L112.565 139.483L112.698 140.067L113.248 140.133L113.798 140.183L114.048 139.617L114.081 139.05L114.815 139.067H115.548L115.531 139.7L115.731 140.283L116.281 140.267L116.831 140.233L116.998 139.65L116.948 139.083L117.681 139.017L118.415 138.917L118.498 139.483L118.781 140L119.331 139.9L119.881 139.8L119.965 139.2L119.848 138.633L120.565 138.483L121.281 138.3L121.431 138.85L121.781 139.333L122.315 139.183L122.848 139.017L122.865 138.417L122.665 137.883L123.331 137.633L123.998 137.367L124.215 137.9L124.631 138.333L125.148 138.1L125.648 137.85L125.581 137.25L125.348 136.733L125.981 136.4L126.598 136.05L126.898 136.533L127.365 136.917L127.831 136.617L128.298 136.317L128.148 135.733L127.831 135.267L128.431 134.85L128.998 134.417L129.348 134.867L129.865 135.183L130.281 134.833L130.698 134.467L130.481 133.9L130.098 133.483L130.631 132.983L131.148 132.483L131.548 132.883L132.098 133.133L132.481 132.733L132.848 132.317L132.548 131.8L132.098 131.433L132.565 130.883L133.015 130.3L133.465 130.65L134.048 130.833L134.365 130.383L134.681 129.917L134.315 129.433L133.831 129.117L134.231 128.5L134.598 127.867L135.098 128.15L135.681 128.25L135.948 127.75L136.198 127.25L135.765 126.817L135.248 126.567L135.565 125.9L135.848 125.217L136.381 125.433L136.981 125.45L137.181 124.933L137.365 124.417L136.881 124.05L136.348 123.867L136.565 123.183L136.765 122.5L137.315 122.65L137.915 122.6L138.048 122.067L138.165 121.533L137.631 121.217L137.081 121.1L137.198 120.383L137.298 119.667L137.865 119.733L138.448 119.6L138.515 119.05L138.565 118.5L137.998 118.25L137.431 118.217L137.448 117.483L137.565 116.783ZM120.415 117.483L120.381 117.65L120.348 117.817L120.315 117.983L120.281 118.15L120.231 118.317L120.181 118.483L120.131 118.65L120.065 118.817L119.998 118.967L119.915 119.117L119.831 119.267L119.748 119.417L119.665 119.567L119.581 119.7L119.481 119.833L119.381 119.967L119.281 120.1L119.165 120.233L119.048 120.367L118.931 120.5L118.798 120.617L118.665 120.733L118.531 120.85L118.398 120.95L118.265 121.05L118.131 121.15L117.998 121.233L117.865 121.317L117.715 121.4L117.565 121.483L117.415 121.567L117.265 121.633L117.115 121.7L116.948 121.767L116.781 121.817L116.615 121.867L116.448 121.9L116.281 121.933L116.115 121.967L115.948 122L115.781 122.033L115.615 122.05L115.448 122.067H115.281H115.115H114.931L114.765 122.05L114.598 122.033L114.431 122L114.265 121.967L114.098 121.933L113.931 121.9L113.765 121.85L113.598 121.8L113.431 121.75L113.265 121.683L113.115 121.617L112.965 121.533L112.815 121.45L112.665 121.367L112.515 121.283L112.381 121.2L112.248 121.1L112.115 121L111.981 120.9L111.848 120.783L111.715 120.667L111.581 120.55L111.465 120.417L111.348 120.283L111.231 120.15L111.131 120.017L111.031 119.883L110.931 119.75L110.848 119.617L110.765 119.483L110.681 119.333L110.598 119.183L110.515 119.033L110.448 118.883L110.381 118.733L110.315 118.567L110.265 118.4L110.215 118.233L110.181 118.067L110.148 117.9L110.115 117.733L110.081 117.567L110.048 117.4L110.031 117.233L110.015 117.067V116.9V116.733L110.031 116.567L110.048 116.4L110.065 116.233L110.098 116.067L110.131 115.9L110.165 115.733L110.198 115.567L110.248 115.4L110.298 115.233L110.348 115.067L110.415 114.9L110.481 114.75L110.565 114.6L110.648 114.45L110.731 114.3L110.815 114.15L110.898 114.017L110.998 113.883L111.098 113.75L111.198 113.617L111.315 113.483L111.431 113.35L111.548 113.217L111.681 113.1L111.815 112.983L111.948 112.867L112.081 112.767L112.215 112.667L112.348 112.567L112.481 112.483L112.615 112.4L112.765 112.317L112.915 112.233L113.065 112.15L113.215 112.083L113.365 112.017L113.531 111.95L113.698 111.9L113.865 111.85L114.031 111.817L114.198 111.783L114.365 111.75L114.531 111.717L114.698 111.683L114.865 111.667L115.031 111.65H115.198H115.365L115.531 111.667L115.698 111.683L115.865 111.7L116.031 111.733L116.198 111.767L116.365 111.8L116.531 111.833L116.698 111.883L116.865 111.933L117.031 111.983L117.198 112.05L117.348 112.117L117.498 112.2L117.648 112.283L117.798 112.367L117.948 112.45L118.081 112.533L118.215 112.633L118.348 112.733L118.481 112.833L118.615 112.95L118.748 113.067L118.881 113.183L118.998 113.317L119.115 113.45L119.231 113.583L119.331 113.717L119.431 113.85L119.531 113.983L119.615 114.117L119.698 114.25L119.781 114.4L119.865 114.55L119.948 114.7L120.015 114.85L120.081 115L120.148 115.167L120.198 115.333L120.248 115.5L120.281 115.667L120.315 115.833L120.348 116L120.381 116.167L120.415 116.333L120.431 116.5L120.448 116.667V116.833V117L120.431 117.167L120.415 117.333V117.483Z" fill="black"/>
<path d="M150.516 91.4499H149.932L149.899 90.7332L149.832 90.0332L150.399 89.9499L150.932 89.6665L150.832 89.0998L150.699 88.5332L150.099 88.4832L149.549 88.6332L149.349 87.9499L149.099 87.2832L149.632 87.0665L150.082 86.6499L149.849 86.1165L149.582 85.5998L148.982 85.6999L148.499 85.9832L148.116 85.3832L147.699 84.7999L148.149 84.4499L148.482 83.9332L148.116 83.4999L147.732 83.0665L147.182 83.3165L146.782 83.7165L146.266 83.2332L145.716 82.7832L146.066 82.3332L146.249 81.7499L145.766 81.4165L145.282 81.0999L144.816 81.4832L144.532 81.9665L143.899 81.6332L143.266 81.3499L143.482 80.8165L143.516 80.2165L142.982 80.0165L142.432 79.8332L142.082 80.3165L141.932 80.8665L141.249 80.6999L140.549 80.5832L140.632 80.0165L140.499 79.4332L139.916 79.3832L139.332 79.3499L139.116 79.9165V80.4999L138.399 80.5332L137.699 80.5999L137.616 80.0332L137.332 79.4999L136.766 79.5999L136.199 79.7332L136.149 80.3332L136.299 80.8832L135.616 81.0832L134.949 81.3332L134.732 80.7999L134.316 80.3499L133.782 80.5832L133.266 80.8499L133.366 81.4499L133.649 81.9332L133.049 82.3165L132.466 82.7332L132.116 82.2832L131.599 81.9499L131.166 82.3165L130.732 82.6999L130.982 83.2499L131.382 83.6499L130.899 84.1665L130.449 84.7165L129.999 84.3665L129.416 84.1832L129.082 84.6665L128.766 85.1499L129.149 85.6165L129.632 85.8999L129.299 86.5332L129.016 87.1665L128.482 86.9499L127.882 86.9165L127.682 87.4499L127.499 87.9999L127.982 88.3498L128.532 88.4999L128.366 89.1832L128.249 89.8832L127.682 89.7999L127.099 89.9332L127.049 90.5165L127.016 91.0998L127.582 91.3165H128.166L128.199 92.0332L128.266 92.7332L127.699 92.8165L127.166 93.0998L127.266 93.6665L127.399 94.2332L127.999 94.2832L128.549 94.1332L128.749 94.8165L128.999 95.4832L128.466 95.6999L128.016 96.1165L128.249 96.6499L128.516 97.1665L129.116 97.0665L129.599 96.7832L129.982 97.3832L130.399 97.9665L129.949 98.3165L129.616 98.8332L129.982 99.2665L130.366 99.6999L130.916 99.4499L131.316 99.0499L131.832 99.5332L132.382 99.9832L132.032 100.433L131.849 101.017L132.332 101.35L132.816 101.667L133.282 101.283L133.566 100.8L134.199 101.133L134.832 101.417L134.649 101.95L134.616 102.55L135.149 102.75L135.699 102.933L136.049 102.45L136.199 101.9L136.882 102.067L137.582 102.183L137.499 102.75L137.632 103.333L138.216 103.383L138.799 103.417L139.016 102.85V102.267L139.732 102.233L140.432 102.167L140.516 102.733L140.799 103.267L141.366 103.167L141.932 103.033L141.982 102.433L141.832 101.883L142.516 101.683L143.182 101.433L143.399 101.967L143.816 102.417L144.349 102.183L144.866 101.917L144.766 101.317L144.482 100.833L145.082 100.45L145.666 100.033L146.016 100.483L146.532 100.817L146.966 100.45L147.399 100.067L147.149 99.5165L146.749 99.1165L147.232 98.5998L147.682 98.0499L148.132 98.3999L148.716 98.5832L149.049 98.0998L149.366 97.6165L148.982 97.1499L148.499 96.8665L148.832 96.2332L149.116 95.5998L149.649 95.8165L150.249 95.8498L150.449 95.3165L150.632 94.7665L150.149 94.4165L149.599 94.2665L149.766 93.5832L149.882 92.8832L150.449 92.9665L151.032 92.8332L151.082 92.2499L151.116 91.6665L150.516 91.4499ZM144.066 92.7665L143.966 93.0998L143.849 93.4165L143.716 93.7165L143.549 94.0165L143.366 94.2999L143.166 94.5832L142.949 94.8498L142.716 95.0998L142.466 95.3332L142.199 95.5499L141.916 95.7499L141.632 95.9332L141.332 96.0998L141.032 96.2332L140.716 96.3498L140.382 96.4499L140.049 96.5332L139.716 96.5832L139.382 96.6165L139.049 96.6332L138.716 96.6165L138.382 96.5832L138.049 96.5332L137.716 96.4499L137.382 96.3498L137.066 96.2332L136.766 96.0998L136.466 95.9332L136.182 95.7499L135.899 95.5499L135.632 95.3332L135.382 95.0998L135.149 94.8498L134.932 94.5832L134.732 94.2999L134.549 94.0165L134.382 93.7165L134.249 93.4165L134.132 93.0998L134.032 92.7665L133.949 92.4332L133.899 92.0998L133.866 91.7665L133.849 91.4332L133.866 91.0998L133.899 90.7665L133.949 90.4332L134.032 90.0998L134.132 89.7665L134.249 89.4499L134.382 89.1499L134.549 88.8498L134.732 88.5665L134.932 88.2832L135.149 88.0165L135.382 87.7665L135.632 87.5332L135.899 87.3165L136.182 87.1165L136.466 86.9332L136.766 86.7665L137.066 86.6332L137.382 86.5165L137.716 86.4165L138.049 86.3332L138.382 86.2832L138.716 86.2499L139.049 86.2332L139.382 86.2499L139.716 86.2832L140.049 86.3332L140.382 86.4165L140.716 86.5165L141.032 86.6332L141.332 86.7665L141.632 86.9332L141.916 87.1165L142.199 87.3165L142.466 87.5332L142.716 87.7665L142.949 88.0165L143.166 88.2832L143.366 88.5665L143.549 88.8498L143.716 89.1499L143.849 89.4499L143.966 89.7665L144.066 90.0998L144.149 90.4332L144.199 90.7665L144.232 91.0998L144.249 91.4332L144.232 91.7665L144.199 92.0998L144.149 92.4332L144.066 92.7665Z" fill="black"/>
<path d="M53.4318 161.9H48.7984C48.3651 161.9 48.1484 161.65 48.1484 161.25V148.633C48.1484 148.216 48.3818 147.983 48.7984 147.983H53.3484C53.7818 147.983 53.9984 148.233 53.9984 148.633V148.983C53.9984 149.416 53.7651 149.633 53.3484 149.633H50.0151V154.033H52.7484C53.1818 154.033 53.3984 154.283 53.3984 154.683V155.05C53.3984 155.466 53.1651 155.7 52.7484 155.7H50.0151V160.266H53.4318C53.8651 160.266 54.0818 160.5 54.0818 160.916V161.266C54.0818 161.683 53.8484 161.9 53.4318 161.9Z" fill="black"/>
<path d="M56.7971 161.9H56.3805C55.9471 161.9 55.7305 161.65 55.7305 161.25V148.633C55.7305 148.216 55.9638 147.983 56.3805 147.983H57.0305C57.4138 147.983 57.6638 148.166 57.7805 148.516L61.0805 157.583V148.65C61.0805 148.233 61.3305 148 61.7305 148H62.1471C62.5805 148 62.7971 148.25 62.7971 148.65V161.266C62.7971 161.683 62.5638 161.916 62.1471 161.916H61.5638C61.1805 161.916 60.9471 161.733 60.8305 161.383L57.4471 152.016V161.283C57.4638 161.683 57.2138 161.9 56.7971 161.9Z" fill="black"/>
<path d="M66.3641 161.9H65.8141C65.3807 161.9 65.1641 161.65 65.1641 161.25V148.633C65.1641 148.216 65.3974 147.983 65.8141 147.983H66.3641C66.7807 147.983 67.0141 148.233 67.0141 148.633V161.25C67.0141 161.683 66.7807 161.9 66.3641 161.9Z" fill="black"/>
<path d="M75.0305 152.9H74.5138C74.0805 152.9 73.8638 152.65 73.8638 152.25V151.016C73.8638 149.9 73.3305 149.466 72.3638 149.466C71.3971 149.466 70.8638 149.9 70.8638 151.016V151.966C70.8638 152.8 71.1638 153.116 71.9638 153.566L73.7805 154.566C74.9805 155.25 75.7305 155.916 75.7305 157.266V159.2C75.7305 161.283 74.4971 162.1 72.3971 162.1H72.3638C70.2638 162.1 69.0305 161.316 69.0305 159.2V157.483C69.0305 157.066 69.2638 156.833 69.6805 156.833H70.1971C70.6305 156.833 70.8471 157.083 70.8471 157.483V158.883C70.8471 159.983 71.3805 160.483 72.3471 160.483C73.3305 160.483 73.8471 160 73.8471 158.883V157.783C73.8471 156.95 73.5471 156.583 72.7305 156.133L70.9305 155.133C69.6638 154.4 68.9805 153.8 68.9805 152.466V150.666C68.9805 148.65 70.3805 147.8 72.2805 147.8H72.3138C74.2305 147.8 75.6138 148.65 75.6138 150.666V152.216C75.6971 152.666 75.4638 152.9 75.0305 152.9Z" fill="black"/>
<path d="M78.2984 147.967H78.8484C79.2651 147.967 79.4984 148.217 79.4984 148.617V153.967H82.7818V148.65C82.7818 148.233 83.0318 148 83.4318 148H83.9818C84.4151 148 84.6318 148.25 84.6318 148.65V161.267C84.6318 161.683 84.3984 161.917 83.9818 161.917H83.4318C83.0151 161.917 82.7818 161.667 82.7818 161.267V155.667H79.4984V161.267C79.4984 161.683 79.2484 161.917 78.8484 161.917H78.2984C77.8651 161.917 77.6484 161.667 77.6484 161.267V148.65C77.6484 148.217 77.8651 147.967 78.2984 147.967Z" fill="black"/>
<path d="M88.2 161.9H87.65C87.2167 161.9 87 161.65 87 161.25V148.633C87 148.216 87.2333 147.983 87.65 147.983H88.2C88.6167 147.983 88.85 148.233 88.85 148.633V161.25C88.85 161.683 88.6167 161.9 88.2 161.9Z" fill="black"/>
<path d="M100.131 148.633V148.983C100.131 149.417 99.8974 149.633 99.4807 149.633H97.7141V161.267C97.7141 161.683 97.4641 161.917 97.0641 161.917H96.5141C96.0974 161.917 95.8641 161.667 95.8641 161.267V149.633H94.0641C93.6474 149.633 93.4141 149.4 93.4141 148.983V148.633C93.4141 148.217 93.6641 147.983 94.0641 147.983H99.4807C99.9141 147.967 100.131 148.217 100.131 148.633Z" fill="black"/>
<path d="M106.716 161.9H102.099C101.666 161.9 101.449 161.65 101.449 161.25V148.633C101.449 148.216 101.683 147.983 102.099 147.983H106.649C107.083 147.983 107.299 148.233 107.299 148.633V148.983C107.299 149.416 107.066 149.633 106.649 149.633H103.299V154.033H106.033C106.466 154.033 106.683 154.283 106.683 154.683V155.05C106.683 155.466 106.449 155.7 106.033 155.7H103.299V160.266H106.716C107.149 160.266 107.366 160.5 107.366 160.916V161.266C107.366 161.683 107.133 161.9 106.716 161.9Z" fill="black"/>
<path d="M115.766 156.95V159.116C115.766 161.2 114.499 162.05 112.383 162.05H112.333C110.233 162.05 108.949 161.216 108.949 159.116V150.75C108.949 148.733 110.216 147.816 112.333 147.816H112.366C114.466 147.816 115.749 148.75 115.749 150.75V152.583C115.749 153 115.516 153.233 115.099 153.233H114.549C114.133 153.233 113.899 152.983 113.899 152.583V151.116C113.899 149.883 113.383 149.466 112.366 149.466C111.349 149.466 110.833 149.9 110.833 151.116V158.766C110.833 160 111.349 160.416 112.366 160.416C113.383 160.416 113.899 159.983 113.899 158.766V156.966C113.899 156.55 114.149 156.316 114.549 156.316H115.099C115.533 156.3 115.766 156.55 115.766 156.95Z" fill="black"/>
<path d="M118.466 147.967H119.016C119.433 147.967 119.666 148.217 119.666 148.617V153.967H122.95V148.65C122.95 148.233 123.2 148 123.6 148H124.15C124.583 148 124.8 148.25 124.8 148.65V161.267C124.8 161.683 124.566 161.917 124.15 161.917H123.6C123.183 161.917 122.95 161.667 122.95 161.267V155.667H119.666V161.267C119.666 161.683 119.416 161.917 119.016 161.917H118.466C118.033 161.917 117.816 161.667 117.816 161.267V148.65C117.816 148.217 118.05 147.967 118.466 147.967Z" fill="black"/>
<path d="M131.548 161.9H130.998C130.564 161.9 130.348 161.65 130.348 161.25V148.633C130.348 148.216 130.581 147.983 130.998 147.983H131.548C131.964 147.983 132.198 148.233 132.198 148.633V161.25C132.198 161.683 131.964 161.9 131.548 161.9Z" fill="black"/>
<path d="M135.582 161.9H135.166C134.732 161.9 134.516 161.65 134.516 161.25V148.633C134.516 148.216 134.749 147.983 135.166 147.983H135.816C136.199 147.983 136.449 148.166 136.566 148.516L139.866 157.583V148.65C139.866 148.233 140.116 148 140.516 148H140.932C141.366 148 141.582 148.25 141.582 148.65V161.266C141.582 161.683 141.349 161.916 140.932 161.916H140.349C139.966 161.916 139.732 161.733 139.616 161.383L136.199 152.016V161.283C136.232 161.683 136.016 161.9 135.582 161.9Z" fill="black"/>
<path d="M150.598 156.95V159.116C150.598 161.2 149.331 162.05 147.215 162.05H147.165C145.065 162.05 143.781 161.216 143.781 159.116V150.75C143.781 148.733 145.048 147.816 147.165 147.816H147.198C149.298 147.816 150.581 148.75 150.581 150.75V152.583C150.581 153 150.348 153.233 149.931 153.233H149.348C148.931 153.233 148.698 152.983 148.698 152.583V151.116C148.698 149.883 148.181 149.466 147.165 149.466C146.148 149.466 145.631 149.9 145.631 151.116V158.766C145.631 160 146.148 160.416 147.165 160.416C148.181 160.416 148.698 159.983 148.698 158.766V156.966C148.698 156.55 148.948 156.316 149.348 156.316H149.898C150.365 156.3 150.598 156.55 150.598 156.95Z" fill="black"/>
<path d="M154.266 160.367V161.25C154.266 161.667 154.033 161.9 153.616 161.9H153.033C152.616 161.9 152.383 161.65 152.383 161.25V160.367C152.383 159.95 152.633 159.717 153.033 159.717H153.583C154.033 159.717 154.266 159.967 154.266 160.367Z" fill="black"/>
</g>
<defs>
<clipPath id="clip0_835_2594">
<rect width="200" height="200" fill="white"/>
</clipPath>
</defs>
</svg>
