<?xml version="1.0" encoding="utf-8"?>
<!-- Generator: Adobe Illustrator 26.0.3, SVG Export Plug-In . SVG Version: 6.00 Build 0)  -->
<svg version="1.1" id="レイヤー_1" xmlns="http://www.w3.org/2000/svg" xmlns:xlink="http://www.w3.org/1999/xlink" x="0px"
	 y="0px" width="1200px" height="1200px" viewBox="0 0 1200 1200" style="enable-background:new 0 0 1200 1200;"
	 xml:space="preserve">
<style type="text/css">
	.st0{fill:#FFFFFF;}
</style>
<g>
	<rect class="st0" width="1200" height="1200"/>
	<g>
		<g>
			<g>
				<path d="M712.3,529l-0.1-4l-0.6-4l3.3-0.9l3-2l-1.2-3.5l-1.5-3.4l-3.6,0.6l-3,1.6l-2.2-3.4l-2.6-3.1l2.5-2.4l1.7-3.3l-2.8-2.4
					l-2.9-2.2l-2.9,2.3l-1.8,2.9l-3.5-1.9l-3.8-1.4l1.1-3.3l-0.2-3.6l-3.6-0.7l-3.7-0.4l-1.4,3.4l-0.1,3.4l-4,0.1l-4,0.6l-0.9-3.3
					l-2-3l-3.5,1.2l-3.4,1.5l0.6,3.6l1.6,3l-3.4,2.2l-3.1,2.6l-2.4-2.5l-3.3-1.7l-2.4,2.8l-2.2,2.9l2.3,2.9l2.9,1.8l-1.9,3.5
					l-1.4,3.8l-3.3-1.1l-3.6,0.2l-0.7,3.6l-0.4,3.7l3.4,1.4l3.4,0.1l0.1,4l0.6,4l-3.3,0.9l-3,2l1.2,3.5l1.5,3.4l3.6-0.6l3-1.6
					l2.2,3.4l2.6,3.1l-2.5,2.4l-1.7,3.3l2.8,2.4l2.9,2.2l2.9-2.3l1.8-2.9l3.5,1.9l3.8,1.4l-1,3.3l0.2,3.6l3.6,0.7l3.7,0.4l1.4-3.4
					l0.1-3.4l4-0.1l4-0.6l0.9,3.3l2,3l3.5-1.2l3.4-1.5l-0.6-3.6l-1.6-3l3.4-2.2l3.1-2.6l2.4,2.5l3.3,1.7l2.4-2.8l2.2-2.9l-2.3-2.9
					l-2.9-1.8l1.9-3.5l1.4-3.8l3.3,1.1l3.6-0.2l0.7-3.6l0.4-3.7l-3.4-1.4L712.3,529z M691.2,506.4l2.8,1.4l2.5,1.8l2.2,2.1l2,2.4
					l1.7,2.6l1.3,2.8l0.9,3l0.5,3.2l0.1,3.2l-20.5-3.3l3.3-20.5l0,0L691.2,506.4z M659.6,518.3l1.4-2.8l1.8-2.5l2.1-2.2l2.4-2
					l2.6-1.7l2.8-1.3l3-0.9l3.2-0.5l3.2-0.1l0,0l-3.3,20.5l-20.5-3.3L659.6,518.3z M671.6,550l-2.8-1.4l-2.5-1.8l-2.2-2.1l-2-2.4
					l-1.7-2.6l-1.3-2.8l-0.9-3l-0.5-3.2l-0.1-3.2l20.5,3.3l-3.3,20.5L671.6,550z M701.8,540.7l-1.8,2.5l-2.1,2.2l-2.4,2l-2.6,1.7
					l-2.8,1.3l-3,0.9l-3.2,0.5l-3.2,0.1l3.3-20.5l20.5,3.3l-1.1,2.9L701.8,540.7z"/>
			</g>
			<g>
				<path d="M480.1,471.8l0.1-4.4l-0.1-4.4l3.4-0.2l3.4-1.4l-0.2-3.4l-0.4-3.4l-3.5-0.8l-3.4,0.5l-0.7-4.3l-0.8-4.2l3.3-0.8l3.1-2
					l-0.8-3.3l-0.9-3.2l-3.6-0.2l-3.2,1.1l-1.4-4.1l-0.5-1.1l-1.1-2.9l3.2-1.3l2.7-2.5l-1.4-3.1l-1.5-3l-3.6,0.5l-3,1.6l-2.1-3.8
					l-2.3-3.7l2.9-1.8l2.2-2.9l-1.9-2.8l-2-2.7l-3.5,1.1l-2.7,2.1l-2.7-3.4l-2.9-3.2l2.6-2.3l1.7-3.2l-2.3-2.4l-2.4-2.3l-3.2,1.7
					l-2.3,2.6l-3.2-2.9l-3.4-2.7l2.1-2.7l1.1-3.5l-2.7-2l-2.8-1.9l-2.9,2.2l-1.8,2.9l-3.7-2.3l-3.8-2.1l1.6-3l0.5-3.6l-3-1.5
					l-3.1-1.4l-2.5,2.7l-1.3,3.2l-4.1-1.6l-4.1-1.4l1.1-3.2l-0.2-3.6l-3.2-0.9l-3.3-0.8l-2,3.1l-0.8,3.3l-4.2-0.8l-4.3-0.7l0.5-3.4
					l-0.8-3.5l-3.4-0.4l-3.4-0.2l-1.4,3.4l-0.2,3.4l-4.4-0.1l-4.4,0.1l-0.2-3.4l-1.4-3.4l-3.4,0.2l-3.4,0.4l-0.8,3.5l0.5,3.4
					l-4.3,0.7l-4.2,0.8l-0.8-3.3l-2-3.1l-3.3,0.8l-3.2,0.9l-0.2,3.6l1.1,3.2l-4.1,1.4l-4.3,1.4l-1.3-3.2l-2.5-2.7l-3.1,1.4l-3,1.5
					l0.5,3.6l1.6,3l-3.8,2.1l-3.7,2.3l-1.8-2.9l-2.9-2.2l-2.8,1.9l-2.7,2l1.1,3.5l2.1,2.7l-3.4,2.7L314,394l-2.3-2.6l-3.2-1.7
					l-2.4,2.3l-2.3,2.4l1.7,3.2l2.6,2.3l-2.9,3.2l-2.7,3.4l-2.7-2.1l-3.5-1.1l-2,2.7l-1.9,2.8l2.2,2.9l2.9,1.8l-2.3,3.7l-2.1,3.8
					l-3-1.6l-3.6-0.5l-1.5,3l-1.4,3.1l2.7,2.5l3.2,1.3l-1.6,4.1l-1.4,4.1l-3.2-1.1l-3.6,0.2l-0.9,3.2l-0.8,3.3l3.1,2l3.3,0.8
					l-0.8,4.2l-0.7,4.3l-3.4-0.5l-3.5,0.8l-0.4,3.4l-0.2,3.4l3.4,1.4l3.4,0.2l-0.1,4.4l0.1,4.4l-3.4,0.2l-3.4,1.4l0.2,3.4l0.4,3.4
					l3.5,0.8l3.4-0.5l0.7,4.3l0.8,4.2l-3.3,0.8l-3.4,2.2l0.8,3.3l0.9,3.2l3.6,0.2l3.2-1.1l1.4,4.1l1.6,4.1l-3.2,1.3l-2.7,2.5
					l1.4,3.1l1.5,3l3.6-0.5l3-1.6l2.1,3.8l2.3,3.7l-2.9,1.8l-2.2,2.9l1.9,2.8l2,2.7l3.5-1.1l2.7-2.1l2.7,3.4l2.9,3.2l-2.6,2.3
					l-1.7,3.2l2.3,2.4l2.4,2.3l3.2-1.7l2.3-2.6l3.2,2.9l3.4,2.7l-2.1,2.7l-1.1,3.5l2.7,2l2.8,1.9l2.9-2.2l1.8-2.9l3.7,2.3l3.8,2.1
					l-1.6,3l-0.5,3.6l3,1.5l3.1,1.4l0,0l2.5-2.7l1.3-3.2l4.1,1.6l4.1,1.4l-1.1,3.2l0.2,3.6l3.2,0.9l3.3,0.8l2-3.1l0.8-3.3l4.2,0.8
					l4.3,0.7L367,569l0.8,3.5l3.4,0.4l3.4,0.2l1.4-3.4l0.2-3.4l4.4,0.1l4.4-0.1l0.2,3.4l1.4,3.4l3.4-0.2l3.4-0.4l0.8-3.5l-0.5-3.4
					l4.3-0.7l4.2-0.8l0.8,3.3l2,3.1l3.3-0.8l3.2-0.9l0.2-3.6l-1.1-3.2l4.1-1.4l4.1-1.6l1.3,3.2l2.5,2.7l3.1-1.4l3-1.5l-0.5-3.6
					l-1.6-3l3.8-2.1l3.7-2.3l1.8,2.9l2.9,2.2l2.8-1.9l2.7-2l-1.1-3.5l-2.1-2.7l3.4-2.7l3.2-2.9l2.3,2.6l3.2,1.7l2.4-2.3l2.3-2.4
					l-1.7-3.2l-2.6-2.3l2.9-3.2l2.7-3.4l2.7,2.1l3.5,1.1l2-2.7l1.9-2.8l-2.2-2.9l-2.9-1.8l2.3-3.7l2.1-3.8l3,1.6l3.6,0.5l1.5-3
					l1.4-3.1l-2.7-2.5l-3.2-1.3l1.6-4.1l1.4-4.1l3.2,1.1l3.6-0.2l0.9-3.2l0.8-3.3l-3.1-2l-3.3-0.8l0.8-4.2l0.7-4.3l3.4,0.5l3.5-0.8
					l0.4-3.4l0.2-3.4l-3.4-1.4L480.1,471.8z M411.2,472.7l-0.3,1.4l-0.3,1.3l-0.4,1.3l-0.5,1.3l-0.5,1.3l-0.5,1.2l-0.6,1.2l-0.7,1.2
					l-0.7,1.1l-0.8,1.1l-0.8,1.1l-0.8,1.1l-0.9,1l-0.9,1l-1,0.9l-1,0.9l-1.1,0.8l-1.1,0.8l-1.1,0.8l-1.1,0.7l-1.2,0.7l-1.2,0.6
					l-1.2,0.5l-1.3,0.5l-1.3,0.5l-1.3,0.4l-1.3,0.3l-1.4,0.2l-1.4,0.2l-1.4,0.2l-1.4,0.1h-1.4h-1.4l-1.4-0.1l-1.4-0.2l-1.4-0.2
					l-1.4-0.3l-1.3-0.3l-1.2-0.4l-1.3-0.5l-1.3-0.5l-1.2-0.5l-1.2-0.6l-1.2-0.7l-1.1-0.7l-1.1-0.8l-1.1-0.8l-1.1-0.8l-1-0.9l-1-0.9
					l-0.9-1l-0.9-1l-0.8-1.1l-0.8-1.1l-0.8-1.1l-0.7-1.1l-0.7-1.2l-0.6-1.2l-0.5-1.2l-0.5-1.3l-0.5-1.3l-0.4-1.3l-0.3-1.3l-0.2-1.4
					l-0.2-1.4l-0.2-1.4l-0.1-1.4V467v-1.4l0.1-1.4l0.2-1.4l0.2-1.4l0.3-1.4l0.3-1.3l0.4-1.3l0.5-1.3l0.5-1.3l0.5-1.2l0.6-1.2
					l0.7-1.2l0.7-1.1l0.8-1.1l0.8-1.1l0.8-1.1l0.9-1l0.9-1l1-0.9l1-0.9l1.1-0.8l1.1-0.8l1.1-0.8l1.1-0.7l1.2-0.7l1.2-0.6l1.2-0.5
					l1.3-0.5l1.3-0.5l1.3-0.4l1.3-0.3l1.4-0.2l1.4-0.2l1.4-0.2l1.4-0.1h1.4h1.4l1.4,0.1l1.4,0.2l1.4,0.2l1.4,0.3l1.3,0.3l1.3,0.4
					l1.3,0.5l1.3,0.5l1.2,0.5l1.2,0.6l1.2,0.7l1.1,0.7l1.1,0.8l1.1,0.8l1.1,0.8l1,0.9l1,0.9l0.9,1l0.9,1l0.8,1.1l0.8,1.1l0.8,1.1
					l0.7,1.1l0.7,1.2l0.6,1.2l0.5,1.2l0.5,1.3l0.5,1.3l0.4,1.3l0.3,1.3l0.2,1.4l0.2,1.4l0.2,1.4l0.1,1.4v1.4v1.4l-0.1,1.4l-0.2,1.4
					L411.2,472.7z"/>
			</g>
			<g>
				<path d="M806.5,450.7l0.4-4.2l0.2-4.3h3.5l3.4-1.3l-0.2-3.5l-0.3-3.5l-3.5-0.8l-3.4,0.5l-0.7-4.2l-1-4.1l3.3-0.9l2.9-2.1
					L810,419l-1.2-3.2l-3.6,0.2l-3.2,1.3l-1.7-3.8l-2-3.8l2.9-1.7l2.3-2.8l-1.9-2.9l-2-2.9l-3.5,1.1l-2.7,2.1l-2.7-3.3l-2.9-3.1
					l2.4-2.4l1.5-3.3l-2.6-2.3l-2.6-2.2l-3.1,2l-2.1,2.7l-3.5-2.5l-3.6-2.3l1.7-2.9l0.6-3.6l-3.1-1.6l-3.2-1.4l-2.5,2.7l-1.3,3.2
					l-4-1.5l-4.1-1.2l0.9-3.3l-0.3-3.6l-3.4-0.8l-3.4-0.6l-1.7,3.2l-0.5,3.4l-4.2-0.4l-4.3-0.2v-3.5l-1.3-3.4l-3.5,0.2l-3.5,0.3
					l-0.8,3.5l0.5,3.4l-4.2,0.7l-4.1,1l-0.9-3.3l-2.1-2.9l-3.3,1.1l-3.2,1.2l0.2,3.6l1.3,3.2l-3.8,1.7l-3.8,2l-1.7-2.9l-2.8-2.3
					l-2.9,1.9l-2.9,2l1.1,3.5l2.1,2.7l-3.3,2.7l-3.1,2.9l-2.4-2.4l-3.3-1.5l-2.3,2.6l-2.2,2.6l2,3.1l2.7,2.1l-2.5,3.5l-2.3,3.6
					l-2.9-1.7l-3.6-0.6L677,411l-1.4,3.2l2.7,2.5l3.2,1.3l-1.5,4l-1.2,4.1l-3.3-0.9l-3.6,0.3l-0.8,3.4l-0.6,3.4l3.2,1.7l3.4,0.5
					l-0.4,4.2l-0.2,4.3H673l-3.4,1.3l0.2,3.5l0.3,3.5l3.5,0.8l3.4-0.5l0.7,4.2l1,4.1l-3.3,0.9l-2.9,2.1l1.1,3.3l1.2,3.2l3.6-0.2
					l3.2-1.3l1.7,3.8l2,3.8l-2.9,1.7l-2.3,2.8l1.9,2.9l2,2.9l3.5-1.1l2.7-2.1l2.7,3.3l2.9,3.1l-2.4,2.4l-1.5,3.3l2.6,2.3l2.6,2.2
					l3.1-2l2.1-2.7l3.5,2.5l3.6,2.3l-1.7,2.9l-0.6,3.6l3.1,1.6l3.2,1.4l2.5-2.7l1.3-3.2l4,1.5l4.1,1.2l-0.9,3.3l0.3,3.6l3.4,0.8
					l3.4,0.6l1.7-3.2l0.5-3.4l4.2,0.4l4.3,0.2v3.5l1.3,3.4l3.5-0.2l3.5-0.3l0.8-3.5l-0.5-3.4l4.2-0.7l4.1-1l0.9,3.3l2.1,2.9l3.3-1.1
					l3.2-1.2l-0.2-3.6l-1.3-3.2l3.8-1.7l3.8-2l1.7,2.9l2.8,2.3l2.9-1.9l2.9-2l-1.1-3.5l-2.1-2.7l3.3-2.7l3.1-2.9l2.4,2.4l3.3,1.5
					l2.3-2.6l2.2-2.6l-2-3.1l-2.7-2.1l2.5-3.5l2.3-3.6l2.9,1.7l3.6,0.6l1.6-3.1l1.4-3.2l-2.7-2.5l-3.2-1.3l1.5-4l1.2-4.1l3.3,0.9
					l3.6-0.3l0.8-3.4l0.6-3.4l-3.2-1.7L806.5,450.7z M787.4,457.6l-1.1,2.9l-1.3,2.9l-1.5,2.8l-1.7,2.6l-1.8,2.6l-2,2.4l-2.1,2.3
					l-2.3,2.2l-2.4,2l-2.6,1.8l-2.6,1.7l-2.8,1.5l-2.9,1.3l-2.9,1.1l-3,0.9l-3.1,0.8l-3.1,0.5l-3.1,0.3l-3.2,0.1l-3.2-0.1l-3.1-0.3
					l-3.1-0.5l-3.1-0.7l-3-0.9l-2.9-1.1l-2.9-1.3l-2.8-1.5l-2.6-1.7l-2.6-1.8l-2.4-2l-2.3-2.1L706,474l-2-2.4l-1.8-2.6l-1.7-2.6
					l-1.5-2.8l-1.3-2.9l-1.1-2.9l-0.9-3l-0.8-3.1l-0.5-3.1l-0.3-3.1l-0.1-3.2l0.1-3.2l0.3-3.1l0.5-3.1l0.7-3.1l0.9-3l1.1-2.9
					l1.3-2.9l1.5-2.8l1.7-2.6l1.8-2.6l2-2.4l2.1-2.3l2.3-2.2l2.4-2l2.6-1.8l2.6-1.7l2.8-1.5l2.9-1.3l2.9-1.1l3-0.9l3.1-0.8l3.1-0.5
					l3.1-0.3l3.2-0.1l3.2,0.1l3.1,0.3l3.1,0.5l3.1,0.7l3,0.9l2.9,1.1l2.9,1.3l2.8,1.5l2.6,1.7l2.6,1.8l2.4,2l2.3,2.1l2.2,2.3l2,2.4
					l1.8,2.6l1.7,2.6l1.5,2.8l1.3,2.9l1.1,2.9l0.9,3l0.8,3.1l0.5,3.1l0.3,3.1l0.1,3.2l-0.1,3.2l-0.3,3.1l-0.5,3.1l-0.7,3.1
					L787.4,457.6z"/>
			</g>
			<g>
				<path d="M550.6,670.2l3.4,0.2l3.5-1.1l0.1-3.4v-3.4l-3.5-1.1l-3.4,0.1l-0.2-4.3L550,653l3.4-0.4l3.2-1.7l-0.5-3.4l-0.6-3.3
					l-3.6-0.5l-3.4,0.7l-1-4.2l-1.1-4.1l3.3-1l2.9-2.2l-1.1-3.2l-1.2-3.2l-3.6,0.1l-3.2,1.3l-1.7-4l-1.9-3.9l3.1-1.5l2.5-2.6l-1.6-3
					l-1.7-2.9l-3.5,0.8l-2.9,1.8l-2.3-3.6l-2.5-3.5l2.7-2l2-3l-2.1-2.6l-2.2-2.6l-3.4,1.4l-2.6,2.3l-2.9-3.2l-3.1-3l2.3-2.5l1.4-3.3
					l-2.6-2.3l-2.6-2.2l-3.1,1.9l-2.1,2.7l-3.5-2.6l-3.5-2.5l1.9-2.9l0.8-3.5l-2.9-1.8l-2.9-1.7l-2.7,2.4l-1.7,3l-3.8-2l-3.9-1.8
					l1.4-3.2l0.2-3.6l-3.2-1.3l-3.2-1.1l-2.3,2.9l-1.1,3.2l-4.1-1.3l-4.2-1.1l0.8-3.3l-0.5-3.6l-3.3-0.7l-3.3-0.6l-1.7,3.2l-0.5,3.4
					l-4.3-0.5l-4.3-0.3l0.2-3.4l-1.1-3.5l-3.4-0.1h-3.4l-1.1,3.5l0.1,3.4l-4.3,0.2l-4.3,0.5l-0.4-3.4l-1.7-3.2l-3.4,0.5l-3.3,0.6
					l-0.5,3.6l0.7,3.4l-4.2,1l-4.1,1.1l-1-3.3l-2.2-2.9l-3.2,1.1l-3.2,1.2l0.1,3.6l1.3,3.2l-4,1.7l-3.9,1.9l-1.5-3.1l-2.6-2.5
					l-3,1.6l-2.9,1.7l0.8,3.5l1.8,2.9l-3.6,2.3l-3.5,2.5l-2-2.7l-3-2l-2.6,2.1l-2.6,2.2l1.4,3.4l2.3,2.6l-3.2,2.9l-3,3.1l-2.5-2.3
					l-3.3-1.4l-2.3,2.6l-2.2,2.6l1.9,3.1l2.7,2.1l-2.6,3.5l-2.5,3.5l-2.9-1.9l-3.5-0.8l-1.8,2.9l-1.7,2.9l2.4,2.7l3,1.7l-2,3.8
					l-1.8,3.9l-3.2-1.4l-3.6-0.2l-1.3,3.2l-1.1,3.2l2.9,2.3l3.2,1.1l-1.3,4.1l-1.1,4.2l-3.3-0.8l-3.6,0.5l-0.7,3.3l-0.6,3.3l3.2,1.7
					l3.4,0.5l-0.5,4.3l-0.3,4.3l-3.4-0.2l-3.5,1.1l-0.1,3.4v3.4l3.5,1.1l3.4-0.1l0.2,4.3l0.5,4.3l-3.4,0.4l-3.2,1.7l0.5,3.4l0.6,3.3
					l3.6,0.5l3.4-0.7l1,4.2l1.1,4.1l-3.3,1l-2.9,2.2l1.1,3.2l1.2,3.2l3.6-0.1l3.2-1.3l1.7,4l1.9,3.9l-3.1,1.5l-2.5,2.6l1.6,3
					l1.7,2.9l3.5-0.8l2.9-1.8l2.3,3.6l2.5,3.5l-2.7,2l-2,3l2.1,2.6l2.2,2.6l3.4-1.4l2.6-2.3l2.9,3.2l3.1,3l-2.3,2.5l-1.4,3.3
					l2.6,2.3l2.6,2.2l3.1-1.9l2.1-2.7l3.5,2.6l3.5,2.5l-1.9,2.9l-0.8,3.5l2.9,1.8l2.9,1.7l2.7-2.4l1.7-3l3.8,2l3.9,1.8l-1.4,3.2
					l-0.2,3.6l3.2,1.3l3.2,1.1l2.3-2.9l1.1-3.2l4.1,1.3l4.2,1.1l-0.8,3.3l0.5,3.6l3.3,0.7l3.3,0.6l1.7-3.2l0.5-3.4l4.3,0.5l4.3,0.3
					l-0.2,3.4l1.1,3.5l3.4,0.1h3.4l1.1-3.5l-0.1-3.4l4.3-0.2l4.3-0.5l0.4,3.4l1.7,3.2l3.4-0.5l3.3-0.6l0.5-3.6l-0.7-3.4l4.2-1
					l4.1-1.1l1,3.3l2.2,2.9l3.2-1.1l3.2-1.2l-0.1-3.6l-1.3-3.2l4-1.7l3.9-1.9l1.5,3.1l2.6,2.5l3-1.6l2.9-1.7l-0.8-3.5l-1.8-2.9
					l3.6-2.3l3.5-2.5l2,2.7l3,2l2.6-2.1l2.6-2.2l-1.4-3.4l-2.3-2.6l3.2-2.9l3-3.1l2.5,2.3l3.3,1.4l2.3-2.6l2.2-2.6l-1.9-3.1
					l-2.7-2.1l2.6-3.5l2.5-3.5l2.9,1.9l3.5,0.8l1.8-2.9l1.7-2.9l-2.4-2.7l-3-1.7l2-3.8l1.8-3.9l3.2,1.4l3.6,0.2l1.3-3.2l1.1-3.2
					l-2.9-2.3l-3.2-1.1l1.3-4.1l1.1-4.2l3.3,0.8l3.6-0.5l0.7-3.3l0.6-3.3l-3.2-1.7l-3.4-0.5l0.5-4.3L550.6,670.2z M532.5,651.4
					l0.5,3.5l0.4,3.5l0.2,3.6v3.6l-0.2,3.6l-28.7-2.9L504,655l27.9-7.1L532.5,651.4z M493.5,680.9l-1.5,3.2l-1.7,3.2l-5,6.9
					l-2.5,2.6l-2.6,2.5l-7.1,4.8l-3.2,1.6l-3.3,1.4l-8.3,2.1l-3.5,0.4l-3.6,0.2l-8.5-0.8l-3.5-0.9l-3.5-1.1l-7.7-3.7l-2.9-2
					l-2.9-2.2l-5.9-6.1l-2.1-2.9l-2-3l-3.5-7.8l-1-3.5l-0.8-3.5l-0.6-8.5l0.3-3.6l0.5-3.5l2.3-8.2l1.5-3.2l1.7-3.2l5-6.9l2.5-2.6
					l2.6-2.5l7.1-4.8l3.2-1.6l3.3-1.4l8.3-2.1l3.5-0.4l3.6-0.2l8.5,0.8l3.5,0.9l3.5,1.1l7.7,3.7l2.9,2l2.9,2.2l5.9,6.1l2.1,2.9l2,3
					l3.5,7.8l1,3.5l0.8,3.5l0.6,8.5l-0.3,3.5l-0.5,3.5L493.5,680.9z M523.1,624.5l1.7,3.2l1.6,3.2l1.4,3.3l1.3,3.4l1.1,3.4
					l-27.9,7.1l-4.7-10.5l23.8-16.3L523.1,624.5z M505.1,602.3l2.6,2.4l2.6,2.5l2.5,2.6l2.3,2.7l2.2,2.9l-23.8,16.3l-8-8.2
					l16.9-23.4L505.1,602.3z M480.5,587.7l3.3,1.4l3.2,1.5l3.2,1.7l3.1,1.7l3,1.9l-16.9,23.4l-10.3-5l7.8-27.7L480.5,587.7z
					 M452.4,582.5l3.6,0.2l3.5,0.3l3.5,0.5l3.5,0.6l3.5,0.8l-7.8,27.7l-11.4-1.1l-2.2-28.8L452.4,582.5z M424.3,587l3.4-1.1l3.5-1
					l3.5-0.8l3.5-0.7l3.5-0.5l2.2,28.8l-11.1,2.9L421,588.3L424.3,587z M399.3,601l2.9-2.2l2.9-2.1l3-2l3.1-1.8l3.2-1.7l11.8,26.3
					l-9.5,6.5l-20.1-20.6L399.3,601z M380.7,622.7l1.9-3l2-2.9l2.2-2.9l2.3-2.8l2.4-2.6l20.1,20.6l-6.7,9.3l-26-12.5L380.7,622.7z
					 M370.7,649.4l0.8-3.5l0.9-3.5l1.1-3.5l1.2-3.4l1.4-3.3l26,12.5l-3.1,11l-28.7-2.9L370.7,649.4z M370.3,677.9l-0.5-3.5l-0.4-3.5
					l-0.2-3.6v-3.6l0.2-3.6l28.7,2.9l0.8,11.4l-27.9,7.1L370.3,677.9z M379.7,704.9l-1.7-3.2l-1.6-3.2l-1.4-3.3l-1.3-3.4l-1.1-3.4
					l27.9-7.1l4.7,10.5L381.5,708L379.7,704.9z M397.8,726.9l-2.6-2.4l-2.6-2.5l-2.5-2.6l-2.3-2.7l-2.2-2.9l23.8-16.3l8,8.2
					l-16.9,23.4L397.8,726.9z M422.3,741.5l-3.3-1.4l-3.2-1.5l-3.2-1.7l-3.1-1.7l-3-1.9l16.9-23.4l10.3,5l-7.8,27.7L422.3,741.5z
					 M450.4,746.9l-3.6-0.2l-3.5-0.3l-3.5-0.5l-3.5-0.6l-3.5-0.8l7.8-27.7l11.4,1.1l2.2,28.8L450.4,746.9z M478.6,742.3l-3.4,1.1
					l-3.5,1l-3.5,0.8l-3.5,0.7l-3.5,0.5l-2.2-28.8l11.1-2.9l11.8,26.3L478.6,742.3z M503.5,728.3l-2.9,2.2l-2.9,2.1l-3,2l-3.1,1.8
					l-3.2,1.7l-11.8-26.3l9.5-6.5l20.1,20.6L503.5,728.3z M522.1,706.7l-1.9,3l-2,2.9l-2.2,2.9l-2.3,2.8l-2.4,2.6l-20.1-20.6
					l6.7-9.3l26,12.5L522.1,706.7z M532.2,680l-0.8,3.5l-0.9,3.5l-1.1,3.5l-1.2,3.4l-1.4,3.3l-26-12.5l3.1-11l28.7,2.9L532.2,680z"
					/>
			</g>
			<g>
				<path d="M706.8,307.2l3.4-0.3l3.4-1.6l-0.3-3.3l-0.4-3.3l-3.6-0.7l-3.4,0.6l-0.8-4.3l-0.9-4.3l3.3-0.8l3-1.9l-0.8-3.2l-0.8-3.2
					l-3.6-0.2l-3.3,1l-1.2-4.2l-1.4-4.2l3.2-1.1l2.8-2.3l-1.1-3.1l-1.3-3.1l-3.6,0.2l-3,1.2l-1.8-3.9l-1.9-3.9l3-1.6l2.4-2.7
					l-1.6-2.9l-1.7-2.9l-3.5,0.7l-2.9,1.7l-2.3-3.7l-2.4-3.6l2.8-2l2.1-2.9l-2-2.7l-2-2.7l-3.4,1.2l-2.7,2.1l-2.8-3.3l-3-3.2
					l2.6-2.3l1.7-3.2l-2.3-2.4l-2.4-2.4l-3.2,1.6l-2.4,2.5l-3.2-3l-3.2-2.9l2.2-2.5l1.3-3.3l-2.5-2l-2.6-2l-3,2l-2,2.8l-3.5-2.5
					l-3.7-2.4l1.8-2.9l0.7-3.6l-2.8-1.7l-2.9-1.7l-2.8,2.4l-1.7,3l-3.8-2l-3.9-1.9l1.5-3.1l0.3-3.6l-3.1-1.4l-3.1-1.3l-2.4,2.8
					l-1.3,3.2l-4.2-1.7l-4.2-1.4l1.1-3.3l-0.2-3.6l-3.2-1l-3.2-0.9l-2,3l-0.9,3.3l-4.2-1l-4.2-0.9l0.6-3.4l-0.6-3.6l-3.3-0.6
					l-3.3-0.5l-1.7,3.3l-0.5,3.4l-4.4-0.4l-4.4-0.3l0.1-3.4l-1.1-3.4l-3.3-0.2l-3.3-0.1l-1.1,3.4l0.1,3.4l-4.4,0.2l-4.4,0.3
					l-0.3-3.4l-1.6-3.4l-3.3,0.3l-3.3,0.4l-0.7,3.6l0.6,3.4l-4.3,0.8l-4.3,0.9l-0.8-3.3l-1.9-3l-3.2,0.8l-3.2,0.8l-0.2,3.6l1,3.3
					l-4.2,1.2l-4.2,1.4l-1.1-3.2l-2.3-2.8l-3.1,1.1l-3.1,1.3l0.2,3.6l1.4,3.1l-3.9,1.8l-3.9,1.9l-1.6-3l-2.7-2.4l-2.9,1.6l-2.9,1.7
					l0.7,3.5l1.7,2.9l-3.7,2.3l-3.6,2.4l-2-2.8l-2.9-2.1l-2.7,2l-2.7,2l1.2,3.4l2.1,2.7l-3.3,2.8l-3.2,3l-2.3-2.6l-3.2-1.7l-2.4,2.3
					l-2.4,2.4l1.6,3.2l2.5,2.4l-3,3.2l-2.9,3.2l-2.5-2.2l-3.3-1.3l-2,2.5l-2,2.6l2,3l2.8,2l-2.5,3.5l-2.4,3.7l-2.9-1.8l-3.6-0.7
					l-1.7,2.8l-1.7,2.9l2.4,2.8l3,1.7l-2,3.8l-1.9,3.9l-3.1-1.5l-3.6-0.3l-1.4,3.1l-1.3,3.1l2.8,2.4l3.2,1.3l-1.6,4.1l-1.4,4.2
					l-3.3-1.1l-3.6,0.2l-1,3.2l-0.9,3.2l3,2l3.3,0.9l-1,4.2l-0.9,4.2l-3.4-0.6l-3.6,0.6l-0.6,3.3l-0.5,3.3l3.3,1.7l3.4,0.5l-0.4,4.4
					l-0.3,4.4l-3.4-0.1l-3.4,1.1l-0.2,3.3l-0.1,3.3l3.4,1.1l3.4-0.1l0.2,4.4l0.3,4.4l-3.4,0.3l-3.4,1.6l0.3,3.3l0.4,3.3l3.6,0.7
					l3.4-0.6l0.8,4.3l0.9,4.3l-3.3,0.8l-3,1.9l0.8,3.2l0.8,3.2l3.6,0.2l3.3-1l1.2,4.2l1.4,4.2l-3.2,1.1l-2.8,2.3l1.1,3.1l1.3,3.1
					l3.6-0.2l3.1-1.4l1.8,3.9l1.9,3.9l-3,1.6l-2.4,2.7l1.6,2.9l1.7,2.9l3.5-0.7l2.9-1.7l2.3,3.7l2.4,3.6l-2.8,2l-2.1,2.9l2,2.7
					l2,2.7l3.4-1.2l2.7-2.1l2.8,3.3l3,3.2l-2.6,2.3l-1.7,3.2l2.3,2.4l2.4,2.4l3.2-1.6l2.4-2.5l3.2,3l3.2,2.9l-2.2,2.8l-1.3,3.3
					l2.5,2l2.6,2l3-2l2-2.8l3.5,2.5l3.7,2.4l-1.8,2.9l-0.7,3.6l2.8,1.7l2.9,1.7l2.8-2.4l1.7-3l3.8,2l3.9,1.9l-1.5,3.1l-0.3,3.6
					l3.1,1.4l3.1,1.3l2.4-2.8l1.3-3.2l4.1,1.6l4.2,1.4l-1.1,3.3l0.2,3.6l3.2,1l3.2,0.9l2-3l0.9-3.3l4.2,1l4.2,0.9l-0.6,3.4l0.6,3.6
					l3.3,0.6l3.3,0.5l1.7-3.3l0.5-3.4l4.4,0.4l4.4,0.3l-0.1,3.4l1.1,3.4l3.3,0.2l3.3,0.1l1.1-3.4l-0.1-3.4l4.4-0.2l4.4-0.3l0.3,3.4
					l1.6,3.4l3.3-0.3l3.3-0.4l0.7-3.6l-0.6-3.4l4.3-0.8l4.3-0.9l0.8,3.3l1.9,3l3.2-0.8l3.2-0.8l0.2-3.6l-1-3.3l4.2-1.2l4.2-1.4
					l1.1,3.2l2.3,2.8l3.1-1.1l3.1-1.3l-0.2-3.6l-1.4-3.1l3.9-1.8l3.9-1.9l1.6,3l2.7,2.4l2.9-1.6l2.9-1.7l-0.7-3.5l-1.7-2.9l3.7-2.3
					l3.6-2.4l2,2.8l2.9,2.1l2.7-2l2.7-2l-1.2-3.4l-2.1-2.7l3.3-2.8l3.2-3l2.3,2.6l3.2,1.7l2.4-2.3l2.4-2.4l-1.6-3.2l-2.5-2.4l3-3.2
					l2.9-3.2l2.5,2.2l3.3,1.3l2-2.5l2-2.6l-2-3l-2.8-2l2.5-3.5l2.4-3.7l2.9,1.8l3.6,0.7l1.7-2.8l1.7-2.9l-2.4-2.8l-3-1.7l2-3.8
					l1.9-3.9l3.1,1.5l3.6,0.3l1.4-3.1l1.3-3.1l-2.8-2.4l-3.2-1.3l1.6-4.1l1.4-4.2l3.3,1.1l3.6-0.2l1-3.2l0.9-3.2l-3-2l-3.3-0.9
					l1-4.2l0.9-4.2l3.4,0.6l3.6-0.6l0.6-3.3l0.5-3.3l-3.3-1.7l-3.4-0.5l0.4-4.4l0.3-4.4l3.4,0.1l3.4-1.1l0.2-3.3l0.1-3.3l-3.4-1.1
					l-3.4,0.1l-0.2-4.4L706.8,307.2z M626.7,214.6l3.4,1.8l3.3,2l3.2,2l3.1,2.1l3.2,2.3l3.1,2.3l3,2.4l2.9,2.5l2.8,2.6l2.7,2.6
					l2.6,2.7l2.5,2.9l2.4,3l2.3,3l2.2,3.1l2.1,3.2l2.1,3.3l2,3.3l1.8,3.3l-96.4,45.8l39-99.3l3.5,1.6L626.7,214.6z M530.7,210
					l3.6-1.4l3.6-1.2l3.7-1.2l3.7-1l3.7-0.9l3.7-0.8l3.8-0.6l3.8-0.5l3.8-0.4l3.8-0.2l3.8-0.1l3.8,0l3.8,0.1l3.8,0.2l3.9,0.4
					l3.8,0.5l3.8,0.6l3.7,0.7l3.7,0.9l3.6,1l3.6,1.1l3.6,1.2l-39.3,100.2l-46.2-97.2L530.7,210z M469.9,265.3l1.8-3.4l2-3.3l2-3.2
					l2.1-3.1l2.3-3.2l2.3-3.1l2.4-3l2.5-2.9l2.6-2.8l2.6-2.7l2.7-2.6l2.9-2.5l3-2.4l3-2.3l3.1-2.2l3.2-2.1l3.3-2.1l3.3-2l3.3-1.8
					l46,96.8l-101-35.9l1.4-3.6l1.6-3.5L469.9,265.3z M462.8,354.1l-1.2-3.7l-1-3.7l-0.9-3.7l-0.8-3.7l-0.6-3.8l-0.5-3.8l-0.4-3.8
					l-0.2-3.8l-0.1-3.8l0-3.8l0.1-3.8l0.2-3.8l0.4-3.9l0.5-3.8l0.6-3.8l0.7-3.7l0.9-3.7l1-3.6l1.1-3.6l0,0l101,35.9l-96.8,46
					l-1.5-3.6l-1.4-3.6L462.8,354.1z M520.6,422.1l-3.4-1.8l-3.3-2l-3.2-2l-3.1-2.1l-3.2-2.3l-3.1-2.3l-3-2.4l-2.9-2.5l-2.8-2.6
					l-2.7-2.6l-2.6-2.7l-2.5-2.9l-2.4-3l-2.3-3l-2.2-3.1l-2.1-3.2l-2.1-3.3l-2-3.3l-1.8-3.3l96.5-45.8l-39,99.3l-3.5-1.6
					L520.6,422.1z M609.5,429.1l-3.7,1.2l-3.7,1l-3.7,0.9l-3.7,0.8l-3.8,0.6l-3.8,0.5l-3.8,0.4l-3.8,0.2l-3.8,0.1l-3.8,0l-3.8-0.1
					l-3.8-0.2l-3.9-0.4l-3.8-0.5l-3.8-0.6l-3.7-0.7l-3.7-0.9l-3.6-1l-3.6-1.1l-3.6-1.2l0,0l39.3-100.2L620,425l-3.6,1.5l-3.6,1.4
					L609.5,429.1z M680.5,364.4l-1.6,3.5l-1.7,3.4l-1.8,3.4l-2,3.3l-2,3.2l-2.1,3.1l-2.3,3.2l-2.3,3.1l-2.4,3l-2.5,2.9l-2.6,2.8
					l-2.6,2.7l-2.7,2.6l-2.9,2.5l-3,2.4l-3,2.3l-3.1,2.2l-3.2,2.1l-3.3,2.1l-3.3,2l-3.3,1.8l0,0l-46-96.8l101,35.9L680.5,364.4z
					 M690.1,316.2l0,3.8l-0.1,3.8l-0.2,3.8l-0.4,3.9l-0.5,3.8l-0.6,3.8l-0.7,3.7l-0.9,3.7l-1,3.6l-1.1,3.6l-101-35.9l96.8-46
					l1.5,3.6l1.4,3.6l1.2,3.6l1.2,3.7l1,3.7l0.9,3.7l0.8,3.7l0.6,3.8l0.5,3.8l0.4,3.8l0.2,3.8L690.1,316.2z"/>
			</g>
			<g>
				<path d="M825.4,700.7l3.4,0l3.5-1.2l-0.1-3.4l-0.2-3.3l-3.5-1l-3.4,0.3l-0.4-4.4l-0.6-4.4l3.4-0.5l3.1-1.7l-0.6-3.4l-0.6-3.3
					l-3.6-0.5l-3.4,0.7l-0.9-4.3l-1.1-4.3l3.3-0.9l2.9-2.1l-0.9-3.2l-1-3.2l-3.6-0.1l-3.2,1.2l-1.5-4l-1.6-4l3.2-1.3l2.6-2.5
					L819,643l-1.5-3l-3.6,0.4l-3,1.5l-2-3.8l-2.1-3.8l2.9-1.8l2.3-2.8l-1.8-2.8l-1.8-2.8l-3.5,0.9l-2.8,1.9l-2.5-3.6l-2.6-3.4
					l2.7-2.1l1.9-3.1l-2.1-2.5l-2.2-2.5l-3.4,1.3l-2.5,2.3l-3-3.2l-3-3.1l2.4-2.4l1.5-3.3l-2.4-2.3l-2.5-2.2l-3.1,1.8l-2.2,2.6
					l-3.3-2.8l-3.5-2.7l2.1-2.7l1.1-3.5l-2.7-1.9l-2.8-1.9l-2.9,2.2l-1.9,2.9l-3.7-2.4l-3.8-2.2l1.7-3l0.6-3.5l-3-1.6l-3-1.5
					l-2.6,2.6l-1.5,3.1l-4-1.9l-4.1-1.7l1.3-3.2l0.1-3.6l-3.1-1.2l-3.1-1.1l-2.2,2.9l-1.1,3.2l-4.1-1.3l-4.1-1.2l0.9-3.3l-0.3-3.6
					l-3.2-0.8l-3.2-0.7l-1.9,3.2l-0.7,3.3l-4.3-0.7l-4.3-0.6l0.4-3.4l-0.8-3.5l-3.3-0.4l-3.3-0.3l-1.5,3.4l-0.2,3.4l-4.4-0.1l-4.4,0
					l0-3.4l-1.2-3.5l-3.3,0.1l-3.3,0.2l-1,3.5l0.3,3.4l-4.4,0.4l-4.4,0.6l-0.5-3.4l-1.7-3.1l-3.3,0.6l-3.3,0.6l-0.5,3.6l0.7,3.4
					l-4.3,0.9l-4.3,1.1l-0.9-3.3l-2.1-2.9l-3.2,0.9l-3.2,1l-0.1,3.6l1.2,3.2l-4,1.5l-4,1.6l-1.3-3.2l-2.5-2.6l-3.1,1.4l-3,1.5
					l0.4,3.6l1.5,3l-4.2,1.6l-3.7,2.1l-1.8-2.9l-2.8-2.3l-2.8,1.8l-2.8,1.8l0.9,3.5l1.9,2.8l-3.6,2.5l-3.4,2.6l-2.1-2.7l-3.1-1.9
					l-2.5,2.1l-2.5,2.2l1.3,3.4l2.3,2.5l-3.2,3l-3.1,3l-2.4-2.4l-3.3-1.5l-2.3,2.4l-2.2,2.5l1.8,3.1l2.6,2.2l-2.8,3.3l-2.7,3.5
					l-2.7-2.1l-3.5-1.1l-1.9,2.7l-1.9,2.8l2.2,2.9l2.9,1.9l-2.4,3.7l-2.2,3.8l-3-1.7l-3.5-0.6l-1.6,3l-1.5,3l2.6,2.6l3.1,1.5l-1.9,4
					l-1.7,4.1l-3.2-1.3l-3.6-0.1l-1.2,3.1l-1.1,3.1l2.9,2.2l3.2,1.1l-1.3,4.1l-1.2,4.1l-3.3-0.9l-3.6,0.3l-0.8,3.2l-0.7,3.2l3.2,1.9
					l3.3,0.7l-0.7,4.3l-0.6,4.3l-3.4-0.4l-3.5,0.8l-0.4,3.3l-0.3,3.3l3.4,1.5l3.4,0.2l-0.1,4.4l0,4.4l-3.4,0l-3.5,1.2l0.1,3.3
					l0.2,3.3l3.5,1l3.4-0.3l0.4,4.4l0.6,4.4l-3.4,0.5l-3.1,1.7l0.6,3.3l0.6,3.3l3.6,0.5l3.4-0.7l0.9,4.3l1.1,4.3l-3.3,0.9l-2.9,2.1
					l0.9,3.2l1,3.2l3.6,0.1l3.2-1.2l1.5,4l1.6,4l-3.2,1.3l-2.6,2.5l1.4,3.1l1.5,3l3.6-0.4l3-1.5l2,3.8l2.1,3.7l-2.9,1.8l-2.3,2.8
					l1.8,2.8l1.8,2.8l3.5-0.9l2.8-1.9l2.5,3.6l2.6,3.4l-2.7,2.1l-1.9,3.1l2.1,2.5l2.2,2.5l3.4-1.3l2.5-2.3l3,3.2l3,3.1l-2.4,2.4
					l-1.5,3.3l2.4,2.3l2.5,2.2l3.1-1.8l2.2-2.6l3.3,2.8l3.5,2.7l-2.1,2.7l-1.1,3.5l2.7,1.9l2.8,1.9l2.9-2.2l1.9-2.9l3.7,2.4l3.8,2.2
					l-1.7,3l-0.6,3.5l3,1.6l3,1.5l2.6-2.6l1.5-3.1l4,1.9l4.1,1.7l-1.3,3.2l-0.1,3.6l3.1,1.2l3.1,1.1l2.2-2.9l1.1-3.2l4.1,1.3
					l4.1,1.2l-0.9,3.3l0.3,3.6l3.2,0.8l3.2,0.7l1.9-3.2l0.7-3.3l4.3,0.7l4.3,0.6l-0.4,3.4l0.8,3.5l3.3,0.4l3.3,0.3l1.5-3.4l0.2-3.4
					l4.4,0.1l4.4,0l-0.1,3.8l1.2,3.5l3.3-0.1l3.3-0.2l1-3.5l-0.3-3.4l4.4-0.4l4.4-0.6l0.5,3.4l1.7,3.1l3.3-0.6l3.3-0.6l0.5-3.6
					l-0.7-3.4l4.3-0.9l4.3-1.1l0.9,3.3l2.1,2.9l3.2-0.9l3.2-1l0.1-3.6l-1.2-3.2l4-1.5l4-1.6l1.3,3.2l2.5,2.6l3.1-1.4l3-1.5l-0.4-3.6
					l-1.4-3.1l3.8-2l3.7-2.1l1.8,2.9l2.8,2.3l2.8-1.8l2.8-1.8l-0.9-3.5l-1.9-2.8l3.6-2.5l3.4-2.6l2.1,2.7l3.1,1.9l2.5-2.1l2.5-2.2
					l-1.3-3.4l-2.3-2.5l3.2-3l3.1-3l2.4,2.4l3.3,1.5l2.3-2.4l2.2-2.5l-1.8-3.1l-2.7-2.2l2.8-3.3l2.7-3.5l2.7,2.1l3.5,1.1l1.9-2.7
					l1.9-2.8l-2.2-2.9l-2.9-1.9l2.4-3.7l2.2-3.8l3,1.7l3.5,0.6l1.6-3l1.5-3l-2.6-2.6l-3.1-1.5l1.9-4l1.7-4.1l3.2,1.3l3.6,0.1
					l1.2-3.1l1.1-3.1l-2.9-2.2l-3.2-1.1l1.3-4.1l1.2-4.1l3.3,0.9l3.6-0.3l0.8-3.2l0.7-3.2l-3.2-1.9l-3.3-0.7l0.7-4.3l0.6-4.3
					l3.4,0.4l3.5-0.8l0.4-3.3l0.3-3.3l-3.4-1.5l-3.4-0.2l0.1-4.4L825.4,700.7z M722.5,704.9l-0.2,1l-0.2,1l-0.2,1l-0.2,1l-0.3,1
					l-0.3,1l-0.3,1l-0.4,1l-0.4,0.9l-0.5,0.9l-0.5,0.9l-0.5,0.9l-0.5,0.9l-0.5,0.8l-0.6,0.8l-0.6,0.8l-0.6,0.8l-0.7,0.8l-0.7,0.8
					l-0.7,0.8l-0.8,0.7l-0.8,0.7l-0.8,0.7l-0.8,0.6l-0.8,0.6l-0.8,0.6l-0.8,0.5l-0.8,0.5l-0.9,0.5l-0.9,0.5l-0.9,0.5l-0.9,0.4
					l-0.9,0.4l-1,0.4l-1,0.3l-1,0.3l-1,0.2l-1,0.2l-1,0.2l-1,0.2l-1,0.2l-1,0.1l-1,0.1l-1,0l-1,0l-1.1,0l-1-0.1l-1-0.1l-1-0.2
					l-1-0.2l-1-0.2l-1-0.2l-1-0.3l-1-0.3l-1-0.3l-1-0.4l-0.9-0.4l-0.9-0.5l-0.9-0.5l-0.9-0.5l-0.9-0.5l-0.8-0.5l-0.8-0.6l-0.8-0.6
					l-0.8-0.6l-0.8-0.7l-0.8-0.7l-0.8-0.7l-0.7-0.8l-0.7-0.8l-0.7-0.8l-0.6-0.8l-0.6-0.8l-0.6-0.8l-0.5-0.8l-0.5-0.8l-0.5-0.9
					l-0.5-0.9l-0.5-0.9l-0.4-0.9l-0.4-0.9l-0.4-1l-0.3-1l-0.3-1l-0.2-1l-0.2-1l-0.2-1l-0.2-1l-0.2-1l-0.1-1l-0.1-1l0-1l0-1l0.1-1
					l0.1-1l0.1-1l0.2-1l0.2-1l0.2-1l0.2-1l0.3-1l0.3-1l0.3-1l0.4-1l0.4-0.9l0.5-0.9l0.5-0.9l0.5-0.9l0.5-0.9l0.5-0.8l0.6-0.8
					l0.6-0.8l0.6-0.8l0.7-0.8l0.7-0.8l0.7-0.8l0.8-0.7l0.8-0.7l0.8-0.7l0.8-0.6l0.8-0.6l0.8-0.6l0.8-0.5l0.8-0.5l0.9-0.5l0.9-0.5
					l0.9-0.5l0.9-0.4l0.9-0.4l1-0.4l1-0.3l1-0.3l1-0.2l1-0.2l1-0.2l1-0.2l1-0.2l1-0.1l1-0.1l1,0l1,0l1,0.1l1,0.1l1,0.1l1,0.2l1,0.2
					l1,0.2l1,0.2l1,0.3l1,0.3l1,0.3l1,0.4l0.9,0.4l0.9,0.5l0.9,0.5l0.9,0.5l0.9,0.5l0.8,0.5l0.8,0.6l0.8,0.6l0.8,0.6l0.8,0.7
					l0.8,0.7l0.8,0.7l0.7,0.8l0.7,0.8l0.7,0.8l0.6,0.8l0.6,0.8l0.6,0.8l0.5,0.8l0.5,0.8l0.5,0.9l0.5,0.9l0.5,0.9l0.4,0.9l0.4,0.9
					l0.4,1l0.3,1l0.3,1l0.2,1l0.2,1l0.2,1l0.2,1l0.2,1l0.1,1l0.1,1l0,1l0,1l-0.1,1l-0.1,1L722.5,704.9z"/>
			</g>
			<g>
				<path d="M903.1,548.7h-3.5l-0.2-4.3l-0.4-4.2l3.4-0.5l3.2-1.7l-0.6-3.4l-0.8-3.4l-3.6-0.3l-3.3,0.9l-1.2-4.1l-1.5-4l3.2-1.3
					l2.7-2.5l-1.4-3.2l-1.6-3.1l-3.6,0.6l-2.9,1.7l-2.3-3.6l-2.5-3.5l2.7-2.1l2-3.1l-2.2-2.6l-2.3-2.6l-3.3,1.5l-2.4,2.4l-3.1-2.9
					l-3.3-2.7l2.1-2.7l1.1-3.5l-2.9-2l-2.9-1.9l-2.8,2.3l-1.7,2.9l-3.8-2l-3.8-1.7l1.3-3.2l0.2-3.6l-3.2-1.2l-3.3-1.1l-2.1,2.9
					l-0.9,3.3l-4.1-1l-4.2-0.7l0.5-3.4l-0.8-3.5l-3.5-0.3l-3.5-0.2l-1.3,3.4v3.5l-4.3,0.2l-4.2,0.4l-0.5-3.4L824,477l-3.4,0.6
					l-3.4,0.8l-0.3,3.6l0.9,3.3l-4.1,1.2l-4,1.5l-1.3-3.2l-2.5-2.7l-3.2,1.4l-3.1,1.6l0.6,3.6l1.7,2.9l-3.6,2.3l-3.5,2.5l-2.1-2.7
					l-3.1-2l-2.6,2.2l-2.6,2.3l1.5,3.3l2.4,2.4l-2.9,3.1l-2.7,3.3l-2.7-2.1l-3.5-1.1l-2,2.9l-1.9,2.9l2.3,2.8l2.9,1.7l-2,3.8
					l-1.7,3.8l-3.2-1.3l-3.6-0.2l-1.2,3.2L765,528l2.9,2.1l3.3,0.9l-1,4.1l-0.7,4.2l-3.4-0.5l-3.5,0.8l-0.3,3.5l-0.2,3.5l3.4,1.3
					h3.5l0.2,4.3l0.4,4.2l-3.4,0.5l-3.2,1.7l0.6,3.4l0.8,3.4l3.6,0.3l3.3-0.9l1.2,4.1l1.5,4l-3.2,1.3l-2.7,2.5l1.4,3.2l1.6,3.1
					l3.6-0.6l2.9-1.7l2.3,3.6l2.5,3.5l-2.7,2.1l-2,3.1l2.2,2.6l2.3,2.6l3.3-1.5l2.4-2.4l3.1,2.9l3.3,2.7l-2.1,2.7l-1.1,3.5l2.9,2
					l2.9,1.9l2.8-2.3l1.7-2.9l3.8,2l3.8,1.7l-1.1,3.2l-0.2,3.6l3.2,1.2l3.3,1.1l2.1-2.9l0.9-3.3l4.1,1l4.2,0.7l-0.5,3.4l0.8,3.5
					l3.5,0.3l3.5,0.2l1.3-3.4v-3.5l4.3-0.2l4.2-0.4l0.5,3.4l1.7,3.2l3.4-0.6l3.4-0.8l0.3-3.6l-0.9-3.3l4.1-1.2l4-1.5l1.3,3.2
					l2.5,2.7l3.2-1.4l3.1-1.6l-0.6-3.6l-1.7-2.9l3.6-2.3l3.5-2.5l2.1,2.7l3.1,2l2.6-2.2l2.6-2.3l-1.5-3.3l-2.4-2.4l2.9-3.1l2.7-3.3
					l2.7,2.1l3.5,1.1l2-2.9l1.9-2.9l-2.3-2.8l-2.9-1.7l2-3.8l1.7-3.8l3.2,1.3l3.6,0.2l1.2-3.2l1.1-3.3l-2.9-2.1l-3.3-0.9l1-4.1
					l0.7-4.2l3.4,0.5l3.5-0.8l0.3-3.5l0.2-3.5L903.1,548.7z M864.4,556.6l-0.6,2l-0.7,1.9l-0.8,1.8l-1,1.8l-1.1,1.7l-1.2,1.7
					l-1.3,1.6l-1.4,1.5l-1.5,1.4l-1.6,1.3l-1.7,1.2l-1.7,1.1l-1.8,1l-1.8,0.8l-1.9,0.7l-2,0.6l-2,0.5l-2,0.3l-2,0.2l-2,0.1l-2-0.1
					l-2-0.2l-2-0.3l-2-0.5l-2-0.6l-1.9-0.7l-1.8-0.8l-1.8-1l-1.7-1.1l-1.7-1.2l-1.6-1.3l-1.5-1.4l-1.4-1.5l-1.3-1.6l-1.2-1.7
					l-1.1-1.7l-1-1.8l-0.8-1.8l-0.7-1.9l-0.6-2l-0.5-2l-0.3-2l-0.2-2l-0.1-2l0.1-2l0.2-2l0.3-2l0.5-2l0.6-2l0.7-1.9l0.8-1.8l1-1.8
					l1.1-1.7l1.2-1.7l1.3-1.6l1.4-1.5l1.5-1.4l1.6-1.3l1.7-1.2l1.7-1.1l1.8-1l1.8-0.8l1.9-0.7l2-0.6l2-0.5l2-0.3l2-0.2l2-0.1l2,0.1
					l2,0.2l2,0.3l2,0.5l2,0.6l1.9,0.7l1.8,0.8l1.8,1l1.7,1.1l1.7,1.2l1.6,1.3l1.5,1.4l1.4,1.5l1.3,1.6l1.2,1.7l1.1,1.7l1,1.8
					l0.8,1.8l0.7,1.9l0.6,2l0.5,2l0.3,2l0.2,2l0.1,2l-0.1,2l-0.2,2l-0.3,2L864.4,556.6z"/>
			</g>
		</g>
		<g>
			<path d="M320.6,971.4h-27.8c-2.6,0-3.9-1.5-3.9-3.9v-75.7c0-2.5,1.4-3.9,3.9-3.9h27.3c2.6,0,3.9,1.5,3.9,3.9v2.1
				c0,2.6-1.4,3.9-3.9,3.9h-20v26.4h16.4c2.6,0,3.9,1.5,3.9,3.9v2.2c0,2.5-1.4,3.9-3.9,3.9h-16.4v27.4h20.5c2.6,0,3.9,1.4,3.9,3.9
				v2.1C324.5,970.1,323.1,971.4,320.6,971.4z"/>
			<path d="M340.8,971.4h-2.5c-2.6,0-3.9-1.5-3.9-3.9v-75.7c0-2.5,1.4-3.9,3.9-3.9h3.9c2.3,0,3.8,1.1,4.5,3.2l19.8,54.4v-53.6
				c0-2.5,1.5-3.9,3.9-3.9h2.5c2.6,0,3.9,1.5,3.9,3.9v75.7c0,2.5-1.4,3.9-3.9,3.9h-3.5c-2.3,0-3.7-1.1-4.4-3.2l-20.3-56.2v55.6
				C344.8,970.1,343.3,971.4,340.8,971.4z"/>
			<path d="M398.2,971.4h-3.3c-2.6,0-3.9-1.5-3.9-3.9v-75.7c0-2.5,1.4-3.9,3.9-3.9h3.3c2.5,0,3.9,1.5,3.9,3.9v75.7
				C402.1,970.1,400.7,971.4,398.2,971.4z"/>
			<path d="M450.2,917.4h-3.1c-2.6,0-3.9-1.5-3.9-3.9v-7.4c0-6.7-3.2-9.3-9-9.3s-9,2.6-9,9.3v5.7c0,5,1.8,6.9,6.6,9.6l10.9,6
				c7.2,4.1,11.7,8.1,11.7,16.2v11.6c0,12.5-7.4,17.4-20,17.4h-0.2c-12.6,0-20-4.7-20-17.4v-10.3c0-2.5,1.4-3.9,3.9-3.9h3.1
				c2.6,0,3.9,1.5,3.9,3.9v8.4c0,6.6,3.2,9.6,9,9.6c5.9,0,9-2.9,9-9.6v-6.6c0-5-1.8-7.2-6.7-9.9l-10.8-6c-7.6-4.4-11.7-8-11.7-16
				V904c0-12.1,8.4-17.2,19.8-17.2h0.2c11.5,0,19.8,5.1,19.8,17.2v9.3C454.2,916,452.8,917.4,450.2,917.4z"/>
			<path d="M469.8,887.8h3.3c2.5,0,3.9,1.5,3.9,3.9v32.1h19.7v-31.9c0-2.5,1.5-3.9,3.9-3.9h3.3c2.6,0,3.9,1.5,3.9,3.9v75.7
				c0,2.5-1.4,3.9-3.9,3.9h-3.3c-2.5,0-3.9-1.5-3.9-3.9V934H477v33.6c0,2.5-1.5,3.9-3.9,3.9h-3.3c-2.6,0-3.9-1.5-3.9-3.9v-75.7
				C465.9,889.3,467.2,887.8,469.8,887.8z"/>
			<path d="M529.2,971.4h-3.3c-2.6,0-3.9-1.5-3.9-3.9v-75.7c0-2.5,1.4-3.9,3.9-3.9h3.3c2.5,0,3.9,1.5,3.9,3.9v75.7
				C533.1,970.1,531.7,971.4,529.2,971.4z"/>
			<path d="M600.8,891.8v2.1c0,2.6-1.4,3.9-3.9,3.9h-10.6v69.8c0,2.5-1.5,3.9-3.9,3.9h-3.3c-2.5,0-3.9-1.5-3.9-3.9v-69.8h-10.8
				c-2.5,0-3.9-1.4-3.9-3.9v-2.1c0-2.5,1.5-3.9,3.9-3.9h32.5C599.5,887.8,600.8,889.3,600.8,891.8z"/>
			<path d="M640.3,971.4h-27.7c-2.6,0-3.9-1.5-3.9-3.9v-75.7c0-2.5,1.4-3.9,3.9-3.9h27.3c2.6,0,3.9,1.5,3.9,3.9v2.1
				c0,2.6-1.4,3.9-3.9,3.9h-20.1v26.4h16.4c2.6,0,3.9,1.5,3.9,3.9v2.2c0,2.5-1.4,3.9-3.9,3.9h-16.4v27.4h20.5c2.6,0,3.9,1.4,3.9,3.9
				v2.1C644.2,970.1,642.8,971.4,640.3,971.4z"/>
			<path d="M694.6,941.7v13c0,12.5-7.6,17.6-20.3,17.6H674c-12.6,0-20.3-5-20.3-17.6v-50.2c0-12.1,7.6-17.6,20.3-17.6h0.2
				c12.6,0,20.3,5.6,20.3,17.6v11c0,2.5-1.4,3.9-3.9,3.9h-3.3c-2.5,0-3.9-1.5-3.9-3.9v-8.8c0-7.4-3.1-9.9-9.2-9.9
				c-6.1,0-9.2,2.6-9.2,9.9v45.9c0,7.4,3.1,9.9,9.2,9.9c6.1,0,9.2-2.6,9.2-9.9v-10.8c0-2.5,1.5-3.9,3.9-3.9h3.3
				C693.2,937.8,694.6,939.3,694.6,941.7z"/>
			<path d="M710.8,887.8h3.3c2.5,0,3.9,1.5,3.9,3.9v32.1h19.7v-31.9c0-2.5,1.5-3.9,3.9-3.9h3.3c2.6,0,3.9,1.5,3.9,3.9v75.7
				c0,2.5-1.4,3.9-3.9,3.9h-3.3c-2.5,0-3.9-1.5-3.9-3.9V934H718v33.6c0,2.5-1.5,3.9-3.9,3.9h-3.3c-2.6,0-3.9-1.5-3.9-3.9v-75.7
				C706.9,889.3,708.3,887.8,710.8,887.8z"/>
			<path d="M789.3,971.4H786c-2.6,0-3.9-1.5-3.9-3.9v-75.7c0-2.5,1.4-3.9,3.9-3.9h3.3c2.5,0,3.9,1.5,3.9,3.9v75.7
				C793.2,970.1,791.8,971.4,789.3,971.4z"/>
			<path d="M813.5,971.4H811c-2.6,0-3.9-1.5-3.9-3.9v-75.7c0-2.5,1.4-3.9,3.9-3.9h3.9c2.3,0,3.8,1.1,4.5,3.2l19.8,54.4v-53.6
				c0-2.5,1.5-3.9,3.9-3.9h2.5c2.6,0,3.9,1.5,3.9,3.9v75.7c0,2.5-1.4,3.9-3.9,3.9h-3.5c-2.3,0-3.7-1.1-4.4-3.2l-20.5-56.2v55.6
				C817.4,970.1,816.1,971.4,813.5,971.4z"/>
			<path d="M903.6,941.7v13c0,12.5-7.6,17.6-20.3,17.6H883c-12.6,0-20.3-5-20.3-17.6v-50.2c0-12.1,7.6-17.6,20.3-17.6h0.2
				c12.6,0,20.3,5.6,20.3,17.6v11c0,2.5-1.4,3.9-3.9,3.9h-3.5c-2.5,0-3.9-1.5-3.9-3.9v-8.8c0-7.4-3.1-9.9-9.2-9.9
				c-6.1,0-9.2,2.6-9.2,9.9v45.9c0,7.4,3.1,9.9,9.2,9.9c6.1,0,9.2-2.6,9.2-9.9v-10.8c0-2.5,1.5-3.9,3.9-3.9h3.3
				C902.2,937.8,903.6,939.3,903.6,941.7z"/>
			<path d="M925.6,962.2v5.3c0,2.5-1.4,3.9-3.9,3.9h-3.5c-2.5,0-3.9-1.5-3.9-3.9v-5.3c0-2.5,1.5-3.9,3.9-3.9h3.3
				C924.2,958.3,925.6,959.8,925.6,962.2z"/>
		</g>
	</g>
</g>
</svg>
