<svg width="200" height="200" viewBox="0 0 200 200" fill="none" xmlns="http://www.w3.org/2000/svg">
<rect width="200" height="200" fill="white"/>
<g clip-path="url(#clip0_835_2851)">
<path d="M49.8989 124.798C63.6502 124.798 74.7978 113.65 74.7978 99.8989C74.7978 86.1476 63.6502 75 49.8989 75C36.1476 75 25 86.1476 25 99.8989C25 113.65 36.1476 124.798 49.8989 124.798Z" fill="#EDEDEE"/>
<path d="M34.2343 102.978C33.4796 102.205 33.0625 100.915 33.0625 99.2884C33.0625 97.6616 33.4607 96.3723 34.2343 95.5987C34.8486 94.9616 35.7018 94.6279 36.6953 94.6279C37.6889 94.6279 38.5383 94.9654 39.1564 95.5987C39.93 96.3913 40.3281 97.6426 40.3281 99.2884C40.3281 100.934 39.93 102.205 39.1564 102.978C38.5421 103.611 37.6699 103.949 36.6953 103.949C35.7208 103.949 34.8486 103.611 34.2343 102.978ZM35.0458 99.2884C35.0458 101.253 35.5994 102.265 36.6915 102.265C37.7837 102.265 38.3373 101.253 38.3373 99.2884C38.3373 97.3241 37.7837 96.3154 36.6915 96.3154C35.5994 96.3154 35.0458 97.3279 35.0458 99.2884Z" fill="#555555"/>
<path d="M60.6405 102.978C59.8859 102.205 59.4688 100.915 59.4688 99.2884C59.4688 97.6616 59.8669 96.3723 60.6405 95.5987C61.2548 94.9616 62.108 94.6279 63.1016 94.6279C64.0951 94.6279 64.9483 94.9654 65.5626 95.5987C66.3362 96.3913 66.7344 97.6426 66.7344 99.2884C66.7344 100.934 66.3362 102.205 65.5626 102.978C64.9483 103.611 64.0761 103.949 63.1016 103.949C62.127 103.949 61.2548 103.611 60.6405 102.978ZM61.4558 99.2884C61.4558 101.253 62.0095 102.265 63.1016 102.265C64.1937 102.265 64.7473 101.253 64.7473 99.2884C64.7473 97.3241 64.1937 96.3154 63.1016 96.3154C62.0095 96.3154 61.4558 97.3279 61.4558 99.2884Z" fill="#555555"/>
<path d="M49.8989 110.278C54.2614 110.278 57.7979 106.741 57.7979 102.379C57.7979 98.0164 54.2614 94.48 49.8989 94.48C45.5365 94.48 42 98.0164 42 102.379C42 106.741 45.5365 110.278 49.8989 110.278Z" fill="#E68F24"/>
<path d="M55.4994 103.649H44.2938C43.5923 103.649 43.0234 103.081 43.0234 102.379C43.0234 101.677 43.5923 101.109 44.2938 101.109H55.4994C56.201 101.109 56.7698 101.677 56.7698 102.379C56.7698 103.081 56.201 103.649 55.4994 103.649Z" fill="#A86B11"/>
<path d="M105.246 111.457C105.246 111.457 99.9214 111.62 98.306 111.457C95.9359 111.218 94.0513 110.74 92.6785 109.299C91.3096 107.862 90.6232 105.978 90.6232 103.638H112.587V99.7283C112.587 94.7872 111.26 90.7903 108.613 87.7339C105.826 84.5447 102.053 82.9482 97.2935 82.9482C92.5344 82.9482 88.9812 84.4992 86.2434 87.5973C83.4145 90.832 82 95.2574 82 100.87C82 112.864 87.4113 118.859 98.2377 118.859C99.5801 118.859 105.246 118.859 105.246 118.859V111.446V111.457ZM91.4347 93.8695C92.5117 91.4425 94.4684 90.2329 97.2973 90.2329C100.126 90.2329 102.083 91.4463 103.16 93.8695C103.653 94.9464 103.922 96.2054 103.968 97.6426H90.627C90.6725 96.2054 90.9418 94.9464 91.4347 93.8695Z" fill="#555555"/>
<path d="M160.041 82.9558C159.525 82.9558 153.871 82.971 153.393 82.9899V90.4224C153.75 90.3883 159.283 90.3694 159.662 90.3694C164.004 90.3694 166.173 92.2123 166.173 95.8944V97.6464H157.914C154.019 97.6464 151.054 98.602 149.017 100.509C146.981 102.421 145.961 104.855 145.961 107.821C145.961 111.101 146.947 113.751 148.926 115.773C150.902 117.794 153.867 118.806 157.819 118.806C161.323 118.806 164.197 117.684 166.442 115.439V118.473H175.001V95.3597C175.001 87.0968 170.014 82.9634 160.041 82.9634V82.9558ZM166.173 105.526C166.173 107.324 165.904 108.624 165.369 109.436C164.387 110.919 162.4 111.658 159.408 111.658C156.059 111.658 154.383 110.312 154.383 107.616C154.383 104.92 156.014 103.642 159.275 103.642H166.177V105.526H166.173Z" fill="#555555"/>
<path d="M132.685 97.1041L127.16 96.5656C124.733 96.3419 123.52 95.3294 123.52 93.532C123.52 91.287 125.181 90.1646 128.506 90.1646C129.989 90.1646 142.693 90.1646 142.693 90.1646V82.9558C142.693 82.9558 130 82.9558 128.639 82.9558C124.866 82.9558 121.722 83.9 119.204 85.7847C116.463 87.8514 115.094 90.6348 115.094 94.1387C115.094 100.024 118.507 103.304 125.336 103.975L130.861 104.514C133.33 104.738 134.566 105.818 134.566 107.749C134.566 110.175 132.499 111.385 128.366 111.385C127.327 111.385 115.761 111.385 115.761 111.385V118.863C115.761 118.863 127.244 118.863 128.233 118.863C132.59 118.863 136.117 117.919 138.813 116.034C141.688 114.013 143.125 111.139 143.125 107.411C143.125 101.211 139.644 97.7753 132.681 97.1003L132.685 97.1041Z" fill="#555555"/>
</g>
<defs>
<clipPath id="clip0_835_2851">
<rect width="150" height="49.794" fill="white" transform="translate(25 75)"/>
</clipPath>
</defs>
</svg>
