<?xml version="1.0" encoding="UTF-8"?>
<svg id="Layer_2" data-name="Layer 2" xmlns="http://www.w3.org/2000/svg" viewBox="0 0 469.98 469.98">
  <defs>
    <style>
      .cls-1 {
        fill: #a86b11;
      }

      .cls-2 {
        fill: #ededee;
      }

      .cls-3 {
        fill: #e68f24;
      }

      .cls-4 {
        fill: #fff;
      }

      .cls-5 {
        fill: #555;
      }
    </style>
  </defs>
  <g id="_レイヤー_1" data-name="レイヤー 1">
    <g>
      <rect class="cls-4" width="469.98" height="469.98"/>
      <g>
        <circle class="cls-2" cx="102.87" cy="234.99" r="65.66"/>
        <path class="cls-5" d="M61.56,243.12c-1.99-2.04-3.09-5.44-3.09-9.73s1.05-7.69,3.09-9.73c1.62-1.68,3.87-2.56,6.49-2.56s4.86.89,6.49,2.56c2.04,2.09,3.09,5.39,3.09,9.73s-1.05,7.69-3.09,9.73c-1.62,1.67-3.92,2.56-6.49,2.56s-4.87-.89-6.49-2.56ZM63.71,233.39c0,5.18,1.46,7.85,4.34,7.85s4.34-2.67,4.34-7.85-1.46-7.84-4.34-7.84-4.34,2.67-4.34,7.84Z"/>
        <path class="cls-5" d="M131.21,243.12c-1.99-2.04-3.09-5.44-3.09-9.73s1.05-7.69,3.09-9.73c1.62-1.68,3.87-2.56,6.49-2.56s4.87.89,6.49,2.56c2.04,2.09,3.09,5.39,3.09,9.73s-1.05,7.69-3.09,9.73c-1.62,1.67-3.92,2.56-6.49,2.56s-4.87-.89-6.49-2.56ZM133.35,233.39c0,5.18,1.46,7.85,4.34,7.85s4.34-2.67,4.34-7.85-1.46-7.84-4.34-7.84-4.34,2.67-4.34,7.84Z"/>
        <g>
          <circle class="cls-3" cx="102.87" cy="241.54" r="20.83"/>
          <path class="cls-1" d="M117.65,244.89h-29.55c-1.85,0-3.35-1.5-3.35-3.35s1.5-3.35,3.35-3.35h29.55c1.85,0,3.35,1.5,3.35,3.35s-1.5,3.35-3.35,3.35Z"/>
        </g>
        <g>
          <path class="cls-5" d="M248.82,265.48s-14.04.43-18.3,0c-6.25-.63-11.22-1.89-14.84-5.69-3.61-3.79-5.42-8.76-5.42-14.93h57.92v-10.31c0-13.03-3.5-23.57-10.48-31.63-7.35-8.41-17.3-12.62-29.85-12.62s-21.92,4.09-29.14,12.26c-7.46,8.53-11.19,20.2-11.19,35,0,31.63,14.27,47.44,42.82,47.44,3.54,0,18.48,0,18.48,0v-19.55ZM212.4,219.1c2.84-6.4,8-9.59,15.46-9.59s12.62,3.2,15.46,9.59c1.3,2.84,2.01,6.16,2.13,9.95h-35.18c.12-3.79.83-7.11,2.13-9.95Z"/>
          <path class="cls-5" d="M393.32,190.31c-1.36,0-16.27.04-17.53.09v19.6c.94-.09,15.53-.14,16.53-.14,11.45,0,17.17,4.86,17.17,14.57v4.62h-21.78c-10.27,0-18.09,2.52-23.46,7.55-5.37,5.04-8.06,11.46-8.06,19.28,0,8.65,2.6,15.64,7.82,20.97,5.21,5.33,13.03,8,23.45,8,9.24,0,16.82-2.96,22.74-8.88v8h22.57v-60.95c0-21.79-13.15-32.69-39.45-32.69ZM409.49,249.84c0,4.74-.71,8.17-2.12,10.31-2.59,3.91-7.83,5.86-15.72,5.86-8.83,0-13.25-3.55-13.25-10.66s4.3-10.48,12.9-10.48h18.2v4.97Z"/>
          <path class="cls-5" d="M321.19,227.63l-14.57-1.42c-6.4-.59-9.6-3.26-9.6-8,0-5.92,4.38-8.88,13.15-8.88,3.91,0,37.41,0,37.41,0v-19.01s-33.47,0-37.06,0c-9.95,0-18.24,2.49-24.88,7.46-7.23,5.45-10.84,12.79-10.84,22.03,0,15.52,9,24.17,27.01,25.94l14.57,1.42c6.51.59,9.77,3.44,9.77,8.53,0,6.4-5.45,9.59-16.35,9.59-2.74,0-33.24,0-33.24,0v19.72s30.28,0,32.89,0c11.49,0,20.79-2.49,27.9-7.46,7.58-5.33,11.37-12.91,11.37-22.74,0-16.35-9.18-25.41-27.54-27.19Z"/>
        </g>
      </g>
    </g>
  </g>
</svg>