<?xml version="1.0" encoding="UTF-8"?>
<svg id="Layer_2" data-name="Layer 2" xmlns="http://www.w3.org/2000/svg" xmlns:xlink="http://www.w3.org/1999/xlink" viewBox="0 0 141.73 141.73">
  <defs>
    <style>
      .cls-1 {
        fill: url(#radial-gradient-2);
      }

      .cls-2 {
        fill: url(#radial-gradient);
      }

      .cls-3 {
        fill: #fff;
      }

      .cls-4 {
        fill: #fdb913;
      }

      .cls-5 {
        fill: #034ea2;
      }

      .cls-6 {
        fill: #4d4d4d;
      }
    </style>
    <radialGradient id="radial-gradient" cx="71.89" cy="84.59" fx="71.89" fy="84.59" r="58.31" gradientUnits="userSpaceOnUse">
      <stop offset=".15" stop-color="#33a3dc"/>
      <stop offset=".55" stop-color="#034ea2"/>
      <stop offset=".63" stop-color="#084999"/>
      <stop offset=".76" stop-color="#173c80"/>
      <stop offset=".9" stop-color="#2c2a5f"/>
    </radialGradient>
    <radialGradient id="radial-gradient-2" cx="71.89" cy="49.15" fx="71.89" fy="49.15" r="37.73" gradientUnits="userSpaceOnUse">
      <stop offset="0" stop-color="#fff"/>
      <stop offset=".4" stop-color="#33a3dc"/>
      <stop offset=".8" stop-color="#034ea2"/>
    </radialGradient>
  </defs>
  <g id="_ÉåÉCÉÑÅ__1" data-name="ÉåÉCÉÑÅ[_1">
    <rect class="cls-3" width="141.73" height="141.73"/>
    <g>
      <g>
        <path class="cls-2" d="M44.2,71.71c-2.19,0-4.34-.54-6.08-1.93h0c-1.76-1.36-2.8-3.66-2.76-5.84h0c0-1.78.56-3.47,1.46-5.03h0L63.52,12.65c.78-1.35,1.76-2.51,3.01-3.39h0c1.24-.87,2.79-1.43,4.38-1.42h0c1.59,0,3.14.55,4.38,1.42h0c1.25.88,2.23,2.04,3.01,3.39h0l9.4,16.28c1.07,1.85,1.59,3.91,1.59,5.92h0c0,4.09-2.12,8.1-5.93,10.31h0l-32.3,18.67h47.57l-8.11-14.19c-1.09-1.89-.44-4.31,1.45-5.41h0c1.89-1.09,4.31-.44,5.41,1.45h0l7.65,13.25c.9,1.56,1.46,3.24,1.46,5.03h0c.04,2.17-1,4.47-2.76,5.84h0c-1.75,1.39-3.89,1.93-6.08,1.93h-53.43ZM47.1,56.93l32.29-18.64c1.26-.72,1.97-2.06,1.97-3.45h0c0-.67-.17-1.34-.52-1.96h0l-9.93-17.33-23.81,41.39Z"/>
        <path class="cls-1" d="M54.31,44.4l16.6-28.85,9.93,17.33c.36.62.52,1.28.52,1.96,0,.54-.12,1.08-.32,1.57,2.69-.6,5.44-1.16,8.24-1.68-.01-1.97-.53-3.99-1.58-5.81l-9.4-16.28c-.78-1.35-1.76-2.51-3.01-3.39-1.24-.88-2.78-1.43-4.38-1.42-1.59,0-3.14.55-4.38,1.42-1.25.88-2.23,2.04-3.01,3.39l-21.54,37.3c3.79-1.97,7.91-3.83,12.32-5.55Z"/>
      </g>
      <g>
        <g>
          <path class="cls-4" d="M24.79,109.33l10.49-2.55c4.4-1.04,7.93-5.05,7.96-9.76-.01-5.54-4.59-9.92-10.25-9.93h-5.74c-5.66,0-10.24,4.39-10.25,9.93v10.97c.01,7.54,6.01,13.61,13.57,13.63h11.4v-7.11h-11.4c-2.97,0-5.43-2.27-5.78-5.18ZM24.75,101.9v-4.89c0-1.57,1.24-2.82,2.51-2.83h5.74c.6,0,1.22.29,1.71.81.49.52.8,1.25.8,2.01-.04,1.64-.83,2.44-1.96,2.73l-8.79,2.16Z"/>
          <path class="cls-5" d="M66.73,101.99l-8.54-2.23c-1.08-.3-1.94-1.26-1.95-2.74,0-.76.31-1.49.79-2.01.49-.53,1.11-.82,1.71-.81h14.07v-7.1h-14.07c-5.66,0-10.24,4.39-10.25,9.93,0,4.96,3.6,8.59,8,9.7l8.29,2.11c1.44.45,2.13,1.17,2.19,2.86,0,.76-.31,1.49-.8,2.01-.49.53-1.11.81-1.71.81h-15.35v7.1h15.35c5.66,0,10.24-4.39,10.25-9.93,0-4.84-3.58-8.57-8.01-9.7Z"/>
          <path class="cls-5" d="M114.79,87.09h-2.68c-3.12,0-6.13,1.15-8.41,3.2-1.87-1.91-4.48-3.2-7.4-3.2h-2.87c-2.42,0-4.78.74-6.75,2.21l-1.48-2.21h-5.21v34.53h7.74v-21.54c0-3.27,2.5-5.88,5.69-5.89h2.87c1.16,0,2.18,1,2.19,2.25v25.17h7.74v-21.54c0-3.22,2.67-5.88,5.89-5.89h2.68c1.16,0,2.19,1,2.19,2.25v25.17h7.74v-24.6c0-5.5-4.43-9.92-9.93-9.93Z"/>
        </g>
        <g>
          <path class="cls-6" d="M20.34,128.8v.94c-.09.85-.41,1.64-.99,2.36-.57.73-1.27,1.22-2.09,1.46v-1.14c.49-.16.92-.49,1.29-.99.37-.49.59-1.04.66-1.63h-1.96v-1h3.08ZM24.69,125.46v.98h-6.6v-.98h6.6ZM22.15,127.1v5.49c0,.34-.1.62-.3.82-.2.21-.49.31-.86.31h-1.23v-1.07h1c.23,0,.34-.1.34-.3v-4.24h-3v-1h4.06ZM23.91,127.58c0,.23,0,.45,0,.67,0,.22.02.43.04.63l1.7-1.82v1.39l-1.55,1.63c.13.58.32,1.05.56,1.42.24.37.57.66.99.87v1.23c-.9-.37-1.59-1.02-2.06-1.96-.5-1.02-.76-2.37-.76-4.06h1.06Z"/>
          <path class="cls-6" d="M30.7,125.31v1.05c-.35.14-.77.25-1.25.31v1h1.47v1.01h-1.47v.58l1.47,1.05v1.16l-1.47-1.14v3.39h-1.1v-2.79c-.22.37-.45.68-.67.94-.25.29-.52.55-.84.81v-1.45c.36-.28.68-.66.96-1.15.29-.49.47-.95.53-1.39h-1.5v-1.01h1.51v-.92l-1.51.04v-.98c1.11,0,1.95-.04,2.5-.11.55-.07,1-.2,1.37-.39ZM35,125.52v8.09h-3.63v-8.09h3.63ZM32.44,132.57h1.49v-6.03h-1.49v6.03Z"/>
          <path class="cls-6" d="M36.39,129.4v-1.03c1.25.05,2.9.19,4.12.38v1.05c-1.25-.19-2.94-.37-4.12-.4ZM36.48,126.6v-1.03c1.24.05,2.87.2,4.12.38v1.06c-1.22-.18-2.93-.37-4.12-.41ZM36.64,133.57v-1.06c4.16-.17,6.17-1.65,6.61-5.49h1.16c-.43,4.69-3.27,6.47-7.77,6.56Z"/>
          <path class="cls-6" d="M49.93,130.52c-1.36,1.6-3.14,2.61-4.83,3.08v-1.09c2.32-.71,4.74-2.73,5.58-5.74h-5.12v-1.04h6.51c-.22,1.46-.72,2.73-1.4,3.79.64,1.44,1.71,2.34,2.68,2.99v1.2c-1.47-.67-2.66-1.86-3.42-3.19Z"/>
          <path class="cls-6" d="M59.73,129.18c-.31,2.67-2.09,4.09-4.55,4.47v-1.06c1.97-.37,3.13-1.61,3.32-3.41h-4.25v-1.01h8.51v1.01h-3.04ZM54.93,126.65v-1.01h7.2v1.01h-7.2Z"/>
          <path class="cls-6" d="M63.79,133.46v-.98c.91-1.76,2.03-4.74,2.62-6.97h1.19c-.77,2.79-1.69,4.94-2.6,6.92h5.81c-.45-1.29-1.29-2.93-2-4.17h1.21c.82,1.42,1.71,3.25,2.34,5.2h-8.58Z"/>
          <path class="cls-6" d="M76.81,131.37c.57.78,1.12,1.56,1.54,2.23h-1.38c-1-1.58-2.41-3.46-3.59-4.83h1.4c.42.51.91,1.12,1.4,1.77,1.58-.76,2.69-1.94,3.16-3.69h-7.18v-1.04h8.53v.09c-.35,2.88-1.91,4.57-3.88,5.47Z"/>
          <path class="cls-6" d="M86.33,129.98v3.92h-1.07v-3.31c-1.2.6-2.6,1.09-3.73,1.37v-1.03c1.42-.38,2.75-.92,3.91-1.57.96-.54,1.85-1.19,2.58-1.88h-5.85v-1.01h3.03v-1.3h1.09v1.3h3.27v1c-.95.97-2.06,1.82-3.22,2.54ZM86.99,130.97v-1.04c1.11.26,2.3.63,3.23,1v1.1c-1.01-.4-2.2-.77-3.23-1.05Z"/>
          <path class="cls-6" d="M91.13,129.4v-1.03c1.24.05,2.9.19,4.12.38v1.05c-1.25-.19-2.94-.37-4.12-.4ZM91.22,126.6v-1.03c1.24.05,2.87.2,4.12.38v1.06c-1.22-.18-2.93-.37-4.12-.41ZM91.38,133.57v-1.06c4.16-.17,6.16-1.65,6.61-5.49h1.16c-.43,4.69-3.27,6.47-7.77,6.56ZM97.05,126.59v-1.5h.72v1.5h-.72ZM98.23,126.59v-1.5h.71v1.5h-.71Z"/>
          <path class="cls-6" d="M104.85,130.36c-1.12,1.77-2.77,2.77-4.98,3.35v-1.05c1.73-.52,3.1-1.33,4.01-2.78-1.24-.6-2.15-.96-3.34-1.3v-1.08c1.26.37,2.37.79,3.83,1.46.56-1.2.79-2.33.95-3.6h1.12c-.15,1.35-.47,2.77-1.09,4.08.98.52,1.82,1.01,2.61,1.54v1.32c-.96-.69-1.92-1.32-3.11-1.94Z"/>
          <path class="cls-6" d="M108.96,126.82v-1.11c1.25.12,2.77.33,4.07.64v1.15c-1.33-.34-2.79-.57-4.07-.68ZM109.09,133.52v-1.09c3.41-.29,5.86-1.37,6.39-5.38h1.17c-.51,4.54-3.3,6.26-7.56,6.47Z"/>
          <path class="cls-6" d="M119.06,129.14v4.58h-1.14v-8.48h1.14v2.79c1.99.44,3.85.88,5.66,1.45v1.16c-1.94-.57-3.75-1.06-5.66-1.49Z"/>
        </g>
      </g>
    </g>
  </g>
</svg>