<?xml version="1.0" encoding="UTF-8"?>
<svg id="_レイヤー_1" data-name="レイヤー 1" xmlns="http://www.w3.org/2000/svg" viewBox="0 0 1176 700">
  <defs>
    <style>
      .cls-1 {
        fill: #4742c2;
      }

      .cls-2 {
        fill: #fff;
      }
    </style>
  </defs>
  <rect class="cls-2" x="238" y="-238" width="700" height="1176" transform="translate(238 938) rotate(-90)"/>
  <g>
    <g>
      <g>
        <path class="cls-1" d="M209.91,561.16c4.18,0,5.28-1.21,6.16-6.05l10.72-60.71c.18-1.03,1.25-1.61,2.23-1.25,2.34.87,5.94,1.38,11.13,1.38s8.67-.56,11.31-1.4c1.19-.38,2.34.63,2.13,1.86l-11.56,65.18c-.99,5.72-2.75,10.33-5.06,13.52-4.73,6.6-12.42,9.01-24.85,9.01h-10.45c-1.03,0-1.81-.93-1.63-1.94l3.26-18.24c.14-.79.83-1.36,1.63-1.36h4.99ZM228.27,480.57c1.32-7.92,6.38-10.44,16.27-10.44s13.85,2.53,12.53,10.44c-1.43,7.7-6.27,10.33-16.27,10.33-10.55,0-13.96-2.42-12.53-10.33Z"/>
        <path class="cls-1" d="M264.55,552.47c-9.56-6.38-12.2-17.59-9.89-31.77l.11-.55c3.52-19.13,16.6-30.01,34.96-30.01,7.92,0,14.29,1.54,19.02,4.73,9.45,6.38,12.64,17.7,10.11,32.54l-.11.66c-.99,6.05-2.97,11.1-5.61,15.5-5.28,8.69-14.4,13.63-28.8,13.63-8.57,0-15.06-1.54-19.79-4.73ZM294.01,524.55c1.76-9.12-.22-12.86-5.39-12.86-4.73,0-7.48,3.08-9.12,11.87-1.43,8.57.77,11.76,5.39,11.76,4.29,0,7.7-2.2,9.12-10.77Z"/>
        <path class="cls-1" d="M332.45,491.24h17.58c.84,0,1.55.64,1.64,1.47l.52,4.81c.17,1.56,2.21,2.03,3.04.7,3.87-6.22,10.01-8.08,19.15-8.08h1c1.03,0,1.81.93,1.63,1.94l-4.25,24.07c-.14.79-.83,1.36-1.63,1.36h-7.19c-8.58,0-11.21,2.64-12.64,10.77l-4.49,25.89c-.14.79-.82,1.37-1.63,1.37h-23.47c-1.03,0-1.8-.93-1.63-1.94l10.74-61.01c.14-.79.82-1.37,1.63-1.37Z"/>
        <path class="cls-1" d="M394.82,556.65c-14.84,0-22.98-11.87-19.13-34.96,4.18-21.77,13.85-31.44,27.26-31.44,6.7,0,11.08,2.54,13.41,7.1.73,1.43,2.83,1.16,3.11-.42l4.34-24.67c.14-.79.82-1.36,1.62-1.36h22.16c1.02,0,1.8.92,1.62,1.93l-14.37,81.36c-.14.79-.82,1.36-1.62,1.36h-19.18c-.86,0-1.58-.67-1.64-1.53l-.18-2.6c-.11-1.51-2.01-2.07-2.94-.88-3.22,4.1-7.81,6.11-14.46,6.11ZM414.94,524.55c1.76-9.12-.22-12.75-4.95-12.75s-7.48,2.97-9.12,11.76c-1.43,8.57.99,11.98,5.39,11.98,3.96,0,7.26-2.75,8.68-10.99Z"/>
        <path class="cls-1" d="M456.58,477.76c.14-.79.83-1.36,1.63-1.36h29.51c6.38,0,11.54.77,16.16,2.42,9.01,3.41,13.3,10.11,11.21,21.66-1.13,6.22-3.88,10.34-8.17,13.12-.95.61-1.05,1.99-.15,2.67,4.59,3.53,6.67,9.05,5.14,17.51-2.31,13.85-12.53,21.77-32.87,21.77h-34.2c-1.03,0-1.8-.93-1.63-1.94l13.38-75.85ZM472.23,531.84c-.18,1.01.6,1.94,1.63,1.94h3.96c6.05,0,8.25-1.43,8.79-4.4.55-3.41-.66-4.84-7.15-4.84h-4.55c-.8,0-1.49.57-1.63,1.36l-1.06,5.93ZM477.28,503.37c-.18,1.01.6,1.94,1.63,1.94h4.96c4.4,0,6.16-1.43,6.6-4.4.55-3.08-.77-4.4-4.95-4.4h-5.65c-.8,0-1.49.58-1.63,1.37l-.96,5.49Z"/>
        <path class="cls-1" d="M527.73,552.47c-9.56-6.38-12.2-17.59-9.89-31.77l.11-.55c3.52-19.13,16.6-30.01,34.96-30.01,7.92,0,14.29,1.54,19.02,4.73,9.45,6.38,12.64,17.7,10.11,32.54l-.11.66c-.99,6.05-2.97,11.1-5.61,15.5-5.28,8.69-14.4,13.63-28.8,13.63-8.58,0-15.06-1.54-19.79-4.73ZM557.2,524.55c1.76-9.12-.22-12.86-5.39-12.86-4.73,0-7.48,3.08-9.12,11.87-1.43,8.57.77,11.76,5.39,11.76,4.29,0,7.7-2.2,9.12-10.77Z"/>
        <path class="cls-1" d="M597.43,552.47c-9.56-6.38-12.2-17.59-9.89-31.77l.11-.55c3.52-19.13,16.6-30.01,34.96-30.01,7.91,0,14.29,1.54,19.02,4.73,9.45,6.38,12.64,17.7,10.11,32.54l-.11.66c-.99,6.05-2.97,11.1-5.61,15.5-5.28,8.69-14.4,13.63-28.8,13.63-8.57,0-15.06-1.54-19.79-4.73ZM626.9,524.55c1.76-9.12-.22-12.86-5.39-12.86-4.73,0-7.48,3.08-9.12,11.87-1.43,8.57.77,11.76,5.39,11.76,4.29,0,7.7-2.2,9.12-10.77Z"/>
        <path class="cls-1" d="M682.86,555.55c-6.6,0-11.54-1.1-14.95-2.97-6.93-3.96-8.14-12.2-5.83-25.29l1.97-11.26c.18-1.01-.6-1.94-1.63-1.94h-5.63c-1.03,0-1.8-.93-1.63-1.94l3.18-18.06c.13-.72.72-1.27,1.45-1.35,2.5-.28,4.84-.58,7.01-1.62,2.75-1.32,4.51-3.41,5.94-6.6,1.02-2.13,1.65-4.5,2.15-6.84.16-.76.84-1.3,1.61-1.3h17.02c1.03,0,1.81.93,1.63,1.94l-1.95,10.96c-.18,1.01.6,1.94,1.63,1.94h9.47c1.03,0,1.81.93,1.63,1.94l-3.48,19.56c-.14.79-.83,1.36-1.63,1.36h-10.64c-.8,0-1.49.58-1.63,1.37l-1.08,6.32c-.44,2.75-.55,4.95-.44,6.38.44,2.75,2.86,3.63,8.47,3.63h1.66c1.03,0,1.8.93,1.63,1.94l-3.6,20.44c-.14.79-.82,1.37-1.63,1.37h-10.71Z"/>
        <path class="cls-1" d="M767.18,543.24c-6.05,10.11-15.28,13.96-29.9,13.96-9.02,0-15.72-1.76-20.78-4.95-10-6.82-12.75-19.46-9.67-37.38l.11-.66c1.65-9.57,4.07-17.26,7.59-22.98,6.93-11.65,17.26-16.49,31.55-16.49,22.65,0,33.86,12.31,29.9,34.96l-.2,1.16c-.14.79-.82,1.37-1.63,1.37h-23.36c-1.03,0-1.81-.93-1.63-1.94l.32-1.8c1.43-8.24-.66-10.88-5.39-10.88-5.94,0-7.91,4.84-10.22,18.14-.77,4.62-1.21,8.24-1.32,10.77-.11,5.28,1.43,7.15,5.61,7.15,5.5,0,7.37-2.97,8.79-11.54l.09-.51c.14-.79.82-1.36,1.62-1.36l23.68-.1c1.03,0,1.82.93,1.63,1.95l-.08.46c-1.43,8.69-3.74,15.5-6.71,20.67Z"/>
        <path class="cls-1" d="M813.94,549.56c-.44-.99-1.8-1.16-2.4-.26-3.33,4.89-8.64,7.91-18.64,7.91-13.85,0-20.23-7.7-18.14-19.35.99-6.16,4.18-10.99,9.67-14.18,4.73-2.75,11.65-4.4,20.34-5.39,8.25-.99,11.98-1.87,12.53-4.84.44-2.2-.44-3.63-3.85-3.63-3.77,0-5.84,1.52-6.53,4.72-.14.64-.69,1.1-1.35,1.1h-23.45c-.91,0-1.57-.87-1.34-1.75,4.03-15.48,13.95-23.76,34.1-23.76,21.99,0,29.35,10.22,26.27,27.04l-2.42,12.97c-.55,3.19,0,3.74,3.19,3.74h0c.86,0,1.51.78,1.36,1.62l-3.36,18.89c-.12.66-.69,1.14-1.36,1.14h-9.62c-9.06,0-13.31-2.15-15.02-5.99ZM813.57,533.23l.28-1.57c.18-1.01-.77-1.89-1.75-1.58-.75.23-1.62.43-2.6.62-3,.54-4.43,1.07-5.62,1.81-.06.04-.12.08-.18.13-.94.76-1.57,1.73-1.89,3.01-.33,2.31.99,3.63,4.07,3.63,4.4,0,7.15-2.64,7.7-6.05Z"/>
        <path class="cls-1" d="M845.9,553.61l10.74-61.01c.14-.79.82-1.37,1.63-1.37h18.71c.87,0,1.6.68,1.65,1.55l.18,3.06c.09,1.46,1.91,2.11,2.87,1.01,3.73-4.28,8.82-6.72,15.66-6.72,7.77,0,12.91,2.63,15.42,8.02.54,1.16,2.1,1.29,2.85.26,3.82-5.29,9.26-8.28,16.81-8.28,13.96,0,19.9,9.12,16.93,25.95l-6.69,38.1c-.14.79-.82,1.37-1.63,1.37h-22.26c-1.03,0-1.8-.92-1.63-1.93l5.6-32.26c.99-5.61,1.21-9.12-3.19-9.12-4.62,0-5.61,3.74-6.82,9.78l-5.59,32.16c-.14.79-.82,1.37-1.63,1.37h-22.26c-1.03,0-1.8-.92-1.63-1.93l5.6-32.26c.99-5.61,1.1-9.12-3.3-9.12-4.62,0-5.5,3.74-6.71,9.78l-5.59,32.16c-.14.79-.82,1.37-1.63,1.37h-22.48c-1.03,0-1.8-.93-1.63-1.94Z"/>
        <path class="cls-1" d="M975.91,551.3l-4.34,24.65c-.14.79-.82,1.37-1.63,1.37h-22.15c-1.03,0-1.8-.93-1.63-1.94l14.59-82.78c.14-.79.83-1.37,1.63-1.37h19.17c.87,0,1.59.67,1.65,1.54l.23,3.4c.1,1.46,1.92,2.09,2.87.99,3.65-4.23,8.66-6.59,15.47-6.59,4.62,0,8.36,1.32,11.54,3.85,6.49,5.17,9.34,15.28,6.6,30.78-1.32,7.81-3.41,13.96-6.05,18.58-5.17,9.23-12.42,12.86-21.22,12.86-6.67,0-11.17-2.23-13.78-6.01-.83-1.21-2.72-.78-2.97.67ZM994.64,524.55c1.76-9.12-.22-12.75-4.95-12.75s-7.48,2.97-9.12,11.76c-1.43,8.57.99,11.98,5.39,11.98,3.96,0,7.26-2.75,8.69-10.99Z"/>
      </g>
      <path class="cls-1" d="M221.68,476.4h-51.61c-.8,0-1.49.58-1.63,1.36l-13.38,75.85c-.18,1.01.6,1.94,1.63,1.94h21.93c.8,0,1.48-.57,1.63-1.36l3.91-21.8c.14-.79.83-1.36,1.63-1.36h26.37c.8,0,1.49-.57,1.63-1.36l3.48-19.67c.18-1.01-.6-1.94-1.63-1.94h-25.2c-1.03,0-1.8-.93-1.63-1.94l.96-5.49c.14-.79.82-1.37,1.63-1.37h26.8c.8,0,1.49-.57,1.63-1.36l3.48-19.56c.18-1.01-.6-1.94-1.63-1.94Z"/>
    </g>
    <path class="cls-1" d="M635.4,269.09h-5.16c42.09,0,76.18-34.26,75.9-76.42-.28-41.88-35.02-75.38-76.91-75.38h-165.3c-12.76,0-23.11,10.35-23.11,23.11v226.48c0,8.79-7.13,15.92-15.92,15.92h0c-8.79,0-15.92,7.13-15.92,15.92v19.04c0,8.79,7.13,15.92,15.92,15.92l211.53-.02c45.65,0,82.62-37.18,82.28-82.91-.34-45.37-37.95-81.66-83.32-81.66ZM593.86,359.72c0,13.01-10.55,23.55-23.55,23.55h0c-13.01,0-23.55-10.54-23.55-23.55v-43.83c0-13.01,10.54-23.55,23.55-23.55h0c13.01,0,23.55,10.54,23.55,23.55v43.83ZM593.86,225.1c0,13.01-10.54,23.55-23.55,23.55s-23.55-10.54-23.55-23.55v-36.58c0-13.01,10.54-23.55,23.55-23.55s23.55,10.54,23.55,23.55v36.58Z"/>
    <path class="cls-1" d="M343.52,117.42h-59s-106.38,0-106.38,0c-.88,0-1.75.06-2.61.16-11.53,1.3-20.5,11.07-20.5,22.95v273.35c0,11.01,8.92,19.93,19.93,19.93h89.63c11-.01,19.92-8.93,19.92-19.94v-91.2c0-5.14,4.16-9.3,9.3-9.3h60.87c5.88,0,10.64-4.76,10.64-10.64v-28.46c0-5.88-4.76-10.64-10.64-10.64h-60.87c-5.14,0-9.3-4.16-9.3-9.3v-89.08c0-4.4,4.43-7.41,8.53-5.81,8.79,3.42,15.02,11.96,15.02,21.96,0,0-.02,17.06-.03,30.2-.01,8.24,6.67,14.92,14.91,14.92h79.68c6.55,0,12.31-4.28,14.27-10.53,2.34-7.48,3.56-15.46,3.45-23.75-.58-41.16-35.67-74.81-76.83-74.81Z"/>
    <path class="cls-1" d="M1014.31,355.9c.15,2.45-.13,4.91-.98,7.36-3.09,8.89-9.5,16.31-15.63,23.26-6.46,7.33-13.42,13.9-21.39,19.58-16.11,11.47-34.77,19.11-54.03,23.36-11.1,2.45-22.2,3.42-33.52,4.05-31.38,1.75-62.25-6.88-87.33-23.73-96.18-63.49-91.42-214.52,5.65-272.03,12.09-7.65,25.57-13.04,39.5-16.31,14.18-3.31,28.84-4.45,43.35-3.48,6.95.47,13.86,1.42,20.67,2.87,6.84,1.45,13.58,3.41,20.13,5.88,6.02,2.29,11.88,5.02,17.54,8.14,5.69,3.15,11.18,6.67,16.42,10.54,4.88,3.61,9.54,7.51,13.95,11.66,15.24,14.35,27.56,31.83,34.93,50.8,2.61,6.67,4.58,13.58,5.85,20.63,1.14,6.39,1.56,12.79,1.56,19.29.02,16.94-8.19,32.52-21.68,42.19-8.51,6.13-18.95,9.71-30.22,9.71h-11.59c-28.68,0-51.92-23.24-51.92-51.92v-39.53c0-16.4,7.61-31.05,19.51-40.55,3.5-2.8,2.7-8.28-1.47-9.92-.12-.05-.25-.1-.35-.16-37.42-13.11-61.51,19.78-61.41,54.78v56.37c0,16.42,5.31,32.6,15.61,45.44,9.76,12.16,23.36,20.85,38.16,25.56,15.39,4.9,32.08,5.6,47.85,2.11,4.11-.91,8.27-2.09,12.22-3.52,6.37-2.31,12.44-6.03,19.45-5.79,8.5.28,14.54,8.09,17.34,15.4,1,2.62,1.69,5.29,1.86,7.99Z"/>
  </g>
</svg>