<svg width="200" height="200" viewBox="0 0 200 200" fill="none" xmlns="http://www.w3.org/2000/svg">
<rect width="200" height="200" fill="white"/>
<g clip-path="url(#clip0_835_2438)">
<path d="M5 43L5 156.095H195V43L5 43Z" fill="white"/>
<path d="M38.9113 133.664C39.5867 133.664 39.7644 133.468 39.9066 132.686L41.6385 122.877C41.6676 122.711 41.8405 122.617 41.9988 122.676C42.3769 122.816 42.9585 122.898 43.797 122.898C44.6356 122.898 45.1978 122.808 45.6243 122.672C45.8166 122.611 46.0024 122.774 45.9685 122.973L44.1008 133.504C43.9408 134.428 43.6565 135.173 43.2833 135.688C42.5191 136.754 41.2766 137.144 39.2684 137.144H37.58C37.4136 137.144 37.2876 136.993 37.3167 136.83L37.8434 133.883C37.866 133.756 37.9775 133.664 38.1067 133.664H38.9129H38.9113ZM41.8777 120.643C42.0909 119.363 42.9084 118.956 44.5063 118.956C46.1042 118.956 46.744 119.365 46.5307 120.643C46.2997 121.887 45.5177 122.312 43.9021 122.312C42.1976 122.312 41.6466 121.921 41.8777 120.643Z" fill="#4742C2"/>
<path d="M47.7403 132.26C46.1958 131.229 45.7693 129.418 46.1425 127.127L46.1602 127.038C46.7289 123.947 48.8422 122.189 51.8085 122.189C53.0881 122.189 54.1173 122.438 54.8815 122.953C56.4083 123.984 56.9237 125.813 56.5149 128.211L56.4971 128.317C56.3372 129.295 56.0173 130.111 55.5908 130.822C54.7377 132.226 53.2642 133.024 50.9377 133.024C49.5531 133.024 48.5045 132.775 47.7403 132.26ZM52.5 127.749C52.7844 126.275 52.4645 125.671 51.6292 125.671C50.865 125.671 50.4207 126.169 50.1557 127.589C49.9247 128.973 50.2801 129.489 51.0266 129.489C51.7197 129.489 52.2706 129.133 52.5 127.749Z" fill="#4742C2"/>
<path d="M58.7094 122.367H61.5497C61.6854 122.367 61.8001 122.47 61.8147 122.604L61.8987 123.382C61.9262 123.634 62.2557 123.71 62.3898 123.495C63.0151 122.49 64.0071 122.189 65.4838 122.189H65.6454C65.8118 122.189 65.9378 122.339 65.9087 122.503L65.2221 126.392C65.1995 126.519 65.088 126.611 64.9587 126.611H63.7971C62.4108 126.611 61.9859 127.038 61.7549 128.351L61.0295 132.534C61.0068 132.662 60.897 132.756 60.7661 132.756H56.9742C56.8078 132.756 56.6834 132.605 56.7108 132.442L58.446 122.585C58.4687 122.457 58.5785 122.364 58.7094 122.364V122.367Z" fill="#4742C2"/>
<path d="M68.7872 132.935C66.3896 132.935 65.0745 131.017 65.6965 127.287C66.3718 123.769 67.9342 122.207 70.1008 122.207C71.1832 122.207 71.8909 122.617 72.2673 123.354C72.3853 123.585 72.7246 123.542 72.7698 123.286L73.471 119.301C73.4936 119.173 73.6035 119.081 73.7327 119.081H77.313C77.4778 119.081 77.6038 119.229 77.5747 119.393L75.2531 132.538C75.2304 132.665 75.1206 132.757 74.9913 132.757H71.8925C71.7536 132.757 71.6372 132.649 71.6275 132.51L71.5985 132.09C71.5807 131.846 71.2737 131.756 71.1235 131.948C70.6032 132.61 69.8616 132.935 68.7872 132.935ZM72.0379 127.749C72.3223 126.275 72.0024 125.689 71.2382 125.689C70.474 125.689 70.0297 126.169 69.7647 127.589C69.5337 128.973 69.9247 129.524 70.6355 129.524C71.2753 129.524 71.8085 129.08 72.0379 127.749Z" fill="#4742C2"/>
<path d="M78.7655 120.189C78.7881 120.061 78.8996 119.969 79.0288 119.969H83.7966C84.8274 119.969 85.6611 120.094 86.4075 120.36C87.8632 120.911 88.5563 121.994 88.2186 123.86C88.0361 124.865 87.5918 125.53 86.8987 125.979C86.7452 126.078 86.729 126.301 86.8744 126.411C87.616 126.981 87.9521 127.873 87.7049 129.24C87.3317 131.477 85.6805 132.757 82.3942 132.757H76.8687C76.7023 132.757 76.5779 132.607 76.6054 132.444L78.7671 120.189H78.7655ZM81.294 128.926C81.2649 129.09 81.3909 129.24 81.5573 129.24H82.1971C83.1746 129.24 83.53 129.009 83.6173 128.529C83.7061 127.978 83.5106 127.747 82.4621 127.747H81.727C81.5977 127.747 81.4862 127.839 81.4636 127.967L81.2924 128.925L81.294 128.926ZM82.1099 124.327C82.0808 124.49 82.2068 124.64 82.3732 124.64H83.1746C83.8855 124.64 84.1698 124.409 84.2409 123.929C84.3298 123.432 84.1165 123.218 83.4412 123.218H82.5283C82.3991 123.218 82.2876 123.312 82.265 123.44L82.1099 124.327Z" fill="#4742C2"/>
<path d="M90.2599 132.26C88.7153 131.229 88.2888 129.418 88.662 127.127L88.6798 127.038C89.2485 123.947 91.3617 122.189 94.3281 122.189C95.6077 122.189 96.6368 122.438 97.401 122.953C98.9278 123.984 99.4432 125.813 99.0344 128.211L99.0167 128.317C98.8567 129.295 98.5368 130.111 98.1103 130.822C97.2572 132.226 95.7838 133.024 93.4572 133.024C92.071 133.024 91.0241 132.775 90.2599 132.26ZM95.0212 127.749C95.3055 126.275 94.9856 125.671 94.1503 125.671C93.3861 125.671 92.9418 126.169 92.6769 127.589C92.4458 128.973 92.8013 129.489 93.5477 129.489C94.2408 129.489 94.7918 129.133 95.0212 127.749Z" fill="#4742C2"/>
<path d="M101.522 132.26C99.977 131.229 99.5505 129.418 99.9237 127.127L99.9415 127.038C100.51 123.947 102.623 122.189 105.59 122.189C106.868 122.189 107.899 122.438 108.663 122.953C110.19 123.984 110.705 125.813 110.296 128.211L110.278 128.317C110.118 129.295 109.799 130.111 109.372 130.822C108.519 132.226 107.045 133.024 104.719 133.024C103.334 133.024 102.286 132.775 101.522 132.26ZM106.283 127.749C106.567 126.275 106.247 125.671 105.412 125.671C104.648 125.671 104.204 126.169 103.939 127.589C103.708 128.973 104.063 129.489 104.809 129.489C105.503 129.489 106.053 129.133 106.283 127.749Z" fill="#4742C2"/>
<path d="M115.323 132.757C114.257 132.757 113.458 132.579 112.908 132.277C111.788 131.637 111.592 130.306 111.966 128.191L112.284 126.372C112.313 126.209 112.187 126.059 112.021 126.059H111.111C110.945 126.059 110.82 125.908 110.848 125.745L111.361 122.827C111.382 122.711 111.478 122.622 111.596 122.609C112 122.564 112.378 122.516 112.728 122.348C113.172 122.134 113.457 121.797 113.688 121.281C113.853 120.937 113.954 120.554 114.035 120.176C114.061 120.053 114.171 119.966 114.295 119.966H117.045C117.212 119.966 117.338 120.116 117.309 120.28L116.993 122.05C116.964 122.213 117.09 122.364 117.257 122.364H118.787C118.953 122.364 119.079 122.514 119.05 122.677L118.488 125.837C118.465 125.965 118.354 126.057 118.225 126.057H116.506C116.376 126.057 116.265 126.151 116.242 126.278L116.068 127.299C115.997 127.744 115.979 128.099 115.997 128.33C116.068 128.775 116.459 128.917 117.365 128.917H117.633C117.8 128.917 117.924 129.067 117.897 129.23L117.315 132.533C117.292 132.66 117.183 132.754 117.052 132.754H115.321L115.323 132.757Z" fill="#4742C2"/>
<path d="M128.947 130.768C127.97 132.402 126.479 133.024 124.117 133.024C122.659 133.024 121.577 132.739 120.759 132.224C119.144 131.122 118.699 129.08 119.197 126.185L119.215 126.078C119.481 124.532 119.872 123.29 120.441 122.365C121.561 120.483 123.23 119.701 125.538 119.701C129.198 119.701 131.009 121.69 130.369 125.349L130.337 125.537C130.314 125.665 130.204 125.758 130.074 125.758H126.299C126.133 125.758 126.007 125.608 126.036 125.445L126.088 125.154C126.319 123.823 125.981 123.396 125.217 123.396C124.257 123.396 123.939 124.178 123.566 126.327C123.441 127.073 123.37 127.658 123.352 128.067C123.335 128.92 123.584 129.222 124.259 129.222C125.147 129.222 125.45 128.742 125.679 127.358L125.694 127.275C125.716 127.148 125.826 127.056 125.955 127.056L129.781 127.039C129.948 127.039 130.075 127.19 130.044 127.354L130.032 127.429C129.801 128.833 129.427 129.933 128.947 130.768Z" fill="#4742C2"/>
<path d="M136.502 131.789C136.431 131.629 136.211 131.602 136.115 131.747C135.577 132.537 134.719 133.025 133.103 133.025C130.865 133.025 129.835 131.781 130.172 129.899C130.332 128.904 130.848 128.123 131.734 127.608C132.499 127.164 133.617 126.897 135.021 126.737C136.354 126.577 136.956 126.435 137.045 125.955C137.116 125.6 136.974 125.369 136.423 125.369C135.814 125.369 135.48 125.614 135.368 126.131C135.345 126.235 135.257 126.309 135.15 126.309H131.361C131.214 126.309 131.108 126.168 131.145 126.026C131.796 123.525 133.399 122.188 136.654 122.188C140.207 122.188 141.396 123.839 140.898 126.556L140.507 128.652C140.419 129.167 140.507 129.256 141.023 129.256C141.162 129.256 141.267 129.382 141.243 129.518L140.7 132.57C140.68 132.676 140.588 132.754 140.48 132.754H138.926C137.462 132.754 136.775 132.406 136.499 131.786L136.502 131.789ZM136.442 129.151L136.488 128.897C136.517 128.734 136.363 128.592 136.205 128.642C136.084 128.679 135.943 128.711 135.785 128.742C135.3 128.829 135.069 128.915 134.877 129.035C134.867 129.041 134.858 129.048 134.848 129.056C134.696 129.178 134.594 129.335 134.542 129.542C134.489 129.915 134.702 130.128 135.2 130.128C135.911 130.128 136.355 129.702 136.444 129.151H136.442Z" fill="#4742C2"/>
<path d="M141.663 132.444L143.398 122.587C143.421 122.459 143.531 122.365 143.662 122.365H146.685C146.825 122.365 146.943 122.475 146.951 122.616L146.98 123.11C146.995 123.346 147.289 123.451 147.444 123.273C148.047 122.582 148.869 122.188 149.974 122.188C151.23 122.188 152.06 122.612 152.466 123.483C152.553 123.671 152.805 123.692 152.926 123.525C153.543 122.671 154.422 122.188 155.642 122.188C157.897 122.188 158.857 123.661 158.377 126.38L157.296 132.536C157.274 132.663 157.164 132.757 157.033 132.757H153.437C153.27 132.757 153.146 132.608 153.173 132.445L154.078 127.233C154.238 126.327 154.273 125.76 153.563 125.76C152.816 125.76 152.656 126.364 152.461 127.34L151.558 132.536C151.535 132.663 151.425 132.757 151.294 132.757H147.698C147.531 132.757 147.407 132.608 147.434 132.445L148.339 127.233C148.499 126.327 148.517 125.76 147.806 125.76C147.06 125.76 146.917 126.364 146.722 127.34L145.819 132.536C145.796 132.663 145.686 132.757 145.555 132.757H141.923C141.757 132.757 141.633 132.607 141.66 132.444H141.663Z" fill="#4742C2"/>
<path d="M162.67 132.071L161.969 136.053C161.946 136.181 161.836 136.275 161.705 136.275H158.127C157.96 136.275 157.836 136.124 157.863 135.961L160.22 122.587C160.243 122.459 160.355 122.365 160.484 122.365H163.581C163.722 122.365 163.838 122.474 163.848 122.614L163.885 123.164C163.901 123.399 164.195 123.501 164.348 123.323C164.938 122.64 165.748 122.259 166.848 122.259C167.594 122.259 168.198 122.472 168.712 122.881C169.761 123.716 170.221 125.35 169.779 127.854C169.565 129.116 169.228 130.109 168.801 130.856C167.966 132.347 166.794 132.933 165.373 132.933C164.295 132.933 163.568 132.573 163.146 131.962C163.012 131.767 162.707 131.836 162.667 132.071H162.67ZM165.696 127.749C165.98 126.275 165.66 125.689 164.896 125.689C164.132 125.689 163.688 126.169 163.423 127.589C163.192 128.973 163.583 129.524 164.293 129.524C164.933 129.524 165.466 129.08 165.697 127.749H165.696Z" fill="#4742C2"/>
<path d="M40.8145 119.969H32.4762C32.3469 119.969 32.2354 120.063 32.2128 120.189L30.0511 132.444C30.022 132.607 30.148 132.757 30.3144 132.757H33.8575C33.9868 132.757 34.0966 132.665 34.1209 132.537L34.7526 129.015C34.7752 128.888 34.8867 128.796 35.0159 128.796H39.2764C39.4057 128.796 39.5171 128.703 39.5398 128.576L40.102 125.398C40.1311 125.235 40.0051 125.084 39.8386 125.084H35.7672C35.6008 125.084 35.4764 124.934 35.5039 124.771L35.659 123.884C35.6816 123.756 35.7915 123.663 35.9223 123.663H40.2523C40.3815 123.663 40.493 123.571 40.5156 123.443L41.0779 120.283C41.1069 120.119 40.9809 119.969 40.8145 119.969Z" fill="#4742C2"/>
<path d="M107.66 86.4755H106.826C113.626 86.4755 119.134 80.9403 119.089 74.1287C119.043 67.3624 113.431 61.95 106.663 61.95H79.9561C77.8945 61.95 76.2223 63.6221 76.2223 65.6837V102.275C76.2223 103.695 75.0704 104.847 73.6502 104.847C72.2301 104.847 71.0781 105.999 71.0781 107.419V110.495C71.0781 111.915 72.2301 113.067 73.6502 113.067L107.826 113.064C115.201 113.064 121.174 107.057 121.12 99.6688C121.065 92.3386 114.988 86.4755 107.658 86.4755H107.66ZM100.948 101.118C100.948 103.22 99.2437 104.923 97.1433 104.923C95.0414 104.923 93.3385 103.22 93.3385 101.118V94.0367C93.3385 91.9347 95.0414 90.2318 97.1433 90.2318C99.2453 90.2318 100.948 91.9347 100.948 94.0367V101.118ZM100.948 79.3682C100.948 81.4702 99.2453 83.1731 97.1433 83.1731C95.0414 83.1731 93.3385 81.4702 93.3385 79.3682V73.4582C93.3385 71.3562 95.0414 69.6534 97.1433 69.6534C99.2453 69.6534 100.948 71.3562 100.948 73.4582V79.3682Z" fill="#4742C2"/>
<path d="M60.5002 61.9709H50.9679H33.7806C33.6385 61.9709 33.4979 61.9806 33.3589 61.9968C31.4961 62.2068 30.0469 63.7853 30.0469 65.7047V109.868C30.0469 111.647 31.488 113.088 33.2669 113.088H47.7479C49.5251 113.087 50.9663 111.646 50.9663 109.867V95.1321C50.9663 94.3017 51.6384 93.6295 52.4688 93.6295H62.3032C63.2533 93.6295 64.0223 92.8605 64.0223 91.9105V87.3124C64.0223 86.3624 63.2533 85.5933 62.3032 85.5933H52.4688C51.6384 85.5933 50.9663 84.9212 50.9663 84.0908V69.6986C50.9663 68.9877 51.682 68.5014 52.3444 68.7599C53.7646 69.3124 54.7711 70.6922 54.7711 72.3079C54.7711 72.3079 54.7679 75.0641 54.7663 77.1871C54.7646 78.5184 55.8439 79.5977 57.1752 79.5977H70.0487C71.1069 79.5977 72.0375 78.9062 72.3542 77.8964C72.7323 76.6879 72.9294 75.3986 72.9116 74.0592C72.8179 67.4092 67.1486 61.9726 60.4986 61.9726L60.5002 61.9709Z" fill="#4742C2"/>
<path d="M168.877 100.501C168.901 100.897 168.856 101.294 168.719 101.69C168.219 103.126 167.184 104.325 166.193 105.448C165.15 106.632 164.025 107.694 162.738 108.612C160.135 110.465 157.12 111.699 154.008 112.386C152.215 112.782 150.421 112.938 148.593 113.04C143.523 113.323 138.535 111.928 134.483 109.206C118.944 98.9484 119.713 74.5473 135.396 65.2557C137.349 64.0197 139.527 63.1489 141.778 62.6206C144.069 62.0858 146.437 61.9016 148.782 62.0583C149.904 62.1342 151.021 62.2877 152.121 62.522C153.226 62.7563 154.315 63.0729 155.373 63.472C156.346 63.842 157.293 64.2831 158.207 64.7871C159.127 65.2961 160.014 65.8648 160.86 66.49C161.649 67.0733 162.401 67.7034 163.114 68.3739C165.576 70.6923 167.567 73.5165 168.757 76.5814C169.179 77.659 169.497 78.7754 169.703 79.9144C169.887 80.9468 169.955 81.9808 169.955 83.031C169.958 85.7679 168.631 88.2851 166.452 89.8474C165.077 90.8378 163.39 91.4162 161.569 91.4162H159.697C155.063 91.4162 151.308 87.6615 151.308 83.0278V76.6411C151.308 73.9915 152.538 71.6246 154.461 70.0897C155.026 69.6373 154.897 68.7519 154.223 68.487C154.204 68.4789 154.183 68.4708 154.167 68.4611C148.121 66.343 144.229 71.6569 144.245 77.3116V86.419C144.245 89.0719 145.103 91.686 146.767 93.7605C148.344 95.7251 150.541 97.1291 152.932 97.8901C155.419 98.6818 158.115 98.7949 160.663 98.231C161.327 98.084 161.999 97.8933 162.637 97.6623C163.667 97.2891 164.647 96.6881 165.78 96.7269C167.153 96.7721 168.129 98.0339 168.581 99.2149C168.743 99.6382 168.854 100.07 168.882 100.506L168.877 100.501Z" fill="#4742C2"/>
</g>
<defs>
<clipPath id="clip0_835_2438">
<rect width="190" height="113.095" fill="white" transform="translate(5 43)"/>
</clipPath>
</defs>
</svg>
