<svg width="240" height="240" viewBox="0 0 240 240" fill="none" xmlns="http://www.w3.org/2000/svg">
<rect width="240" height="240" fill="white"/>
<g clip-path="url(#clip0_835_2309)">
<path d="M60.6228 106.053L40.4585 101.688C40.3834 101.671 40.3082 101.682 40.2388 101.717L28.7635 107.429V100.994C28.7635 100.838 28.6536 100.699 28.5033 100.671L25.3989 100.006C25.3006 99.9826 25.1966 100.006 25.1214 100.075C25.0462 100.139 25 100.231 25 100.335V131.142C25 131.281 25.0867 131.408 25.2197 131.455L28.3183 132.553C28.4224 132.588 28.5322 132.576 28.6189 132.513C28.7057 132.449 28.7577 132.351 28.7577 132.241V113.591C42.3778 116.701 44.4185 123.373 44.4185 127.078V138.114C44.4185 138.155 44.4185 138.149 44.4301 138.184V138.854C44.4359 138.993 44.5226 139.12 44.6556 139.167L46.2165 139.716C46.2511 139.727 46.2916 139.733 46.3263 139.733C46.4014 139.733 46.4766 139.71 46.5344 139.658L48.0664 138.415L60.75 128.425C60.831 128.362 60.8772 128.269 60.8772 128.165V106.376C60.8772 106.22 60.7674 106.087 60.6171 106.053H60.6228ZM40.4817 113.649C37.9206 112.158 35.007 111.366 31.6309 110.452L31.3013 110.365L40.8401 105.619L57.1253 109.146V126.506L48.1936 133.49V127.084C48.182 121.159 45.5921 116.638 40.4817 113.655V113.649Z" fill="black"/>
<path d="M85.8324 110.926C85.3353 110.4 84.7514 109.995 84.0981 109.718C82.6933 109.128 81.2365 109.209 80.3693 109.654C79.878 109.909 79.5137 110.134 79.2883 110.337C79.1611 110.446 78.9761 110.475 78.82 110.406C78.6639 110.337 78.5657 110.18 78.5657 110.007V100H74.9062V132.507H78.6119V115.395C78.6119 114.672 78.8894 114.036 79.4386 113.51C79.982 112.984 80.6526 112.718 81.4331 112.718C82.1383 112.718 82.7338 113.002 83.1963 113.568C83.6414 114.112 83.8669 114.753 83.8669 115.493V132.507H87.5725V115.349C87.5725 114.43 87.4107 113.591 87.0869 112.857C86.7574 112.111 86.3354 111.464 85.8324 110.932V110.926Z" fill="black"/>
<path d="M118.272 126.691C118.272 127.46 117.971 128.102 117.376 128.599C116.254 129.541 114.797 129.582 113.722 128.582C113.184 128.084 112.913 127.448 112.913 126.691V115.297C112.913 114.603 113.184 113.996 113.722 113.499C114.803 112.499 116.306 112.545 117.301 113.505C117.815 114.002 118.081 114.603 118.081 115.297V115.909H121.642V115.297C121.642 114.476 121.48 113.684 121.156 112.944C120.827 112.204 120.388 111.551 119.838 111.001C119.289 110.458 118.642 110.024 117.902 109.712C117.168 109.4 116.37 109.244 115.543 109.244C114.716 109.244 113.867 109.4 113.109 109.712C112.352 110.024 111.676 110.458 111.097 111.007C110.519 111.556 110.057 112.21 109.716 112.95C109.38 113.684 109.207 114.47 109.207 115.297V126.691C109.207 127.547 109.38 128.339 109.716 129.056C110.057 129.784 110.525 130.437 111.103 131.004C111.681 131.565 112.352 132.01 113.109 132.322C114.589 132.935 116.381 132.958 117.954 132.322C118.723 132.01 119.411 131.57 119.983 131.01C120.561 130.443 121.029 129.79 121.37 129.061C121.706 128.344 121.879 127.547 121.879 126.697V126.084H118.266V126.697L118.272 126.691Z" fill="black"/>
<path d="M136.532 111.059C135.954 110.51 135.271 110.065 134.514 109.735C133.763 109.412 132.947 109.244 132.086 109.244C131.225 109.244 130.404 109.412 129.635 109.735C128.86 110.065 128.172 110.51 127.594 111.059C127.022 111.603 126.565 112.256 126.236 112.996C125.912 113.73 125.75 114.522 125.75 115.349V126.697C125.75 127.552 125.912 128.35 126.236 129.067C126.559 129.796 127.022 130.443 127.594 131.01C128.166 131.57 128.854 132.015 129.623 132.322C131.167 132.946 133.005 132.946 134.514 132.322C135.271 132.01 135.948 131.57 136.52 131.004C137.098 130.437 137.566 129.784 137.908 129.056C138.243 128.339 138.416 127.541 138.416 126.691V115.343C138.416 114.522 138.243 113.736 137.908 112.996C137.566 112.256 137.104 111.603 136.526 111.053L136.532 111.059ZM134.711 126.691C134.711 127.379 134.45 127.992 133.942 128.518C133.427 129.05 132.786 129.316 132.034 129.316C131.34 129.316 130.733 129.044 130.219 128.518C129.71 127.992 129.45 127.379 129.45 126.691V115.343C129.45 114.69 129.71 114.088 130.219 113.562C130.733 113.03 131.34 112.765 132.034 112.765C132.791 112.765 133.433 113.036 133.942 113.562C134.45 114.088 134.711 114.69 134.711 115.343V126.691Z" fill="black"/>
<path d="M179.325 111.059C178.747 110.51 178.064 110.065 177.307 109.735C176.555 109.412 175.74 109.244 174.879 109.244C174.018 109.244 173.197 109.412 172.428 109.735C171.653 110.065 170.965 110.51 170.387 111.059C169.815 111.603 169.358 112.256 169.029 112.996C168.705 113.73 168.543 114.522 168.543 115.349V126.697C168.543 127.552 168.705 128.35 169.029 129.067C169.352 129.796 169.815 130.443 170.393 131.01C170.965 131.57 171.653 132.015 172.422 132.322C173.966 132.946 175.804 132.946 177.313 132.322C178.07 132.01 178.747 131.57 179.319 131.004C179.897 130.437 180.365 129.784 180.706 129.056C181.042 128.339 181.215 127.541 181.215 126.691V115.343C181.215 114.522 181.042 113.736 180.706 112.996C180.365 112.256 179.903 111.603 179.325 111.053V111.059ZM177.509 126.691C177.509 127.379 177.249 127.992 176.746 128.518C176.232 129.05 175.59 129.316 174.839 129.316C174.145 129.316 173.538 129.044 173.023 128.518C172.515 127.992 172.26 127.379 172.26 126.691V115.343C172.26 114.69 172.52 114.088 173.023 113.562C173.538 113.03 174.145 112.765 174.839 112.765C175.596 112.765 176.238 113.036 176.746 113.562C177.255 114.088 177.509 114.69 177.509 115.343V126.691Z" fill="black"/>
<path d="M196.059 111.059C195.481 110.51 194.793 110.065 194.018 109.735C192.481 109.088 190.746 109.088 189.208 109.735C188.434 110.065 187.746 110.51 187.168 111.059C186.59 111.608 186.127 112.262 185.786 113.002C185.451 113.736 185.277 114.522 185.277 115.349V132.507H188.983V115.349C188.983 114.696 189.249 114.088 189.775 113.545C190.301 112.996 190.937 112.718 191.66 112.718C192.382 112.718 192.966 112.996 193.481 113.545C193.984 114.088 194.238 114.696 194.238 115.343V132.501H197.944V115.343C197.944 114.522 197.77 113.73 197.435 112.996C197.094 112.256 196.631 111.603 196.053 111.053L196.059 111.059Z" fill="black"/>
<path d="M214.491 113.002C214.15 112.262 213.688 111.608 213.11 111.059C212.532 110.51 211.85 110.065 211.092 109.735C210.341 109.412 209.526 109.244 208.664 109.244C207.803 109.244 206.982 109.412 206.213 109.735C205.438 110.065 204.75 110.51 204.172 111.059C203.6 111.603 203.143 112.256 202.814 112.996C202.49 113.73 202.328 114.522 202.328 115.349V126.697C202.328 127.552 202.49 128.35 202.814 129.067C203.137 129.796 203.6 130.443 204.178 131.01C204.75 131.57 205.438 132.015 206.207 132.322C207.751 132.946 209.589 132.946 211.098 132.322C211.855 132.01 212.532 131.57 213.104 131.004C213.682 130.437 214.15 129.784 214.491 129.056C214.827 128.339 215 127.541 215 126.691V115.343C215 114.522 214.827 113.736 214.491 112.996V113.002ZM211.295 126.691C211.295 127.379 211.034 127.992 210.531 128.518C210.017 129.05 209.375 129.316 208.624 129.316C207.93 129.316 207.323 129.044 206.808 128.518C206.3 127.992 206.045 127.379 206.045 126.691V115.343C206.045 114.69 206.305 114.088 206.808 113.562C207.323 113.03 207.93 112.765 208.624 112.765C209.381 112.765 210.023 113.036 210.531 113.562C211.04 114.088 211.295 114.69 211.295 115.343V126.691Z" fill="black"/>
<path d="M105.218 132.507C105.218 132.507 104.692 130.628 104.692 129.443V115.349C104.692 114.528 104.518 113.742 104.183 113.002C103.842 112.262 103.379 111.608 102.801 111.059C102.223 110.51 101.541 110.065 100.784 109.735C100.032 109.412 99.2169 109.244 98.3556 109.244C97.4942 109.244 96.6733 109.412 95.9044 109.735C95.1297 110.065 94.4418 110.51 93.8637 111.059C93.2914 111.603 92.8347 112.256 92.5051 112.996C92.1814 113.73 92.0195 114.522 92.0195 115.349V126.697C92.0195 130.102 94.754 132.784 97.6734 132.784C99.0262 132.784 100.252 132.2 101.292 131.391C101.518 132.039 101.784 132.507 101.784 132.507H105.212H105.218ZM98.3093 129.321C97.6156 129.321 97.0086 129.05 96.4941 128.524C95.9853 127.998 95.7252 127.385 95.7252 126.697V115.349C95.7252 114.695 95.9853 114.094 96.4941 113.568C97.0086 113.036 97.6156 112.77 98.3093 112.77C99.0666 112.77 99.7083 113.042 100.217 113.568C100.726 114.094 100.986 114.695 100.986 115.349V126.697C100.986 127.385 100.726 127.998 100.217 128.524C99.7025 129.056 99.0608 129.321 98.3093 129.321Z" fill="black"/>
<path d="M163.662 113.002C163.321 112.262 162.858 111.608 162.28 111.059C161.702 110.51 161.02 110.065 160.262 109.735C158.834 109.123 157.129 109.094 155.516 109.631C154.77 109.88 154.129 110.256 153.603 110.753C153.522 110.834 153.412 110.868 153.302 110.868C153.192 110.868 153.088 110.828 153.001 110.747C152.481 110.256 151.834 109.874 151.088 109.625C149.475 109.088 147.775 109.117 146.342 109.73C145.578 110.059 144.902 110.504 144.324 111.053C143.746 111.603 143.283 112.256 142.942 112.996C142.607 113.73 142.434 114.522 142.434 115.343V132.501H146.139V115.343C146.139 114.655 146.405 114.036 146.937 113.51C147.463 112.984 148.099 112.718 148.816 112.718C149.469 112.718 150.076 112.973 150.614 113.476C151.163 113.99 151.446 114.614 151.446 115.343V132.501H155.152V115.343C155.152 114.614 155.429 113.984 155.984 113.476C156.522 112.973 157.129 112.718 157.782 112.718C158.499 112.718 159.135 112.984 159.661 113.51C160.187 114.036 160.459 114.655 160.459 115.343V132.501H164.165V115.343C164.165 114.522 163.991 113.736 163.656 112.996L163.662 113.002Z" fill="black"/>
</g>
<defs>
<clipPath id="clip0_835_2309">
<rect width="190" height="39.7332" fill="white" transform="translate(25 100)"/>
</clipPath>
</defs>
</svg>
