<?xml version="1.0" encoding="UTF-8"?>
<svg id="_レイヤー_1" data-name="レイヤー 1" xmlns="http://www.w3.org/2000/svg" viewBox="0 0 370.92 103.13">
  <path d="M82.76,27.67l-34.88-7.55c-.13-.03-.26-.01-.38.05l-19.86,9.88v-11.13c0-.27-.19-.51-.45-.56l-5.36-1.14c-.17-.04-.35,0-.48.12-.13.11-.21.27-.21.45v53.29c0,.24.15.46.38.54l5.36,1.9c.18.06.37.04.52-.07.15-.11.24-.28.24-.47v-32.25c23.56,5.38,27.09,16.92,27.09,23.33v19.09c0,.07,0,.06.02.12v1.16c.01.24.16.46.39.54l2.7.95c.06.02.13.03.19.03.13,0,.26-.04.36-.13l2.65-2.15,21.94-17.28c.14-.11.22-.27.22-.45V28.23c0-.27-.19-.5-.45-.56ZM47.91,40.81c-4.43-2.58-9.47-3.95-15.31-5.53l-.57-.15,16.5-8.21,28.17,6.1v30.03l-15.45,12.08v-11.08c-.02-10.25-4.5-18.07-13.34-23.23Z"/>
  <g>
    <path d="M126.36,36.1c-.86-.91-1.87-1.61-3-2.09-2.43-1.02-4.95-.88-6.45-.11-.85.44-1.48.83-1.87,1.18-.22.19-.54.24-.81.12-.27-.12-.44-.39-.44-.69v-17.31h-6.33v56.23h6.41v-29.6c0-1.25.48-2.35,1.43-3.26.94-.91,2.1-1.37,3.45-1.37,1.22,0,2.25.49,3.05,1.47.77.94,1.16,2.05,1.16,3.33v29.43h6.41v-29.68c0-1.59-.28-3.04-.84-4.31-.57-1.29-1.3-2.41-2.17-3.33Z"/>
    <path d="M182.47,63.37c0,1.33-.52,2.44-1.55,3.3-1.94,1.63-4.46,1.7-6.32-.03-.93-.86-1.4-1.96-1.4-3.27v-19.71c0-1.2.47-2.25,1.4-3.11,1.87-1.73,4.47-1.65,6.19.01.89.86,1.35,1.9,1.35,3.1v1.06h6.16v-1.06c0-1.42-.28-2.79-.84-4.07-.57-1.28-1.33-2.41-2.28-3.36-.95-.94-2.07-1.69-3.35-2.23-1.27-.54-2.65-.81-4.08-.81s-2.9.27-4.21.81c-1.31.54-2.48,1.29-3.48,2.24-1,.95-1.8,2.08-2.39,3.36-.58,1.27-.88,2.63-.88,4.06v19.71c0,1.48.3,2.85.88,4.09.59,1.26,1.4,2.39,2.4,3.37,1,.97,2.16,1.74,3.47,2.28,2.56,1.06,5.66,1.1,8.38,0,1.33-.54,2.52-1.3,3.51-2.27,1-.98,1.81-2.11,2.4-3.37.58-1.24.88-2.62.88-4.09v-1.06h-6.25v1.06Z"/>
    <path d="M214.06,36.33c-1-.95-2.18-1.72-3.49-2.29-1.3-.56-2.71-.85-4.2-.85s-2.91.29-4.24.85c-1.34.57-2.53,1.34-3.53,2.29-.99.94-1.78,2.07-2.35,3.35-.56,1.27-.84,2.64-.84,4.07v19.63c0,1.48.28,2.86.84,4.1.56,1.26,1.36,2.38,2.35,3.36.99.97,2.18,1.74,3.51,2.27,2.67,1.08,5.85,1.08,8.46,0,1.31-.54,2.48-1.3,3.47-2.28,1-.98,1.81-2.11,2.4-3.37.58-1.24.88-2.62.88-4.09v-19.63c0-1.42-.3-2.78-.88-4.06-.59-1.28-1.39-2.41-2.39-3.36ZM210.92,63.37c0,1.19-.45,2.25-1.33,3.16-.89.92-2,1.38-3.3,1.38-1.2,0-2.25-.47-3.14-1.38-.88-.91-1.33-1.97-1.33-3.16v-19.63c0-1.13.45-2.17,1.33-3.08.89-.92,1.94-1.38,3.14-1.38,1.31,0,2.42.47,3.3,1.38.88.91,1.33,1.95,1.33,3.08v19.63Z"/>
    <path d="M288.08,36.33c-1-.95-2.18-1.72-3.49-2.29-1.3-.56-2.71-.85-4.2-.85s-2.91.29-4.24.85c-1.34.57-2.53,1.34-3.53,2.29-.99.94-1.78,2.07-2.35,3.35-.56,1.27-.84,2.64-.84,4.07v19.63c0,1.48.28,2.86.84,4.1.56,1.26,1.36,2.38,2.36,3.36.99.97,2.18,1.74,3.51,2.27,2.67,1.08,5.85,1.08,8.46,0,1.31-.54,2.48-1.3,3.47-2.28,1-.98,1.81-2.11,2.4-3.37.58-1.24.88-2.62.88-4.09v-19.63c0-1.42-.3-2.78-.88-4.06-.59-1.28-1.39-2.41-2.39-3.36ZM284.94,63.37c0,1.19-.45,2.25-1.32,3.16-.89.92-2,1.38-3.3,1.38-1.2,0-2.25-.47-3.14-1.38-.88-.91-1.32-1.97-1.32-3.16v-19.63c0-1.13.45-2.17,1.32-3.08.89-.92,1.94-1.38,3.14-1.38,1.31,0,2.42.47,3.3,1.38.88.91,1.32,1.95,1.32,3.08v19.63Z"/>
    <path d="M317.04,36.33c-1-.95-2.19-1.72-3.53-2.29-2.66-1.12-5.66-1.12-8.32,0-1.34.57-2.53,1.34-3.53,2.29-1,.95-1.8,2.08-2.39,3.36-.58,1.27-.88,2.63-.88,4.06v29.68h6.41v-29.68c0-1.13.46-2.18,1.37-3.12.91-.95,2.01-1.43,3.26-1.43s2.26.48,3.15,1.43c.87.94,1.31,1.99,1.31,3.11v29.68h6.41v-29.68c0-1.42-.3-2.79-.88-4.06-.59-1.28-1.39-2.41-2.39-3.36Z"/>
    <path d="M348.91,39.69c-.59-1.28-1.39-2.41-2.39-3.36-1-.95-2.18-1.72-3.49-2.29-1.3-.56-2.71-.85-4.2-.85s-2.91.29-4.24.85c-1.34.57-2.53,1.34-3.53,2.29-.99.94-1.78,2.07-2.35,3.35-.56,1.27-.84,2.64-.84,4.07v19.63c0,1.48.28,2.86.84,4.1.56,1.26,1.36,2.38,2.36,3.36.99.97,2.18,1.74,3.51,2.27,2.67,1.08,5.85,1.08,8.46,0,1.31-.54,2.48-1.3,3.47-2.28,1-.98,1.81-2.11,2.4-3.37.58-1.24.88-2.62.88-4.09v-19.63c0-1.42-.3-2.78-.88-4.06ZM343.38,63.37c0,1.19-.45,2.25-1.32,3.16-.89.92-2,1.38-3.3,1.38-1.2,0-2.25-.47-3.14-1.38-.88-.91-1.32-1.97-1.32-3.16v-19.63c0-1.13.45-2.17,1.32-3.08.89-.92,1.94-1.38,3.14-1.38,1.31,0,2.42.47,3.3,1.38.88.91,1.32,1.95,1.32,3.08v19.63Z"/>
    <path d="M159.89,73.42s-.91-3.25-.91-5.3v-24.38c0-1.42-.3-2.78-.88-4.06-.59-1.28-1.39-2.41-2.39-3.36-1-.95-2.18-1.72-3.49-2.29-1.3-.56-2.71-.85-4.2-.85s-2.91.29-4.24.85c-1.34.57-2.53,1.34-3.53,2.29-.99.94-1.78,2.07-2.35,3.35-.56,1.27-.84,2.64-.84,4.07v19.63c0,5.89,4.73,10.53,9.78,10.53,2.34,0,4.46-1.01,6.26-2.41.39,1.12.85,1.93.85,1.93h5.93ZM147.94,67.92c-1.2,0-2.25-.47-3.14-1.38-.88-.91-1.33-1.97-1.33-3.16v-19.63c0-1.13.45-2.17,1.33-3.08.89-.92,1.94-1.38,3.14-1.38,1.31,0,2.42.47,3.3,1.38.88.91,1.33,1.95,1.33,3.08v19.63c0,1.19-.45,2.25-1.33,3.16-.89.92-2,1.38-3.3,1.38Z"/>
    <path d="M260.99,39.69c-.59-1.28-1.39-2.41-2.39-3.36-1-.95-2.18-1.72-3.49-2.29-2.47-1.06-5.42-1.11-8.21-.18-1.29.43-2.4,1.08-3.31,1.94,0,0,0,0,0,0h0c-.14.14-.33.2-.52.2-.19,0-.37-.07-.52-.21h0s0,0,0,0c-.9-.85-2.02-1.51-3.31-1.94-2.79-.93-5.73-.88-8.21.18-1.32.57-2.49,1.34-3.49,2.29-1,.95-1.8,2.08-2.39,3.36-.58,1.27-.88,2.64-.88,4.06v29.68h6.41v-29.68c0-1.19.46-2.26,1.38-3.17.91-.91,2.01-1.37,3.25-1.37,1.13,0,2.18.44,3.11,1.31.95.89,1.44,1.97,1.44,3.23v29.68h6.41v-29.68c0-1.26.48-2.35,1.44-3.23.93-.87,1.98-1.31,3.11-1.31,1.24,0,2.34.46,3.25,1.37.91.91,1.38,1.98,1.38,3.17v29.68h6.41v-29.68c0-1.42-.3-2.78-.88-4.06Z"/>
  </g>
</svg>