<svg width="200" height="200" viewBox="0 0 200 200" fill="none" xmlns="http://www.w3.org/2000/svg">
<rect width="200" height="200" fill="white"/>
<path d="M28.8125 152.063C28.125 150.75 27.75 149.063 27.75 147.063V127.188H33.625V146.937C33.625 148.062 33.8125 149.062 34.1875 149.812C34.625 150.625 35.125 151.25 35.8125 151.687C36.5 152.125 37.25 152.5 38.1875 152.688C39.125 152.875 40.125 153 41.125 153H48.5625V157.562H41.125C39.25 157.562 37.5625 157.438 35.9375 157.063C34.3125 156.75 32.875 156.125 31.6875 155.312C30.5 154.5 29.5 153.438 28.8125 152.063Z" fill="url(#paint0_linear_835_2790)"/>
<path d="M51.6875 135H56.75V157.688H51.6875V135ZM57.3125 129.75C57.3125 128 55.875 126.562 54.125 126.562C52.375 126.562 50.9375 128 50.9375 129.75C50.9375 131.5 52.375 132.937 54.125 132.937C55.9375 132.937 57.3125 131.5 57.3125 129.75Z" fill="black"/>
<path d="M61.375 135H72C73.375 135 74.6875 135.125 75.875 135.437C77.0625 135.75 78.125 136.188 79.0625 136.875C80 137.562 80.6875 138.438 81.25 139.563C81.75 140.688 82.0625 142 82.0625 143.562V157.688H77V143.562C77 142.75 76.875 142.062 76.5625 141.562C76.25 141 75.875 140.562 75.375 140.25C74.875 139.937 74.25 139.687 73.5625 139.5C72.875 139.375 72.125 139.25 71.375 139.25H66.5V157.688H61.375V135Z" fill="black"/>
<path d="M86.3125 127.438H91.75V145.188L100.875 135H107.875L97.5 146.312L107.875 157.625H100.875L91.75 147.438V157.625H86.3125V127.438Z" fill="black"/>
<path d="M113.875 157.063C112.625 156.688 111.563 156 110.688 155.125C109.75 154.25 109.063 153.062 108.5 151.625C108 150.187 107.688 148.437 107.688 146.312C107.688 144.187 107.938 142.437 108.5 141C109.063 139.562 109.75 138.375 110.688 137.5C111.625 136.625 112.687 135.937 113.875 135.562C115.062 135.187 116.375 135 117.75 135H126.438V139.25H118.437C117.75 139.25 117.125 139.312 116.562 139.5C115.937 139.687 115.437 139.938 114.937 140.312C114.437 140.688 114.062 141.187 113.687 141.812C113.375 142.437 113.125 143.25 112.937 144.187H126.438V148.5H112.937C113.062 149.437 113.312 150.25 113.687 150.875C114 151.5 114.437 152 114.937 152.375C115.437 152.75 115.937 153 116.562 153.187C117.187 153.312 117.812 153.438 118.437 153.438H126.438V157.688H117.75C116.375 157.688 115.062 157.5 113.875 157.063Z" fill="black"/>
<path d="M130.688 143.562C130.688 142 130.937 140.625 131.5 139.563C132 138.438 132.75 137.562 133.687 136.875C134.625 136.188 135.687 135.687 136.875 135.437C138.062 135.125 139.375 135 140.75 135H148.188V144.062H143.125V139.25H141.375C140.625 139.25 139.875 139.312 139.187 139.5C138.5 139.625 137.875 139.875 137.375 140.25C136.875 140.562 136.437 141.062 136.187 141.562C135.875 142.125 135.75 142.75 135.75 143.562V157.688H130.688V143.562Z" fill="black"/>
<path d="M152.188 153.375H164.375C165.25 153.375 166 153.188 166.625 152.812C167.25 152.438 167.563 151.812 167.563 150.938C167.563 150 167.25 149.312 166.625 149C166 148.625 165.25 148.5 164.375 148.5H158.688C157.625 148.5 156.625 148.375 155.688 148.187C154.813 147.937 154.063 147.563 153.438 147.063C152.813 146.563 152.313 145.812 152 144.937C151.688 144.062 151.5 143 151.5 141.687C151.5 140.437 151.688 139.375 152 138.5C152.313 137.625 152.813 136.938 153.438 136.438C154.063 135.938 154.813 135.562 155.688 135.312C156.563 135.062 157.562 135 158.688 135H171.563V139.25H159.375C158.5 139.25 157.75 139.437 157.125 139.812C156.5 140.187 156.188 140.812 156.188 141.687C156.188 142.625 156.5 143.313 157.125 143.625C157.75 144 158.5 144.125 159.375 144.125H165.063C166.125 144.125 167.125 144.25 168 144.437C168.875 144.687 169.625 145.062 170.25 145.562C170.875 146.062 171.375 146.813 171.688 147.688C172 148.563 172.188 149.625 172.188 150.938C172.188 152.188 172 153.25 171.688 154.125C171.375 155 170.875 155.687 170.25 156.187C169.625 156.687 168.875 157.062 168 157.312C167.125 157.562 166.125 157.625 165.063 157.625H152.188V153.375Z" fill="black"/>
<path d="M149.876 50.3125C148.439 48.875 146.939 47.6875 145.314 46.625C140.189 43.25 134.064 41.5625 127.751 41.5625C120.189 41.375 112.251 43.8125 105.064 48.5C105.064 48.5 105.064 48.5 105.001 48.4375C99.3762 43.6875 92.1887 41.3125 84.6262 41.3125C74.2512 41.375 63.1262 45.875 54.4387 54.625C38.7512 70.3125 36.7512 93.75 50.0012 107C56.8762 113.875 66.5012 116.625 76.3137 115.5C82.5637 114.812 89.0012 112.5 94.8137 108.688L94.8762 108.75C108.376 120.125 130.439 117.688 145.439 102.688C161.126 87 163.126 63.5625 149.876 50.3125ZM144.501 101.562C135.564 110.438 120.689 106.625 108.314 95.25C107.689 94.6875 107.126 94.125 106.501 93.5625C106.314 93.375 106.126 93.1875 105.939 93C104.751 91.75 103.626 90.5 102.564 89.25C95.8137 80.9375 92.4387 71.8125 93.8762 64.25C93.6887 64.0625 93.5012 63.875 93.3137 63.6875C92.7512 63.125 92.1262 62.5 91.5012 62C82.7512 75.125 81.8137 91.1875 89.3137 102.562C90.1887 103.812 91.1262 105.125 92.1887 106.25C90.1262 106.625 87.8762 106.625 85.6262 106.25C78.3137 105.125 70.3762 100.562 63.4387 93.625C50.7512 80.875 46.0637 64.9375 55.4387 55.5625C64.3762 46.625 79.2512 50.5 91.6262 61.875C92.2512 62.4375 92.8137 63 93.4387 63.5625C93.6262 63.75 93.8137 63.9375 94.0012 64.125C100.626 70.9375 104.939 78.625 106.064 85.75C106.439 88.25 106.439 90.625 106.001 92.9375C106.189 93.125 106.376 93.3125 106.564 93.5C107.126 94.0625 107.751 94.6875 108.376 95.1875C112.314 89.25 114.626 82.8125 115.376 76.375C116.439 66.875 113.939 57.6875 107.626 50.875C115.126 49.625 124.001 53 132.189 59.625C133.689 60.8125 135.126 62.125 136.564 63.5625C149.189 76.3125 153.876 92.25 144.501 101.562Z" fill="url(#paint1_linear_835_2790)"/>
<defs>
<linearGradient id="paint0_linear_835_2790" x1="38.1875" y1="157.663" x2="38.1875" y2="127.226" gradientUnits="userSpaceOnUse">
<stop stop-color="#335FA9"/>
<stop offset="0.5" stop-color="#8AC6F0"/>
<stop offset="1" stop-color="#335FA9"/>
</linearGradient>
<linearGradient id="paint1_linear_835_2790" x1="65.2041" y1="43.8904" x2="134.736" y2="113.422" gradientUnits="userSpaceOnUse">
<stop stop-color="#335FA9"/>
<stop offset="0.5" stop-color="#8AC6F0"/>
<stop offset="1" stop-color="#335FA9"/>
</linearGradient>
</defs>
</svg>
