<svg enable-background="new 0 0 240 200" viewBox="0 0 240 200" xmlns="http://www.w3.org/2000/svg" xmlns:xlink="http://www.w3.org/1999/xlink"><linearGradient id="a"><stop offset="0" stop-color="#335fa9"/><stop offset=".5" stop-color="#8ac6f0"/><stop offset="1" stop-color="#335fa9"/></linearGradient><linearGradient id="b" gradientTransform="matrix(1 0 0 -1 0 -375.5)" gradientUnits="userSpaceOnUse" x1="21.1" x2="21.1" xlink:href="#a" y1="-568.5614" y2="-519.8614"/><linearGradient id="c" gradientUnits="userSpaceOnUse" x1="64.3246" x2="175.575" xlink:href="#a" y1="11.0247" y2="122.275"/><path d="m6.1 184.1c-1.1-2.1-1.7-4.8-1.7-8v-31.8h9.4v31.6c0 1.8.3 3.4.9 4.6.7 1.3 1.5 2.3 2.6 3s2.3 1.3 3.8 1.6 3.1.5 4.7.5h11.9v7.3h-11.9c-3 0-5.7-.2-8.3-.8-2.6-.5-4.9-1.5-6.8-2.8s-3.5-3-4.6-5.2z" fill="url(#b)"/><path d="m42.7 156.8h8.1v36.3h-8.1zm9-8.4c0-2.8-2.3-5.1-5.1-5.1s-5.1 2.3-5.1 5.1 2.3 5.1 5.1 5.1c2.9 0 5.1-2.3 5.1-5.1"/><path d="m58.2 156.8h17c2.2 0 4.3.2 6.2.7s3.6 1.2 5.1 2.3 2.6 2.5 3.5 4.3c.8 1.8 1.3 3.9 1.3 6.4v22.6h-8.1v-22.6c0-1.3-.2-2.4-.7-3.2-.5-.9-1.1-1.6-1.9-2.1s-1.8-.9-2.9-1.2c-1.1-.2-2.3-.4-3.5-.4h-7.8v29.5h-8.2z"/><path d="m98.1 144.7h8.7v28.4l14.6-16.3h11.2l-16.6 18.1 16.6 18.1h-11.2l-14.6-16.3v16.3h-8.7z"/><path d="m142.2 192.1c-2-.6-3.7-1.7-5.1-3.1-1.5-1.4-2.6-3.3-3.5-5.6-.8-2.3-1.3-5.1-1.3-8.5s.4-6.2 1.3-8.5 2-4.2 3.5-5.6 3.2-2.5 5.1-3.1 4-.9 6.2-.9h13.9v6.8h-12.8c-1.1 0-2.1.1-3 .4-1 .3-1.8.7-2.6 1.3s-1.4 1.4-2 2.4c-.5 1-.9 2.3-1.2 3.8h21.6v6.9h-21.6c.2 1.5.6 2.8 1.2 3.8.5 1 1.2 1.8 2 2.4s1.6 1 2.6 1.3c1 .2 2 .4 3 .4h12.8v6.8h-13.9c-2.2 0-4.3-.3-6.2-1"/><path d="m169.1 170.5c0-2.5.4-4.7 1.3-6.4.8-1.8 2-3.2 3.5-4.3s3.2-1.9 5.1-2.3c1.9-.5 4-.7 6.2-.7h11.9v14.5h-8.1v-7.7h-2.8c-1.2 0-2.4.1-3.5.4-1.1.2-2.1.6-2.9 1.2-.8.5-1.5 1.3-1.9 2.1-.5.9-.7 1.9-.7 3.2v22.6h-8.1z"/><path d="m203.5 186.2h19.5c1.4 0 2.6-.3 3.6-.9s1.5-1.6 1.5-3c0-1.5-.5-2.6-1.5-3.1-1-.6-2.2-.8-3.6-.8h-9.1c-1.7 0-3.3-.2-4.8-.5-1.4-.4-2.6-1-3.6-1.8s-1.8-2-2.3-3.4-.8-3.1-.8-5.2c0-2 .3-3.7.8-5.1s1.3-2.5 2.3-3.3 2.2-1.4 3.6-1.8 3-.5 4.8-.5h20.6v6.8h-19.5c-1.4 0-2.6.3-3.6.9s-1.5 1.6-1.5 3c0 1.5.5 2.6 1.5 3.1 1 .6 2.2.8 3.6.8h9.1c1.7 0 3.3.2 4.7.5 1.4.4 2.6 1 3.6 1.8s1.8 2 2.3 3.4.8 3.1.8 5.2c0 2-.3 3.7-.8 5.1s-1.3 2.5-2.3 3.3-2.2 1.4-3.6 1.8-3 .5-4.7.5h-20.6z"/><path d="m199.8 21.3c-2.3-2.3-4.7-4.2-7.3-5.9-8.2-5.4-18-8.1-28.1-8.1-12.1-.3-24.8 3.6-36.3 11.1 0 0 0 0-.1-.1-9-7.6-20.5-11.4-32.6-11.4-16.6.1-34.4 7.3-48.3 21.3-25.1 25.1-28.3 62.6-7.1 83.8 11 11 26.4 15.4 42.1 13.6 10-1.1 20.3-4.8 29.6-10.9l.1.1c21.6 18.2 56.9 14.3 80.9-9.7 25.1-25.1 28.3-62.6 7.1-83.8zm-8.6 82c-14.3 14.2-38.1 8.1-57.9-10.1-1-.9-1.9-1.8-2.9-2.7-.3-.3-.6-.6-.9-.9-1.9-2-3.7-4-5.4-6-10.8-13.3-16.2-27.9-13.9-40-.3-.3-.6-.6-.9-.9-.9-.9-1.9-1.9-2.9-2.7-14 21-15.5 46.7-3.5 64.9 1.4 2 2.9 4.1 4.6 5.9-3.3.6-6.9.6-10.5 0-11.7-1.8-24.4-9.1-35.5-20.2-20.3-20.4-27.8-45.9-12.8-60.9 14.3-14.3 38.1-8.1 57.9 10.1 1 .9 1.9 1.8 2.9 2.7.3.3.6.6.9.9 10.6 10.9 17.5 23.2 19.3 34.6.6 4 .6 7.8-.1 11.5.3.3.6.6.9.9.9.9 1.9 1.9 2.9 2.7 6.3-9.5 10-19.8 11.2-30.1 1.7-15.2-2.3-29.9-12.4-40.8 12-2 26.2 3.4 39.3 14 2.4 1.9 4.7 4 7 6.3 20.2 20.4 27.7 45.9 12.7 60.8z" fill="url(#c)"/></svg>