<?xml version="1.0" encoding="UTF-8"?>
<svg id="_レイヤー_1" data-name="レイヤー 1" xmlns="http://www.w3.org/2000/svg" viewBox="0 0 357.89 103.28">
  <defs>
    <style>
      .cls-1 {
        fill: #231815;
      }

      .cls-2 {
        fill: #ff5252;
      }
    </style>
  </defs>
  <g>
    <g>
      <rect class="cls-1" x="44.47" y="37.43" width="30.57" height="7.16"/>
      <rect class="cls-1" x="44.47" y="58.79" width="30.57" height="7.16"/>
    </g>
    <polygon class="cls-2" points="97.57 51.46 87.68 37.45 79.81 37.45 89.72 51.49 79.83 65.98 87.66 65.98 97.57 51.46"/>
  </g>
  <g>
    <path class="cls-1" d="M213.11,37.33h10.87c1.37,0,2.7.13,3.98.38,1.28.26,2.42.69,3.41,1.31,1,.62,1.79,1.45,2.38,2.5.59,1.05.89,2.38.89,4,0,2.07-.57,3.81-1.72,5.21-1.14,1.4-2.78,2.25-4.91,2.54l7.59,12.64h-6.14l-6.62-12.11h-4.65v12.11h-5.09v-28.58ZM223.09,49.44c.73,0,1.45-.03,2.18-.1.73-.07,1.39-.23,2-.48.61-.26,1.1-.65,1.47-1.17.38-.53.57-1.26.57-2.2,0-.83-.18-1.51-.52-2.02-.35-.51-.81-.89-1.37-1.15-.57-.26-1.19-.42-1.88-.5-.69-.08-1.35-.12-2-.12h-5.34v7.75h4.9Z"/>
    <path class="cls-1" d="M299.25,42.19h-9.05v-4.79h23.22v4.78s-9.01,0-9.01,0v23.81s-5.16,0-5.16,0v-23.81Z"/>
    <polygon class="cls-1" points="267.32 37.34 267.32 42.41 267.32 65.92 272.41 65.92 272.41 54.09 285.45 54.09 285.45 54.01 285.5 54.01 285.5 48.93 272.41 48.93 272.41 42.41 286.62 42.41 286.62 42.11 286.62 37.34 267.32 37.34"/>
    <path class="cls-1" d="M263.78,65.87l-10.39-28.54h0s-.34,0-.34,0h0s-4.43,0-4.43,0h0s-.31,0-.31,0h0s-10.39,28.54-10.39,28.54h.1l-.03.07h5.12l.02-.07h.03l2.43-6.68h10.53s2.43,6.68,2.43,6.68h0l.02.07h5.11l-.02-.07h.13ZM250.85,44.72l3.41,9.36h-6.81l3.41-9.36Z"/>
    <path class="cls-1" d="M208.28,45.28c-.77-1.79-1.81-3.28-3.09-4.46-1.29-1.18-2.77-2.07-4.45-2.64-1.68-.58-3.42-.87-5.22-.87h-10.79v28.58h10.21c1.65,0,3.33-.29,5.05-.87,1.71-.58,3.27-1.45,4.68-2.62,1.41-1.17,2.55-2.65,3.44-4.44.89-1.79,1.33-3.91,1.33-6.36s-.39-4.53-1.16-6.32ZM203.46,56.06c-.58,1.23-1.37,2.22-2.38,2.99-1.01.77-2.19,1.33-3.54,1.7-1.35.36-2.79.54-4.31.54h-3.42v-19.38h4.23c1.5,0,2.87.18,4.12.55,1.25.36,2.33.93,3.25,1.7.92.77,1.63,1.77,2.15,3.01.52,1.24.77,2.72.77,4.44s-.29,3.24-.87,4.46Z"/>
    <path class="cls-1" d="M148.23,59.84v-20.05h-1.52v-2.45h11.48v2.45h-1.59v27.1h-2.38v-5.79c-2.42.56-5.39,1.22-7.28,1.62l-.56-2.58c.53-.1,1.16-.2,1.85-.3ZM154.21,44.39v-4.6h-3.64v4.6h3.64ZM154.21,51.44v-4.76h-3.64v4.76h3.64ZM154.21,58.75v-5h-3.64v5.66c1.22-.2,2.51-.43,3.64-.66ZM161,50.97h6.62v12.64c1.13-1.22,2.12-2.55,2.98-4-.53-2.85-.93-6.35-1.19-10.29h-12.51v-2.12h3.24c-.17-1.36-.53-3.01-.99-4.43l1.89-.5c.53,1.69.93,3.51,1.09,4.93h1.95c.56-1.79,1.03-3.67,1.29-5.03l2.12.6c-.36,1.26-.86,2.88-1.39,4.43h3.18c-.17-3.37-.3-6.98-.33-10.65h2.38c0,3.74.1,7.35.23,10.65h5.59v2.12h-5.46c.17,2.55.36,4.93.6,6.98.83-1.92,1.42-4,1.82-6.25l2.08.53c-.63,3.44-1.75,6.58-3.34,9.36.53,2.71,1.19,4.3,1.99,4.4.43.03.63-.6.76-3.18l1.99.6c-.43,4.27-1.46,5.36-3.24,5.03-1.29-.23-2.28-1.79-3.04-4.37-1.16,1.62-2.48,3.11-3.94,4.43l-1.85-1.19c.76-.63,1.46-1.32,2.12-2.05h-6.62v1.52h-2.25v-14.16h2.25ZM161.92,39.99v-3.57h2.45v3.57h3.84v2.08h-10.29v-2.08h4ZM165.3,56.1v-3.04h-4.3v3.04h4.3ZM161,58.22v3.31h4.3v-3.31h-4.3ZM173.93,38.1c1.32,2.05,2.25,3.94,2.81,5.66l-2.02.76c-.46-1.75-1.32-3.64-2.55-5.66l1.75-.76Z"/>
    <path class="cls-1" d="M116.77,58.36v-2.42h-5.11v-11.72h5.08v-2.33h-5.85v-2.26h5.85v-3.29h2.69v3.29h5.98v2.26h-5.98v2.33h5.41v11.72h-5.41v2.42h6.21v2.29h-6.21v6.24h-2.66v-6.24h-6.14v-2.29h6.14ZM113.94,49.13h3.02v-2.76h-3.02v2.76ZM113.94,53.81h3.02v-2.86h-3.02v2.86ZM122.44,49.13v-2.76h-3.22v2.76h3.22ZM122.44,53.81v-2.86h-3.22v2.86h3.22ZM127.19,63.01c1.2-4.38,2.29-9.33,2.92-12.95h-4.48v-2.56h15.51v2.56h-8.17c-.73,3.62-1.86,8.34-3.12,12.65,2.46-.27,5.11-.6,7.31-.9-.73-1.86-1.66-3.82-2.76-5.88l2.26-.76c2.29,4.02,3.82,7.71,4.65,10.89l-2.56.86c-.2-.96-.47-1.93-.8-2.96-3.95.63-9.5,1.46-12.75,1.86l-.7-2.52c.73-.07,1.66-.17,2.69-.3ZM139.85,37.9v2.56h-13.32v-2.56h13.32Z"/>
  </g>
</svg>