<svg width="320" height="320" viewBox="0 0 320 320" fill="none" xmlns="http://www.w3.org/2000/svg">
<rect width="320" height="320" fill="white"/>
<g clip-path="url(#clip0_835_2245)">
<path d="M55.6893 146.084H25V153.272H55.6893V146.084Z" fill="#231815"/>
<path d="M55.6893 167.538H25V174.726H55.6893V167.538Z" fill="#231815"/>
<path d="M78.3059 160.179L68.3773 146.104H60.4766L70.4253 160.209L60.4966 174.755H68.3572L78.3059 160.179Z" fill="#FF5252"/>
<path d="M194.299 145.994H205.212C206.587 145.994 207.922 146.124 209.207 146.375C210.492 146.636 211.637 147.068 212.63 147.69C213.634 148.313 214.427 149.146 215.02 150.2C215.612 151.254 215.913 152.589 215.913 154.216C215.913 156.294 215.341 158.041 214.186 159.446C213.042 160.851 211.396 161.705 209.257 161.996L216.877 174.685H210.713L204.067 162.528H199.399V174.685H194.289V145.994H194.299ZM204.318 158.151C205.051 158.151 205.774 158.121 206.507 158.051C207.239 157.98 207.902 157.82 208.514 157.569C209.127 157.308 209.619 156.916 209.99 156.394C210.372 155.862 210.562 155.129 210.562 154.186C210.562 153.352 210.382 152.67 210.04 152.158C209.689 151.646 209.227 151.264 208.665 151.003C208.093 150.742 207.47 150.581 206.778 150.501C206.085 150.421 205.422 150.381 204.77 150.381H199.409V158.161H204.328L204.318 158.151Z" fill="#231815"/>
<path d="M280.773 150.863H271.688V146.064H294.998V150.863H285.953V174.766H280.773V150.863Z" fill="#231815"/>
<path d="M248.719 145.994V151.093V174.695H253.829V162.819H266.92V162.729H266.97V157.639H253.829V151.093H268.094V150.792V145.994H248.719Z" fill="#231815"/>
<path d="M245.164 174.645L234.734 145.984H234.392H229.945H229.634L219.203 174.635H219.304L219.273 174.706H224.413L224.433 174.635H224.464L226.903 167.929H237.474L239.914 174.635L239.934 174.706H245.064L245.044 174.635H245.174L245.164 174.645ZM232.184 153.413L235.607 162.809H228.77L232.194 153.413H232.184Z" fill="#231815"/>
<path d="M189.451 153.975C188.678 152.178 187.633 150.682 186.348 149.497C185.053 148.313 183.568 147.419 181.881 146.847C180.195 146.265 178.448 145.974 176.641 145.974H165.809V174.665H176.058C177.715 174.665 179.401 174.374 181.128 173.792C182.845 173.21 184.411 172.336 185.826 171.162C187.242 169.987 188.386 168.501 189.28 166.704C190.173 164.907 190.615 162.779 190.615 160.319C190.615 157.86 190.224 155.772 189.451 153.975ZM184.612 164.797C184.029 166.032 183.236 167.026 182.222 167.799C181.208 168.572 180.024 169.134 178.669 169.505C177.313 169.867 175.868 170.047 174.342 170.047H170.908V150.592H175.155C176.661 150.592 178.036 150.772 179.291 151.144C180.546 151.505 181.63 152.077 182.554 152.85C183.477 153.623 184.19 154.627 184.712 155.872C185.234 157.117 185.485 158.603 185.485 160.329C185.485 162.056 185.194 163.582 184.612 164.807V164.797Z" fill="#231815"/>
<path d="M129.166 168.592V148.464H127.64V146.004H139.165V148.464H137.568V175.669H135.179V169.857C132.75 170.419 129.768 171.081 127.871 171.483L127.309 168.893C127.841 168.793 128.473 168.692 129.166 168.592ZM135.169 153.071V148.464H131.515V153.081H135.169V153.071ZM135.169 160.149V155.37H131.515V160.149H135.169ZM135.169 167.487V162.468H131.515V168.15C132.74 167.949 134.035 167.718 135.169 167.487ZM141.986 159.687H148.632V172.377C149.766 171.152 150.76 169.817 151.623 168.361C151.091 165.5 150.69 161.986 150.429 158.031H137.87V155.902H141.122C140.952 154.537 140.59 152.881 140.128 151.455L142.026 150.953C142.558 152.65 142.959 154.477 143.12 155.902H145.078C145.64 154.105 146.112 152.218 146.373 150.853L148.501 151.455C148.14 152.72 147.638 154.346 147.106 155.902H150.298C150.127 152.519 149.997 148.895 149.967 145.211H152.356C152.356 148.965 152.456 152.59 152.587 155.902H158.199V158.031H152.717C152.888 160.591 153.079 162.98 153.32 165.038C154.153 163.11 154.745 161.022 155.147 158.764L157.235 159.296C156.603 162.749 155.478 165.901 153.882 168.692C154.414 171.413 155.077 173.009 155.88 173.109C156.311 173.139 156.512 172.507 156.643 169.917L158.64 170.519C158.209 174.806 157.175 175.9 155.388 175.569C154.093 175.338 153.099 173.772 152.336 171.182C151.171 172.808 149.846 174.304 148.381 175.629L146.523 174.435C147.286 173.802 147.989 173.109 148.652 172.377H142.006V173.902H139.747V159.687H142.006H141.986ZM142.909 148.654V145.07H145.369V148.654H149.224V150.742H138.894V148.654H142.909ZM146.302 164.837V161.785H141.986V164.837H146.302ZM141.986 166.955V170.278H146.302V166.955H141.986ZM154.966 146.767C156.291 148.825 157.225 150.722 157.787 152.449L155.759 153.212C155.297 151.455 154.434 149.558 153.199 147.53L154.956 146.767H154.966Z" fill="#231815"/>
<path d="M97.5819 167.106V164.677H92.452V152.901H97.5518V150.562H91.679V148.293H97.5518V145H100.252V148.303H106.256V150.572H100.252V152.911H105.683V164.677H100.252V167.106H106.487V169.405H100.252V175.669H97.5819V169.405H91.418V167.106H97.5819ZM94.7409 157.84H97.7727V155.069H94.7409V157.84ZM94.7409 162.538H97.7727V159.667H94.7409V162.538ZM103.284 157.84V155.069H100.052V157.84H103.284ZM103.284 162.538V159.667H100.052V162.538H103.284ZM108.043 171.774C109.247 167.377 110.342 162.408 110.974 158.774H106.477V156.204H122.047V158.774H113.845C113.112 162.408 111.978 167.146 110.713 171.473C113.183 171.202 115.843 170.871 118.052 170.569C117.319 168.702 116.385 166.735 115.281 164.666L117.55 163.904C119.849 167.939 121.384 171.644 122.218 174.836L119.648 175.699C119.447 174.736 119.176 173.762 118.845 172.728C114.879 173.36 109.308 174.194 106.045 174.595L105.342 172.065C106.075 171.995 107.009 171.895 108.043 171.764V171.774ZM120.752 146.566V149.136H107.38V146.566H120.752Z" fill="#231815"/>
</g>
<defs>
<clipPath id="clip0_835_2245">
<rect width="270" height="30.7094" fill="white" transform="translate(25 145)"/>
</clipPath>
</defs>
</svg>
