<svg width="200" height="200" viewBox="0 0 200 200" fill="none" xmlns="http://www.w3.org/2000/svg">
<rect width="200" height="200" fill="white"/>
<g clip-path="url(#clip0_931_2648)">
<path fill-rule="evenodd" clip-rule="evenodd" d="M20 99.2571V94.9674H45.336L45.824 94.6053L49.744 96.8185C48.296 100.69 47.064 104.987 44.144 107.949C40.624 111.595 35.592 113.245 30.984 114.645L29.232 112.762C36.864 109.092 40.784 104.834 40.912 99.2571H20ZM23.48 92.6013V88.4485H44.608V92.6013H23.48Z" fill="black"/>
<path fill-rule="evenodd" clip-rule="evenodd" d="M70.2161 87.5472H74.3441V90.8228H70.2161V87.5472ZM76.7601 87.5472H80.7601V90.7665H76.8001L76.7601 87.5472ZM51.6641 100.247C57.1841 97.2049 59.5601 92.0139 60.8801 86.7424L67.4801 88.5372L66.1441 91.185H75.3441L75.8961 90.5894L80.4561 92.7946C76.8667 102.64 70.0134 109.843 59.8961 114.404L57.7441 112.593C66.3041 108.368 70.5441 102.018 71.9041 95.378H63.1441C61.0561 98.0902 58.2241 100.207 54.9761 102.702L51.6641 100.247Z" fill="black"/>
<path fill-rule="evenodd" clip-rule="evenodd" d="M109.959 87.2252H113.263V90.5893H109.959V87.2252ZM114.303 87.2815H117.743V90.5893H114.303V87.2815ZM83.1992 96.2954V92.8347H89.7592V86.9596H95.4792V92.7623H102.887V86.6377H108.703V92.7945H115.319V96.8588H108.919C108.919 100.295 109.359 104.36 106.759 107.458C105.775 108.641 98.7592 113.092 97.2392 113.454C94.7592 114.074 94.7032 113.454 95.0792 112.19C97.7432 110.355 100.679 107.885 102.175 105.14C103.599 102.565 103.295 99.748 103.279 96.9151H95.5592V103.941H89.8552V97.1002H83.1992V96.2954Z" fill="#C71108"/>
<path fill-rule="evenodd" clip-rule="evenodd" d="M116.223 102.476C127.023 97.6073 132.719 90.7665 138.399 85.1328L145.135 89.3178C142.043 92.16 138.618 94.6114 134.935 96.6174V112.883H128.943V99.6998C125.629 101.481 122.2 103.035 118.679 104.352L116.223 102.476Z" fill="black"/>
<path fill-rule="evenodd" clip-rule="evenodd" d="M147.617 91.8528V87.6839H175.441L175.897 87.3137L180.001 90.2835C177.1 94.7525 173.477 98.7022 169.281 101.969L167.241 99.6192C169.761 98.0096 171.065 96.1022 170.657 91.8528H147.617ZM149.617 111.49C153.617 109.599 156.017 105.358 157.001 102.678C158.057 100.263 157.585 97.1646 157.625 93.2049H165.041C164.737 97.7199 164.801 102.058 162.697 105.076C160.441 108.295 156.297 110.709 152.041 112.842L149.617 111.49Z" fill="black"/>
</g>
<defs>
<clipPath id="clip0_931_2648">
<rect width="160" height="29.7778" fill="white" transform="translate(20 85)"/>
</clipPath>
</defs>
</svg>
