<?xml version="1.0" encoding="UTF-8"?>
<svg id="Layer_2" data-name="Layer 2" xmlns="http://www.w3.org/2000/svg" viewBox="0 0 180 180">
  <defs>
    <style>
      .cls-1 {
        fill: #002c69;
        fill-rule: evenodd;
      }

      .cls-2 {
        fill: #fff;
      }

      .cls-3 {
        fill: #231916;
      }
    </style>
  </defs>
  <g id="page-exp">
    <g>
      <rect class="cls-2" width="180" height="180"/>
      <path class="cls-1" d="M49.94,32.36h.09s-.09,0-.09,0M48.74,32.82l.31.17.17.08.16.03v.09s.1,0,.1,0l.04-.1.03-.03h0s0,.04,0,.04l.45.04v-.08s.08,0,.08,0l.15-.16.18-.13.21-.09.22-.05.02.13-.02.03-.07.02v.31s-.03.3-.03.3l.36.05.02.17-.36-.05v.09s.16.21.16.21l.1.08.13.02v-.09s.13,0,.13,0l.03-.03v-.07s.38.04.38.04l.18.05.06.05.03.06-.18.02-.44.04v.08s.1,0,.1,0l.1.14.17.1.43.11.4.08.13.06.04.04.02.05.02.4-.04.21-.04.07-.05.03v.09s.1,0,.1,0l.11.16.04.15v.36s.09,0,.09,0v.09s1.3-.3,1.3-.3v.08s.1,0,.1,0l.02.17-.18.02v.09s-.69.07-.69.07v.09s-.08,0-.08,0v.09s.64.11.64.11v.09s-.08,0-.08,0l-.44.91v.09s.1,0,.1,0h.09s.12.06.12.06l.29.22.25.28.08.12.03.1-.17.23-.15.34-.03.16.02.13.03.05.05.04.16.02v.09s-.08,0-.08,0l.12.15.06.09.03.08h-.09s-.14.22-.14.22l-.09.23-.1.22-.16.19-.13.06h-.13s-.24-.1-.24-.1l-.12-.04h-.13s-.13.07-.13.07l-.15.16-.09.13-.03.16h.09s0,.08,0,.08l.51-.22.14.26.11.1.07.03h.07s0-.08,0-.08l1.19-.38.55.12v.09s-.25.11-.25.11l-.2.15-.13.21-.04.28v.12s.02.03.02.03h.07s-.1.2-.1.2l-.03.17.02.15.07.13.23.25.27.28h-.09s0,.1,0,.1l-.68.24v.09s.13.14.13.14l.05.09.03.1-.44-.1-.38-.08v.09s-.07.1-.07.1h.09s-.06.16-.06.16v.07s.03.02.03.02h.05s-.21.15-.21.15l-.08.1-.03.13h.09s.08.05.08.05h.11s.25-.01.25-.01l.2.05.15.09.12.12.15.25.04.08.04.03v.08s.27-.02.27-.02v-.09s.03-.08.03-.08l.02-.04v-.06s.37.05.37.05v-.09s.05.26.05.26l-.02.12-.03.04-.05.02.06-.27-1.06.88.13.19.08.22.45-.08.23-.07.07-.04.02-.06h.09s.24.13.24.13l.09.06v.02h-.04s0,.1,0,.1l-.15.22-.08.11-.09.05v.21s-.05.2-.05.2l-.04.19v.19s-1.31.73-1.31.73l-.18.17-.09.08-.1.04v.09s.1,0,.1,0l.21.28.11.14.05.04h.04s0,.1,0,.1h.13s.03-.03.03-.03v-.07s1.04-.27,1.04-.27l.03.34-.11.12-.06.05-.08.02v.09s.1,0,.1,0l.07.11.05.03h.08s0,.09,0,.09h-.09s0,.09,0,.09l-.17-.1-.09-.03h-.11s-.22.29-.22.29l-.12.11h-.04s-.02-.02-.02-.02h-.46s-.51-.08-.51-.08h-.23l-.19.06-.08.05-.06.08-.06.23v.35s.07.16.07.16l.05.05h.06s1.17-.25,1.17-.25l.57-.17.18-.03h.05s.02.03.02.03h.09s.13.46.13.46l.56.71.29.43.04.14v.04s-.06.02-.06.02l-.23.12-.31.12-.27.15-.08.1-.02.12-.26-.09-.29-.03.03.34.21.04.21.08.17.13.05.09.03.11h-.09s-.11.13-.11.13l-.06.05-.08.02v.13s.03.03.03.03h.08s.62.98.62.98l-.97.23-.46.21-.15.15-.07.2.02.14.06.11.07.1.04.12.3-.05h.31s.16-.23.16-.23l.18-.15.22-.1.28-.05v-.09s.08-.27.08-.27l.05-.13.03-.04.05-.02v-.09s.17-.02.17-.02v.09s.09,0,.09,0v.08s-.08,0-.08,0l-.28.68-.22.35-.13.12-.14.05-.03.2-.1.17-.15.13-.2.06.03.25h.09s.51.21.51.21l.29.06h.28s.43-.16.43-.16v-.09s.08,0,.08,0v.09s.1,0,.1,0l.02.26h-.09s0,.09,0,.09l-1.48.22.02.17.45.18.21.16.07.09.03.1-.05.13v.16s.15.38.15.38l.19.4.12.37.34-.12v.08s-.08,0-.08,0l-.1.17-.04.09v.1s-.23-.09-.23-.09l-.11-.04h-.12s0,.09,0,.09l-.03.05-.04.02h-.05s-.09.02-.09.02l-.03.03v.06s-.18-.11-.18-.11l-.07-.02-.02.02v.05s-.41.25-.41.25l-.2.14-.15.17-.08.19-.03.2v.18s0,0,0,0h0s.31-.2.31-.2l.31-.12.34-.05.4.03.47.07-.2.26-.14.27-.07.3v.34s-.09,0-.09,0l-.36.16-.32.2-.13.13-.1.15-.05.18v.22s.44.05.44.05v-.09s.39-.19.39-.19l.19-.14.05-.08v-.08s.1,0,.1,0v.08s.16.16.16.16l.13.21.1.23.05.23-.2.13-.22.09.02.17h.09s.35.22.35.22l.2.1.19.03.02.17-.35.05-.35.02-.08.26-.15.24-.21.18-.28.09v.34s-.07.14-.07.14l-.06.04-.08.02.02.17.61-.06.53-.05v.09s-.08,0-.08,0l-.11.12-.06.05-.08.03.13.15.05.08.03.1v.26s-.04.2-.04.2l-.09.15-.13.11-.35.12-.46.06.22.5-.27.23-.09.15-.03.17,1,.34.08-.11.13-.09.31-.11h.16l.14.05.1.1.05.16h-.09s-.18.29-.18.29l-.11.13-.11.06.13.2.04.09v.03s-.05.01-.05.01l-.15.37-.11.18-.06.06-.06.02.7,1.75-.19.24-.08.28.02.63-.43.13v.09s-.08,0-.08,0l.02.17.23.1.2.16.15.2.08.22v.21s-.07.19-.07.19l-.18.14-.29.07-.26.45-.13.24-.05.22h.09s0-.09,0-.09l.29-.04.25-.08.24-.09.26-.06v.09s.1,0,.1,0v.09s-.08,0-.08,0v.08s.1,0,.1,0v.08s-.21.1-.21.1l-.08.08-.03.11.18.38.04.2-.02.07-.05.03-.17.02.02.17.21.09.11.13.04.16v.16s-.07.28-.07.28v.08s.03.02.03.02h.04s.02.18.02.18h-.5s-.07.03-.07.03l-.08.08-.13.21-.05.19.03.06h.07s.61.37.61.37l.29.24.09.13.03.14-.08.61-.21.54.44.91-.17.06-.06.05-.02.09.24.35.15.15.09.04h.1s-.12.63-.12.63l-.21.15-.08.1-.02.13.09.15.05.2v.09l-.03.08-.05.06-.09.03.12.11.07.04h.09s0,.18,0,.18l.04.21.11.48v.23s-.04.2-.04.2l-.05.08-.09.06-.26.07v.08s.09,0,.09,0v.09s.18.29.18.29l.11.14.06.04h.06s-.11.18-.11.18l-.02.07.02.02h.05s.1.74.1.74l.17.36-.2.06-.18.11-.18.1-.21.06v.08s.18.05.18.05l.14.08.22.21.21.18.12.05h.15s-.31.55-.31.55l-.09.29-.02.34-.95.18-.31-.41-.21-.16-.12-.04h-.13s0-.09,0-.09h.09s0-.09,0-.09l.1-.17.04-.09v-.1s.29-.12.29-.12l.08-.07.06-.08.05-.22-.02-.33h-.13s-.03.03-.03.03v.07s-.4.26-.4.26l-.21.11-.24.06v.09s-.08,0-.08,0l.12.16.07.06.09.02-.07.37.04.27.08.16.04.06.22-.03h.09s.03.04.03.04l.02.04h.09s0,.08,0,.08h-.09s-.16.3-.16.3l-.04.15v.19s-.09,0-.09,0l.27.07.28.03.61-.03v.08s-.29.17-.29.17l-.15.09-.14.05v-.08s-.1,0-.1,0l.02.17h.35s.37-.08.37-.08l.16-.08.12-.12.08-.16.02-.19.43-.04-.07.41-.06.21-.04.07-.04.03-.18.05-.06.06v.09s.34-.03.34-.03v.09s.07.16.07.16l.05.06.09.02.02.17-.17.11-.05.07v.1s-.03.38-.03.38l-.12.19-.14.17-.11.19-.03.24.53.18.22.18.07.12.04.14-.36-.05.02.17.18.12.11.12.05.13v.13s-.05.12-.05.12l-.08.12-.24.22-.59.32-.22.06h-.07s-.03-.04-.03-.04l-.13-.1-.05-.06-.02-.08h-.09s0,.09,0,.09l-.1.17-.04.2h.09s.17-.03.17-.03v.08s-.08,0-.08,0v.09s-.61-.03-.61-.03v.09s-.08,0-.08,0l.08.14.04.13.02.32h.09s0,.08,0,.08l.36-.11.34-.11h.69s.52-.05.52-.05v-.09s.06-.07.06-.07v-.1s.26,1.79.26,1.79l-.32.37-.1.22-.02.24h.09s.1,0,.1,0l.06.05.03.08v.1s-.04.35-.04.35l.71.02-.22.58v.65s-.46.13-.46.13l-.49.09-1.12.32v.17s.19-.02.19-.02l.25.03.23-.03.49-.09v.09s-.08,0-.08,0l-.1.31v.16s.01.05.01.05h.05s0,.1,0,.1h.09s0-.09,0-.09l.18-.02.05-.35.9.18.02.17-.27.08h-.11s-.04,0-.04,0l-.02-.04h-.18s.19.23.19.23l.13.07.15.02.02.26-.32.02-.14.03-.04.04v.05s-.07.07-.07.07v.11s.43-.04.43-.04v.09s.1,0,.1,0l.02.12.05.11.09.07.13.02v.08s.09,0,.09,0l-.1.21-.04.24v.12s.04.04.04.04h.07s-.12.13-.12.13l-.05.07v.09s.28.5.28.5l.09.39.06.4.2.46-.17.06-.06.05-.02.08-.29.03-.25.08-.24.1-.26.06.02.26.36.05-.06.27.26-.02.1-.08.1-.04h.21s.22.03.22.03h.24s.3,1.29.3,1.29l.12.21.08.08.1.03.02.17-.43.18-.19.14-.06.09-.02.11.03.15.08.11.13.07.16.04.35.02.3-.04.17-.05h.06s.03.08.03.08l.17-.02-.12-.39-.02-.2.02-.07.05-.03.25-.2.3-.14.61-.25.2-.19.11-.1.12-.05-.1-.3v-.26s.07-.26.07-.26v-.3s.39-.09.39-.09l.18-.05.17-.08.14-.16.14-.22.13-.2.06-.06.06-.03-.03-.26-.17.02-.44-.04-.02-.17h.09s.1-.13.1-.13l.04-.07v-.08s.01-.36.01-.36l.04-.18.03-.06.04-.02v-.08s.35-.02.35-.02l.17-.04.05-.04.02-.05.1-.28.04-.24-.06-.4-.14-.39-.11-.49.2-.12.22-.09-.11-.28-.05-.31.04-.65.51-1.14.5-.52.18-.4.12-.19.07-.07.08-.03v-.09s-.1,0-.1,0l-.3-.06-.32.03v-.09s-.1,0-.1,0l-.09-.55-.04-.28v-.09s.01-.02.01-.02h.02s-.02-.18-.02-.18l.19-.24v-.05s-.08-.51-.08-.51l-.03-.24v-.26s.26-.64.26-.64h-.09s0-.08,0-.08l.18-.02.08.06h.11s0-.07,0-.07l.04-.13.04-.04.08-.02-.02-.17h-.09s0-.08,0-.08l-.22.05-.09-.02-.03-.03-.02-.05.11-.07.02-.02h-.05s-.11-.34-.11-.34l.02-.28.13-.25.23-.26.14-.14.08-.06.09-.03-.02-.17h-.09s-.17-.09-.17-.09l-.09-.03h-.1s0-.09,0-.09h.09s.25-.12.25-.12l.18-.11.16-.14.04-.08v-.08s-.09-.09-.09-.09l-.16-.1-.17-.03h-.24s-.22-.02-.22-.02l-.07-.02-.03-.04.31-.18.13-.13.04-.08v-.08s-.24-.29-.24-.29l-.1-.14v-.05s.04-.02.04-.02l.4-.29.2-.15.16-.19.06-.12.02-.11-.04-.18-.07-.15-.02-.08v-.08s1.23-1.26,1.23-1.26l-.02-.17-.18.03-.06-.02-.03-.07-.57.19-.25.17-.07.11-.02.13h-.09s0-.08,0-.08h-.09s.11-.52.11-.52l.05-.26v-.27s.69-.75.69-.75l.3-.46.06-.19v-.08s-.04-.07-.04-.07l-.16-.13-.19-.1-.16-.13-.05-.09-.03-.11.09-.17.04-.16-.02-.38.06-.16v-.2s-.05-.17-.05-.17l-.06-.05h-.09s-.02-.18-.02-.18l.32-.33.17-.17.08-.06.07-.03v-.09s-.09,0-.09,0l-.21-.05h-.23s0-.08,0-.08h.09s0-.09,0-.09l.13-.19.08-.07.12-.03.06-.07v-.11s.01-.08.01-.08l.05-.11.16-.27.16-.32.05-.16v-.15s.11-.06.11-.06l.02-.03h-.04s-.14-.2-.14-.2l-.11-.23-.05-.25.04-.26v.09s.1,0,.1,0v.08s.1,0,.1,0l.12-.25.18-.25.17-.23.05-.1v-.09s-.18-.11-.18-.11l-.07-.09-.03-.11-.08-.06h-.1s-.31.09-.31.09h-.15s-.05-.06-.05-.06l-.02-.08.42-.41.17-.24v-.07s0-.02,0-.02h-.04s0-.09,0-.09l.17.09.1.04h.1s.09-.14.09-.14l.13-.13.34-.2.3-.18.09-.1.03-.12-.17.02-.24-.04h-.24s-.49.05-.49.05v-.09s.08,0,.08,0v-.09s.12-.22.12-.22l.08-.1.1-.05-.02-.17h-.09s-.28-.1-.28-.1l-.13-.07-.04-.05-.02-.07.62.03-.03-.17.02-.06.07-.03-.12-.34.22.09.12.04h.12s.07-.26.07-.26l.06-.12.04-.04.05-.02v-.17s-.28.02-.28.02h-.13s-.14.03-.14.03h-.12s-.04-.03-.04-.03l-.02-.05h-.09s.06-.05.06-.05l.03-.06.05-.05.11-.03-.21-.51-.03-.29.05-.1.11-.04.07.06h.11s.3-.21.3-.21l.14-.12.04-.07v-.08s.1,0,.1,0v-.08s-.44.13-.44.13l-.07-.17-.05-.06-.08-.02v-.08s.08,0,.08,0v-.09s.08,0,.08,0l-.02-.17h.09s.06.03.06.03h.04l.03-.03v-.05s-.02-.12-.02-.12l-.04-.05-.05-.03-.73.22-.02-.17h.09s.09-.18.09-.18l.04-.09v-.09s-.07,0-.07,0l.25-.06h.28s.53.05.53.05v-.09s.08,0,.08,0l-.09-.11v-.02s0-.02,0-.02l.07-.02.04-.21-.09-.06-.03-.04v-.06s.02-.06.02-.06l.04-.05.04-.05v-.07s.34-.23.34-.23l.17-.12.17-.06v-.13s-.03-.03-.03-.03h-.08s-.21-.16-.21-.16l-.2-.06-.48-.02-.46-.06v-.08s.08,0,.08,0l.1-.12.07-.05.08-.02-.12-.33.23-.21.14-.25.06-.3v-.33s-.17.08-.17.08h-.06s-.02-.01-.02-.01v-.04s-.1,0-.1,0l-.02-.13.02-.03.07-.02v-.09s.62.11.62.11v-.09s.6-.14.6-.14l.71.02.17-.02h.2s.17,0,.17,0h.05s.02-.04.02-.04l.12-.07.03-.04v-.07s0-.12,0-.12l-.03-.03h-.07s-1.51-.12-1.51-.12v-.27s0-.12,0-.12l.02-.04.04-.02v.09s.1,0,.1,0v-.09s.08,0,.08,0l-.16-.76-.2.13-.1.06-.12.03v-.09s-.09,0-.09,0v-.09s.1-.3.1-.3l.27-.25.12-.13.07-.16v-.08s-.04-.06-.04-.06l-.13-.06h-.33s-.01-.17-.01-.17l-.02-.17.31-.37.17-.2.08-.07.08-.03-.02-.17-.73-.19v-.09s.08,0,.08,0l.19-.14.24-.08v.09s.09,0,.09,0l-.02-.17.16-.12.06-.07.02-.09h.09s0,.08,0,.08h.09s0,.08,0,.08l.13.44.06.09.08.07.1.04h.13s0-.08,0-.08l.29-.22.14-.13.04-.07v-.06s.19.06.19.06h.07s.02-.03.02-.03v-.05s.23-.01.23-.01l.09-.03.02-.03v-.04s.04-.27.04-.27v-.12s-.04-.03-.04-.03h-.04s0-.1,0-.1l-.85-.09-.17-.05-.08-.05v-.02s.06-.02.06-.02l.22-.04-.24-.21-.35-.22-.45-.24.89-.55.27-.35.13-.19.05-.06.04-.02v-.09s.08,0,.08,0l.17.1.2.04-.02-.17.63.11v-.09s.08,0,.08,0l-.14-.59.16-.12.06-.07.02-.09h-.09s-.59-.25-.59-.25l-.31-.06h-.36s-.02-.26-.02-.26h.22s.09-.04.09-.04l.02-.03v-.05s-.03-.22-.03-.22l.02-.09.03-.03h.04s.07-1.15.07-1.15l.51-.22v.08s-.08,0-.08,0v.09s.33.13.33.13l.16.08.05.04.02.04h.09s.06-.28.06-.28h.09s.36.04.36.04l-.06.22v.09s.04.03.04.03h.05s0,.09,0,.09h.14s.03-.03.03-.03v-.07s.09-.01.09-.01v-.08s.08,0,.08,0v.08s.1-.25.1-.25l.08-.36.1-.32.07-.1.09-.05-.23-.24-.12-.13-.06-.11-.37.06h-.18s-.15-.1-.15-.1l-.04-.06v-.07s.03-.14.03-.14l.09-.12.12-.06v-.09s.29.14.29.14l.16.05h.18s.04-.13.04-.13l.04-.04.08-.02.26-.03v-.09s.08,0,.08,0l.16-.35.13-.14.18-.07.06-.08v-.1s-.01-.26-.01-.26l.19-.23.09-.09h.03s.01.03.01.03l.18-.02-.17-.35-.08-.4h-.09s-.22-.13-.22-.13l-.13-.06-.11-.02.06-.07.11-.03.16-.07.07-.04.02-.08.26-.02.04.36.13.33.14.32.09.33.35-.11.11-.11.03-.08v-.1s.15-.17.15-.17l.08-.08.1-.04v-.08s.08,0,.08,0v.08s.15.15.15.15l.03.07v.02s-.06.01-.06.01l.36.05-.02-.17.17-.14.29-.13.28-.03.09.04.04.09.12.19.09.22-.31.19-.28.21-.3.17-.37.08h-.08s0,.09,0,.09l-.18.02v.08s-.08.01-.08.01l.16.16.2.12.22.07h.24s0-.08,0-.08l1.24.06-.14-.51.12-.07.03-.05v-.07s.25.16.25.16l.1.1.05.13-.12.47-.1.24-.06.08-.08.03.02.17.17-.02v.09s.35-.11.35-.11l.18-.02.06.02.03.05h.09s0,.08,0,.08h-.09s-.19.19-.19.19l-.11.08-.12.04.07.12.05.03h.08s.02.26.02.26l.34-.03.33.03.66.05v.09s-.16.06-.16.06l-.06.05v.09s-.1,0-.1,0v.09s.27.13.27.13l.15.18.12.42.06.2.11.17.21.11.34.03.47.07.02.17h-.09s-.34.13-.34.13l.02.17.19.11.07.09.03.12-.13.18-.02.16.08.14.14.12.4.16.4.04v.09s.23.5.23.5h-.09s0,.09,0,.09l-.26.03-.13-.2-.09-.21-.2.08-.23.04.13.42-.13.07-.11.1-.07.13-.04.14v.15s.04.14.04.14l.08.12.12.09.13.04h.13s.27-.05.27-.05l.27-.09.27-.06.02.13-.02.03-.07.02-.6.45-.32.28-.1.13-.03.11-.22-.06h-.09s-.03.04-.03.04v.05s-.88.09-.88.09v-.09s-.1,0-.1,0l-.09.21-.04.11v.12s-.24-.05-.24-.05h-.09s-.02.03-.02.03v.05s-.11.21-.11.21l-.03.24-.14.17-.07.08-.11.04.06.12.05.03h.08s0,.09,0,.09h-.08s.07.07.07.07l.03.1-.28.28-.11.04h-.12s-.25-.05-.25-.05l-.21-.14-.06-.1-.03-.11.11-.17.03-.09v-.1s-.08,0-.08,0v-.08s-.23.06-.23.06l-.29.04-.25.03h-.08s-.03.03-.03.03l-.14.13-.1.15-.05.17v.19s.46,0,.46,0l.23.06.07.05.03.07h.09s0,.08,0,.08h-.09s-.29.1-.29.1l-.15.06-.04.03-.02.04.02.17-.49.02-.47.07v.08s-.08,0-.08,0l-.07-.77.43-.13-.25-.31-.11-.16-.06-.18.2-.16.08-.1.03-.11h.09s.11.09.11.09l.16.08.18.04h.18s.17-.03.17-.03l.14-.08.09-.13.02-.18-.47-.17h-.14s-.11.02-.11.02l-.22.1-.39.09-.11-.25h-.09s-.52,0-.52,0l-.26-.04-.08-.05-.04-.09.26-.03-.14-.2-.04-.09v-.03s.05-.02.05-.02l.38-.36.23-.16.22-.08-.03-.34-.39-.09h-.46s-.44.13-.44.13l-.19.1-.16.12-.35.47-.08.04-.08.02-.06.03-.02.08h-.09s.14.16.14.16l.03.07v.02s-.06.01-.06.01l-.43.61-.24.36-.07.14-.02.09.69-.15.05.35v.17s-.03.06-.03.06l-.05.02-.76.33.02.17h.09s0,.08,0,.08h.13s.03-.03.03-.03v-.07s.09,0,.09,0v-.09s.08,0,.08,0v.08s.18-.02.18-.02l-.1.25-.15.24-.41.42-.52.31-.56.15v.08s.1,0,.1,0l.66.78.32.46.1.21.05.18-.18.26-.12.31-.15.7-.09.33-.14.29-.21.22-.14.07-.17.05-.18.03-.05.04v.08s-.1,0-.1,0v.09s.46.04.46.04l.16.06.12.08.08.11.05.12.03.29-.16,1.4h-.37s-.38-.04-.38-.04l-.38-.06h-.37s0,.08,0,.08l-.06.08v.1s-.1,0-.1,0v.09s.7.2.7.2l.35.08h.4s-.38,1.61-.38,1.61l.2.12.06.07v.03s-.06.01-.06.01l-.43,1.03-.18.16-.24.12-.69.14-.05.35-.62-.03-.03.22.02.2.06.17.1.14.14.11.17.08.2.04h.23s.1-.26.1-.26l.19-.3.24-.26.13-.09.13-.04v-.09s.07.05.07.05l.1.02.04.43-.08.39-.13.38-.1.39v.94s-.14.55-.14.55l-.46-.05-.24.02-.07.04-.02.07h-.09s.01.18.01.18h.09s0,.08,0,.08h.26s.26.08.26.08l.11.07.08.09.05.12v.13s-.02.1-.02.1l-.06.08-.17.13-.16.13-.05.08v.1s.08,0,.08,0l.21.09.24.03v.09s-.64.81-.64.81l-.29.47-.04.14.02.04h.04s.25.21.25.21l.15.07.16.02v.09s-.08,0-.08,0l-.06.2v.16s.03.15.03.15l.09.18h-.09s-.38.38-.38.38l-.18.2-.05.09v.09s.17.08.17.08l.13.13.08.18.04.2-.04.43-.16.37-.44.42-.3.42-.18.18-.11.06-.12.03v.08s.08.07.08.07l.03.1.33.1.16.08.05.05.02.06.17-.02-.07-.22v-.09s0-.03,0-.03h.04s.1-.14.1-.14l.04-.07v-.08s.1-.01.1-.01v.09s.09,0,.09,0l-.1.29-.15.29-.13.29-.04.3-.87.17v.08s-.08.01-.08.01l.19.35.08.1.09.06.25.03.4-.03v.15s-.1.56-.1.56l-.07.31-.03.1-.03.04-.69.12-.86.29v.08s.49.27.49.27h.17s.23-.01.23-.01h.21s.07.02.07.02l.03.05h.09s.01.16.01.16l-.34.12.02.17.7-.07-.12.41-.08.21-.04.07-.04.03h-.1s-.1.02-.1.02l-.16.11-.08.12v.04s.02.01.02.01v-.08s.26.06.26.06l.07.06.03.1-.3,1.35-.2.73-.14.24-.09.07-.1.03v.09s.37.05.37.05l.03.26-.28.23-.23.28-.14.32-.03.37-.59.23v.08s-.08,0-.08,0l.13.1.05.06.02.08.2.12.06.08v.02s-.05.01-.05.01l-.25.1-.41.09-.72.11.2.42.17.17.1.04h.12s.09-.13.09-.13l.03-.02h.02s.02.02.02.02v.05s.32.13.32.13l.16.05h.17s.02.19.02.19l-.41.02-.2.04-.06.04-.02.05h-.09s0,.09,0,.09l.07.06.03.1.37.19.12.15.08.21.03.12-.02.04-.07.02v.09s-.9-.26-.9-.26l.13.42-.13.05-.11.08-.07.11-.02.14.21-.09h.09s.03.01.03.01v.05s.19-.02.19-.02v.09s.09,0,.09,0l.02.17h-.09s-.78.9-.78.9l-.45.5-.15.13-.04.02h-.01s0-.02,0-.02l-.23.12-.21.16-.15.21-.04.12v.14s.08,0,.08,0v-.08s.96,0,.96,0v-.09s-.09-.06-.09-.06h-.1s0-.09,0-.09l.17-.02.29.23.12.11v.04s-.02.02-.02.02l.02.17-.54.28-.18.25-.21.42-.17.43-.06.29h.09s.06.1.06.1l.03.11v.22s-.02.18-.02.18v.05s0,.01,0,.01h0s-.22.22-.22.22l-.3.23-.26.25-.08.13-.02.13v.22s.1.2.1.2l.1.21.06.21.72.1v.09s-.08,0-.08,0l-.25.17-.11.11-.03.05v.05s-.35.03-.35.03l-.27.09-.25.1-.27.06v.08s.71.02.71.02l.02.17-.26.12-.28.2-.24.24-.13.25.14.4-.76.33.12.16.19.18.26.21h-.09s0,.09,0,.09l-.35.04.02.17.45.05v.08s-.08,0-.08,0v.09s-.09.13-.09.13l-.07.15-.03.34.32.15.12.1v.02s0,.02,0,.02l-.06.02-.09.09-.13.07-.31.12-.28.11-.08.06-.03.07h-.09s.02.18.02.18l.19.08.06.04v.02s-.06.01-.06.01l-.56.37-.3.2-.09.08-.03.05h-.09s.14.16.14.16l.03.07-.02.02h-.04s-.23.19-.23.19l-.3.2-.26.23-.08.12-.02.13.1.12.05.12v.24s-.04.26-.04.26l-.02.28h-.09s0,.1,0,.1l-.38-.09h-.42s.12.11.12.11l.07.03h.09s-.68.53-.68.53l-.39.24-.13.05h-.04s-.02-.01-.02-.01l-.25.11-.13-.42h-.09s0-.08,0-.08l-.18.02v.08s-.08,0-.08,0v.09s.09,0,.09,0l-.13.28-.19.24-.25.17-.32.09v.23s-.04.09-.04.09l-.1.04v.08s-.08,0-.08,0v-.08s-.1,0-.1,0l-.02-.13.02-.03.07-.02.15-.28.11-.13.14-.06-.14-.2-.03-.09v-.03s.05-.01.05-.01l.31-.32.06-.16v-.25s-.16.12-.16.12l-.06.07-.02.09h-.09s0-.08,0-.08l-.63-.1-.22.1-.34.18-.31.13h-.1s-.03-.03-.03-.03v-.04s-.1,0-.1,0l.39-.75.27-.43.11-.14.07-.06-.02-.17h-.09s0-.08,0-.08l-.18.02v.08s-.49.43-.49.43l-.29.16h-.09s-.03-.02-.03-.02v-.05s-.55-.04-.55-.04v-.09s.08,0,.08,0v-.08s.1-.13.1-.13l.03-.07v-.08s-.05-.05-.05-.05v-.02s.05,0,.05,0v-.17s.02-.15.02-.15l.16-.27.17-.27.05-.14v-.16s-.68.25-.68.25h-1.05s-.02-.17-.02-.17l.19-.33.13-.16.07-.05.08-.02v-.17s-.1,0-.1,0l-.23-.07-.1-.05-.03-.04-.02-.06v-.18s-.02-.19-.02-.19l-.06-.39.13-.62h-.09s-.3-.17-.3-.17l-.13-.1-.1-.14-.04-.13v-.17s.04-.4.04-.4l.07-.34.02-.1v-.04s.19,0,.19,0l.06-.03.02-.08.54-.15h.29s.1.05.1.05l.04.09h.18s-.08-.17-.08-.17v-.07s.02-.02.02-.02h.04s.04-.27.04-.27v-.13s-.02-.13-.02-.13l-.09-.2-.11-.13-.11-.08-.12-.03-.26.05-.27.14-.26.15-.25.1h-.11s-.11-.04-.11-.04l-.09-.09-.08-.15-.09-.35.04-.27.13-.21.18-.16.39-.21.13-.08.04-.04v-.04s.14-.02.14-.02l.03.02.02.07h.17s.04-.15.04-.15l.04-.04.08-.02v-.17s-.1,0-.1,0v-.08s-1.37.06-1.37.06l-.06-.05-.04-.07-.05-.18-.03-.37-.09-.42-.04-.34.07-.32.23-.36.15-.18.09-.06.12-.03v-.08s-.1,0-.1,0v-.09s-.09,0-.09,0l-.22-.03-.1-.03-.03-.03-.02-.04-.17.02.12-.25.07-.09h.03s.01.05.01.05v-.13s-.06-.1-.06-.1l-.07-.07-.09-.05-.21-.04h-.23s-.02-.16-.02-.16l.21-.21.11-.25.04-.29-.02-.32.22-.11.08-.08.03-.11-.44-.91.12-.31.07-.16.11-.14,1.02-.44.13-.11.08-.1.12-.08.26-.06.06-.27h-.09s-.27-.05-.27-.05l-.53-.04v.09s-1.01.44-1.01.44v-.09s-.05-.46-.05-.46v-.22s.07-.21.07-.21l.11-.14.14-.12.12-.13.05-.16-.02-.14-.06-.11-.18-.16-.19-.13-.07-.08-.03-.1.02-.19-.02-.16-.07-.34.03-.69-.07-.37-.02-.19.02-.19.42-.62.1-.26.07-.12.05-.04.06-.02v.09s.16-.14.16-.14l.08-.12.03-.1v-.09s-.09-.12-.09-.12l-.05-.04-.17.02-.14.17-.17.12-.2.08-.24.04.02-.48-.1-.47h.09s.07-.23.07-.23l.06-.1.1-.04-.02-.17-.26-.2-.16-.27-.07-.32v-.35s.07-1.34.07-1.34l-.2-.14-.06-.07v-.03s.06-.01.06-.01l.15-.37.04-.19v-.23s-.02-.59-.02-.59l-.2-.93v-.27s.03-.23.03-.23l.11-.17.09-.05.12-.03v-.09s-.24-.28-.24-.28l-.09-.14v-.05s0-.01,0-.01h.02s-.05-.38-.05-.38l.03-.36.04-.36-.03-.38-.07-.15-.11-.11-.1-.1-.05-.13h.09s.26-.99.26-.99h-.09s0-.08,0-.08l-.25-.06-.19-.12-.11-.19-.04-.27h-.09s0-.08,0-.08l.11-.08h.02s.02,0,.02,0l.02.07.2-.16.08-.1.03-.11-.1-.08h.09s0-.09,0-.09h-.08s0,.09,0,.09l-.13.02-.03-.02-.02-.07h.09v-.76s0-.08,0-.08v-.03s.05-.13.05-.13l.04-.04.08-.02v-.09s-.1,0-.1,0l-.21-.25-.13-.1-.14-.04-.02-.17.9-.78v-.09s-.09,0-.09,0l-.37-.11-.19-.04-.06-.02-.02-.03h-.09s.02-.28.02-.28l.06-.26.06-.25v-.26s.24.05.24.05h.09s.03-.03.03-.03v-.05s.6-.23.6-.23l.43-.13v-.18s-.03-.06-.03-.06l-.08-.02v-.09s-.61,0-.61,0l-.3-.03-.26-.08-.1-.11-.07-.16-.04-.11v-.02s0,.03,0,.03h.09s.15-.14.15-.14l.06-.07.02-.08h.09s-.14-.3-.14-.3l-.04-.15v-.05s.05-.02.05-.02l.27-.89-.54-.12v-.08s.08,0,.08,0v-.09s.13-.16.13-.16l.12-.21.09-.23.02-.21h.09s0-.09,0-.09l-.36-.05-.02-.13.02-.03.07-.02v-.09s.43-.04.43-.04l-.18-.24-.09-.13-.04-.12-.07-.06-.03-.1.36-.39.08-.17v-.14s-.07-.11-.07-.11l-.15-.08-.24-.04h-.33s-.02-.16-.02-.16l.18-.02v-.08s-.1,0-.1,0v-.08s.08-.01.08-.01v-.08s.08,0,.08,0l.07.12.05.03h.08s0-.08,0-.08h.09s-.03-.35-.03-.35l-.36-.05-.03-.34.14-.31.05-.15.11-.13.33-.25.15-.13.09-.06.09-.03-.02-.17-.28-.03h-.38s-.34.01-.34.01h-.11s-.03-.03-.03-.03v-.02s-.1,0-.1,0v-.09s.08,0,.08,0l.25-.34.16-.16.15-.08-.02-.17-.29-.03-.12-.06-.04-.05-.02-.07.6-.23.06-.35h-.09s-.38.18-.38.18l-.21.05h-.07s-.03-.07-.03-.07h-.09s.07-.21.07-.21l.13-.25.37-.53.35-.46.11-.17.04-.12-.03-.34-.25.11-.19-.07-.19-.02-.19-.03-.18-.13-.07-.08v-.03s.07-.01.07-.01l.19-.09.24-.04-.02-.17.12.06h.03s.02,0,.02,0v-.07s.1-.01.1-.01v-.08s-.13-.06-.13-.06h-.02s-.02,0-.02,0v.07s-.34-.12-.34-.12l-.17-.06-.14-.02.95-1.13-.02-.17h-.09s0-.08,0-.08h-.09s-.44.19-.44.19l-.23.07h-.07s-.02,0-.02,0h0s-.09,0-.09,0v-.09s.08,0,.08,0l.07-.27v-.24s-.08-.53-.08-.53l.25-.11-.02-.17-.18-.09-.11-.13-.04-.15.02-.16.06-.16.1-.14.11-.1.12-.04-.02-.17h-.09s0-.08,0-.08l-.39-.07-.14-.11-.13-.15-.13-.14-.07-.04h-.07s.02-.71.02-.71l1.18-1.05-.35-.42-.35.15-.16.11-.05.07v.07s-.1,0-.1,0l-.03-.36v-.17s.02-.06.02-.06l.04-.02.18-.73-.06-.4-.03-.19v-.06s.04-.02.04-.02l.09-.6.02-.32-.06-.29-.14-.23-.16-.17-.38-.33h.09s-.15-.69-.15-.69l.68-.32v-.09s-.1.01-.1.01l-.3-.25-.18-.1-.18-.03v-.09s.08,0,.08,0v-.09s.25-.03.25-.03l-.13-.19-.05-.1-.03-.12.15-.12.09-.06.09-.03v-.15l.07-.12.26-.18.27-.19.09-.13.02-.16h-.09s-.64.3-.64.3l-.38.09-.13-.02-.04-.03-.02-.05h-.08s-.03-.34-.03-.34l.24-.23.12-.09h.04s.02.02.02.02l.04-.26.02-.13.03-.04.04-.02.14-.46.03-.51.12-.13.07-.14.02-.35h-.35s-.35-.04-.35-.04l-.15-.06-.12-.09-.09-.13-.04-.17.09-.18.06-.07.09-.03-.02-.17-.36-.05.1-.17.02-.07-.02-.02h-.04s-.16-.16-.16-.16l-.1-.05h-.11s0-.1,0-.1l.87-.09-.14-.25-.04-.12v-.04s.05-.02.05-.02l.04-.13.04-.04.07-.02-.24-.23-.27-.13-.31-.05h-.36s0-.07,0-.07h-.09s0-.08,0-.08l.11-.34.04-.23.11-.21.3-.28.12-.14.07-.06.09-.03-.02-.26-.13-.1-.07-.04h-.08s-.04.01-.04.01h-.03s-.01.01-.01.01v.06s-.34.12-.34.12l.05-.22v-.09s-.03-.03-.03-.03h-.05s0-.09,0-.09h-.09s0,.1,0,.1l-.25.07-.35.05-.32-.03-.1-.06-.05-.1v-.04s.03-.04.03-.04l.09-.06.21-.06-.19-.36-.33-.33-.4-.24-.21-.06h-.2s0-.09,0-.09h.09s.04-.14.04-.14l.04-.04.08-.02-.02-.17-.52-.38-.28-.16-.15-.04h-.16s.23.58.23.58l-.79.07-.03.61h-.09s0-.08,0-.08l-.31.04-.28.08-.54.16-.61-.03-.07.27v.28s.03.12.03.12l.08.09.13.06h.18s.46-.32.46-.32l.28-.13.26-.07v.09s.1,0,.1,0v.08s-.08,0-.08,0v.08s-.08.01-.08.01l-.19.09-.23.03v.09s-.08,0-.08,0l-.05.33-.09.23-.12.16-.14.11-.31.2-.14.14-.12.2-.09.96.17.36-.03.43.37.08.19.09.06.06.03.06h.09s0,.08,0,.08l-.26.03-1.15.02-.14.64-.04.35v.11s.01.03.01.03h.02s.15,0,.15,0l.18.04.19.05h.19s.02.19.02.19l-.51.44-.62.32-.12.14-.07.15-.13.32-.21.27-.18.22-.12.26v.4s.92-.22.92-.22l.5-.04.16.06.05.05.02.07-.13.02-.03-.02-.02-.07-.24.2-.27.29-.24.26-.09.08-.06.03.02.27.04.11.03.03h.04s.2.18.2.18l.07.1.04.13-.35.17-.42.07v.08s-.08,0-.08,0l-.04.51-.04.47.14.58-.19.05-.19.1-.14.15-.04.09v.1s.08,0,.08,0l.23.08.1.05.05.09h.09s0,.08,0,.08h-.09s-.44.43-.44.43l-.07.2-.05.25-.1.22-.08.07-.12.04.4.42.26.15.29.04v.09s-.17.02-.17.02l-.4.58-.27.25-.14.08-.15.04.14.61.16.28.11.08.13.02.02.26-.23.15-.27.23-.25.21-.16.1.38.34.21.18.1.12.17.2.06.09v.03s-.03.01-.03.01l-.79.82-.14.23-.09.26-.03.28.04.32.04.13v.04s-.08.02-.08.02l-.15.29-.05.16v.18s.17-.02.17-.02l.26-.11v.09s.1,0,.1,0l.02.17-.19.11-.16.15-.12.17-.07.17v.15s.09.12.09.12l.17.07h.28s0,.09,0,.09l-.15.17-.08.08-.09.04.17.14.08.08.04.1-.23.12-.22.17-.2.15-.18.08v-.09s.06-.12.06-.12v-.02s0-.02,0-.02h-.07s-.22.36-.22.36l-.06.19v.06s.07.02.07.02l.02.17.34-.12-.06.35h.09s0,.08,0,.08l-.54-.12v.09s-.08,0-.08,0l.02.26h.26s.3.08.3.08l.25.13.08.1.04.13-.22.18-.13.22-.22.49-.19.19-.24.16-.2.18-.06.12-.02.14.02.09.05.07.14.09.14.06.05.04.02.05.13.14.05.09.03.1-.31.17-.26.25-.09.15-.05.16v.17s.06.18.06.18l.04.08h.1s0-.08,0-.08h.09s0,.08,0,.08l.06-.08v-.1s.18-.02.18-.02v.13s.03.03.03.03h.08s.07.07.07.07l.03.1-.18.02-.52.05v.08s-.08,0-.08,0l.2.58.03.31-.08.3-.4.36-.2.26-.12.33-.06.35v.33s.52.16.52.16l.19.17.1.08.11.03.02.17h-.09s-.17.18-.17.18l-.05.08.02.02h.05s.06.17.06.17l.05.06.09.02v.08s-.08,0-.08,0l-.24.53-.88.78v.13s.03.03.03.03h.08s0,.09,0,.09l.7-.07v.08s-.44,1.04-.44,1.04l-.23,1.11.53-.05v.08s-.11.11-.11.11l-.03.07v.1s.14.14.14.14l.07.19-.21.2-.08.13-.02.14-.18.02v-.09s-.18-.16-.18-.16l-.08-.04h-.02s0,.06,0,.06l-.21.13-.18.21-.12.25-.03.24h.09s0-.09,0-.09h.09s.74-.04.74-.04h.41s.15.02.15.02l.1.05.39.63.27.27.12.16.06.17-.35.04-.21-.19-.22-.08-.56.02.17.25.26.26.31.2.16.05h.15s.04.44.04.44l-.89-.09.02.17-.61.06v.09s.19.14.19.14l.08.08.04.09.76-.33v.09s.1,0,.1,0l-.47.5-.12.24v.36s-1.14.28-1.14.28h-.09s-.08.23-.08.23l-.06.1-.09.05.02.17h.09s0,.08,0,.08l.31-.07.15-.06.04-.04v-.05s.19-.01.19-.01l-.11.17-.02.07.02.02h.05s0,.08,0,.08l.36.06v-.09s.47-.26.47-.26l.14-.04h.12s.09.07.09.07l.04.14h-.13s-.03.03-.03.03v.07s-.54.18-.54.18l-.22.17-.06.11v.14s.11.1.11.1l.07.04h.08s0,.09,0,.09l-.57-.1-.28-.05h-.3s0,.08,0,.08h.09s.08.1.08.1v.02s0,.02,0,.02l-.07.02v.09s-.08,0-.08,0l-.11.08h-.02s-.02,0-.02,0l-.02-.07-.22-.09-.24-.04.09.24.12.19.15.14.18.09.43.09.52-.02.15-.08.19-.03v.09s.1-.01.1-.01v.09s-.08,0-.08,0v.09s-.31.24-.31.24l-.17.11-.18.06v.08s.1,0,.1,0l.36.05v.08s-.08,0-.08,0l-.21.22-.07.11v.03s.06,0,.06,0l-.52.14.02.17.72.1.09.27.09.1.06.03h.06s0,.09,0,.09l-.34.12-.09.3-.14.22-.15.2-.11.24.05.9h.23s.09.05.09.05l.03.04v.05s-.07,0-.07,0v.09s-.29.14-.29.14l-.29.26-.22.32-.06.16v.15s.08,0,.08,0l.26-.03.02.17-.92.52.1.31.09.13.06.04h.07s.34-.11.34-.11v-.09s.08,0,.08,0v-.17s.04-.14.04-.14l.1-.1.17-.05-.03.64-.03.32-.08.3-.08.11-.12.1-.31.21-.27.22-.08.12-.02.14.62.03.12.34h.09s.01.08.01.08h-.09s-.49.41-.49.41l-.2.25-.06.14-.02.15.1.42.61-.15v-.08s.08,0,.08,0v.08s.09,0,.09,0l-.07.41-.15.37-.23.31-.33.24-.33.16-.15.1-.13.14-.59,1.46-.55,1.44-.1.12-.11.08-.25.1-.27.08-.26.12-.15.14-.13.19-.21.4-.04.12v.1s.04.09.04.09l.11.17.13.16.08.19-.04.6-1.13.19v.08s.08.06.08.06l.03.1h.09s.1-.15.1-.15l.02-.02h.02s.02.01.02.01v.05s.08.12.08.12l.04.03h.08s.02.18.02.18l-.63-.11-.06.23-.06.09-.1.05h-.27s-.23.09-.23.09l-.22.11-.23.07.13.11.16.07.35.03.02.17-.32.12-.13.11-.04.07v.08s-.09,0-.09,0l-.16-.02h-.2s-.18.02-.18.02h-.05s-.02-.02-.02-.02l-.17-.09-.09-.04h-.1s.06-.13.06-.13v-.02s0-.02,0-.02h-.07s.12-.18.12-.18l.02-.07-.02-.02h-.05s-.33-.36-.33-.36l-.21-.14-.11-.04h-.11s-.02-.18-.02-.18l.18-.02.02-.14.06-.15.1-.12.13-.06v-.08s-.14-.1-.14-.1l-.07-.04h-.08s0-.1,0-.1l.75-.79.38-.44.17-.14.15-.06-.02-.17h-.48s-.23-.05-.23-.05l-.08-.06-.05-.08.02-.02h.03s.1-.05.1-.05l.09-.06.03-.06v-.08s.09,0,.09,0v.09s.05-.16.05-.16l.02-.2.04-.18.04-.06.06-.03.07.12.05.03h.08s0-.08,0-.08l-.03-.34.14-.17.08-.08.1-.04-.02-.17-.39-.18-.19-.12-.06-.07-.03-.08.1-.13.06-.05.09-.02-.02-.17-.26.02v-.08s-.1,0-.1,0l-.25.71-.22.33-.14.11-.16.05.22.34.14.16.07.05h.07s0,.1,0,.1h-.09s0,.09,0,.09l-.36-.14-.37-.22-.29-.3-.09-.17-.05-.19.33-.31.18-.12.24-.07-.18-.25-.06-.12v-.04s.03-.02.03-.02l.34-.56.15-.31v-.1s-.02-.02-.02-.02h-.04s-.36-.06-.36-.06v-.08s.08,0,.08,0v-.08s-.1,0-.1,0v-.08s.1-.47.1-.47l.04-.52.11-.49.13-.21.2-.17.09-.03.02-.02v-.07s.06-.08.06-.08v-.1s-.19-.13-.19-.13l-.06-.07v-.02s.06-.01.06-.01l.29-.55.11-.28.02-.33.3.09.33.03.06-.27.18-.02.12.23.05.12.02.13-.03.15-.08.16-.27.34-.33.28-.16.09-.14.04.02.17.21.13.12.16.04.18-.02.2-.14.41-.15.39-.05.51-.07.25-.07.09-.1.04.12.25.08.11.05.03h.05s-.04.54-.04.54l.17-.02v-.09s.3-.29.3-.29l.17-.14.19-.07-.03-.15v-.18s.12-.38.12-.38l.22-.32.14-.1.15-.05v-.09s.16.09.16.09l.09.04h.1s0-.08,0-.08l.52-1v-.09s-.51.05-.51.05l-.24-.08-.12-.04h-.12s0-.1,0-.1l.17-.06.06-.05.02-.08h.09s-.09-.38-.09-.38v-.09s.04-.08.04-.08l.07-.06.1-.03-.07-.34-.09-.31.07-.09.09-.06.07-.06.02-.11h.09s-.58-1.43-.58-1.43h-.09s-.43.13-.43.13v.08s.13.26.13.26v.1s-.01.07-.01.07l-.05.06-.07.04-.18.04h-.45s-.37-.03-.37-.03l-.02-.13.02-.03.07-.02.12-.23.09-.1.11-.05-.15-.24-.04-.12.02-.04.05-.02.35-.83.28-.44.15-.14.14-.06-.02-.17-.19-.19-.08-.2v-.21s.05-.21.05-.21l.16-.45.06-.23v-.24s.26-.11.26-.11l-.15-.24-.04-.12v-.04s.06-.02.06-.02l.1-.13.04-.06v-.08s.2-.34.2-.34l.21-.34.19-1.04v-.12s.04-.03.04-.03l.07-.02-.14-.2-.04-.09v-.03s.06-.02.06-.02l.17-.32.07-.15v-.04s0-.02,0-.02h-.02s-.02-.34-.02-.34l-.05-.34h.09s0,.08,0,.08l.13.1.07.04h.08s-.1-.68-.1-.68l-.04-.36v-.11s.01-.03.01-.03h.01s.39-.57.39-.57l.06-.15.02-.16-.03-.16-.1-.16-.09-.07-.1-.05-.08-.06-.04-.1.31-.67.04-.3.02-.26.03-.12.06-.1.11-.09.16-.07.12-.03.03-.03v-.07s.1,0,.1,0l-.18-.28-.13-.09-.18-.02v-.09s-.1-.1-.1-.1l-.05-.1v-.21s.04-.21.04-.21l.02-.23h.09s.11.1.11.1l.07.03h.1s.1-.07.1-.07l.11-.05.09-.07.02-.04v-.05s-.04-.51-.04-.51h-.09s-.06.27-.06.27l-.24-.23-.09-.12v-.04s.03-.02.03-.02l.15-.26.05-.13v-.15s.1,0,.1,0v-.08s-.18.02-.18.02l-.07.07-.1.03v-.09s.08-.28.08-.28l.04-.1h.01s0,.02,0,.02l.24-.49.17-.24.1-.08.11-.04-.02-.17-.27-.13-.17-.17-.1-.21-.04-.23.09-1.04-.02-.55.03-.26.12-.24.16-.14.18-.07.43-.04v-.09s.08-.18.08-.18l.06-.07.09-.04-.02-.17-.31-.13-.23-.17-.22-.2-.27-.18v.09s-.11-.34-.11-.34l.6-.23-.11-.26-.08-.11-.05-.03h-.06s0-.09,0-.09h.09s.1-.13.1-.13l.06-.05.08-.02-.02-.17-.18.02-.18-.03-.07-.04-.03-.08h-.09s.07-.19.07-.19l.06-.14.12-.09.24-.05-.11.12-.04.07v.08s.08,0,.08,0l.31.03.16.03.05.03.02.04.15-.24.12-.36.02-.32-.04-.1-.04-.02h-.05s-.18-.09-.18-.09l-.07-.06-.04-.09.2-.18.19-.28.09-.25-.03-.08-.04-.02h-.05s0-.09,0-.09l-.32.05h-.15s-.05-.04-.05-.04l-.02-.04h-.09s-.03-.34-.03-.34h.09s0-.09,0-.09l.53.04-.14-.68.02-.36.06-.12.05-.04.06-.02-.02-.17-.44.04-.02-.17h.09s.03-.24.03-.24l-.03-.2-.09-.42.1-.13.06-.05.08-.02v-.15s.08-.1.08-.1l.1-.07.12-.05.28-.09.13-.06.11-.08h-.09s-.13-.1-.13-.1l-.07-.03h-.08s-.02-.18-.02-.18l.39-.14.2-.09.06-.04.02-.04h.09s-.12-.17-.12-.17l-.15-.09-.17-.04h-.18s-.4.08-.4.08l-.41.08v-.09s.08,0,.08,0l.17-.31.32-.44.35-.39.15-.13.12-.05.61-.06.23-.06.21.05.19.13.17.18.26.36.1.13.04.03h.03s0,.1,0,.1l.18-.02.04-.13.04-.04.08-.02-.03-.19.03-.17.04-.07.06-.06.2-.06v-.09s.08,0,.08,0l-.02-.17-.27-.11-.26-.17-.26-.17-.26-.1-1,.28-1.4.08v-.09s.08,0,.08,0v-.09s.49-.31.49-.31l.26-.09.34-.05v-.17s-.03-.06-.03-.06l-.08-.02-.18-.09-.07-.06-.03-.09.71-.85-.02-.17h-.09s-.44-.23-.44-.23l-.22-.09-.25-.02-.22-.5.13-.02.04.02.02.07.28-.41.09-.22v-.07s-.04-.02-.04-.02h-.04s-.01-.09-.01-.09l-.21.09h-.09s-.03,0-.03,0l-.02-.05h-.09s.02-.69.02-.69h.09s.37.27.37.27l.2.07h.25s-.04-.36-.04-.36l.04-.17.05-.05.07-.03v.09s.1,0,.1,0v-.08s.08,0,.08,0v.09s.1,0,.1,0v.08s.1,0,.1,0l.04-.58.05-.32.03-.11.02-.03h.02s.17.08.17.08l.2.04.18-.3.14-.12.17-.06-.11-.11-.16-.11-.14-.1-.07-.07-.43.13-.02-.17h.09s.2-.26.2-.26l.14-.09.15-.05-.02-.26-.19-.09-.14-.12-.18-.29-.15-.29-.1-.12-.13-.09-.14-.04h-.15s-.32,0-.32,0l-.37-.07.06-.07.1-.03.03-.17.04-.07.08-.03v-.1s.05-.08.05-.08l.14-.12.19-.07.21-.03v.09s-.33.12-.33.12v.09s.1,0,.1,0v.08s.62-.06.62-.06l.33-.48.08-.28v-.32s.1,0,.1,0l.2.21.13.07.14.02v.08s.1,0,.1,0v-.53s-.07-.24-.07-.24l-.12-.25h.09s.04-.14.04-.14l.04-.04.08-.02-.02-.17h-.09s0-.08,0-.08l-.18.02-.07.1-.13.09-.34.12-.36.02-.14-.04-.1-.08v-.02s.02-.02.02-.02l.07-.06.23-.18.24-.21.07-.1.02-.09.29.16.15.04h.19v.08s.07-.08.07-.08l.1-.03-.14-.29-.04-.14v-.05s.05-.02.05-.02l.21-.17.18-.17.06-.09.03-.11v-.13s-.06-.16-.06-.16l-.04-.11-.04-.03h-.07s.1-.17.1-.17l.03-.09v-.1s-.13,0-.13,0l-.03.03v.07s-.18.02-.18.02l-.36.5-.25.19-.29.09-.14-.31-.11-.13-.07-.04h-.07s0-.09,0-.09h.09s0-.09,0-.09l.2-.14.09-.04h.03s.02.06.02.06l.09-.38v-.41s.08-.08.08-.08l.1-.02.21-.1.2-.14.2-.13.23-.07v-.09s-.3-.26-.3-.26l-.17-.09-.19-.02-.02-.13.02-.03.07-.02.06-.08v-.1s.19-.02.19-.02v.08s.14.14.14.14l.05.08.02.1h.09s0-.09,0-.09l.11-.07.04-.04v-.07s.09,0,.09,0l.02.17h.09s-.12.52-.12.52h.13s.03-.03.03-.03v-.07s.32-.28.32-.28l.12-.18.03-.19-.63-.34-.3-.23-.03-.04v-.04s.03-.03.03-.03h.07s.16-.14.16-.14l.06-.07.02-.09h.09s0,.08,0,.08l.43-.13.17.16.08.04h.02s0-.06,0-.06l.27.06-.07-.24v-.11s.03-.12.03-.12l.14-.22.22-.24.23-.26.19-.28h.09s-.16-.27-.16-.27l-.08-.32-.75.02-.19-.03-.16-.06-.11-.1-.05-.15.14-.18.08-.07.1-.04.22.1.24.03v-.09s-.1,0-.1,0l.2-.21.08-.12.03-.14h.09s0-.09,0-.09l-.21-.12-.07-.07.02-.03.06-.02.41.11.21.03h.07s.02-.02.02-.02v-.02s.2-.16.2-.16l.16-.18.09-.21-.02-.25-.04-.12-.04-.04h-.08s-.02-.18-.02-.18l.15-.2.06-.21.05-.22.09-.22.15-.18.18-.12.19-.11.17-.14.39-.64.46-.58h.09s-.21-.11-.21-.11h-.2s-.19.06-.19.06l-.19.11-.4.27-.21.11-.22.06v-.09s-.1,0-.1,0l-.03-.34h.09s.17-.38.17-.38l.1-.18.06-.06.06-.02.18.16.25.1h.12s.09-.03.09-.03l.06-.08v-.14s-.21-.09-.21-.09l-.23-.05-.02-.17.17-.02.51-.22v.09s.09,0,.09,0v-.09s.08,0,.08,0v-.09s.21,0,.21,0l.09-.03.02-.03v-.05s.43-1,.43-1l.05-.49.04-.26v-.03s.02,0,.02,0l.02.08h.09s0-.09,0-.09l.36-.38.2-.19.08-.1h.09s0,.08,0,.08l.26-.03.06-.07.1-.03.02-.7h-.09s-.22-.09-.22-.09l-.24-.03v-.09s-.09,0-.09,0l.36-.49.25-.25.11-.08.09-.04-.14-.15-.03-.07v-.02s.06-.01.06-.01l.34-.61.25-.29.14-.09.15-.04-.15-.15-.03-.07.02-.02h.05s.13-.09.13-.09l.14-.04.33-.02v-.08s.53-.36.53-.36l.2-.26.05-.15v-.17s-.15-.03-.15-.03l-.07-.03-.04-.07.09-.02v.03s.01.01.01.01l.08-.02.16-.06v-.09s.12-.14.12-.14l.07-.13v-.35s.19-.02.19-.02v-.09s.12-.02.12-.02l.03.02.02.07.17-.02-.11-1.12.41-.3M53.2,35.08l.26-.03.02.13-.02.04-.07.02v.08s-.19-.24-.19-.24M54.64,38.15h.09s0,.08,0,.08l-.11.08h-.02s-.02,0-.02,0l-.02-.07.08-.09M40.89,45.87l.17.14.1.06.1.02v.09s-.08.01-.08.01v.08s-.27.23-.27.23l-.15.12-.15.06v-.08s-.1,0-.1,0v-.09s.16-.33.16-.33l.21-.31M47.84,45.65l-.02.07-.05.08-.03.03h-.03s-.02-.02-.02-.02v-.05s.16-.02.16-.02v-.09M37.85,48.33l.26-.03.02.13-.02.03-.07.02v.08s-.19-.24-.19-.24M38.96,48.83l.69.08.12.05.12.08.12.08.13.03v.08s-.08,0-.08,0l-.59.56-.37.29-.15.09-.11.04-.05-.75.04-.34.15-.31M45.44,49.17h.09s-.23.3-.23.3l-.16.12-.18.06.21-.27.27-.21M50.71,48.93h.09s-.09,0-.09,0M55.82,48.7l.12.11.05.14v.07s-.04.06-.04.06l-.07.04-.1.02v-.08s-.09,0-.09,0l.02-.18.04-.07.09-.03v-.09M38.54,51.82l.19.08.06.05v.02s-.06.01-.06.01v.08s-.19-.24-.19-.24M54.14,50.6l.23.02.1.04.03.04v.05s-.07,0-.07,0v.08s-.08,0-.08,0v-.09s-.1,0-.1,0v-.09s-.1-.08-.1-.08M54.16,50.77h.09s-.09,0-.09,0M51.27,51.99l.03.18v.05s0-.01,0-.01v-.05s-.02-.17-.02-.17M56.41,54.98l.17-.02-.18.07-.05.03h.01s.05,0,.05,0v-.08M76.46,54.11l.07.11.02.02v-.05s-.09-.08-.09-.08M74.79,55.14l.48.08.24.11.08.07.03.09h.09s0,.08,0,.08l-.5.09h-.26s-.08-.03-.08-.03l-.04-.06-.13-.09-.04-.06-.02-.08.27.06v-.09s-.1,0-.1,0v-.17M43.12,58.23l.07.06.03.1-.11-.04-.03-.02h0s.03-.02.03-.02v-.09M42.88,58.51l.18-.02-.09.05h-.04s-.05-.04-.05-.04M37.24,59.57l.28.09.13.08.04.06.02.07h-.09s0,.09,0,.09l-.96.09-.03-.17.02-.06.07-.03v-.09s.51-.14.51-.14M74.43,56.04l.18-.02v.08s-.35.25-.35.25l-.19.11-.21.06v-.17s.07,0,.07,0l.5-.31M79.62,55.8h.09s-.09,0-.09,0M36.35,60.43h.09s.2.34.2.34l.1.16.02.05h0s0,.02,0,.02l-.26.19-.09.03h-.08l-.17-.04h-.26s.19-.15.19-.15l.23-.08-.09-.21v-.09s.01-.03.01-.03h.04s.07-.19.07-.19M35.83,61.44l.07.06.03.1-.11-.04-.03-.02h.01s.03-.01.03-.01v-.09M80.64,57.27l.61-.06.02.13-.02.03-.07.02-.2.18-.25.13-.57.13v-.09s.08,0,.08,0v-.08s.14-.14.14-.14l.06-.08.02-.07.17-.02v-.09M94.73,56.8l.79-.07v.09s.09,0,.09,0l.04.43h-.09s-.08.01-.08.01l-.06.04-.12.13-.11.15-.06.05-.07.02v.09s.1,0,.1,0l.54.12v-.09s.43-.21.43-.21l.22-.15.06-.07.02-.07.21.09.12.04h.12s0-.08,0-.08l.28-.13.1-.1.03-.15h.09s0-.09,0-.09h.09s.04.12.04.12l.04.03h.04s.25-.02.25-.02l-.06.23-.06.09-.1.05-.44.29-.21.19-.06.1-.02.1.52-.05v.09s-.02.61-.02.61l1.3.13.24.13.12.06.14.02-.04.26-.03.13-.03.04-.03.02-.26.11v.08s.1,0,.1,0v.08s.79.11.79.11l.4.15.13.1.05.11h-.09s-.21-.09-.21-.09l-.24-.03-.15.4-.1.13-.13.12-.11.12-.03.07v.08s-.08-.16-.08-.16l-.05-.06-.08-.02-.5.33-.25.19-.04.06h0s.04.02.04.02l.14.26.19.18.12.06.14.02.16-.04.14-.08.14-.09.15-.06.7.02.15-.09.19-.03v.08s.1,0,.1,0v.09s-.08,0-.08,0v.09s-.5.22-.5.22l.22.26.28.16.33.08h.36l.13.04.08.08.04.11.02.13v.28s.02.26.02.26l.36.6.09.68.18.14.1.06.09.02v.17s-.07,0-.07,0v.09s-.8-.18-.8-.18v.08s.4.39.4.39l.14.23.07.28h.09s.2-.11.2-.11h.1s.03.02.03.02l.02.05h.08s.13.41.13.41h-.09s-.2.07-.2.07l-.18.12-.31.36-.25.35-.1.12-.1.05v.08s.1,0,.1,0l.07.12.05.03h.08s0,.09,0,.09l-.26.02v.17s.74-.19.74-.19l.33-.19.1-.12.03-.13.18-.02-.02.53-.06.24-.1.21-.14.18-.18.15-.23.1-.28.06.02.17.75.2.39.08h.38s.08.41.08.41l.08.36-.34.12-.08-.04-.04-.02h-.06s0,.08,0,.08h-.09s.08.16.08.16l.12.12.32.16.38.06h.39s0-.09,0-.09l.63-.31.12-.12.12-.16.13-.14.07-.05.08-.02v-.13s-.03-.03-.03-.03h-.08s-.13-.42-.13-.42l.27-.2.15-.08.17-.04-.23-.38-.1-.19v-.06s0-.02,0-.02h.02s.16-.33.16-.33l.11-.16.06-.05.07-.02v.09s.27-.02.27-.02v-.09s.28-1.12.28-1.12l.15-.39.07-.2v-.25s.23-.28.23-.28l.13-.13.13-.07-.02-.17-.09-.08v-.11s.07-.26.07-.26l.1-.18.13-.08h.15s.16.06.16.06l.32.18.15.07.13.02v-.09s.11-.62.11-.62l-1.08-.25v-.08s.08,0,.08,0l.08-.23.06-.1.09-.05-.12-.33.63-.71.34-.36.18-.14.18-.09h.41s.06-.22.06-.22l.06-.1.1-.05-.02-.17-.41.1-.19.09-.06.06-.02.07-.17.02-.12-.2-.08-.09-.09-.03.24-.46.13-.25.05-.08.03-.03v-.08s.08,0,.08,0l.07.12.05.03h.07s0-.08,0-.08l.24-.48.13-.34-.02-.17.17-.18.03-.08v-.08s-.06-.17-.06-.17l-.12-.18h.09s.15-.43.15-.43l.23-.35.58-.66.38-.48.48-.18,1.03-.56.06-.04v-.09s.33.25.33.25l.17.17.08.13h-.09s-.15.26-.15.26l-.05.13v.15s.42.02.42.02l.38.08.35.08.35.02v-.09s.16-.17.16-.17l.04-.08v-.02s-.06,0-.06,0v-.08s.34-.03.34-.03v-.09s.08,0,.08,0l-.05.22.02.09.03.03h.04s.23.1.23.1l.1.05.03.04.02.05h-.09s-.3.3-.3.3l-.13.16-.04.09v.1s-.27-.11-.27-.11h-.13s-.04.01-.04.01v.06s-.01.09-.01.09v.08s0,.06,0,.06l-.02.02h-.05s0,.1,0,.1h-.97s0,.09,0,.09h.09s0,.08,0,.08h.09s.05.1.05.1l.08.09.19.15.18.11.06.04.02.04h.09s.06-.36.06-.36h.09s1.18,0,1.18,0l1.16-.29.37-.16.41-.12v.09s-.44.33-.44.33l-.2.23-.06.11v.1s.22.16.22.16l.1.11.05.13.78-.15.42-.09.13-.04.04-.02h.01s.18-.03.18-.03l.03.34-.37.23-.19.12-.2.06v.08s.1,0,.1,0l.22.14.12.06.12.02.02.26-.21.11-.08.08-.03.1-.17.02-.02-.17v-.21s-.04-.22-.04-.22h-.13s-.03.03-.03.03v.07s-.21.2-.21.2l-.08.13-.02.13-.17.02-.03-.34-.36.07-.33.11-.13.08-.11.11-.08.14-.03.18.02.19.08.13.13.07.16.02.36-.04.29-.11.46-.14.21-.11.06-.08.02-.1.29.04h.33s.1-.11.1-.11h.02s.02,0,.02,0l.02.08h.09s0-.09,0-.09l.35-.2.16-.14.05-.07v-.07s.19-.02.19-.02l.05.05.06.02h.16s0,.08,0,.08h-.09s.02.18.02.18l-.44.04.03.26.22-.03h.09s.03.04.03.04v.04s-.16.02-.16.02l-.82.32-.29.24-.15.12-.17.06v.09s.09,0,.09,0l.42.27.24.07h.26s.23-.14.23-.14l.27-.11.61-.11.31-.31.27-.15.14-.02h.16s.4.13.4.13l.18.08.2.03-.37.32-.14.19-.03.11v.13s-.54-.04-.54-.04l-.19.3-.08.16-.02.17.52-.08.52-.11-.09.27-.02.12.02.04h.04s.31-.27.31-.27l.12-.17.03-.1v-.11s1.32-.04,1.32-.04v.08s-1,.53-1,.53l-.55.55-.32.23-.18.08-.18.04v.09s-.08,0-.08,0v.09s.09,0,.09,0l.07.12.05.03h.08s.01.18.01.18l-.12.12-.13.19-.06.17.03.05h.07s0,.1,0,.1h.09s.05-.36.05-.36l1.5.12.82.13.26.08.07.05.03.05h.09s-.06.26-.06.26l.26-.03.14-.07h.15s.32.01.32.01l.16.31,1.43.29,1.57.14v.09s-.03.13-.03.13v.02s.03.01.03.01h.1s.11-.07.11-.07l.04-.04v-.07s.09,0,.09,0v.09s1.4,0,1.4,0l.12.06.12.09.12.08.13.03v.09s-.08,0-.08,0l-.25.16-.11.1-.03.06v.06s-.23-.11-.23-.11l-.1-.02-.03.02v.05s-.42.13-.42.13l-.46.04.11.25.17.24.22.17.13.04h.14s0-.08,0-.08l.28-.1.32-.05.19-.23.09-.12.03-.12h-.08s0-.08,0-.08l.17-.02v.09s.18-.02.18-.02v-.09s.36-.22.36-.22l.15-.16.04-.09v-.1s.09,0,.09,0l.12.12.03.02h.02v-.02s.01-.04.01-.04l.17-.06.06-.05.02-.09.17.1.09.03h.11s0-.08,0-.08h.21s.18.08.18.08l.16.08.18.03-.23.31-.07.26.07.67h.13s.03-.03.03-.03v-.07s.46-.19.46-.19l.42-.24.43-.23.47-.12v-.09s.22-.21.22-.21l.26-.16.29-.11.32-.06v.08s.1,0,.1,0l-.11.17-.02.07.02.02h.05s.32.58.32.58l.33.11.16.06.15.02v-.08s.34-.05.34-.05l.35-.02v-.09s.11-.07.11-.07l.04-.04v-.07s.1,0,.1,0l.3.14.17.05h.17s.08-.18.08-.18l.05-.06h.02s.01.06.01.06h.09s.05,0,.05,0v.04s0,.05,0,.05v.02s.05.01.05.01h.05s.03.04.03.04v.09s-.14.27-.14.27l-.2.33-.07.16-.02.14.26-.03v-.09s.25-.02.25-.02v-.09s.08,0,.08,0l.11.17.06.05h.02s0-.07,0-.07l.45-.11.32-.06.21-.16.08-.1.03-.12h.09s0-.1,0-.1l-.44-.2-.2-.12-.04-.04h0s.02-.02.02-.02l.11-.07.12-.04.29-.03v-.09s.08,0,.08,0v-.09s.08,0,.08,0v.17s.08.25.08.25l.05.11.04.04h.05s.8.1.8.1l-.02-.17.05-.12v-.13s0-.28,0-.28l.52-.14.05.02h.03s.01,0,.01,0v.06s.1-.01.1-.01v-.08s.08,0,.08,0l.02.17-.06.09v.07s.02.06.02.06l.06.04.17.04h.18s0,.09,0,.09h.09s-.09.16-.09.16l-.04.1v.1s.25-.03.25-.03l.07.04h.02s0-.05,0-.05l.14-.17.08-.08.1-.04v-.09s.22.32.22.32l.12.17.06.07.66-.2.44-.3.22-.15.25-.11.09-.05h.05s.04.02.04.02l.03.17-.06.16-.27.31-.3.31-.1.17-.03.18h.09s.3.18.3.18l.13.12.06.16h.09s0-.1,0-.1l.08-.18.06-.07.1-.03v.09s.18-.02.18-.02l.07.3.06.15.04.04h.05s0,.1,0,.1h.09s0-.1,0-.1l.17-.06.06-.05.02-.08.26.09.29.03v.09s-.08,0-.08,0l-.32.28-.12.16-.03.21-.87-.12-.44-.04-.21.02-.2.06-.24.22-.52.33-.29.11-.35.06v-.17s.09-.06.09-.06l.02-.02h-.05s0-.09,0-.09h-.09s0-.08,0-.08l-1.22.2v.09s.1.16.1.16v.07s-.02.02-.02.02h-.04s-.08.19-.08.19l-.06.07-.1.03v-.09s0-.39,0-.39l-.11-.37-.22-.3-.15-.1-.17-.06h-.05s-.02-.01-.02-.01v.08s-.08,0-.08,0l.15.3.11.13.06.04h.07s.02.18.02.18l-.26.03-.21-.16-.17-.04-.14.04-.12.1-.22.27-.12.11-.14.05-.13-.09-.13-.04-.26.04-.26.11-.26.08-.02-.17-.11-.25.27-.23.16-.11.15-.06-.18-.16-.18-.11-.17-.05h-.15s-.12.07-.12.07l-.09.13-.05.2v.26l-.17.02v.09s-.29-.04-.29-.04h-.32s-.03-.33-.03-.33l.26-.02v-.08s-.09,0-.09,0l-.13-.04-.04-.03-.02-.08-.17.02-1.85.96-.11-.43-.08-.16-.11-.13-.14-.09-.17-.04h-.2s-.24.07-.24.07l-.34.22h-.22s-.09.04-.09.04l-.02.03v.04s-.09,0-.09,0l.2.22.08.12.04.15h-.09s-.12-.04-.12-.04h-.12s-.24-.03-.24-.03l-.18-.09-.19-.15-.3-.33-.06-.07-.04-.02h-.07v-.09s-.09,0-.09,0l.13.42-2.45.13-.85.35-1.05.15-.5.17-.26.07h-.27s-.29-.03-.29-.03h-.12s-.04.02-.04.02v.03s-.7.24-.7.24v-.09s-.1,0-.1,0l.05-.44-.75.42v-.09s-.03-.17-.03-.17l-1.46.4.06-.35-.22.04h-.09s-.03-.04-.03-.04l-.02-.05.35-.03-.14-.19-.18-.11-.2-.05h-.22l-.47.08-.48.08v-.08s.08,0,.08,0v-.09s.2-.29.2-.29l.12-.13.15-.06-.02-.17-.54-.12-.26-.13-.08-.09-.04-.1-.51.22v-.08s.16-.26.16-.26l.08-.14.06-.06v-.08s.61.03.61.03l-.13-.42.17-.06.06-.05.02-.09h.09s-.23-.24-.23-.24l-.11-.12-.06-.13-.43.2-.49.16-.25.03-.24-.02-.23-.09-.21-.16-.07-.08.02-.02h.06s.16-.25.16-.25l.11-.09.13-.05-.02-.28.04-.11.04-.04.06-.02v.09s.02.15.02.15l.06.16.1.13.06.04h.07s0-.08,0-.08h.09s-.07-.33-.07-.33l.17-.55.06-.31-.02-.1-.03-.02h-.04s0-.09,0-.09l-.43.11-.47.22-.21.15-.16.17-.1.2-.02.23-.22-.09-.11-.04h-.12s0,.08,0,.08l-.17.23-.11.08-.15.05-.23-.03-.33-.11-.3-.14-.1-.06-.04-.05.26-.03v-.09s.17.09.17.09l.09.04h.1s0-.08,0-.08l.23-.28.13-.14.13-.07-.18-.14-.08-.08-.04-.1.53-.05.08-.19.05-.06h.02s.01.06.01.06l-.1-.18-.14-.11-.17-.06-.2-.02-.83.08-.2.13-.23.08v-.09s-.1-.24-.1-.24l-.08-.34-.08-.3-.05-.09-.03-.02h-.03s0-.09,0-.09h.09s.03-.18.03-.18l.04-.07.08-.03-.02-.17-.85.62-.23.13-.22.06h-.1s-.1-.04-.1-.04l-.09-.07-.08-.11-.07-.2.02-.09.03-.03h.05s-.03-.25-.03-.25l.05-.09.12-.04-.05-.34v-.34s-.3.05-.3.05l-.28.02-.12-.02-.1-.06-.07-.1-.04-.15-.31.13-.14.04h-.04s-.02-.03-.02-.03h-.09s0-.08,0-.08l.14-.32.03-.16v-.05s-.05-.01-.05-.01l-.17-.1-.2-.05-.44-.03-.2-.02-.17-.06-.12-.12-.06-.2h-.09s-.08,0-.08,0l-.15-.08-.11-.11-.04-.11.09-.15.13-.12.16-.08.19-.04-.29-.27-.29-.02-.44.05-.4.1-.13.05-.03.03v.03s.02.34.02.34l-.28.13-.1.11-.03.15-.18.14-.15.17-.1.2-.02.24h-.09s-.12-.06-.12-.06h-.04s0,.09,0,.09l-.05.04-.02.04v.09s0,.07,0,.07l-.02.03h-.05s-.17.22-.17.22l-.06.16.04.44-.23.18-.13.08-.14.04.2.16.24.08h.55s0,.1,0,.1h-.09s-.75.43-.75.43v.08s.07.24.07.24l-.05.21-.31.41-.36.47-.11.3-.02.35-.45-.04.02.26.27.06-.2.29-.13.13-.16.06.02.44-.08.36-.28.72-.17.62-.12.12-.16.11-.14.11-.04.06v.07s-.04.31-.04.31l.07.31.16.58-.62.61-.28.39-.07.17v.14s.04.07.04.07h-.09s.02.18.02.18l-.22-.08-.23-.05v.09s-.08,0-.08,0l.02.26.36.05v.09s-.18-.08-.18-.08l-.21-.13-.26-.17-.23-.03-.21.03-.43.08-.03.22-.04.09-.03.03-.04.02v-.09s-.14-.15-.14-.15l-.07-.06-.09-.02-.36.25-.4.18h-.21l-.2-.05-.15-.06-.04-.02h-.02s-.23.05-.23.05l-.08.05-.02.05v.06s-.09,0-.09,0v-.17s-.38-.62-.38-.62l-.26-.25-.16-.07h-.19s0-.1,0-.1h.09s.88-.96.88-.96v-.08s-.44.13-.44.13v-.08s-.1,0-.1,0v-.09s.1-.12.1-.12l.03-.07v-.08s-.6-.03-.6-.03l-.33-.05-.1-.04-.04-.04.17-.02v-.09s.08,0,.08,0v.09s-.09-.24-.09-.24l-.21-.36-.21-.32-.08-.1-.04-.04-.5-.04-.21-.06-.2-.16h.09s.29-.32.29-.32l.28-.26.29-.46.22-.21.11-.07.11-.03v-.09s-.1,0-.1,0l-.02-.17-.17.02-.14.08-.19.04-.47.05-.22.05-.18.1-.11.17-.02.26-.7.07h-.37s-.12-.05-.12-.05l-.03-.04-.02-.05.61-.48.31-.33.09-.14.03-.11-.23-.21-.21-.08-.55.04-.31-.16-.13-.1v-.02s0-.02,0-.02l.06-.02.24.02.17-.06.13-.1.09-.14.13-.27.06-.1.09-.04.06.12.05.03h.08s0-.08,0-.08l.44-.4.2-.25v-.04s0-.03,0-.03l-.03-.02h-.06l-.02-.26h-.09s0,.09,0,.09h-.08s-.16.12-.16.12l-.06.07-.02.1h-.16s-.12.06-.12.06l-.23.08-.49-.22-.65-.05-.34-.06-.11-.05-.03-.03-.02-.04.37-.13.16-.11.04-.07v-.09s-.05-.11-.05-.11l-.1-.09-.27-.11-.58-.03-.29.49v.3s.05.25.05.25v.11s-.03.11-.03.11l-.08.12-.14.12-.19.14-.1.06-.12.03-.02-.39.02-.09.04-.07.07-.05.1-.03v-.08s-1.13-.67-1.13-.67l.16-.38.21-.33.47-.67h-.09s-.24-.26-.24-.26l-.23-.16-.21-.06-.19.04-.15.13-.11.21-.06.29v.36s-2.87.44-2.87.44h-.08s0-.07,0-.07h-.09s-.17-.84-.17-.84l-.23-.02-.09-.04-.03-.04-.02-.05-.08-.06-.03-.1.32-.33.19-.12.24-.05.36.05-.08-.33-.15-.26-.14-.24-.08-.25.29-.19.14-.11.04-.05.02-.04h.09s0-.09,0-.09l-.36-.05-.02-.26.17-.07.06-.05.02-.08.45.05v-.09s.18-.18.18-.18l.1-.08.13-.04-.02-.17-.45-.05.06-.27-.02-.12.02-.04.07-.02-.04-.5.05-.17.09-.14.22-.28.27-.59.79-.71v-.09s-.1-.11-.1-.11v-.02s0-.02,0-.02l.07-.02v-.09s1.67.01,1.67.01l-.02-.26M36.31,63.73h.09s-.09,0-.09,0M71.78,60.62h.09s0,.08,0,.08l-.11.08h-.02s-.02,0-.02,0l-.03-.07.08-.09M35.56,64.15l.52-.05.02.17-.28-.04-.26-.08M36.78,64.03h.09s-.09,0-.09,0M36.18,64.18l.26-.02-.26.02M116.65,57.06l.03.34-.26.02-.02-.17.25-.2M56.54,62.85l.07.06.03.1-.11-.04-.03-.02h0s.03-.01.03-.01v-.09M115.35,57.27l.7-.07v.08s-.49.15-.49.15h-.08s-.06-.02-.06-.02l-.05-.06-.02-.1M116.15,57.36h.09s-.09,0-.09,0M117.91,58.24l.18.09.09.04h.1s0,.1,0,.1l-.35.03-.03-.26M100.37,60.42l.19.12.07.08.03.12-.18-.13-.12-.19M99.54,60.93l.13.09.04.06.02.09h-.09s-.01-.16-.01-.16l-.1-.08M99.89,60.9l.26-.02-.26.02M77.05,63.16l.18-.02v.09s.09,0,.09,0v.09s-.25.03-.25.03v.08s-.08,0-.08,0v-.17s.07,0,.07,0v-.09M100.36,61.2l.17-.02-.05.13-.04.04-.07.02-.02-.17M119.36,59.49l.07.05.04.08v.08s-.04.03-.04.03h-.04s-.02-.24-.02-.24M118.31,59.67l.35-.03-.18.05-.17-.02M72.22,64.31l.09.15v.07s-.02.02-.02.02h-.04s-.01-.07-.01-.07h-.09s.07-.17.07-.17M56.23,66.09l.15.14.03.07-.02.02h-.05s0-.07,0-.07h-.09s-.02-.16-.02-.16M57.23,66.43l.17-.03.07.02.03.07-.21.09h-.09s-.03-.01-.03-.01v-.05s.07-.09.07-.09M83.41,64.03l.02.1-.03.08-.04.08v.1s-.19.02-.19.02l.09-.19.14-.18M119.65,60.67v.09s-.02.08-.02.08l-.05.07-.08.03v-.09s.08,0,.08,0v-.09s.08,0,.08,0v-.09M82.38,64.38l.66.21.35.08.34.02-.02-.17-.13.02-.03-.02-.02-.07.87-.08.05.16.07.14.07.13.04.15-.59.07-.57-.13v.08s-.08,0-.08,0v.09s-.17.02-.17.02l.02.17.53.04v.09s.1,0,.1,0l-.23.54-.34.34-.15.18-.04.1v.12s.08,0,.08,0v.09s.54.04.54.04v-.09s.16-.07.16-.07l.06-.05.02-.08.34.02h.1s.08-.04.08-.04l.04-.06.02-.09v-.3s.23.08.23.08l.15.09.08.1.03.12-.03.27-.02.34-.17-.11-.07-.02-.02.02v.05s-.18.02-.18.02v.09s.33.23.33.23l.17.13.08.1.12.04.03.02h-.05s.02.19.02.19h-.09s-.84-.23-.84-.23l-.48-.09h-.15s-.04.01-.04.01v.02s-.1,0-.1,0l.02.17.27.06h-.09s0,.09,0,.09h-.43s-.19.08-.19.08l-.05.07v.09s-.1,0-.1,0v.09s.7.35.7.35l.37.26.12.12.05.11h.09s0-.09,0-.09h.09s.11-.1.11-.1h.02s.02,0,.02,0l.03.07.17-.02v.09s-.33.12-.33.12v.17s.1,0,.1,0l.94.6h-.09s-.15.22-.15.22l-.06.12-.02.12-.17-.09-.09-.03h-.1s.02.16.02.16h-.09s0,.09,0,.09l.27.06v.09s-.51.36-.51.36l-.27.17-.3.09.07.11.05.03h.07s.11.12.11.12l.07.03h.1s.35-.03.35-.03l.32-.09.33-.21.18-.09.2-.05.12.2.04.11v.12s-.73.72-.73.72l-.85.58h-.14s-.03-.04-.03-.04l-.02-.07h-.09s0,.09,0,.09h-.09s-.01.79-.01.79l.3.06h.26s.59-.08.59-.08l-.16.16-.06.09v.12s.23.14.23.14l.1.11.05.14h-.09s0,.09,0,.09l-.46.03-.23.04-.07.04-.02.05-.19.27-.07.14v.04h.03s.46.14.46.14l1-.2.57-.05.19.05.05.05.03.07.14.51-1.13.19-.17.02-.14.28-.19.23-.19.23-.11.27.03.11.05.09.17.1.23.03.27-.02.55-.12.41-.1.24-.48.17-.24.07-.08.06-.03v-.08s.61.03.61.03l.2-.25.08-.14.02-.16h-.09s-.23.19-.23.19l-.13.08-.14.04-.02-.17.33-1.58.5-.84-.08-.18-.03-.16.04-.3.11-.29.09-.32-.02-.37-.04-.44v-.21s.07-.17.07-.17l.12-.13.2-.06-.08-.28.02-.22.09-.17.13-.13.29-.22.1-.11.03-.13-.13-.1-.04-.06-.02-.08.22-.12.08-.06h0s0-.02,0-.02h-.05s-.02-.17-.02-.17h.09s0,.08,0,.08l.13.04.04.04.02.08.07-.07.1-.03v-.08s.17.02.17.02l.06.04.03.09.17-.02-.17.17-.05.08.02.02h.05s.25.16.25.16l.14.04h.16s0,.09,0,.09h-.09s-.32.48-.32.48l-.13.26-.02.12.03.11.18.21.08.11.04.12-.52.14v.08s-.08,0-.08,0v.09s.1,0,.1,0l.41.16.22.06h.07s.02,0,.02,0v-.02s.24-.79.24-.79l.13-.45.06-.14.03-.04.03-.02v-.08s.08,0,.08,0v.09s.38.1.38.1h.43v.09s-.08,0-.08,0l.1.08.13.03.28-.05.28-.12.22-.07v-.07s-.05-.06-.05-.06l-.13-.08-.17-.04h-.16s0-.09,0-.09l-.13-.42h.13s.03-.03.03-.03v-.07s.18.09.18.09l.07.06.04.08.45-.12.5-.06.06-.35.21-.13.23-.2.29-.26-.25-.37-.1-.2v-.06s0-.02,0-.02h.02s.21-.08.21-.08l.09-.05.03-.04v-.05s.18-.27.18-.27l-.02-.13-.06-.14-.04-.11v-.04s.06-.02.06-.02v-.09s.08,0,.08,0v-.09s.17-.02.17-.02v.09s.1,0,.1,0l.06.31.16.29.25.21.15.05h.17s-.36,1.18-.36,1.18l-.15.28-.19.24-.24.17-.29.08v.09s0,.15,0,.15l.02.2.05.17.04.05.05.02v.09s.1,0,.1,0v-.09s.08,0,.08,0v-.08s.09-.18.09-.18l.05-.07.08-.04v-.09s.08,0,.08,0l.06.31v.15s-.04.05-.04.05l-.06.02-.2.1-.18.04-.4.02.02.17-.06.27.52-.14-.44.59-.24.32-.07.12-.02.08h.09s.23.06.23.06l.1.05.05.1h.09s0,.08,0,.08h-.09s-.23.19-.23.19l-.13.08-.13.04.02.17.45.04.02.26-.53.21-.29.08h-.09s-.03,0-.03,0v-.03s-.17-.19-.17-.19l-.03-.1.02-.03.04-.02.04-.13.04-.04.08-.02-.02-.17h-.09s-1.2-.49-1.2-.49v.09s.09-.01.09-.01l-.07.08v.11s.12.1.12.1l.05.06.02.08h-.22l-.09.03-.02.03v.05s-.09,0-.09,0v-.08s-.09,0-.09,0l.22.24.25.13.29.05h.35s.07.3.07.3l.07.29-.25.11v.09s.1,0,.1,0v.09s.53-.05.53-.05l.02.13-.02.04-.07.02v.17s-.07,0-.07,0l-.16-.04h-.21l-.17.06-.05.06v.08s-.07.35-.07.35l.17-.02v-.09s.12,0,.12,0l.03-.03v-.07s.29.09.29.09l.12.08.04.06.02.07-.59.16-.29.02-.33-.05-.12-.05-.11-.08-.11-.07-.14-.02.07.77h.09s0-.09,0-.09h.09s0-.09,0-.09l.53.04v.08s.1,0,.1,0l-.1.22-.02.1.02.03h.05s.06-.07.06-.07l.11-.03-.13.11-.2.12-.18.11-.06.04-.02.03h-.09s-.11.22-.11.22l-.24.31-.26.29-.11.09-.08.04v.09s.1,0,.1,0l.13.1.05.06.03.08h-.18s-.06.04-.06.04l-.02.08-.71-.02v.08s-.08,0-.08,0v.09s.44-.04.44-.04v.09s-.24.24-.24.24l-.25.17-.61.24-.37.02h-.46l-.21.03-.17.07-.11.12-.03.2h.08s.28-.06.28-.06h.45s.6,0,.6,0l.17-.02-.02.51v.35s-.22.15-.22.15l-.28.07v.09s.02.4.02.4l.03.2.04.06.07.02v.17s-.07,0-.07,0l-.31.03-.15.04-.04.03v.03s-.47.54-.47.54l-.26.28-.13.09-.13.04-.06-.17-.05-.06h-.09s-.16.11-.16.11l-.16.03h-.37s0,.08,0,.08h-.09s0,.32,0,.32l-.03.15-.04.05-.06.02-.26.11v-.17s-.05-.14-.05-.14l-.07-.12-.07-.12-.04-.12v-.28s-.08-.07-.08-.07l-.11-.04-.28-.04-.26-.04-.09-.05-.04-.09-.31.08h-.15s-.05-.05-.05-.05l-.02-.07-.17.02-.11.2-.2.25-.23.21-.1.07-.09.03-.27-.06v-.08s.08-.01.08-.01v-.08s.14-.12.14-.12l.09-.05.1-.03-.18-.32-.05-.18.02-.06.06-.03.16.15.1.06h.11s0-.07,0-.07h-.09s.25-.29.25-.29l.16-.13.16-.06-.02-.17h-.09s-.2-.09-.2-.09l-.21-.05h-.45s-.91.15-.91.15v.09s-.08,0-.08,0v.09s.1,0,.1,0v.08s.09,0,.09,0v.09s.07-.08.07-.08v-.1s.27-.02.27-.02l-.05.25v.28s-.08,0-.08,0l-.28-.12-.13-.08-.04-.05-.02-.06h-.09s0,.09,0,.09h-.09s0,.09,0,.09l.02.26-.35.08-.18.02h-.08s-.06-.05-.06-.05l-.04-.06v-.04s.09-.08.09-.08l.63-.89.33-1h-.13s-.03.03-.03.03v.08s-.52.18-.52.18l-.57-.05-.28.03-.08.06-.02.1-.29-.51-.12-.28-.03-.09v-.02s0-.01,0-.01l.03-.28.07-.11.05-.04.07-.02-.14-.2-.03-.09v-.03s.06-.02.06-.02l.17-.06.17.02.18.04h.19s0,.1,0,.1h.09s0-.09,0-.09l-.03-.34.17-.07.06-.05.02-.08.06-.07.02-.08-.03-.2h.09s.36.05.36.05l.87-1.04-.07-.12-.04-.03h-.08s0-.09,0-.09l-.15.13-.08.05-.1.03-.15-.1-.16-.04-.35.05-.37.13-.36.09.05.26v.12s-.04.04-.04.04l-.05.02-.59.23-.14-.26-.11-.1-.07-.03h-.08s-.07-.05-.07-.05h-.02s0,.05,0,.05l-.18.02.37-.57.15-.52h.09s0,.08,0,.08l.26-.02v-.09s.08,0,.08,0v-.09s.08,0,.08,0h.36s.18-.04.18-.04l.05-.04v-.06s.29.12.29.12l.13.04h.04s.01-.04.01-.04l.32-.38.17-.2.08-.06.07-.03-.02-.17h-.09s-.32-.14-.32-.14l-.32-.06-.33.02-.35.1-.35.16-.02-.17h-.09s0-.08,0-.08h.09s0-.09,0-.09l.14-.17.08-.08.1-.04-.02-.17-.75-.2-.78.05-.41.1-.13.07-.03.04v.04s-.1,0-.1,0v-.09s-.09,0-.09,0l-.02-.26.4-.17.19-.11.06-.06.02-.06h.09s-.09-.22-.09-.22v-.09s.01-.03.01-.03h.04s.22-.12.22-.12l.32-.08h.16s.14.01.14.01l.1.06.04.11.17-.02v-.08s.3-.28.3-.28l.12-.17.04-.2h-.09s-.26.12-.26.12v-.17s.24-.11.24-.11l.08.06h.11s0-.08,0-.08l.17-.02.06-.27.06-.12.05-.04.06-.02-.02-.26-.51.25-.23.2-.06.11-.02.12-.27-.04-.13-.03-.04-.02-.02-.03h-.09s-.01-.08-.01-.08v-.26s-.03-.12-.03-.12l-.04-.03h-.06s-.88,0-.88,0l-.02-.17h.09s.16-.19.16-.19l.2-.16.23-.12.24-.06v-.09s-.81-.19-.81-.19l-.42-.07h-.4l-.52.18-.17.02-.06.03-.02.08.18-.02v.08s-.08,0-.08,0l-.06.06h-.02s0-.05,0-.05l-.17.03-.06-.02-.03-.08-.11-.25.35-.17.42-.08v-.08s.08,0,.08,0l-.02-.26-1.51-.11v-.09s.02-.31.02-.31l-.04-.14-.05-.04h-.07s0-.1,0-.1h.09s.25-.13.25-.13l.39-.08.42-.04h.31s.19.1.19.1l.1.05h.1s.02.19.02.19h-.09s0,.09,0,.09l-.19-.05h-.24s-.1.03-.1.03l-.08.06-.06.08v.12s.08,0,.08,0l.53.03-.02-.17,1.2.58h.09s.15-.28.15-.28l.21-.38.07-.19v-.17s-.01-.07-.01-.07l-.05-.06-.17-.09-.41-.03h-.2s-.19-.08-.19-.08l-.34-.28-.19-.13-.09-.04h-.09s0-.1,0-.1h.09s0-.09,0-.09l.25-.13.12-.08.03-.04v-.05s.9-.08.9-.08l.22-.07.18-.1.12-.14.03-.18.18-.02.46.57.21,1.01-.34.12.02.17.13-.02.03.02.02.07.72.19.12-.23.09-.1.11-.05v-.28s0-.11,0-.11l-.02-.03h-.03s.19-.32.19-.32l-.03-.25-.12-.3-.3-.47-.21-.19-.09-.11-.05-.12.17-.11.06-.06v-.02s-.07,0-.07,0l.02-.06.04-.03.09-.02h.07s.02-.04.02-.04v-.05s.18-.02.18-.02v-.08s.08,0,.08,0v-.09s-.1,0-.1,0l-.19-.06h-.19s-.41.04-.41.04v-.08s-.1,0-.1,0v-.13s.04-.04.04-.04l.04-.02.25-.02.56-.57M120.1,60.8l.17-.02-.08.05h-.04s-.05-.04-.05-.04M76.38,65.39h.09s-.09,0-.09,0M76.82,65.35l.13-.02.03.02.02.07h.09s0,.08,0,.08l-.28-.15M110.18,62.35l.2.17.07.11.04.12-.13.02-.03-.02-.02-.07-.12-.34M83.97,65.27l.27.06v.17s-.07.01-.07.01l-.2-.24M56.77,68.03l.05.16-.03.07-.09.03-.02-.13.02-.03.07-.02v-.08M109.71,63l.15.09.03.02v.02s-.01.02-.01.02h-.05s.22.04.22.04l.1.03.03.03v.05s-.07,0-.07,0h-.17s-.13-.03-.13-.03l-.08-.11v-.17M90.47,64.92l.6.06.33.04.11.02.04.03h.09s.03.25.03.25h-.09s-.35.21-.35.21l-.16.13-.05.07v.08s.08,0,.08,0v-.09s.08,0,.08,0l.35.2.16.13.02.04h-.01s-.03.02-.03.02l-.31.07-.15.03-.04.02v.02s-.1,0-.1,0l.05.52-.04.1-.09.1-.29.19-.33.15-.25.07v.08s.1,0,.1,0l.07.09.03.1.02.24-.02.04v.03s0,.02,0,.02h-.06s-.29.08-.29.08l-.31.02-.63.02-.03-.17.02-.06.07-.03.14-.14.2-.07-.24-.67h.09s0-.1,0-.1l.96-.03.26-.06.22-.09.14-.14.04-.09v-.1s-.3-.18-.3-.18l-.17-.05-.18.02-.33.04v-.09s-.1,0-.1,0v-.4s.08-.34.08-.34l.08-.14.12-.11.17-.08.24-.05v-.08M93,64.68l.35-.03v.08s-.35-.05-.35-.05M53.03,68.65h.09s-.09,0-.09,0M84.36,65.67l.18-.03.06.02.03.07-.07.07-.1.03-.1-.16M92.76,64.87h.09s-.09,0-.09,0M120.67,62.22h.09s-.09,0-.09,0M92.61,65.15h.09s0,.12,0,.12l.03.03h.07s.08.06.08.06h.11s.03,0,.03,0h.04s.1.02.1.02l.15.09.16.23.03.09v.07l-.03.05-.05.04-.15.05-.4.02h-.35s-.27.04-.27.04l-.14-.02-.05-.02-.02-.04v-.07s.05-.07.05-.07l.16-.12.32-.13-.15-.15-.03-.07.02-.02h.05s.16-.2.16-.2M84.13,66.04l-.03.18-.02.06h-.01s0-.06,0-.06l.07-.18M122.48,62.66l.08.06.03.1-.11-.04-.03-.02h0s.03-.02.03-.02v-.09M123.01,62.61h.22s.1.05.1.05l.03.04v.05s-.07.01-.07.01l.02.17-.18.02v-.13s-.03-.03-.03-.03h-.07s-.01-.18-.01-.18M122.68,62.9l.26-.02.02.17h-.09s0,.09,0,.09l-.18-.02-.07-.04-.03-.08h.09s0-.1,0-.1M70.27,67.96l.36.05v.09s-.17.02-.17.02v.09s-.08,0-.08,0v-.08s-.18.02-.18.02v-.09s.08,0,.08,0v-.09M124.18,62.84l.22.02.1.04.03.03v.05s-.16.02-.16.02l-.06.26h-.09s0-.08,0-.08h-.09s.05-.34.05-.34M92.28,66.31l.42.09.22.08.07.05.03.05h-.09s0,.1,0,.1l-.18.03-.06-.02-.03-.07-.18-.09-.09-.04h-.1s-.01-.18-.01-.18M123.87,63.31l.23.02.09.04.03.04v.05s-.07,0-.07,0v.08s-.13-.04-.13-.04l-.04-.04-.02-.07-.1-.08M123,63.48l.18-.03.06.02.03.07-.27-.06M93.19,66.65h.09s-.09,0-.09,0M122.33,63.89l.13.04.04.04.02.08-.17.02v.09s-.17.02-.17.02l-.02-.17.17-.1M70.18,68.92l.07.1.02.02v-.05s-.09-.08-.09-.08M74.56,68.51l.17-.02-.19.15-.1.04-.03-.02-.02-.05.18-.02v-.09M121.64,64.04h.09s-.09,0-.09,0M85.09,67.85l.19.14.09.06.1.02.02.17-.28-.03h-.12s-.03.04-.03.04v.04s-.18.02-.18.02l.05.22-.02.09-.03.03h-.05s-.07.09-.07.09l-.1.03-.07-.22v-.08s0-.03,0-.03h.04s.48-.58.48-.58M57.27,70.58l.17-.02-.09.05h-.04s-.05-.03-.05-.03M84.42,68.18h.09s-.09,0-.09,0M92.99,67.36l.26-.02-.45.74-.18.16-.16.11-.11.14-.03.24h-.09s-.31.09-.31.09l-.24-.05-.18-.13-.11-.19-.05-.2v-.17s.04-.07.04-.07l.05-.04.06-.02h.08s.11.04.11.04l.03.03v.07s.1,0,.1,0v-.08s.14-.12.14-.12l.09-.06.1-.03v.09s.27-.02.27-.02l.12-.16.14-.11.31-.22M84.17,68.38l.18-.02-.04.13-.04.04-.08.02-.02-.17M90.4,67.96l.44-.04v.09s-.08,0-.08,0v.08s-.15.12-.15.12l-.08.06-.09.03-.11-.25.08-.09M90.16,68.24l.31.13.17.05h.17s.02.19.02.19l-.69.15.04-.52M117.13,65.77h.09s-.09,0-.09,0M35.93,73.65l-.03.19-.02.05h-.01s-.01-.06-.01-.06l.07-.18M40.24,73.5h.09s-.09,0-.09,0M77.52,69.96l.35-.03v.09s-.08,0-.08,0v.08s-.08,0-.08,0l-.07.07-.1.03v-.09s-.09,0-.09,0l.07-.18M119.62,65.96l.26-.02v.17s-.16.02-.16.02l-.1-.16M78.58,69.95l.18-.03.07.02.03.07-.27-.06M79.02,69.9l.18-.02-.09.06h-.04s-.05-.04-.05-.04M92.59,68.7l.13.1.05.06.02.08h-.09s0-.08,0-.08h-.09s-.01-.17-.01-.17M78.35,70.23l.17-.03.06.02.03.07-.27-.06M99.35,68.24l.18.07.07.06.04.09-.16-.1-.13-.13M90.95,69.12l.18-.03.06.02.03.07h-.09s-.52.14-.52.14v-.09s.33-.12.33-.12M40.49,74.26l.18-.02-.05.13-.04.04-.07.02-.02-.17M132.58,65.77l.13-.02.03.02.02.07h.09s0,.08,0,.08l-.28-.15M68.88,71.91l.17-.02-.09.05h-.04s-.05-.04-.05-.04M91.98,69.72h.09s-.09,0-.09,0M78.87,71.13l.6.08.33.08.11.04.04.04h.09s0,.08,0,.08h-.13s-.03.03-.03.03v.08s-.59-.09-.59-.09l-.58-.06v-.08s.08,0,.08,0v-.08s.07-.1.07-.1M99.09,69.21l.17-.02-.15.15-.07.03-.02-.02v-.04s.07-.09.07-.09M68.82,72.18l.23.07.1.06.05.09h-.09s0,.1,0,.1h-.09s0-.08,0-.08l-.2-.24M85.01,70.64l.26-.02-.26.02M118.88,67.51l.17-.02-.09.05h-.04s-.05-.04-.05-.04M78.2,71.46l.26-.03-.13.04h-.14M78.13,71.72l.26-.03-.26.03M141.88,66.1l.62.03v.09s-.05.07-.05.07l-.11.03.02.17h-.09s-.32-.12-.32-.12l-.16-.07-.05-.04-.02-.05.17-.1M79.84,72.08l.07.11.02.02v-.05s-.09-.08-.09-.08M143.38,66.05l.07.11.02.02v-.05s-.09-.08-.09-.08M138.96,66.99h.09s0,.08,0,.08h.09s-.12.06-.12.06l-.03.04v.08s-.1-.11-.1-.11v-.02s0-.02,0-.02l.08-.02v-.09M145.45,66.46l.07.11.04.12.03.28h-.09s0,.09,0,.09l-.17.02-.02-.17-.11-.25.25-.2M147.02,66.31l.14.14.07.18h-.09s0-.08,0-.08l-.11-.25M147.65,66.34l.27.06.02.17h-.09s0,.09,0,.09l-.18.02v-.09s-.08-.06-.08-.06l-.03-.1.08-.09M39.5,76.78l.02.26-.09-.11v-.02s0-.02,0-.02l.08-.02v-.08M68.9,73.99l.18-.02-.05.13-.04.04-.07.02-.02-.17M85.88,72.37l.17.09.09.04h.1s0,.1,0,.1h-.09s0,.1,0,.1l-.13.02-.03-.02-.02-.07-.14-.09-.02-.02v-.02s.02-.02.02-.02h.05s0-.1,0-.1M146.87,66.58l.08.1.03.15h-.09s0,.1,0,.1h-.09s0-.08,0-.08h-.09s.15-.27.15-.27M78.89,73.21l.27.06-.06.27h-.09s0,.09,0,.09h-.09s0-.08,0-.08h-.09s.05-.35.05-.35M39.71,77.19l.36.05v.09s-.08,0-.08,0v.09s-.12.02-.12.02l-.03-.02-.02-.07-.18.02v-.09s.08,0,.08,0v-.09M85.48,72.85h.09s.08.05.08.05h.11s.02.18.02.18l-.18.02v.09s-.08,0-.08,0l-.03-.34M145.78,67.21l.34.31.11.19.06.23-.13.02-.03-.02-.02-.07-.21.09h-.09s-.03-.01-.03-.01v-.05s-.28.03-.28.03l-.02-.13.02-.03.07-.02.21-.54M146.83,67.11l.08.06h.11s.12.03.12.03l.14.08.31.24.33.24.16.07.15.02v.09s-.08,0-.08,0v.09s-.34.18-.34.18l-.18.16-.09.21-.1.35-.09.19-.03.1v.11s-.27.03-.27.03l-.33-.66.37-.36.13-.23.04-.24-.21-.14-.18-.17-.06-.09-.03-.1v-.11s.06-.12.06-.12M100.64,71.67l.36.05-.07.23-.06.09-.1.05v.09s-.08,0-.08,0l-.05-.51M147.73,67.28l.17.09.1.04h.09s0,.1,0,.1l-.17.02-.2-.24M149.22,67.14h.08s.08.05.08.05h.11s0,.1,0,.1h-.09s-.04.11-.04.11v.12s-.03.1-.03.1l-.03.03h-.04s0,.1,0,.1h-.09s-.22-.14-.22-.14l-.12-.05h-.12s.21-.22.21-.22l.14-.06.15-.03v-.09M79.31,73.86l.53.04.02.26-.31-.1-.13-.08-.12-.12M85.44,73.37l.36.05v.09s-.36-.14-.36-.14M68.56,75.06h.09s0,.08,0,.08h.09s-.07.07-.07.07l-.1.03-.02-.17M80.48,74.1l.13.1.05.06.02.08h-.09s-.85.61-.85.61l-.26.11-.25.05-.24-.03-.21-.13-.06-.07v-.02s.06-.01.06-.01l.2-.17.09-.09.03-.12.18-.02v.17l.03.06.08.02.1-.03.08-.06.05-.09v-.11s.1,0,.1,0v.09s.36-.03.36-.03l.16-.2.11-.06.14-.03v-.09M148.56,67.64l.26-.02.03.26-.16-.1-.13-.13M100.8,72.35h.09s-.09,0-.09,0M136.35,69.23l.13.09.05.06.03.09h-.09s0-.08,0-.08h-.08s-.02-.16-.02-.16M132.25,69.7l.17-.02-.18.07-.05.03h.01s.05,0,.05,0v-.09M106.11,72.53h.09s0,.08,0,.08h.09s-.07.07-.07.07l-.1.03-.02-.17M146.48,68.96h.09s0,.08,0,.08h.09s-.06.07-.06.07l-.1.03-.02-.17M141.77,69.58l.03.18v.05s-.01-.01-.01-.01v-.05s-.02-.17-.02-.17M102.14,73.43h.09s-.09,0-.09,0M143.44,69.51l.13.09.04.06.02.09h-.09s-.02-.16-.02-.16l-.1-.08M149.13,68.97l.42.08.21.08.07.05.03.07h-.09s0,.09,0,.09h-.09s0-.08,0-.08l-.69.15-.02-.17h.09s0-.09,0-.09l.07-.18M145.9,69.36l.1.19.03.24-.17.02v-.09s-.1,0-.1,0l-.02-.13.02-.03.07-.02.07-.18M148.88,69.08l.07.06.03.1-.11-.04-.03-.02h0s.03-.01.03-.01v-.09M145.39,69.58h.08s-.08,0-.08,0M39.86,79.69l.13.1.05.06.02.08h-.09s0,.09,0,.09h-.09s0-.08,0-.08l-.07-.07-.03-.1.08-.09M79.77,75.9l.3.09.24.16.16.23.08.32-.07.07-.1.03-.21-.06-.24.02-.02-.17.12-.12.02-.03v-.02s-.02,0-.02,0h-.05l-.17-.15-.1-.05-.11-.02.06-.08v-.1s.09-.1.09-.1M57.51,78.62l.26-.02-.06.06h-.07s-.14-.04-.14-.04M68.18,77.61l.16.09.12.12.08.16.04.19h-.09s0-.08,0-.08h-.09s-.17-.15-.17-.15l-.1-.05h-.11s0-.1,0-.1l.16-.19M39.76,80.48h.17s0,.07,0,.07l-.05.44-.26.03v-.08s-.1,0-.1,0l.08-.24.14-.21M80.33,77.23h.09s-.09,0-.09,0M90.04,78.13l.17-.02-.05.13-.04.04-.07.02-.02-.17M80.97,79.26l.13-.02.04.02.02.08h.09s0,.08,0,.08l-.28-.15M81.46,80.68h.23s.09.05.09.05l.03.04v.05s.1,0,.1,0v.09s-.08,0-.08,0l-.25.11h-.13s-.04-.01-.04-.01l-.02-.05.06-.27M67.92,82.31h.09s-.09,0-.09,0M83.48,81.53h.28l.12.03.04.04.02.06-.35.13-.33.11v-.17s.07,0,.07,0l.16-.19M38.78,89.67l.18-.02v.09s.07.05.07.05v.02s-.05.01-.05.01v.09s-.08,0-.08,0v-.09s-.18.02-.18.02v-.09s.08,0,.08,0v-.08M38.98,90h.09s-.09,0-.09,0M59.01,95.38l.26-.03-.26.03M70.42,97.42l.17-.03h.06s.03.09.03.09l-.07.07-.1.03-.1-.17M34.57,105.76l.23.06.1.06.05.11-.2-.09-.17-.14M60.01,104.04l.17-.02-.05.13-.04.04-.07.02-.02-.17M68.79,103.55l.18.14.09.06.11.02v.08s-.17.02-.17.02l-.21-.33M68.84,104.07l.17-.02-.05.13-.04.04-.07.02-.02-.17M33.3,108.23l.45.04.02.17-.25-.08-.21-.13M68.39,104.89l.17-.02-.05.13-.04.04-.08.02-.02-.17M32.91,108.78l.26-.03-.26.03M66.98,108.58l.26-.03.02.17-.17.02-.1-.16M66.17,111.26l.26-.02.08.27.09.1.06.03h.07s-.15.23-.15.23l-.08.1-.09.05h-.09s-.08.01-.08.01h-.06s-.02-.03-.02-.03v-.05s-.1,0-.1,0v-.09s.09-.18.09-.18l.06-.07.08-.03-.12-.34M64.48,114.88l-.02.18-.04.07-.08.03-.02-.17.17-.1M63.6,116.7l.35-.03-.35.03M58.17,118.09h.09s0,.08,0,.08h.09s-.07.07-.07.07l-.1.03-.02-.17M58.38,118.5l.02.26-.09-.11v-.02s0-.02,0-.02l.07-.02v-.09"/>
      <g>
        <g>
          <path class="cls-3" d="M62.76,144.01v-.61h-.13c-1.75,0-1.83-.34-1.87-1.65l-.09-2.88-.14-5.87c0-.54.09-.84.3-1,.21-.16.62-.19,1.21-.19h.13v-.74l-1.75.04-1.59-.04-.04.08c-1.01,2.32-2.16,4.63-3.27,6.87,0,0-1.35,2.76-1.56,3.18-.22-.46-4.86-10.13-4.86-10.13l-1.26.04-2.07-.04v.13s0,.61,0,.61h.13c.61,0,.97.08,1.18.26.21.18.3.53.3,1.17l-.13,5.24-.07,2.28c-.07,2.45-.9,2.64-2.05,2.64h-.13v.74l2.57-.04,2.41.04v-.13s0-.61,0-.61h-.13c-.68,0-1.13-.05-1.4-.28-.25-.21-.34-.65-.34-1.55l.02-1.15s.12-5.39.14-6.18c.2.41.5.98.5.98,1.48,2.94,3.02,5.98,4.36,9.01l.03.08h.55l.03-.09c.14-.47.51-1.37.71-1.8,0,0,3.75-7.79,4.12-8.56.01.86.12,8.27.12,8.27,0,.79-.2,1.01-.41,1.13-.28.15-.72.15-1.34.15h-.15v.74l2.81-.04,3.16.04v-.13Z"/>
          <path class="cls-3" d="M72.5,137.66c-.64-.59-1.47-.78-2.09-.82,1.14-.58,2.28-1.68,2.28-3.16,0-1.59-1.17-2.74-2.77-2.74-1.7,0-2.69.98-3.64,2.06l-.07.08.44.55.1-.1c.72-.72,1.3-1.23,2.22-1.23.59,0,1.1.2,1.46.59.35.38.54.91.54,1.52,0,1.64-1.56,2.62-3.09,2.75h-.12v.75h.14c1.3-.09,2.25.15,2.82.69.48.45.72,1.13.72,2.03,0,1.73-1.14,2.93-2.77,2.93-1.12,0-1.52-.55-1.85-1-.21-.29-.4-.54-.72-.54-.17,0-.35.07-.49.2-.15.14-.23.32-.23.51,0,.67,1.17,1.67,2.92,1.67,3.71,0,5.09-2.77,5.09-4.52,0-.95-.3-1.7-.9-2.24Z"/>
        </g>
        <g>
          <path class="cls-3" d="M93.29,134.61h-.46c-.35-2.17-1.89-3.05-3.97-3.05s-5.24,1.43-5.24,5.89c0,3.75,2.67,6.44,5.53,6.44,1.84,0,3.36-1.26,3.73-3.21l.43.11-.43,2.71c-.78.48-2.88.98-4.1.98-4.34,0-7.09-2.8-7.09-6.98,0-3.81,3.4-6.54,7.04-6.54,1.5,0,2.95.48,4.38.98l.18,2.66Z"/>
          <path class="cls-3" d="M102.89,143.49c-.52.48-1.1,1-1.84,1s-1.11-.71-1.15-1.37c-.87.8-1.71,1.37-2.86,1.37s-2-.82-2-1.8c.07-1.48.83-1.76,4.85-3.14v-1.23c0-1.04-.61-1.6-1.8-1.6-.82,0-1.37.46-1.41,1.3,0,.52-.59.78-1.04.78-.28,0-.33-.24-.33-.37,0-.98.83-1.45,2.14-2.12.65-.33.97-.6,1.67-.6.84,0,2.27.54,2.27,1.56v5.14c0,.76.26,1.06.67,1.06.24,0,.52-.11.69-.32l.17.32ZM99.89,140.09c-.95.37-3.36.8-3.36,2.19,0,.72.59,1.34,1.32,1.34.87,0,1.43-.54,2.04-1.08v-2.45Z"/>
          <path class="cls-3" d="M104.23,143.73h.5c.52,0,.89,0,.89-.61v-5.22c0-.58-.69-.69-.97-.84v-.28c1.35-.58,2.1-1.06,2.27-1.06.11,0,.17.06.17.24v1.67h.04c.46-.72,1.24-1.91,2.38-1.91.46,0,1.06.32,1.06.99,0,.5-.35.95-.87.95-.58,0-.58-.44-1.22-.44-.32,0-1.36.43-1.36,1.54v4.36c0,.61.37.61.89.61h1.04v.48c-1.02-.02-1.8-.04-2.6-.04s-1.54.02-2.21.04v-.48Z"/>
          <path class="cls-3" d="M113.37,139.09c-.04.17-.04.45,0,1.08.11,1.76,1.25,3.21,2.73,3.21,1.02,0,1.82-.56,2.51-1.24l.26.26c-.85,1.13-1.91,2.1-3.44,2.1-2.95,0-3.55-2.86-3.55-4.05,0-3.64,2.45-4.72,3.75-4.72,1.5,0,3.12.95,3.14,2.92,0,.11,0,.22-.02.33l-.17.11h-5.22ZM116.66,138.49c.47,0,.52-.24.52-.46,0-.95-.58-1.71-1.62-1.71-1.13,0-1.91.84-2.13,2.17h3.23Z"/>
          <path class="cls-3" d="M121.86,139.09c-.04.17-.04.45,0,1.08.11,1.76,1.25,3.21,2.73,3.21,1.02,0,1.82-.56,2.51-1.24l.26.26c-.85,1.13-1.91,2.1-3.43,2.1-2.95,0-3.55-2.86-3.55-4.05,0-3.64,2.45-4.72,3.75-4.72,1.5,0,3.12.95,3.14,2.92,0,.11,0,.22-.02.33l-.17.11h-5.22ZM125.14,138.49c.46,0,.52-.24.52-.46,0-.95-.58-1.71-1.62-1.71-1.13,0-1.91.84-2.13,2.17h3.23Z"/>
          <path class="cls-3" d="M128.67,143.73h.5c.52,0,.89,0,.89-.61v-5.22c0-.58-.69-.69-.97-.84v-.28c1.36-.58,2.1-1.06,2.27-1.06.11,0,.17.06.17.24v1.67h.04c.46-.72,1.25-1.91,2.38-1.91.46,0,1.06.32,1.06.99,0,.5-.35.95-.87.95-.58,0-.58-.44-1.23-.44-.31,0-1.35.43-1.35,1.54v4.36c0,.61.37.61.89.61h1.04v.48c-1.02-.02-1.8-.04-2.6-.04s-1.54.02-2.21.04v-.48Z"/>
        </g>
      </g>
    </g>
  </g>
</svg>