<svg width="200" height="200" viewBox="0 0 200 200" fill="none" xmlns="http://www.w3.org/2000/svg">
<rect width="200" height="200" fill="white"/>
<g clip-path="url(#clip0_835_2813)">
<path d="M166.056 80.929C164.749 80.929 164.302 82.0987 164.302 82.0987L153.568 108.899L142.868 82.0987C142.868 82.0987 142.387 80.929 141.114 80.929C139.153 80.929 135.609 80.929 134.921 80.929C133.992 80.929 132.616 81.7546 133.132 83.4748C133.751 84.9886 144.21 111.17 146.549 117.053C147.065 118.223 148.132 118.223 148.27 118.223C148.407 118.223 158.625 118.223 158.797 118.223C158.969 118.223 160.07 118.223 160.552 117.018C162.994 110.963 175.001 80.929 175.001 80.929C175.001 80.929 167.364 80.929 166.056 80.929Z" fill="black"/>
<path d="M109.771 80C98.9682 80 90.1953 88.7729 90.1953 99.5757C90.1953 110.378 98.9682 119.151 109.771 119.151C120.574 119.151 129.347 110.378 129.347 99.5757C129.347 88.7729 120.574 80 109.771 80ZM109.771 109.828C104.094 109.828 99.5187 105.252 99.5187 99.5757C99.5187 93.8991 104.094 89.3234 109.771 89.3234C115.448 89.3234 120.023 93.8991 120.023 99.5757C120.023 105.252 115.448 109.828 109.771 109.828Z" fill="black"/>
<path d="M66.0092 80.929C61.2615 80.929 56.961 82.9244 53.8991 86.0895C50.8372 82.89 46.5367 80.929 41.789 80.929C38.7271 80.929 35.8372 81.7546 33.3601 83.1996L32.4656 80.929C32.4656 80.929 27.9931 80.929 26.8922 80.929C25.8257 80.929 25 81.789 25 82.7868C25 83.578 25 115.401 25 116.33C25 117.397 25.8257 118.188 26.8578 118.188C27.5115 118.188 30.4702 118.188 32.4312 118.188C33.4977 118.188 34.289 117.259 34.289 116.33C34.289 115.401 34.289 97.6835 34.289 97.6835C34.289 93.5551 37.6261 90.2179 41.7546 90.2179C45.8486 90.2179 49.1858 93.5551 49.2202 97.6491V97.6835C49.2202 97.6835 49.2202 115.367 49.2202 116.296C49.2202 117.225 49.9427 118.154 51.078 118.154C51.6972 118.154 54.656 118.154 56.6514 118.154C58.0963 118.154 58.5092 116.881 58.5092 116.296C58.5092 115.814 58.5092 97.6835 58.5092 97.6835C58.5092 93.5895 61.8463 90.2523 65.9748 90.2523C70.1032 90.2523 73.4404 93.5895 73.4404 97.7179C73.4404 97.7179 73.4404 115.436 73.4404 116.365C73.4404 117.431 74.2661 118.223 75.2982 118.223C76.2271 118.223 82.7638 118.223 82.7638 118.223V97.7179C82.7638 88.429 75.2638 80.929 66.0092 80.929Z" fill="black"/>
</g>
<defs>
<clipPath id="clip0_835_2813">
<rect width="150" height="39.117" fill="white" transform="translate(25 80)"/>
</clipPath>
</defs>
</svg>
