<?xml version="1.0" encoding="UTF-8"?>
<svg id="Layer_2" data-name="Layer 2" xmlns="http://www.w3.org/2000/svg" viewBox="0 0 572.66 250.24">
  <defs>
    <style>
      .cls-1 {
        fill: none;
      }
    </style>
  </defs>
  <g id="Layer_1-2" data-name="Layer 1">
    <g>
      <rect class="cls-1" x="161.21" y="-161.21" width="250.24" height="572.66" transform="translate(411.45 -161.21) rotate(90)"/>
      <g>
        <path d="M478.33,70.92c-3.8,0-5.1,3.4-5.1,3.4l-31.2,77.9-31.1-77.9s-1.4-3.4-5.1-3.4h-18c-2.7,0-6.7,2.4-5.2,7.4,1.8,4.4,32.2,80.5,39,97.6,1.5,3.4,4.6,3.4,5,3.4h30.6c.5,0,3.7,0,5.1-3.5,7.1-17.6,42-104.9,42-104.9h-26Z"/>
        <path d="M314.73,68.22c-31.4,0-56.9,25.5-56.9,56.9s25.5,56.9,56.9,56.9,56.9-25.5,56.9-56.9-25.5-56.9-56.9-56.9ZM314.73,154.92c-16.5,0-29.8-13.3-29.8-29.8s13.3-29.8,29.8-29.8,29.8,13.3,29.8,29.8-13.3,29.8-29.8,29.8Z"/>
        <path d="M187.53,70.92c-13.8,0-26.3,5.8-35.2,15-8.9-9.3-21.4-15-35.2-15-8.9,0-17.3,2.4-24.5,6.6l-2.6-6.6h-16.2c-3.1,0-5.5,2.5-5.5,5.4v97.5c0,3.1,2.4,5.4,5.4,5.4h16.2c3.1,0,5.4-2.7,5.4-5.4v-54.2c0-12,9.7-21.7,21.7-21.7s21.6,9.7,21.7,21.6v54.2c0,2.7,2.1,5.4,5.4,5.4h16.2c4.2,0,5.4-3.7,5.4-5.4v-54.1h0c0-11.9,9.7-21.6,21.7-21.6s21.7,9.7,21.7,21.7v54.2c0,3.1,2.4,5.4,5.4,5.4h21.7v-59.6c0-27-21.8-48.8-48.7-48.8Z"/>
      </g>
    </g>
  </g>
</svg>