<svg width="200" height="200" viewBox="0 0 200 200" fill="none" xmlns="http://www.w3.org/2000/svg">
<rect width="200" height="200" fill="white"/>
<g clip-path="url(#clip0_835_2832)">
<path d="M31.8169 120.862H26.13V119.299H29.5008V117.523H31.1809V119.299H34.2443V120.263C33.592 121.157 32.8398 121.973 32.0024 122.696C33.2513 123.172 34.434 123.806 35.5216 124.583L34.4245 125.977C33.4005 125.195 32.3159 124.497 31.1809 123.888V128.049H29.5591V124.477C28.4607 125.1 27.2893 125.584 26.0717 125.918L25.0117 124.371C27.5886 123.934 29.9664 122.708 31.8169 120.862Z" fill="#005EAE"/>
<path d="M36.7227 120.767L38.143 120.274C38.7533 121.262 39.2191 122.333 39.5263 123.454L38.0794 124.021C37.7559 122.887 37.3006 121.795 36.7227 120.767ZM43.5066 119.993L45.0542 120.406C44.9752 121.421 44.7977 122.426 44.5242 123.406C43.8564 125.929 41.8619 127.459 38.5405 127.996L37.6979 126.469C38.6304 126.442 39.55 126.245 40.4114 125.886C41.0288 125.64 41.5822 125.257 42.0302 124.766C42.4781 124.275 42.809 123.688 42.9978 123.051C43.2788 122.062 43.4494 121.046 43.5066 120.019V119.993ZM39.5846 120.168L40.9679 119.717C41.4704 120.756 41.8613 121.845 42.1339 122.966L40.7294 123.539C40.4606 122.38 40.0771 121.251 39.5846 120.168Z" fill="#005EAE"/>
<path d="M47.8711 127.8V117.693H49.6572V120.645C51.6642 121.231 53.5999 122.038 55.4289 123.051L54.4272 124.641C52.9184 123.718 51.3203 122.949 49.6572 122.346V127.805L47.8711 127.8Z" fill="#005EAE"/>
<path d="M57.1484 123.242V118.392H66.3545C66.3897 119.895 66.2618 121.396 65.9729 122.871C65.351 126.008 62.9395 127.678 58.7384 127.879L57.848 126.162C60.5934 126.116 62.4396 125.491 63.3865 124.286C64.072 123.48 64.4253 122.056 64.4465 120.014H58.8921V123.242H57.1484Z" fill="#005EAE"/>
<path d="M68 123.645V121.949H76.851V123.645H68Z" fill="#005EAE"/>
<path d="M81.9115 117.592L83.8089 117.693C83.702 118.103 83.5693 118.507 83.4114 118.901H88.0542C87.8351 121.413 87.1479 123.411 85.9925 124.895C84.9007 126.309 82.9256 127.356 80.0671 128.038L79.0071 126.448C81.09 126.051 82.6164 125.478 83.5863 124.721C84.83 123.827 85.6268 122.413 85.9766 120.481H82.6164C81.8954 121.851 80.8844 123.049 79.6537 123.989L78.5195 122.611C79.4274 121.94 80.2051 121.108 80.8144 120.157C81.2868 119.352 81.6554 118.49 81.9115 117.592Z" fill="#005EAE"/>
<path d="M90.2657 118.509H94.3678V117.449H96.1062V118.509H100.007V119.982H91.845V121.98C91.8606 123.102 91.7755 124.223 91.5907 125.33C91.396 126.27 91.0657 127.177 90.6102 128.022L89.2852 126.909C89.9243 125.808 90.259 124.557 90.255 123.284L90.2657 118.509ZM92.4651 122.139L93.8166 122.722C93.701 124.377 93.3751 126.01 92.8467 127.583L91.5271 126.735C92.0987 125.267 92.416 123.713 92.4651 122.139ZM93.9915 120.952L95.1151 120.019C96.1075 120.5 97.0052 121.155 97.7651 121.954L96.6521 123.199C95.8926 122.326 95.0022 121.575 94.0127 120.973L93.9915 120.952ZM94.0869 122.166H95.6451V126.141C95.6451 126.379 95.7299 126.496 95.8995 126.496C96.3341 126.496 96.5673 126.432 96.6097 126.289C96.6818 125.864 96.7172 125.433 96.7157 125.001L98.046 125.489C98.0816 126.152 98.0173 126.817 97.8552 127.461C97.8043 127.568 97.7304 127.662 97.6388 127.737C97.5471 127.812 97.4401 127.866 97.3252 127.895C96.8464 127.983 96.3595 128.019 95.873 128.001C95.3851 128.045 94.8935 127.984 94.4314 127.821C94.2406 127.72 94.1452 127.45 94.1452 127.026L94.0869 122.166ZM97.3676 122.977L98.7509 122.404C99.4773 123.725 99.9772 125.158 100.23 126.644L98.7138 127.344C98.4839 125.839 98.0376 124.375 97.3888 122.998L97.3676 122.977Z" fill="#005EAE"/>
<path d="M102.493 117.857H112.033V126.804C112.068 127.14 111.998 127.479 111.831 127.773C111.668 127.917 111.477 128.023 111.269 128.086C111.062 128.149 110.843 128.167 110.628 128.139C110.358 128.139 109.876 128.139 109.181 128.102L108.598 126.554H109.128H109.839C110.252 126.554 110.464 126.395 110.464 126.077V124.572H107.846V127.821H106.256V124.572H103.971C103.944 125.873 103.523 127.136 102.763 128.192L101.48 127.132C102.17 125.996 102.509 124.681 102.456 123.353L102.493 117.857ZM104.083 120.592H106.314V119.256H104.083V120.592ZM104.083 123.242H106.314V121.917H104.083V123.242ZM107.883 120.592H110.485V119.256H107.867L107.883 120.592ZM107.883 123.242H110.485V121.917H107.867L107.883 123.242Z" fill="#005EAE"/>
<path d="M113.508 126.379C114.008 126.056 114.488 125.702 114.944 125.319V122.887H113.662V121.339H116.465V125.457C116.676 125.816 116.993 126.101 117.372 126.273C118.153 126.506 118.97 126.596 119.783 126.538C121.55 126.538 123.177 126.478 124.664 126.358L123.901 128.081C123.074 128.081 122.311 128.081 121.643 128.081C119.152 128.081 117.654 127.975 117.149 127.763C116.551 127.481 116.049 127.03 115.707 126.464C115.296 127.024 114.848 127.555 114.366 128.054L113.508 126.379ZM113.783 118.398L114.971 117.449C115.628 118.061 116.249 118.71 116.831 119.394L115.607 120.496C115.068 119.733 114.457 119.024 113.783 118.376V118.398ZM116.868 118.954V117.719H123.53V118.482C122.862 118.981 122.126 119.511 121.32 120.072H123.97V125.145C124.001 125.347 123.96 125.553 123.856 125.729C123.752 125.905 123.59 126.039 123.398 126.109C123.074 126.194 122.741 126.232 122.406 126.22H121.876L121.484 124.975C121.77 124.975 121.967 124.975 122.083 124.975C122.359 124.975 122.497 124.89 122.497 124.721V124.35H121.124V126.067H119.788V124.35H118.532V126.136H117.138V120.019H118.548L117.774 119.527L118.5 118.917L116.868 118.954ZM118.548 121.705H119.804V121.079H118.548V121.705ZM118.548 123.327H119.804V122.717H118.548V123.327ZM118.887 118.954C119.354 119.219 119.772 119.484 120.117 119.712L121.044 118.954H118.887ZM121.129 123.327H122.512V122.717H121.129V123.327ZM121.129 121.705H122.502V121.079H121.129V121.705Z" fill="#005EAE"/>
<path d="M127.249 117.428L128.839 117.534C128.65 118.426 128.384 119.3 128.044 120.147V128.16H126.576V122.86C126.396 123.188 126.192 123.501 125.966 123.798L125.277 122.208C126.319 120.802 126.996 119.16 127.249 117.428ZM128.595 120.719V119.442H136.402V120.719H128.595ZM128.797 128.086V124.206H135.777V128.123H134.298V127.715H130.249V128.086H128.797ZM129.189 119.023V117.862H135.448V119.023H129.189ZM129.189 122.24V121.079H135.448V122.224L129.189 122.24ZM129.189 123.756V122.622H135.448V123.756H129.189ZM130.249 126.454H134.298V125.394H130.249V126.454Z" fill="#005EAE"/>
<path d="M139.468 119.346H137.91V117.825H142.42V119.346H141.021C140.779 120.087 140.489 120.811 140.152 121.514H142.42V126.962H140.083V127.816H138.71V124.106C138.408 124.418 138.18 124.678 138.016 124.879L137.391 123.152C138.366 122.059 139.077 120.757 139.468 119.346ZM140.083 125.521H141.079V122.871H140.083V125.521ZM143.608 123.528H142.722V122.002H143.639V119.352H142.744V117.836H148.229V119.367H147.429V122.017H148.441V123.544H147.429V128.176H145.992V123.544H145.001C145.021 124.495 144.896 125.444 144.63 126.358C144.341 127.075 143.906 127.725 143.353 128.266L142.139 127.264C142.727 126.83 143.165 126.222 143.39 125.526C143.541 124.871 143.614 124.2 143.608 123.528ZM145.017 122.002H145.992V119.352H145.028L145.017 122.002Z" fill="#005EAE"/>
<path d="M152.882 119.744H151.52V120.905H149.93V118.429H154.218V117.449H155.876V118.429H160.185V120.708H158.595V119.739H157.122V121.021C157.122 121.286 157.17 121.456 157.27 121.514C157.532 121.598 157.808 121.629 158.081 121.604C158.537 121.604 158.797 121.546 158.866 121.445C158.915 121.256 158.944 121.063 158.95 120.867L160.44 121.207C160.46 121.65 160.391 122.094 160.238 122.51C160.09 122.765 159.417 122.892 158.23 122.892C157.469 122.943 156.705 122.884 155.961 122.717C155.717 122.595 155.601 122.298 155.601 121.821V119.739H154.403C154.361 121.042 153.931 121.97 153.136 122.521C152.287 122.957 151.351 123.198 150.396 123.226L149.617 121.869C150.476 121.874 151.33 121.73 152.14 121.445C152.601 121.185 152.85 120.618 152.882 119.744ZM153.412 124.832H150.232V123.496H153.534V122.468H155.124V123.496H158.304V123.899V124.774C158.304 125.41 158.272 125.781 158.272 125.892C158.256 126.1 158.275 126.31 158.33 126.512C158.367 126.607 158.479 126.65 158.659 126.65C158.839 126.65 159.051 126.374 159.051 125.823C159.051 125.584 159.051 125.399 159.051 125.293L160.472 125.706C160.496 126.326 160.43 126.945 160.275 127.545C160.222 127.676 160.139 127.792 160.032 127.885C159.925 127.977 159.798 128.042 159.661 128.075C159.267 128.143 158.867 128.171 158.468 128.16C157.498 128.16 156.952 128.028 156.836 127.763C156.723 127.314 156.682 126.851 156.714 126.39C156.714 126.238 156.714 125.825 156.714 125.15V124.864H155.066C154.74 126.832 153.257 128.012 150.614 128.404L149.67 127.047C150.476 126.958 151.265 126.753 152.013 126.438C152.347 126.285 152.644 126.063 152.886 125.786C153.127 125.509 153.306 125.184 153.412 124.832Z" fill="#005EAE"/>
<path d="M162.201 120.263H166.743V125.033H165.296V124.466H163.648C163.632 125.791 163.225 127.082 162.476 128.176L161.289 127.116C161.882 126.287 162.2 125.294 162.201 124.275V120.263ZM161.671 119.262V117.815H167.05V119.262H161.671ZM163.669 123.173H165.301V121.609H163.669V123.173ZM171.258 117.428L172.281 118.795C171.201 119.158 170.094 119.431 168.969 119.611V121.201H172.355V122.707H171.295V128.197H169.806V122.701H168.932C168.963 123.683 168.856 124.664 168.614 125.616C168.303 126.638 167.719 127.554 166.923 128.266L165.831 127.111C166.485 126.581 166.969 125.872 167.225 125.07C167.406 124.339 167.497 123.587 167.495 122.834V118.488C168.784 118.277 170.044 117.922 171.253 117.428H171.258Z" fill="#005EAE"/>
<path d="M75.4353 75.7117L65.7999 109.594H53.9757L42.9729 87.7956L36.8143 109.594H25.4883L35.1236 75.7117H46.7465L58.0673 96.9116L64.0138 75.7117H75.4353Z" fill="#005EAE"/>
<path d="M93.6346 106.849C92.9244 107.474 93.5074 107.172 91.8379 107.951C89.0979 109.234 85.8119 109.579 82.8545 109.626C75.9963 109.732 69.4243 107.019 71.4807 100.134C73.3834 93.8111 81.7309 93.5355 89.7127 93.1698C96.7086 92.8518 96.8411 92.29 98.0124 91.4102C99.0724 90.5993 99.0724 87.1702 94.2388 87.1702C88.9389 87.1702 87.4337 89.0252 86.9726 90.5887L75.8426 90.5092C77.0086 87.3293 78.2859 84.2606 85.6476 82.4321C88.7587 81.6477 92.7124 81.7378 95.8924 81.7378C100.821 81.7378 105.915 82.4639 108.448 84.6581C110.981 86.8522 110.393 89.3697 109.073 93.8641L106.704 101.92C105.443 106.202 105.406 106.828 105.644 109.133H94.2918L93.6346 106.849ZM92.1347 97.8391C86.9461 98.1677 83.8403 98.7401 83.1248 101.194C82.9552 101.772 83.5223 104.236 87.2376 104.236C90.4971 104.236 92.8184 103.293 94.1275 101.936C95.5426 100.473 96.0355 98.5387 96.3482 97.2296C94.9718 97.5905 93.5574 97.7862 92.1347 97.8126V97.8391Z" fill="#005EAE"/>
<path d="M144.792 87.8115C144.595 82.3684 139.253 82.1352 137.478 82.1352C134.409 82.275 131.459 83.3639 129.035 85.2516C127.164 86.9741 125.637 89.2531 124.98 93.0956C124.758 94.4312 124.334 98.5333 127.339 101.167C128.992 102.625 130.847 102.848 133.476 102.848C134.833 102.848 140.143 102.848 143.085 96.8532L154.978 96.7684C151.708 108.047 141.839 110.13 130.598 109.965C117.703 109.785 111.518 102.371 113.108 92.29C114.746 81.743 124.376 74.853 136.762 74.853C143.652 74.853 156.038 75.7328 156.823 87.8115H144.792Z" fill="#005EAE"/>
<path d="M174.999 71.0001L165.629 104.565C165.607 104.649 165.615 104.737 165.652 104.816C165.689 104.894 165.752 104.957 165.83 104.994H170.43L169.121 109.6C169.121 109.6 161.293 109.87 159.513 108.815C157.562 107.729 157.032 105.243 157 102.858C156.947 101.395 163.488 78.6427 163.488 78.6427C163.488 78.6427 163.843 77.8795 163.488 77.8795H161.05L162.767 70.9895L174.999 71.0001Z" fill="#005EAE"/>
</g>
<defs>
<clipPath id="clip0_835_2832">
<rect width="150" height="57.3776" fill="white" transform="translate(25 71)"/>
</clipPath>
</defs>
</svg>
