<?xml version="1.0" encoding="UTF-8"?>
<svg id="Layer_2" data-name="Layer 2" xmlns="http://www.w3.org/2000/svg" viewBox="0 0 303.02 127.91">
  <defs>
    <style>
      .cls-1 {
        fill: #fff;
      }

      .cls-2 {
        fill: #005eae;
      }
    </style>
  </defs>
  <g id="_レイヤー_1" data-name="レイヤー 1">
    <g>
      <rect class="cls-1" x="87.55" y="-87.55" width="127.91" height="303.02" transform="translate(215.47 -87.55) rotate(90)"/>
      <g>
        <g>
          <path class="cls-2" d="M22.86,103.91h-10.72v-2.95h6.36v-3.35h3.17v3.35h5.78v1.82c-1.43,1.89-2.84,3.41-4.23,4.58,2.95,1.22,5.15,2.41,6.63,3.57l-2.07,2.63c-2.37-1.75-4.41-3.07-6.12-3.95v7.86h-3.06v-6.74c-1.9,1.11-4.1,2.01-6.58,2.72l-2.02-2.92c5.17-.98,9.46-3.18,12.86-6.62Z"/>
          <path class="cls-2" d="M32.13,103.73l2.67-.93c1.11,1.77,1.98,3.75,2.61,5.95l-2.73,1.08c-.59-2.08-1.46-4.12-2.56-6.1ZM44.92,102.27l2.92.79c-.13,1.85-.46,3.74-.99,5.66-1.26,4.76-5.02,7.64-11.29,8.66l-1.59-2.88c1.61-.02,3.33-.38,5.13-1.1,2.34-.92,3.97-2.7,4.88-5.35.41-1.2.72-3.13.94-5.77ZM37.53,102.6l2.6-.85c.96,1.99,1.7,4.04,2.2,6.13l-2.65,1.08c-.61-2.5-1.34-4.62-2.15-6.36Z"/>
          <path class="cls-2" d="M53.16,117v-19.07h3.37v5.57c4.86,1.56,8.49,3.07,10.89,4.54l-1.89,2.99c-3-1.81-5.99-3.26-9-4.34v10.3h-3.37Z"/>
          <path class="cls-2" d="M70.67,108.41v-9.15h17.37c0,3.56-.24,6.37-.72,8.45-1.17,5.92-5.71,9.07-13.65,9.44l-1.69-3.24c5.18-.09,8.67-1.27,10.46-3.53,1.29-1.53,1.96-4.22,2-8.06h-10.48v6.09h-3.29Z"/>
          <path class="cls-2" d="M91.14,109.16v-3.2h16.7v3.2h-16.7Z"/>
          <path class="cls-2" d="M117.38,97.74l3.58.2c-.19.77-.45,1.53-.75,2.27h8.76c-.41,4.74-1.7,8.52-3.89,11.31-2.05,2.67-5.78,4.64-11.18,5.93l-1.96-3.01c3.93-.74,6.81-1.83,8.64-3.26,2.36-1.69,3.86-4.35,4.52-7.97h-6.34c-1.38,2.6-3.25,4.81-5.6,6.63l-2.14-2.61c2.01-1.59,3.46-3.13,4.34-4.62.8-1.35,1.47-2.97,2.02-4.87Z"/>
          <path class="cls-2" d="M133.14,99.48h7.75v-2.05h3.28v2.05h7.36v2.78h-15.4v3.77c-.04,2.94-.2,5.04-.47,6.32-.4,1.87-1.02,3.56-1.86,5.08l-2.48-2.14c1.22-2.13,1.82-4.41,1.82-6.84v-8.97ZM137.33,106.37l2.55,1.1c-.41,4.06-1.02,7.12-1.83,9.17l-2.5-1.6c.91-1.99,1.5-4.88,1.77-8.67ZM140.22,104.12l2.05-1.79c2.04,1.01,3.71,2.24,5.04,3.66l-2.12,2.29c-1.35-1.56-3.01-2.94-4.97-4.15ZM140.39,106.41h2.87v7.51c0,.44.16.67.48.67.82,0,1.27-.12,1.34-.39.09-.29.15-1.11.21-2.44l2.51.92c-.03,2.02-.14,3.26-.36,3.73-.19.4-.54.68-1.04.81-.51.13-1.41.21-2.74.21-1.44,0-2.35-.11-2.72-.34-.36-.19-.54-.7-.54-1.5v-9.17ZM146.58,107.94l2.61-1.08c1.36,2.46,2.29,5.14,2.79,8l-2.86,1.32c-.3-2.38-1.15-5.14-2.54-8.24Z"/>
          <path class="cls-2" d="M156.21,98.24h18.02v16.88c0,.92-.13,1.53-.38,1.83-.38.46-1.14.69-2.28.69-.51,0-1.42-.02-2.73-.07l-1.1-2.93c.52,0,.87,0,1.01.01.56.02,1,.03,1.33.03.79,0,1.19-.3,1.19-.9v-2.85h-4.94v6.13h-2.96v-6.13h-4.31c-.07,2.51-.83,4.79-2.28,6.83l-2.43-2.03c1.2-1.77,1.82-4.16,1.84-7.13v-10.38ZM159.17,103.41h4.21v-2.52h-4.21v2.52ZM159.17,108.37h4.21v-2.49h-4.21v2.49ZM166.34,103.41h4.94v-2.52h-4.94v2.52ZM166.34,108.37h4.94v-2.49h-4.94v2.49Z"/>
          <path class="cls-2" d="M177.01,114.28c1.18-.8,2.08-1.47,2.71-2.03v-4.59h-2.42v-2.92h5.29v7.76c.41.72.99,1.26,1.76,1.62.71.33,2.22.5,4.55.5,3.33,0,6.4-.12,9.21-.35l-1.45,3.26c-1.56.03-2.98.04-4.25.04-4.71,0-7.54-.2-8.48-.6-.99-.41-1.9-1.23-2.73-2.45-.8,1.1-1.65,2.1-2.52,3.01l-1.66-3.26ZM177.52,99.22l2.24-1.79c1.5,1.42,2.67,2.65,3.52,3.68l-2.31,2.07c-1-1.4-2.15-2.71-3.45-3.96ZM183.34,100.27v-2.33h12.57v1.44c-1.26.94-2.65,1.94-4.17,2.97h4.98v9.57c0,.98-.36,1.6-1.08,1.83-.44.14-1.06.2-1.87.2-.22,0-.53-.01-.94-.03l-.74-2.35c.54.02.91.04,1.13.04.53,0,.79-.16.79-.48v-.69h-2.59v3.24h-2.53v-3.24h-2.37v3.37h-2.63v-11.45h2.66l-1.46-.93,1.37-1.15h-3.11ZM186.51,105.47h2.37v-1.15h-2.37v1.15ZM186.51,108.53h2.37v-1.16h-2.37v1.16ZM187.15,100.27c.89.5,1.67.98,2.33,1.42l1.75-1.42h-4.07ZM191.38,108.53h2.61v-1.16h-2.61v1.16ZM191.41,105.47h2.59v-1.15h-2.59v1.15Z"/>
          <path class="cls-2" d="M202.93,97.43l2.98.2c-.37,1.74-.87,3.38-1.5,4.93v15.13h-2.77v-10c-.37.67-.76,1.26-1.15,1.77l-1.3-2.97c1.8-2.24,3.05-5.26,3.74-9.06ZM205.46,103.65v-2.41h14.73v2.41h-14.73ZM205.85,117.54v-7.32h13.16v7.39h-2.79v-.77h-7.64v.7h-2.74ZM206.59,100.45v-2.19h11.8v2.19h-11.8ZM206.59,106.51v-2.16h11.8v2.16h-11.8ZM206.59,109.37v-2.13h11.8v2.13h-11.8ZM208.59,114.46h7.64v-1.97h-7.64v1.97Z"/>
          <path class="cls-2" d="M225.99,101.05h-2.95v-2.87h8.52v2.87h-2.64c-.51,1.53-1.05,2.89-1.64,4.09h4.28v10.29h-4.41v1.6h-2.59v-7.05c-.57.6-1,1.09-1.32,1.46l-1.18-3.26c1.59-1.63,2.91-4.01,3.92-7.13ZM227.14,112.7h1.88v-4.97h-1.88v4.97ZM233.79,108.94h-1.67v-2.88h1.74v-5.04h-1.69v-2.86h10.35v2.89h-1.51v5.02h1.91v2.88h-1.91v8.74h-2.73v-8.74h-1.87c-.03,2.33-.27,4.09-.69,5.31-.49,1.25-1.28,2.45-2.41,3.6l-2.29-1.89c1.2-.96,1.99-2.05,2.36-3.28.23-.7.37-1.95.43-3.74ZM236.45,106.07h1.83v-5.04h-1.83v5.04Z"/>
          <path class="cls-2" d="M251.31,101.8h-2.58v2.19h-2.98v-4.66h8.09v-1.85h3.13v1.85h8.12v4.3h-2.99v-1.83h-2.8v2.42c0,.5.09.82.28.94.17.1.68.16,1.53.16s1.35-.1,1.48-.29c.04-.09.1-.46.16-1.1l2.8.65c-.04,1.3-.17,2.12-.38,2.46-.28.48-1.55.72-3.79.72s-3.77-.11-4.28-.33c-.46-.23-.68-.79-.68-1.69v-3.93h-2.26c-.08,2.46-.89,4.21-2.38,5.25-1.04.66-2.76,1.1-5.18,1.32l-1.47-2.55c2.47-.15,4.05-.42,4.76-.81.85-.5,1.32-1.57,1.4-3.22ZM252.28,111.4h-6.02v-2.52h6.23v-1.94h3v1.94h6l-.03.76-.04,1.65c-.04,1.19-.06,1.9-.06,2.11,0,.63.03,1.01.11,1.16.08.18.28.27.62.27.49,0,.74-.52.74-1.56,0-.45.02-.79.02-1.03l2.68.79c-.03,1.76-.16,2.92-.38,3.47-.22.5-.6.82-1.16.97-.45.1-1.2.16-2.25.16-1.83,0-2.86-.25-3.08-.74-.16-.34-.23-1.21-.23-2.59,0-.3,0-1.08.03-2.34v-.54h-3.11c-.61,3.71-3.41,5.93-8.4,6.68l-1.79-2.56c1.86-.25,3.33-.64,4.42-1.15,1.35-.65,2.25-1.63,2.69-2.97Z"/>
          <path class="cls-2" d="M268.87,102.78h8.57v9.04h-2.73v-1.07h-3.12c-.17,2.95-.91,5.3-2.21,7.02l-2.23-2.05c1.13-1.59,1.7-3.38,1.71-5.36v-7.58ZM267.86,100.9v-2.73h10.15v2.73h-10.15ZM271.63,108.27h3.08v-2.92h-3.08v2.92ZM285.95,97.43l1.93,2.59c-1.43.52-3.51,1.04-6.25,1.53v2.99h6.38v2.84h-1.98v10.36h-2.81v-10.36h-1.65c.02,2.2-.19,4.03-.6,5.5-.54,1.84-1.6,3.5-3.19,4.97l-2.06-2.18c1.34-1.16,2.21-2.44,2.64-3.85.28-.95.45-2.37.51-4.22v-8.2c1.91-.25,4.28-.91,7.08-1.97Z"/>
        </g>
        <g>
          <path class="cls-2" d="M105.16,18.72l-18.18,63.93h-22.31l-20.76-41.13-11.57,41.13H10.92L29.1,18.72h21.93l21.36,40.01,11.22-40.01h21.55Z"/>
          <path class="cls-2" d="M139.51,77.47c-1.34,1.18-.25.61-3.39,2.08-5.17,2.43-11.37,3.07-16.95,3.16-12.94.2-25.35-4.92-21.46-17.91,3.58-11.92,19.34-12.44,34.4-13.13,13.19-.61,13.45-1.66,15.66-3.32,2.05-1.53,2.03-7.96-7.13-7.96-10.01,0-12.84,3.49-13.71,6.45l-20.96-.15c2.2-6.01,4.61-11.78,18.5-15.24,5.87-1.48,13.33-1.31,19.34-1.31,9.3,0,18.91,1.38,23.69,5.52,4.67,4.05,3.67,8.88,1.18,17.37l-4.47,15.2c-2.39,8.08-2.45,9.27-2.02,13.61h-21.45l-1.24-4.35ZM136.67,60.42c-9.78.62-15.65,1.7-17.01,6.33-.32,1.09.75,5.74,7.76,5.74,6.15,0,10.52-1.78,12.99-4.34,2.67-2.76,3.6-6.41,4.18-8.88-1.86.5-3.24.85-7.93,1.15Z"/>
          <path class="cls-2" d="M236.02,41.56c-.37-10.27-10.45-10.71-13.8-10.71-5.76,0-12.82,3.15-15.91,5.89-3.53,3.25-6.41,7.55-7.65,14.79-.43,2.53-1.23,10.26,4.45,15.23,3.12,2.75,6.62,3.17,11.58,3.17,2.56,0,12.58,0,18.12-11.31l22.45-.15c-6.17,21.28-24.79,25.2-45.99,24.89-24.33-.34-36-14.33-33.04-33.34,3.09-19.9,21.26-32.9,44.63-32.9,12.96,0,36.38,1.66,37.86,24.45h-22.7Z"/>
          <path class="cls-2" d="M293.02,9.83l-17.68,63.34c-.03.35.06.69.38.81h8.68s-2.47,8.67-2.47,8.67c0,0-14.77.51-18.14-1.48-3.68-2.05-4.68-6.74-4.74-11.24-.1-2.76,12.24-45.69,12.24-45.69,0,0,.68-1.44-.03-1.44l-4.6.02,3.24-13h23.12Z"/>
        </g>
      </g>
    </g>
  </g>
</svg>