<svg width="200" height="200" viewBox="0 0 200 200" fill="none" xmlns="http://www.w3.org/2000/svg">
<rect width="200" height="200" fill="white"/>
<path d="M59.1614 141.6C60.0765 141.194 60.9128 140.629 61.6318 139.933C62.3116 139.225 62.8802 138.418 63.3182 137.539C63.8733 136.382 64.139 135.107 64.0926 133.824C64.1072 132.655 63.8896 131.494 63.4526 130.409C63.0336 129.402 62.4141 128.491 61.6318 127.731C60.8159 126.955 59.8545 126.348 58.803 125.945C57.6453 125.507 56.4154 125.29 55.1774 125.305H44.2398C44.1526 125.305 44.0661 125.322 43.9853 125.355C43.9046 125.388 43.8312 125.437 43.7694 125.498C43.7075 125.56 43.6584 125.633 43.6249 125.714C43.5915 125.794 43.5742 125.881 43.5742 125.968V151.177C43.5742 151.36 43.6467 151.535 43.7757 151.664C43.9048 151.793 44.0798 151.865 44.2622 151.865H47.6638C47.8403 151.865 48.0096 151.795 48.1345 151.671C48.2593 151.546 48.3294 151.376 48.3294 151.2V142.377H54.2398L59.2702 151.357C59.3568 151.511 59.4827 151.639 59.6351 151.728C59.7874 151.818 59.9608 151.865 60.1374 151.865H63.7374C63.8529 151.865 63.9664 151.835 64.0666 151.778C64.1669 151.72 64.2505 151.638 64.3092 151.539C64.368 151.439 64.3998 151.326 64.4017 151.211C64.4036 151.095 64.3753 150.981 64.3198 150.88L59.1614 141.6ZM57.8078 136.857C57.4382 137.236 56.995 137.534 56.5054 137.734C56.0151 137.933 55.4888 138.028 54.9598 138.013H48.3294V129.667H54.9598C55.4887 129.654 56.0147 129.749 56.5048 129.949C56.9949 130.148 57.4385 130.447 57.8078 130.825C58.5398 131.66 58.9434 132.732 58.9434 133.841C58.9434 134.951 58.5398 136.023 57.8078 136.857Z" fill="#003057"/>
<path d="M84.3774 133.981C83.4753 133.045 82.3948 132.3 81.1998 131.789C79.9296 131.238 78.5585 130.959 77.1742 130.97C75.7523 130.96 74.3437 131.245 73.0366 131.805C71.7727 132.352 70.6231 133.133 69.6478 134.105C68.6758 135.086 67.8993 136.243 67.3598 137.514C66.8104 138.819 66.5273 140.221 66.5273 141.637C66.5273 143.053 66.8104 144.455 67.3598 145.76C68.2104 147.711 69.6145 149.369 71.3982 150.53C73.1819 151.691 75.2669 152.303 77.395 152.291C78.6826 152.314 79.9653 152.128 81.1934 151.741C82.1296 151.437 83.0291 151.031 83.875 150.528C84.4599 150.19 84.9978 149.777 85.475 149.299C85.6195 149.154 85.7055 148.961 85.7168 148.757C85.728 148.553 85.6636 148.352 85.5358 148.192L83.8174 146.08C83.7473 145.992 83.6599 145.919 83.5607 145.866C83.4615 145.814 83.3525 145.782 83.2404 145.772C83.1283 145.763 83.0156 145.777 82.909 145.812C82.8024 145.848 82.7043 145.906 82.6206 145.981C82.3428 146.228 82.0465 146.454 81.7342 146.656C81.1807 147.003 80.5918 147.291 79.9774 147.514C78.4761 148.029 76.8478 148.044 75.3374 147.555C74.1057 147.143 73.061 146.306 72.3902 145.194C72.0777 144.678 71.8609 144.11 71.7502 143.517H86.1118C86.3559 143.517 86.5914 143.427 86.7737 143.265C86.956 143.103 87.0724 142.879 87.1006 142.637C87.1262 142.413 87.1518 142.205 87.1646 142.102C87.1995 141.805 87.2134 141.506 87.2062 141.206C87.217 139.84 86.9615 138.485 86.4542 137.216C85.9741 136.015 85.2692 134.917 84.3774 133.981ZM71.7406 139.552C72.0098 138.437 72.6152 137.431 73.475 136.672C74.4641 135.894 75.7036 135.505 76.9598 135.577C78.1604 135.52 79.3389 135.915 80.2622 136.685C81.1152 137.447 81.7139 138.452 81.9774 139.565L71.7406 139.552Z" fill="#003057"/>
<path d="M107.36 133.309C106.669 132.563 105.828 131.972 104.893 131.574C103.927 131.167 102.888 130.961 101.84 130.966C100.934 130.947 100.036 131.126 99.2065 131.491C98.532 131.79 97.8994 132.177 97.3249 132.64C96.7457 133.136 96.227 133.699 95.7793 134.317H95.5681V132.051C95.5681 131.875 95.4983 131.707 95.3741 131.583C95.2499 131.458 95.0814 131.389 94.9057 131.389H91.4273C91.3401 131.388 91.2536 131.405 91.1728 131.438C91.0921 131.471 91.0187 131.52 90.9569 131.582C90.895 131.643 90.8459 131.716 90.8124 131.797C90.779 131.877 90.7617 131.964 90.7617 132.051V151.2C90.7617 151.376 90.8318 151.546 90.9567 151.67C91.0815 151.795 91.2508 151.865 91.4273 151.865H94.9089C95.0849 151.865 95.2534 151.794 95.3775 151.669C95.5016 151.545 95.5713 151.376 95.5713 151.2V140.989C95.5414 140.293 95.6502 139.598 95.8913 138.944C96.131 138.29 96.4999 137.692 96.9761 137.184C97.4491 136.71 98.0151 136.338 98.6385 136.093C99.2618 135.848 99.9292 135.735 100.599 135.76C101.159 135.738 101.718 135.832 102.239 136.038C102.761 136.243 103.234 136.555 103.629 136.953C104.394 137.747 104.778 138.707 104.778 140.403V151.219C104.778 151.395 104.848 151.563 104.972 151.687C105.096 151.812 105.264 151.881 105.44 151.881H108.922C109.098 151.881 109.267 151.812 109.391 151.688C109.516 151.563 109.586 151.395 109.587 151.219V139.753C109.603 138.501 109.405 137.256 109.002 136.07C108.646 135.048 108.088 134.109 107.36 133.309Z" fill="#003057"/>
<path d="M134.233 133.622H130.787C130.419 133.622 130.121 133.92 130.121 134.288V151.216C130.121 151.584 130.419 151.882 130.787 151.882H134.233C134.601 151.882 134.899 151.584 134.899 151.216V134.288C134.899 133.92 134.601 133.622 134.233 133.622Z" fill="#003057"/>
<path d="M124.889 147.424C124.346 147.587 123.784 147.676 123.218 147.686C122.849 147.715 122.479 147.653 122.14 147.504C121.797 147.364 121.488 147.152 121.234 146.883C120.745 146.352 120.501 145.533 120.501 144.435V136.003H124.444C124.62 136.003 124.789 135.933 124.913 135.809C125.038 135.685 125.109 135.517 125.109 135.341V132.07C125.109 131.894 125.039 131.724 124.914 131.6C124.79 131.475 124.62 131.405 124.444 131.405H120.511V126.006C120.511 125.918 120.494 125.831 120.46 125.75C120.426 125.669 120.376 125.596 120.314 125.534C120.251 125.473 120.177 125.424 120.095 125.391C120.014 125.359 119.927 125.343 119.839 125.344H116.78C116.604 125.344 116.435 125.413 116.31 125.538C116.186 125.662 116.115 125.83 116.114 126.006V129.251C116.114 130.713 115.573 131.405 114.025 131.405H112.607C112.43 131.405 112.261 131.475 112.136 131.6C112.012 131.724 111.941 131.894 111.941 132.07V135.341C111.942 135.517 112.013 135.685 112.137 135.809C112.262 135.933 112.431 136.003 112.607 136.003H115.695V145.011C115.695 147.381 116.273 149.189 117.429 150.435C118.586 151.681 120.168 152.304 122.175 152.304C122.658 152.3 123.14 152.265 123.618 152.198C123.992 152.156 124.362 152.086 124.725 151.99L125.154 151.856C125.321 151.801 125.466 151.695 125.569 151.553C125.672 151.412 125.727 151.241 125.727 151.065V148.064C125.727 147.962 125.703 147.861 125.657 147.77C125.612 147.679 125.546 147.599 125.465 147.538C125.384 147.476 125.29 147.433 125.19 147.414C125.09 147.394 124.987 147.397 124.889 147.424Z" fill="#003057"/>
<path d="M149.397 130.966C147.287 130.964 145.223 131.589 143.467 132.76C141.712 133.931 140.343 135.596 139.534 137.546C138.725 139.495 138.512 141.64 138.923 143.711C139.333 145.781 140.349 147.683 141.84 149.176C143.332 150.669 145.233 151.686 147.303 152.098C149.372 152.511 151.518 152.3 153.468 151.493C155.418 150.686 157.085 149.318 158.258 147.563C159.43 145.809 160.056 143.746 160.056 141.635C160.04 138.812 158.911 136.11 156.916 134.113C154.921 132.116 152.22 130.986 149.397 130.966ZM149.397 147.702C145.765 147.702 143.541 144.867 143.541 141.622C143.541 138.378 145.727 135.542 149.397 135.542C153.068 135.542 155.25 138.374 155.25 141.622C155.25 144.87 153.029 147.702 149.397 147.702Z" fill="#003057"/>
<path d="M132.507 130.586C134.092 130.586 135.378 129.3 135.378 127.715C135.378 126.13 134.092 124.845 132.507 124.845C130.922 124.845 129.637 126.13 129.637 127.715C129.637 129.3 130.922 130.586 132.507 130.586Z" fill="#003057"/>
<path d="M126.333 82.736H120.34C119.987 82.736 119.648 82.8763 119.398 83.1259C119.149 83.3756 119.008 83.7142 119.008 84.0672V104.042H89.6933V84.1504C89.6927 83.7031 89.6024 83.2605 89.4276 82.8488C89.2528 82.4371 88.9971 82.0646 88.6757 81.7536L68.2981 62.0768C68.1408 61.9247 67.9551 61.8051 67.7515 61.7248C67.548 61.6446 67.3306 61.6053 67.1118 61.6091C66.8931 61.613 66.6772 61.66 66.4766 61.7474C66.276 61.8347 66.0947 61.9608 65.9429 62.1184L62.2437 65.9584C61.9374 66.2759 61.7698 66.702 61.7776 67.143C61.7854 67.5841 61.968 68.0039 62.2853 68.3104L81.0373 86.4224V111.382C81.0373 111.735 81.1775 112.074 81.4272 112.324C81.6768 112.573 82.0154 112.714 82.3685 112.714H126.333C126.686 112.714 127.025 112.573 127.275 112.324C127.524 112.074 127.664 111.735 127.664 111.382V84.0672C127.664 83.7142 127.524 83.3756 127.275 83.1259C127.025 82.8763 126.686 82.736 126.333 82.736Z" fill="#003057"/>
<path d="M103.163 81.44C100.107 75.2832 91.8223 66.9984 85.6655 63.9424C85.4412 63.8326 85.2523 63.6621 85.1202 63.4502C84.988 63.2384 84.918 62.9937 84.918 62.744C84.918 62.4943 84.988 62.2497 85.1202 62.0378C85.2523 61.826 85.4412 61.6554 85.6655 61.5456C91.8223 58.4864 100.107 50.2048 103.163 44.048C103.273 43.8238 103.443 43.6349 103.655 43.5027C103.867 43.3706 104.112 43.3005 104.361 43.3005C104.611 43.3005 104.856 43.3706 105.068 43.5027C105.28 43.6349 105.45 43.8238 105.56 44.048C108.619 50.2048 116.901 58.4864 123.057 61.5456C123.282 61.6554 123.471 61.826 123.603 62.0378C123.735 62.2497 123.805 62.4943 123.805 62.744C123.805 62.9937 123.735 63.2384 123.603 63.4502C123.471 63.6621 123.282 63.8326 123.057 63.9424C116.901 66.9984 108.619 75.2832 105.56 81.44C105.45 81.6643 105.28 81.8532 105.068 81.9853C104.856 82.1175 104.611 82.1875 104.361 82.1875C104.112 82.1875 103.867 82.1175 103.655 81.9853C103.443 81.8532 103.273 81.6643 103.163 81.44Z" fill="#00B5E2"/>
</svg>
