<svg width="200" height="200" viewBox="0 0 200 200" fill="none" xmlns="http://www.w3.org/2000/svg">
<rect width="200" height="200" fill="white"/>
<g clip-path="url(#clip0_835_3220)">
<path d="M136.833 35H63.1667C47.6106 35 35 47.6106 35 63.1667V136.833C35 152.389 47.6106 165 63.1667 165H136.833C152.389 165 165 152.389 165 136.833V63.1667C165 47.6106 152.389 35 136.833 35Z" fill="url(#paint0_linear_835_3220)"/>
<path d="M146.599 96.9668C144.606 82.6668 126.911 63.6434 98.557 64.4668C68.2237 65.3334 53.0137 87.2456 53.2448 103.77C53.4614 119.659 65.9415 137.325 89.1537 141.773C90.5981 150.44 82.6537 154.976 78.3926 157.662C96.8959 152.953 117.927 145.63 134.076 131.085C142.54 123.4 147.22 115.932 147.249 104.507C147.282 102.857 147.209 101.207 147.033 99.5668C146.946 98.6568 146.715 97.8334 146.599 96.9668Z" fill="white"/>
<path fill-rule="evenodd" clip-rule="evenodd" d="M82.4055 91.4632H78.3322C78.041 91.4632 77.7618 91.5789 77.5559 91.7848C77.35 91.9907 77.2344 92.2699 77.2344 92.561V114.517C77.2344 114.808 77.35 115.087 77.5559 115.293C77.7618 115.499 78.041 115.614 78.3322 115.614H82.4055C82.6966 115.614 82.9759 115.499 83.1817 115.293C83.3876 115.087 83.5033 114.808 83.5033 114.517V92.561C83.5033 92.2699 83.3876 91.9907 83.1817 91.7848C82.9759 91.5789 82.6966 91.4632 82.4055 91.4632ZM122.157 91.2466H118.098C117.807 91.2466 117.527 91.3622 117.321 91.5681C117.116 91.774 117 92.0532 117 92.3444V114.3C117 114.591 117.116 114.87 117.321 115.076C117.527 115.282 117.807 115.398 118.098 115.398H122.157C122.448 115.398 122.727 115.282 122.933 115.076C123.139 114.87 123.254 114.591 123.254 114.3V92.3444C123.254 92.0532 123.139 91.774 122.933 91.5681C122.727 91.3622 122.448 91.2466 122.157 91.2466ZM107.221 91.2466H106.773C106.482 91.2466 106.203 91.3622 105.997 91.5681C105.791 91.774 105.675 92.0532 105.675 92.3444V114.3C105.675 114.591 105.791 114.87 105.997 115.076C106.203 115.282 106.482 115.398 106.773 115.398H107.221C107.512 115.398 107.791 115.282 107.997 115.076C108.203 114.87 108.319 114.591 108.319 114.3V92.3444C108.319 92.0532 108.203 91.774 107.997 91.5681C107.791 91.3622 107.512 91.2466 107.221 91.2466ZM102.281 91.2466H101.833C101.542 91.2466 101.263 91.3622 101.057 91.5681C100.851 91.774 100.735 92.0532 100.735 92.3444V114.3C100.735 114.591 100.851 114.87 101.057 115.076C101.263 115.282 101.542 115.398 101.833 115.398H102.281C102.572 115.398 102.851 115.282 103.057 115.076C103.263 114.87 103.379 114.591 103.379 114.3V92.3444C103.379 92.1952 103.349 92.0476 103.29 91.9105C103.231 91.7734 103.145 91.6497 103.037 91.5469C102.929 91.4442 102.801 91.3646 102.661 91.313C102.521 91.2613 102.372 91.2387 102.223 91.2466H102.281ZM89.4255 91.2466H88.9777C88.6866 91.2466 88.4073 91.3622 88.2015 91.5681C87.9956 91.774 87.8799 92.0532 87.8799 92.3444V114.3C87.8799 114.591 87.9956 114.87 88.2015 115.076C88.4073 115.282 88.6866 115.398 88.9777 115.398H89.4255C89.7166 115.398 89.9959 115.282 90.2017 115.076C90.4076 114.87 90.5233 114.591 90.5233 114.3V92.3444C90.5235 92.1952 90.4933 92.0476 90.4345 91.9105C90.3758 91.7734 90.2897 91.6497 90.1816 91.5469C90.0734 91.4442 89.9455 91.3646 89.8056 91.313C89.6656 91.2613 89.5167 91.2387 89.3677 91.2466H89.4255ZM113.981 91.2466H113.533C113.241 91.2466 112.96 91.3617 112.752 91.5672C112.544 91.7727 112.425 92.0519 112.421 92.3444V114.3C112.425 114.592 112.544 114.872 112.752 115.077C112.96 115.283 113.241 115.398 113.533 115.398H113.981C114.272 115.398 114.551 115.282 114.757 115.076C114.963 114.87 115.079 114.591 115.079 114.3V92.3444C115.08 92.1899 115.048 92.0371 114.986 91.8957C114.923 91.7544 114.832 91.6278 114.718 91.5242C114.603 91.4206 114.468 91.3423 114.321 91.2945C114.174 91.2466 114.019 91.2303 113.865 91.2466H113.981ZM97.8899 91.2466H93.7155C93.4243 91.2466 93.1451 91.3622 92.9392 91.5681C92.7334 91.774 92.6177 92.0532 92.6177 92.3444V114.3C92.6177 114.591 92.7334 114.87 92.9392 115.076C93.1451 115.282 93.4243 115.398 93.7155 115.398H97.7744C98.0655 115.398 98.3447 115.282 98.5506 115.076C98.7565 114.87 98.8722 114.591 98.8722 114.3V92.3444C98.8722 92.0532 98.7565 91.774 98.5506 91.5681C98.3447 91.3622 98.0655 91.2466 97.7744 91.2466H97.8899Z" fill="url(#paint1_linear_835_3220)"/>
<path fill-rule="evenodd" clip-rule="evenodd" d="M77.4941 84.429H69.3185C69.0465 84.429 68.7857 84.537 68.5933 84.7293C68.401 84.9217 68.293 85.1825 68.293 85.4545V93.6301C68.293 93.7641 68.3196 93.8967 68.3713 94.0204C68.423 94.144 68.4988 94.2561 68.5942 94.3502C68.6896 94.4443 68.8028 94.5184 68.9272 94.5684C69.0515 94.6183 69.1845 94.6431 69.3185 94.6412C69.5867 94.6412 69.8439 94.5346 70.0335 94.345C70.2231 94.1554 70.3296 93.8982 70.3296 93.6301V86.509H77.4507C77.7189 86.509 77.9761 86.4024 78.1657 86.2128C78.3553 86.0232 78.4619 85.766 78.4619 85.4978C78.4696 85.3639 78.4507 85.2297 78.4061 85.1031C78.3614 84.9765 78.2921 84.8601 78.202 84.7606C78.1119 84.6611 78.0029 84.5805 77.8814 84.5236C77.7598 84.4667 77.6282 84.4345 77.4941 84.429ZM77.4941 120.02H70.373V112.913C70.3749 112.779 70.3501 112.646 70.3002 112.522C70.2502 112.398 70.1761 112.285 70.082 112.189C69.9879 112.094 69.8758 112.018 69.7522 111.966C69.6285 111.914 69.4959 111.888 69.3619 111.888C69.2272 111.888 69.0938 111.914 68.9694 111.966C68.845 112.017 68.7319 112.093 68.6367 112.188C68.5415 112.283 68.4659 112.397 68.4144 112.521C68.3628 112.645 68.3363 112.779 68.3363 112.913V121.089C68.3363 121.361 68.4444 121.622 68.6367 121.814C68.829 122.006 69.0899 122.115 69.3619 122.115H77.5374C77.6714 122.115 77.8041 122.088 77.9277 122.036C78.0513 121.984 78.1635 121.909 78.2575 121.813C78.3516 121.718 78.4258 121.605 78.4757 121.48C78.5257 121.356 78.5504 121.223 78.5485 121.089C78.5568 120.948 78.5352 120.806 78.4853 120.674C78.4355 120.541 78.3583 120.421 78.2589 120.32C78.1595 120.219 78.0401 120.141 77.9084 120.089C77.7766 120.037 77.6355 120.014 77.4941 120.02ZM131.184 111.888C131.049 111.888 130.916 111.914 130.792 111.966C130.667 112.017 130.554 112.093 130.459 112.188C130.364 112.283 130.288 112.397 130.237 112.521C130.185 112.645 130.159 112.779 130.159 112.913V120.02H123.009C122.737 120.02 122.476 120.128 122.283 120.32C122.091 120.513 121.983 120.774 121.983 121.046C121.983 121.318 122.091 121.578 122.283 121.771C122.476 121.963 122.737 122.071 123.009 122.071H131.184C131.456 122.071 131.717 121.963 131.909 121.771C132.102 121.578 132.21 121.318 132.21 121.046V112.913C132.21 112.779 132.183 112.645 132.132 112.521C132.08 112.397 132.004 112.283 131.909 112.188C131.814 112.093 131.701 112.017 131.577 111.966C131.452 111.914 131.319 111.888 131.184 111.888ZM131.184 84.4434H123.009C122.737 84.4434 122.476 84.5514 122.283 84.7438C122.091 84.9361 121.983 85.197 121.983 85.469C121.983 85.603 122.01 85.7356 122.061 85.8593C122.113 85.9829 122.189 86.095 122.284 86.1891C122.38 86.2832 122.493 86.3573 122.617 86.4073C122.741 86.4572 122.875 86.482 123.009 86.4801H130.115V93.6012C130.115 93.7352 130.142 93.8679 130.194 93.9915C130.245 94.1151 130.321 94.2272 130.416 94.3213C130.512 94.4154 130.625 94.4895 130.749 94.5395C130.874 94.5895 131.007 94.6142 131.141 94.6123C131.275 94.6142 131.408 94.5895 131.532 94.5395C131.656 94.4895 131.77 94.4154 131.865 94.3213C131.96 94.2272 132.036 94.1151 132.088 93.9915C132.14 93.8679 132.166 93.7352 132.166 93.6012V85.4545C132.167 85.1899 132.064 84.9354 131.881 84.7442C131.698 84.5531 131.448 84.4401 131.184 84.429V84.4434Z" fill="url(#paint2_linear_835_3220)"/>
<path d="M82.0584 55.1356H85.554C84.9494 56.5364 83.9443 57.7274 82.6651 58.5589C81.2509 59.5287 79.5696 60.0336 77.8551 60.0034C75.5565 60.0034 73.3521 59.0903 71.7268 57.465C70.1015 55.8396 69.1884 53.6352 69.1884 51.3367C69.1715 50.1951 69.3898 49.0622 69.8296 48.0085C70.2695 46.9549 70.9215 46.003 71.7451 45.2123C73.1454 43.8038 74.987 42.919 76.9617 42.706C78.9364 42.493 80.9244 42.9647 82.5929 44.0423C84.0012 44.9257 85.109 46.2149 85.7706 47.74H82.2317C81.7256 47.0658 81.072 46.5162 80.321 46.1332C79.57 45.7502 78.7414 45.5439 77.8984 45.53C77.1355 45.511 76.3772 45.653 75.6729 45.9466C74.9686 46.2403 74.334 46.6791 73.8106 47.2345C73.2777 47.7741 72.8586 48.4153 72.5782 49.1199C72.2978 49.8246 72.1619 50.5785 72.1784 51.3367C72.1659 52.0982 72.3079 52.8544 72.5959 53.5595C72.8839 54.2646 73.3119 54.9039 73.854 55.4389C74.3784 55.9889 75.0111 56.4242 75.7122 56.7176C76.4132 57.0109 77.1675 57.1559 77.9273 57.1434C78.7226 57.141 79.507 56.9592 80.2223 56.6116C80.9376 56.2639 81.5652 55.7594 82.0584 55.1356Z" fill="white"/>
<path d="M86.5673 51.3655C86.5504 50.2238 86.7687 49.0909 87.2086 48.0373C87.6484 46.9836 88.3004 46.0318 89.124 45.241C89.9302 44.4243 90.8905 43.7759 91.9493 43.3333C93.0081 42.8907 94.1442 42.6628 95.2918 42.6628C96.4393 42.6628 97.5755 42.8907 98.6342 43.3333C99.693 43.7759 100.653 44.4243 101.46 45.241C102.283 46.0318 102.935 46.9836 103.375 48.0373C103.815 49.0909 104.033 50.2238 104.016 51.3655C104.038 53.1007 103.539 54.8026 102.583 56.2509C101.627 57.6991 100.258 58.8269 98.6532 59.4883C97.0488 60.1497 95.2827 60.3141 93.5838 59.9604C91.8848 59.6067 90.3312 58.7511 89.124 57.5044C88.3007 56.7103 87.649 55.7558 87.2093 54.6999C86.7695 53.644 86.551 52.5092 86.5673 51.3655ZM89.644 51.3655C89.635 52.1278 89.7801 52.8841 90.0705 53.589C90.3609 54.2939 90.7906 54.9329 91.334 55.4677C91.8535 56.0201 92.4833 56.4572 93.1825 56.7509C93.8817 57.0445 94.6347 57.188 95.3929 57.1721C96.1279 57.1749 96.8554 57.0248 97.5293 56.7314C98.2031 56.438 98.8087 56.0076 99.3073 55.4677C99.8522 54.9347 100.282 54.2958 100.57 53.5902C100.858 52.8846 100.999 52.1275 100.983 51.3655C101 49.8549 100.424 48.3979 99.3795 47.3066C98.8595 46.7535 98.2318 46.3127 97.535 46.0114C96.8382 45.7101 96.087 45.5547 95.3279 45.5547C94.5687 45.5547 93.8176 45.7101 93.1208 46.0114C92.424 46.3127 91.7962 46.7535 91.2762 47.3066C90.229 48.3984 89.6442 49.8526 89.644 51.3655Z" fill="white"/>
<path d="M106.082 59.6856V43.0456H110.112C111.377 42.9368 112.65 43.0926 113.851 43.5029C115.052 43.9132 116.155 44.5692 117.089 45.4289C118.603 47.0785 119.407 49.2578 119.328 51.4956C119.34 53.598 118.573 55.6306 117.175 57.2011C115.731 58.8574 113.275 59.6856 109.809 59.6856H106.082ZM109.159 56.7967H109.996C111.668 56.909 113.321 56.3939 114.633 55.3523C115.178 54.8561 115.607 54.2449 115.886 53.5629C116.166 52.8808 116.291 52.1451 116.251 51.4089C116.28 50.6655 116.15 49.9244 115.871 49.2347C115.593 48.545 115.171 47.9223 114.633 47.4078C113.487 46.3546 111.97 45.7988 110.415 45.8623H109.159V56.7967Z" fill="white"/>
<path d="M121.797 59.6857V43.0457H130.651V45.9345H124.874V49.9934H130.42V52.8823H124.874V56.869H130.651V59.7579L121.797 59.6857Z" fill="white"/>
</g>
<defs>
<linearGradient id="paint0_linear_835_3220" x1="43.2767" y1="43.2767" x2="156.723" y2="156.723" gradientUnits="userSpaceOnUse">
<stop stop-color="#F29219"/>
<stop offset="1" stop-color="#DF660F"/>
</linearGradient>
<linearGradient id="paint1_linear_835_3220" x1="83.0844" y1="86.2632" x2="117.419" y2="120.598" gradientUnits="userSpaceOnUse">
<stop stop-color="#F29219"/>
<stop offset="1" stop-color="#DF660F"/>
</linearGradient>
<linearGradient id="paint2_linear_835_3220" x1="75.1541" y1="78.1745" x2="125.349" y2="128.369" gradientUnits="userSpaceOnUse">
<stop stop-color="#F29219"/>
<stop offset="1" stop-color="#DF660F"/>
</linearGradient>
<clipPath id="clip0_835_3220">
<rect width="130" height="130" fill="white" transform="translate(35 35)"/>
</clipPath>
</defs>
</svg>
