<?xml version="1.0" encoding="UTF-8"?>
<svg id="Layer_2" data-name="Layer 2" xmlns="http://www.w3.org/2000/svg" xmlns:xlink="http://www.w3.org/1999/xlink" viewBox="0 0 95 95">
  <defs>
    <style>
      .cls-1 {
        fill: url(#_名称未設定グラデーション_29-3);
      }

      .cls-1, .cls-2 {
        fill-rule: evenodd;
      }

      .cls-2 {
        fill: url(#_名称未設定グラデーション_29-2);
      }

      .cls-3 {
        fill: #fff;
      }

      .cls-4 {
        fill: url(#_名称未設定グラデーション_29);
      }
    </style>
    <linearGradient id="_名称未設定グラデーション_29" data-name="名称未設定グラデーション 29" x1="8.23" y1="8.23" x2="86.77" y2="86.77" gradientUnits="userSpaceOnUse">
      <stop offset="0" stop-color="#f2921a"/>
      <stop offset="1" stop-color="#df6610"/>
    </linearGradient>
    <linearGradient id="_名称未設定グラデーション_29-2" data-name="名称未設定グラデーション 29" x1="35.79" y1="37.99" x2="59.56" y2="61.76" xlink:href="#_名称未設定グラデーション_29"/>
    <linearGradient id="_名称未設定グラデーション_29-3" data-name="名称未設定グラデーション 29" x1="30.3" y1="32.39" x2="65.05" y2="67.14" xlink:href="#_名称未設定グラデーション_29"/>
  </defs>
  <g id="_レイヤー_1" data-name="レイヤー 1">
    <g>
      <rect class="cls-3" width="95" height="95"/>
      <g>
        <rect class="cls-4" x="2.5" y="2.5" width="90" height="90" rx="19.5" ry="19.5"/>
        <g>
          <path class="cls-3" d="M79.76,45.4c-1.38-9.95-13.63-23.07-33.23-22.51-21.05.61-31.56,15.78-31.4,27.22.15,11.01,8.78,23.23,24.86,26.31,1.01,5.94-4.51,9.14-7.45,10.95,12.81-3.26,27.36-8.33,38.55-18.4,5.86-5.32,9.1-10.49,9.12-18.4,0-1.08-.01-2.23-.15-3.42-.07-.58-.22-1.15-.3-1.75Z"/>
          <path class="cls-2" d="M35.32,41.59h-2.81c-.42,0-.76.34-.76.76v15.21c0,.42.34.76.76.76h2.81c.42,0,.76-.34.76-.76v-15.21c0-.42-.34-.76-.76-.76ZM62.84,41.44h-2.81c-.42,0-.76.34-.76.76v15.21c0,.42.34.76.76.76h2.81c.42,0,.76-.34.76-.76v-15.21c0-.42-.34-.76-.76-.76ZM52.46,41.44h-.31c-.42,0-.76.34-.76.76v15.21c0,.42.34.76.76.76h.31c.42,0,.76-.34.76-.76v-15.21c0-.42-.34-.76-.76-.76ZM49.04,41.44h-.31c-.42,0-.76.34-.76.76v15.21c0,.42.34.76.76.76h.31c.42,0,.76-.34.76-.76v-15.21c0-.42-.34-.76-.76-.76ZM40.14,41.44h-.31c-.42,0-.76.34-.76.76v15.21c0,.42.34.76.76.76h.31c.42,0,.76-.34.76-.76v-15.21c0-.42-.34-.76-.76-.76ZM57.1,41.44h-.31c-.42,0-.76.34-.76.76v15.21c0,.42.34.76.76.76h.31c.42,0,.76-.34.76-.76v-15.21c0-.42-.34-.76-.76-.76ZM45.96,41.44h-2.81c-.42,0-.76.34-.76.76v15.21c0,.42.34.76.76.76h2.81c.42,0,.76-.34.76-.76v-15.21c0-.42-.34-.76-.76-.76Z"/>
          <path class="cls-1" d="M31.92,36.72h-5.66c-.39,0-.71.32-.71.71v5.66c0,.39.32.71.71.71h.03c.39,0,.71-.32.71-.71v-4.92h4.92c.39,0,.71-.32.71-.71v-.03c0-.39-.32-.71-.71-.71ZM31.92,61.36h-4.92v-4.92c0-.39-.32-.71-.71-.71h-.03c-.39,0-.71.32-.71.71v5.66c0,.39.32.71.71.71h5.66c.39,0,.71-.32.71-.71v-.03c0-.39-.32-.71-.71-.71ZM69.09,55.73h-.03c-.39,0-.71.32-.71.71v4.92h-4.92c-.39,0-.71.32-.71.71v.03c0,.39.32.71.71.71h5.66c.39,0,.71-.32.71-.71v-5.66c0-.39-.32-.71-.71-.71ZM69.09,36.72h-5.66c-.39,0-.71.32-.71.71v.03c0,.39.32.71.71.71h4.92v4.92c0,.39.32.71.71.71h.03c.39,0,.71-.32.71-.71v-5.66c0-.39-.32-.71-.71-.71Z"/>
        </g>
        <g>
          <path class="cls-3" d="M35.08,16.44h2.4c-.35.88-1.01,1.67-1.99,2.37-.98.69-2.09,1.03-3.33,1.03-1.67,0-3.09-.59-4.27-1.76-1.17-1.17-1.76-2.59-1.76-4.25s.59-3.07,1.77-4.24c1.18-1.18,2.61-1.77,4.29-1.77,1.16,0,2.23.32,3.22.96,1,.63,1.73,1.49,2.2,2.56h-2.4c-.86-1.02-1.86-1.53-2.99-1.53s-2.07.39-2.83,1.18c-.75.78-1.13,1.73-1.13,2.84s.39,2.06,1.16,2.84c.78.78,1.72,1.18,2.81,1.18s2.05-.47,2.85-1.41Z"/>
          <path class="cls-3" d="M38.2,13.83c0-1.65.59-3.07,1.77-4.24,1.18-1.18,2.61-1.77,4.28-1.77s3.08.59,4.26,1.77c1.18,1.17,1.77,2.59,1.77,4.24s-.59,3.07-1.77,4.25c-1.18,1.17-2.6,1.76-4.27,1.76s-3.09-.59-4.27-1.76c-1.18-1.17-1.77-2.59-1.77-4.25ZM40.33,13.83c0,1.11.38,2.06,1.14,2.84.76.78,1.69,1.18,2.81,1.18,1.04,0,1.94-.39,2.72-1.18.77-.78,1.16-1.73,1.16-2.84s-.37-2.01-1.11-2.81c-.74-.8-1.67-1.21-2.8-1.21s-2.07.41-2.81,1.22c-.73.81-1.1,1.74-1.1,2.8Z"/>
          <path class="cls-3" d="M51.71,19.59v-11.53h2.79c2.19,0,3.8.55,4.83,1.65,1.03,1.1,1.55,2.5,1.55,4.2,0,1.48-.5,2.8-1.49,3.95-1,1.15-2.7,1.72-5.1,1.72h-2.58ZM53.84,17.61h.58c1.41,0,2.48-.33,3.22-.99.74-.66,1.11-1.57,1.11-2.73s-.37-2.07-1.12-2.78c-.75-.71-1.72-1.06-2.91-1.06h-.87v7.55Z"/>
          <path class="cls-3" d="M62.59,19.59v-11.53h6.14v1.99h-4v2.81h3.84v1.99h-3.84v2.76h4v1.99h-6.14Z"/>
        </g>
      </g>
    </g>
  </g>
</svg>