<?xml version="1.0" encoding="UTF-8"?>
<svg xmlns="http://www.w3.org/2000/svg" xmlns:xlink="http://www.w3.org/1999/xlink" viewBox="0 0 286 279">
  <defs>
    <style>
      .cls-1 {
        opacity: .4;
      }

      .cls-1, .cls-2 {
        fill: #346b99;
      }

      .cls-2 {
        opacity: .6;
      }

      .cls-2, .cls-3 {
        mix-blend-mode: multiply;
      }

      .cls-4 {
        fill: #6babd6;
        opacity: .2;
      }

      .cls-3 {
        fill: #0f4a81;
        opacity: .7;
      }

      .cls-5 {
        isolation: isolate;
      }

      .cls-6 {
        fill: #fff;
      }

      .cls-7 {
        fill: url(#_名称未設定グラデーション_140);
      }
    </style>
    <linearGradient id="_名称未設定グラデーション_140" data-name="名称未設定グラデーション 140" x1="71.28" y1="112.93" x2="206.2" y2="112.93" gradientUnits="userSpaceOnUse">
      <stop offset="0" stop-color="#0e2949"/>
      <stop offset=".16" stop-color="#0e365f"/>
      <stop offset=".37" stop-color="#0e4478"/>
      <stop offset=".5" stop-color="#0f4a81"/>
      <stop offset=".68" stop-color="#114d85"/>
      <stop offset=".86" stop-color="#195991"/>
      <stop offset="1" stop-color="#2267a0"/>
    </linearGradient>
  </defs>
  <g class="cls-5">
    <g id="Layer_2" data-name="Layer 2">
      <g id="logo">
        <g>
          <rect class="cls-6" width="286" height="279"/>
          <g>
            <g>
              <path d="M62.34,221.36c-1.23,1.7-2.9,2.96-5.03,3.78l9.71,12.55h-8.19l-8.49-11.53h-3.83v11.53h-6.52v-32.18h12.31c3.57,0,6.43.89,8.61,2.68,2.17,1.79,3.26,4.24,3.26,7.35,0,2.18-.61,4.12-1.84,5.82ZM46.52,211.36v9.06h5.74c1.44,0,2.62-.43,3.53-1.29s1.37-1.95,1.37-3.27c0-1.36-.46-2.45-1.37-3.27s-2.09-1.23-3.53-1.23h-5.74Z"/>
              <path d="M72.81,209.67c3.11-3.24,6.83-4.86,11.18-4.86s8.08,1.62,11.21,4.86c3.12,3.24,4.68,7.18,4.68,11.83s-1.56,8.67-4.68,11.96c-3.12,3.29-6.86,4.93-11.21,4.93s-8.08-1.64-11.18-4.93c-3.11-3.29-4.66-7.28-4.66-11.96s1.55-8.59,4.66-11.83ZM77.4,228.84c1.78,1.97,3.98,2.95,6.6,2.95s4.84-.97,6.57-2.92c1.73-1.95,2.6-4.41,2.6-7.37s-.87-5.3-2.6-7.21c-1.73-1.91-3.92-2.87-6.57-2.87s-4.82.97-6.6,2.92c-1.78,1.95-2.67,4.34-2.67,7.16s.89,5.38,2.67,7.35Z"/>
              <path d="M123.72,205.51h6.43v18.51c0,4.61-1.19,8.16-3.56,10.65-2.37,2.48-5.52,3.73-9.44,3.73s-6.95-1.23-9.47-3.7c-2.52-2.47-3.78-6.02-3.78-10.67v-18.51h6.52v18.56c0,2.57.64,4.51,1.91,5.79,1.27,1.29,2.88,1.93,4.81,1.93s3.59-.63,4.78-1.9c1.19-1.27,1.79-3.21,1.79-5.82v-18.56Z"/>
              <path d="M142.06,237.69v-26.01h-8.39v-6.17h23.25v6.17h-8.39v26.01h-6.47Z"/>
              <path d="M160.6,237.69v-32.18h20.5v6.17h-13.98v6.87h13.24v5.85h-13.24v7.13h13.93v6.17h-20.45Z"/>
              <path d="M215.14,233.8c-2.35,3.06-5.53,4.58-9.52,4.58s-7.06-1.53-9.42-4.58c-2.35-3.06-3.53-7.18-3.53-12.36,0-4.86,1.19-8.85,3.58-11.96,2.39-3.11,5.51-4.67,9.37-4.67s7.08,1.55,9.47,4.64c2.39,3.09,3.58,7.09,3.58,11.99,0,5.18-1.18,9.31-3.53,12.36ZM210.33,214.09c-1.14-1.79-2.71-2.68-4.71-2.68s-3.52.9-4.66,2.71c-1.14,1.81-1.72,4.27-1.72,7.38,0,3.33.57,5.87,1.72,7.64s2.7,2.66,4.66,2.66,3.6-.89,4.73-2.66c1.13-1.77,1.69-4.32,1.69-7.64,0-3.15-.57-5.61-1.72-7.4Z"/>
            </g>
            <path d="M233.43,215.25c-.23,0-.44,0-.66.02l6.85-9.82h-6.96l-9.43,13.59c-1.42,2.09-2.74,4.47-2.74,7.64,0,6.91,5.42,12.32,12.34,12.32s12.13-5.37,12.13-12.23c0-6.35-5.17-11.52-11.53-11.52ZM232.75,220.67c3.51,0,6.37,2.85,6.37,6.35s-2.86,6.14-6.37,6.14-6.37-2.81-6.37-6.27,2.86-6.23,6.37-6.23Z"/>
          </g>
          <g>
            <polygon class="cls-7" points="138.75 41 71.28 109.87 102.09 163.61 138.75 184.85 175.4 163.61 206.2 109.87 138.75 41"/>
            <polygon class="cls-3" points="138.75 41 206.2 109.87 138.75 145.51 138.75 41"/>
            <polygon class="cls-2" points="138.75 145.51 138.75 184.85 102.09 163.61 138.75 145.51"/>
            <polygon class="cls-1" points="138.74 145.51 138.75 184.85 175.4 163.61 138.74 145.51"/>
            <polygon class="cls-4" points="71.28 109.87 138.75 145.51 102.09 163.61 71.28 109.87"/>
          </g>
        </g>
      </g>
    </g>
  </g>
</svg>