<svg width="200" height="200" viewBox="0 0 200 200" fill="none" xmlns="http://www.w3.org/2000/svg">
<rect width="200" height="200" fill="white"/>
<g clip-path="url(#clip0_835_2932)">
<path d="M49.1696 151.397C48.3894 152.475 47.3302 153.274 45.9792 153.794L52.138 161.755H46.9433L41.5584 154.441H39.1291V161.755H35V141.344H42.8079C45.0722 141.344 46.8862 141.908 48.2689 143.044C49.6453 144.179 50.3367 145.733 50.3367 147.705C50.3367 149.088 49.9497 150.319 49.1696 151.397ZM39.1354 145.054V150.801H42.7762C43.6895 150.801 44.4379 150.528 45.0151 149.983C45.5923 149.437 45.8841 148.746 45.8841 147.908C45.8841 147.046 45.5923 146.354 45.0151 145.834C44.4379 145.314 43.6895 145.054 42.7762 145.054H39.1354Z" fill="black"/>
<path d="M55.8112 143.982C57.7837 141.927 60.1432 140.9 62.9023 140.9C65.6614 140.9 68.0272 141.927 70.0125 143.982C71.9914 146.037 72.9809 148.536 72.9809 151.486C72.9809 154.435 71.9914 156.985 70.0125 159.072C68.0336 161.158 65.6614 162.198 62.9023 162.198C60.1432 162.198 57.7774 161.158 55.8112 159.072C53.8386 156.985 52.8555 154.454 52.8555 151.486C52.8555 148.517 53.8386 146.037 55.8112 143.982ZM58.7225 156.141C59.8515 157.391 61.2469 158.012 62.9086 158.012C64.5704 158.012 65.9785 157.397 67.0758 156.16C68.1731 154.923 68.7249 153.363 68.7249 151.486C68.7249 149.608 68.1731 148.124 67.0758 146.913C65.9785 145.701 64.5895 145.092 62.9086 145.092C61.2278 145.092 59.8515 145.707 58.7225 146.944C57.5935 148.181 57.029 149.697 57.029 151.486C57.029 153.274 57.5935 154.898 58.7225 156.148V156.141Z" fill="black"/>
<path d="M88.1025 141.344H92.1808V153.084C92.1808 156.008 91.4261 158.26 89.9228 159.839C88.4196 161.412 86.4217 162.205 83.9353 162.205C81.449 162.205 79.5272 161.425 77.9288 159.858C76.3304 158.291 75.5312 156.04 75.5312 153.09V141.35H79.6667V153.122C79.6667 154.752 80.0726 155.983 80.8781 156.795C81.6837 157.613 82.7048 158.019 83.929 158.019C85.1531 158.019 86.206 157.619 86.9608 156.814C87.7156 156.008 88.0961 154.778 88.0961 153.122V141.35L88.1025 141.344Z" fill="black"/>
<path d="M99.7317 161.755V145.257H94.4102V141.344H109.157V145.257H103.835V161.755H99.7317Z" fill="black"/>
<path d="M111.492 161.755V141.344H124.495V145.257H115.628V149.615H124.025V153.325H115.628V157.847H124.463V161.761H111.492V161.755Z" fill="black"/>
<path d="M146.088 159.287C144.597 161.228 142.58 162.192 140.05 162.192C137.519 162.192 135.572 161.222 134.075 159.287C132.584 157.346 131.836 154.733 131.836 151.448C131.836 148.365 132.591 145.834 134.107 143.862C135.623 141.889 137.601 140.9 140.05 140.9C142.498 140.9 144.54 141.883 146.056 143.843C147.572 145.803 148.327 148.34 148.327 151.448C148.327 154.733 147.579 157.353 146.088 159.287ZM143.037 146.786C142.314 145.65 141.318 145.086 140.05 145.086C138.781 145.086 137.817 145.657 137.094 146.805C136.371 147.953 136.003 149.513 136.003 151.486C136.003 153.598 136.365 155.209 137.094 156.331C137.823 157.454 138.807 158.019 140.05 158.019C141.293 158.019 142.333 157.454 143.05 156.331C143.767 155.209 144.122 153.591 144.122 151.486C144.122 149.488 143.76 147.927 143.031 146.792L143.037 146.786Z" fill="black"/>
<path d="M157.688 147.522C157.542 147.522 157.409 147.522 157.269 147.534L161.614 141.306H157.2L151.218 149.925C150.318 151.251 149.48 152.761 149.48 154.771C149.48 159.154 152.918 162.585 157.307 162.585C161.697 162.585 165.001 159.179 165.001 154.828C165.001 150.801 161.722 147.522 157.688 147.522ZM157.257 150.959C159.483 150.959 161.297 152.767 161.297 154.987C161.297 157.207 159.483 158.881 157.257 158.881C155.03 158.881 153.216 157.099 153.216 154.904C153.216 152.71 155.03 150.953 157.257 150.953V150.959Z" fill="black"/>
<path d="M97.634 37L54.8398 80.6822L74.3817 114.768L97.634 128.24L120.88 114.768L140.416 80.6822L97.634 37Z" fill="url(#paint0_linear_835_2932)"/>
<g style="mix-blend-mode:multiply" opacity="0.7">
<path d="M97.6328 37L140.414 80.6822L97.6328 103.288V37Z" fill="#0F4A81"/>
</g>
<g style="mix-blend-mode:multiply" opacity="0.6">
<path d="M97.6352 103.288V128.24L74.3828 114.768L97.6352 103.288Z" fill="#346B99"/>
</g>
<path opacity="0.4" d="M97.6289 103.288L97.6353 128.24L120.881 114.768L97.6289 103.288Z" fill="#346B99"/>
<path opacity="0.2" d="M54.8398 80.6821L97.634 103.288L74.3817 114.768L54.8398 80.6821Z" fill="#6BABD6"/>
</g>
<defs>
<linearGradient id="paint0_linear_835_2932" x1="54.8398" y1="82.623" x2="140.416" y2="82.623" gradientUnits="userSpaceOnUse">
<stop stop-color="#0E2949"/>
<stop offset="0.16" stop-color="#0E365F"/>
<stop offset="0.37" stop-color="#0E4478"/>
<stop offset="0.5" stop-color="#0F4A81"/>
<stop offset="0.68" stop-color="#114D85"/>
<stop offset="0.86" stop-color="#195991"/>
<stop offset="1" stop-color="#2267A0"/>
</linearGradient>
<clipPath id="clip0_835_2932">
<rect width="130" height="125.585" fill="white" transform="translate(35 37)"/>
</clipPath>
</defs>
</svg>
