<svg id="レイヤー_1" data-name="レイヤー 1" xmlns="http://www.w3.org/2000/svg" viewBox="0 0 727 141"><path d="M166.48,94.67c-9.6,0-14.91-3.63-16.6-5.17-.74-.67-1-.94-.37-1.88L153,82.05a2,2,0,0,1,2.51-.41c.3.14,5.61,3.69,10.48,3.69,2.95,0,5.09-1.67,5.09-4,0-2.82-2.58-5-7.6-6.78-6.34-2.28-14.31-6.78-14.31-14.84,0-6.64,5.68-13.36,17-13.36a29,29,0,0,1,15.79,5,1.6,1.6,0,0,1,.45,2.15l-3.77,5.17c-.51.73-1.84,1.34-2.51.87s-6-4-10.55-4c-2.65,0-4.65,1.61-4.65,3.42,0,2.49,2.22,4.37,8.05,6.52s14.9,6.17,14.9,15.3C183.89,87.68,177.33,94.67,166.48,94.67Z"/><path d="M257.51,92.47h-8.09a1.37,1.37,0,0,1-1.3-1L245,72.23h-.14L233.39,92.41a1.64,1.64,0,0,1-1.16.68H231a1.5,1.5,0,0,1-1.16-.68L218.25,72.23h-.14l-3,19.24a1.31,1.31,0,0,1-1.31,1h-8.08a1.18,1.18,0,0,1-1.3-1.37l7.74-41.85a1.29,1.29,0,0,1,1.24-1h1.09a1.54,1.54,0,0,1,1.16.62l15.9,26.91h.14l15.89-26.91a1.58,1.58,0,0,1,1.17-.62h1.1a1.26,1.26,0,0,1,1.22,1l7.75,41.85A1.18,1.18,0,0,1,257.51,92.47Z"/><path d="M369.69,74.84c6-2.17,10.14-6.78,10.14-12.51,0-7.42-6.71-13.46-14.94-13.46H344.41a1.25,1.25,0,0,0-1.3,1.19V91.29a1.24,1.24,0,0,0,1.3,1.18h8.15a1.29,1.29,0,0,0,1.3-1.18V75.41h4.73l9.11,16.5a1.29,1.29,0,0,0,1.1.56h9.11a1.19,1.19,0,0,0,1.17-1.81ZM364,67.5H353.86V57.78H364a5,5,0,0,1,5.2,4.73A5.23,5.23,0,0,1,364,67.5Z"/><path d="M440.61,56.85a1.24,1.24,0,0,1-1.3,1.18h-14V91.29a1.29,1.29,0,0,1-1.3,1.18h-8.22a1.29,1.29,0,0,1-1.31-1.18V58h-14a1.25,1.25,0,0,1-1.31-1.18V50.06a1.26,1.26,0,0,1,1.31-1.19h38.84a1.25,1.25,0,0,1,1.3,1.19Z"/><path d="M572.84,90.85,551.4,48.94a1.41,1.41,0,0,0-1.17-.69h-.68a1.41,1.41,0,0,0-1.17.69L526.94,90.85c-.41.81.14,1.62,1.17,1.62h7.53A2.58,2.58,0,0,0,538.11,91l2.46-5h18.64l2.47,4.92a2.28,2.28,0,0,0,2.39,1.56h7.61C572.71,92.47,573.25,91.66,572.84,90.85ZM544.68,77.52l5.14-10.27h.07l5.21,10.27Z"/><path d="M633.68,92a1.24,1.24,0,0,1-1.3,1.12h-1.1a2.1,2.1,0,0,1-.89-.31L603.33,68.06h-.07V91.29a1.24,1.24,0,0,1-1.3,1.18H593.8a1.29,1.29,0,0,1-1.3-1.18l-.07-41.92a1.24,1.24,0,0,1,1.3-1.12h1.72l27.34,23.92h.06V50.06a1.26,1.26,0,0,1,1.31-1.19h8.22a1.3,1.3,0,0,1,1.3,1.19Z"/><path d="M695,92.41h-9.45a2,2,0,0,1-1.24-.44L668.52,72.42V91a1.6,1.6,0,0,1-1.65,1.49h-8A1.56,1.56,0,0,1,657.21,91V50.37a1.56,1.56,0,0,1,1.65-1.5h8a1.6,1.6,0,0,1,1.65,1.5V66.75L683.73,49.5a2.11,2.11,0,0,1,1.3-.63h8.63a1.43,1.43,0,0,1,1.23,2.31l-16,18.25L696.33,90.1A1.46,1.46,0,0,1,695,92.41Z"/><path d="M322.4,90.85,301,48.94a1.41,1.41,0,0,0-1.17-.69h-.68a1.38,1.38,0,0,0-1.16.69L276.5,90.85c-.41.81.14,1.62,1.17,1.62h7.53A2.58,2.58,0,0,0,287.67,91l2.46-5h18.64l2.47,4.92a2.28,2.28,0,0,0,2.39,1.56h7.61C322.27,92.47,322.81,91.66,322.4,90.85ZM294.24,77.52l5.14-10.27h.07l5.21,10.27Z"/><path d="M500.14,70.3c3.22-1.56,7.95-5,7.95-9.84,0-6.54-6.65-11.59-14.73-11.59h-16a1.25,1.25,0,0,0-1.3,1.19V91.29a1.24,1.24,0,0,0,1.3,1.18h17c8.16,0,14.94-5,14.94-12C509.32,74.72,503.77,71.67,500.14,70.3ZM486.78,57.84h5.34c2.61,0,4.8,1.75,4.8,4.24a4.66,4.66,0,0,1-4.8,4.48h-5.34ZM493,83.56h-6.23v-8.9h5.55C495,74.66,498,76.53,498,79A4.76,4.76,0,0,1,493,83.56Z"/><path d="M70.47,116.79a2.42,2.42,0,0,1-3.93,0L31.18,72.93a4.07,4.07,0,0,1,0-4.87l9.17-11.37a2.41,2.41,0,0,1,3.92,0l35.37,43.85a4.08,4.08,0,0,1,0,4.88Z"/><path d="M96.65,84.31a2.41,2.41,0,0,1-3.92,0L57.36,40.46a4.08,4.08,0,0,1,0-4.88l9.17-11.37a2.42,2.42,0,0,1,3.93,0l35.36,43.86a4.07,4.07,0,0,1,0,4.87Z"/></svg>