<svg width="200" height="200" viewBox="0 0 200 200" fill="none" xmlns="http://www.w3.org/2000/svg">
<rect width="200" height="200" fill="white"/>
<path d="M51.2193 106.44C48.8424 106.44 47.5277 105.541 47.1093 105.159C46.9261 104.994 46.8617 104.927 47.0177 104.694L47.8818 103.315C47.9575 103.229 48.0609 103.171 48.1743 103.153C48.2877 103.134 48.4039 103.156 48.5032 103.213C48.5775 103.248 49.8922 104.127 51.098 104.127C51.8284 104.127 52.3582 103.714 52.3582 103.137C52.3582 102.438 51.7194 101.899 50.4765 101.458C48.9068 100.893 46.9335 99.7793 46.9335 97.7837C46.9335 96.1397 48.3398 94.4758 51.1426 94.4758C52.5384 94.4997 53.8969 94.9299 55.0521 95.7138C55.135 95.7715 55.1928 95.8588 55.2135 95.9578C55.2343 96.0568 55.2163 96.1599 55.1635 96.2461L54.23 97.5262C54.1038 97.7069 53.7745 97.8579 53.6086 97.7416C53.4427 97.6252 52.123 96.7512 50.9965 96.7512C50.3404 96.7512 49.8452 97.1498 49.8452 97.598C49.8452 98.2145 50.3948 98.68 51.8383 99.2123C53.2818 99.7446 55.5274 100.74 55.5274 103C55.5299 104.709 53.9057 106.44 51.2193 106.44Z" fill="black"/>
<path d="M73.7582 105.895H71.7552C71.682 105.894 71.6111 105.869 71.5531 105.825C71.4951 105.78 71.4531 105.718 71.4333 105.647L70.6608 100.884H70.6262L67.7863 105.88C67.753 105.927 67.7102 105.966 67.6607 105.995C67.6112 106.024 67.5561 106.042 67.4991 106.048H67.1945C67.1369 106.045 67.0809 106.027 67.031 105.998C66.9811 105.969 66.9388 105.928 66.9073 105.88L64.0377 100.884H64.0031L63.2603 105.647C63.2427 105.719 63.201 105.783 63.1419 105.828C63.0829 105.874 63.0102 105.897 62.9359 105.895H60.9354C60.8903 105.9 60.8446 105.895 60.802 105.879C60.7593 105.864 60.7208 105.839 60.6896 105.806C60.6584 105.773 60.6352 105.733 60.622 105.69C60.6088 105.646 60.6059 105.6 60.6135 105.556L62.5299 95.1939C62.546 95.1242 62.5849 95.0619 62.6406 95.017C62.6963 94.9721 62.7654 94.9472 62.8369 94.9463H63.1068C63.163 94.9491 63.2179 94.9643 63.2676 94.9908C63.3173 95.0174 63.3604 95.0546 63.394 95.0998L67.3307 101.763H67.3654L71.2996 95.0998C71.3339 95.0548 71.3776 95.0177 71.4276 94.9912C71.4776 94.9647 71.5328 94.9494 71.5893 94.9463H71.8617C71.9327 94.947 72.0013 94.9719 72.0562 95.017C72.1112 95.062 72.1491 95.1244 72.1637 95.1939L74.0826 105.556C74.0903 105.601 74.0873 105.647 74.074 105.69C74.0607 105.734 74.0373 105.774 74.0058 105.807C73.9742 105.84 73.9354 105.865 73.8924 105.88C73.8495 105.896 73.8035 105.901 73.7582 105.895Z" fill="black"/>
<path d="M101.534 101.53C103.02 100.993 104.045 99.8512 104.045 98.4325C104.045 96.5953 102.383 95.0999 100.346 95.0999H95.275C95.1933 95.0965 95.1136 95.1256 95.0533 95.1808C94.993 95.236 94.957 95.3128 94.9531 95.3945V105.603C94.955 105.643 94.9649 105.683 94.9821 105.719C94.9993 105.756 95.0236 105.788 95.0535 105.816C95.0834 105.843 95.1183 105.864 95.1563 105.877C95.1943 105.891 95.2347 105.897 95.275 105.895H97.2929C97.3735 105.896 97.4515 105.866 97.5112 105.812C97.5709 105.758 97.6079 105.683 97.6147 105.603V101.671H98.7859L101.041 105.756C101.072 105.8 101.112 105.836 101.16 105.86C101.208 105.885 101.26 105.896 101.314 105.895H103.569C103.625 105.902 103.681 105.894 103.732 105.871C103.783 105.847 103.826 105.81 103.857 105.763C103.887 105.716 103.903 105.661 103.904 105.605C103.904 105.549 103.889 105.494 103.859 105.447L101.534 101.53ZM100.125 99.7125H97.6147V97.3059H100.125C100.451 97.2924 100.769 97.4078 101.01 97.627C101.251 97.8463 101.396 98.1517 101.413 98.477C101.398 98.8088 101.255 99.122 101.016 99.3519C100.776 99.5819 100.457 99.711 100.125 99.7125Z" fill="black"/>
<path d="M119.092 97.0757C119.09 97.116 119.081 97.1556 119.063 97.1921C119.046 97.2286 119.022 97.2614 118.992 97.2885C118.962 97.3157 118.927 97.3366 118.889 97.3502C118.851 97.3638 118.811 97.3698 118.77 97.3678H115.304V105.603C115.297 105.683 115.26 105.758 115.201 105.812C115.141 105.866 115.063 105.896 114.982 105.895H112.947C112.866 105.896 112.787 105.867 112.727 105.813C112.667 105.759 112.63 105.684 112.623 105.603V97.3604H109.156C109.075 97.3644 108.995 97.336 108.934 97.2812C108.873 97.2265 108.837 97.1499 108.832 97.0682V95.3945C108.837 95.3126 108.873 95.2358 108.934 95.1807C108.994 95.1255 109.074 95.0965 109.156 95.0999H118.773C118.855 95.0965 118.934 95.1256 118.995 95.1808C119.055 95.236 119.091 95.3128 119.095 95.3945L119.092 97.0757Z" fill="black"/>
<path d="M151.832 105.494L146.523 95.1171C146.494 95.0666 146.451 95.0244 146.401 94.9945C146.35 94.9647 146.293 94.9481 146.234 94.9463H146.065C146.007 94.9481 145.949 94.9647 145.899 94.9945C145.848 95.0244 145.806 95.0666 145.776 95.1171L140.467 105.494C140.366 105.694 140.502 105.895 140.757 105.895H142.621C142.748 105.902 142.874 105.871 142.983 105.806C143.091 105.741 143.179 105.645 143.233 105.531L143.842 104.293H148.457L149.069 105.511C149.109 105.633 149.189 105.738 149.297 105.808C149.404 105.878 149.533 105.91 149.66 105.897H151.545C151.8 105.895 151.933 105.694 151.832 105.494ZM144.86 102.193L146.132 99.6506H146.15L147.44 102.193H144.86Z" fill="black"/>
<path d="M166.893 105.779C166.885 105.857 166.848 105.93 166.788 105.982C166.728 106.034 166.65 106.06 166.571 106.056H166.299C166.22 106.047 166.145 106.021 166.078 105.979L159.378 99.8513H159.361V105.603C159.359 105.643 159.349 105.683 159.332 105.719C159.315 105.756 159.291 105.789 159.261 105.816C159.231 105.843 159.196 105.864 159.158 105.877C159.12 105.891 159.08 105.897 159.039 105.895H157.019C156.938 105.896 156.86 105.866 156.801 105.812C156.741 105.758 156.704 105.683 156.697 105.603L156.68 95.2238C156.687 95.145 156.725 95.0721 156.785 95.0205C156.845 94.9688 156.923 94.9423 157.002 94.9465H157.427L164.197 100.869H164.211V95.3946C164.216 95.3127 164.253 95.2359 164.313 95.1808C164.374 95.1256 164.454 95.0966 164.536 95.1H166.571C166.652 95.0997 166.73 95.1298 166.79 95.1844C166.849 95.239 166.886 95.3141 166.893 95.3946V105.779Z" fill="black"/>
<path d="M182.075 105.88H179.736C179.624 105.879 179.516 105.841 179.429 105.771L175.519 100.931V105.531C175.512 105.633 175.466 105.729 175.389 105.798C175.313 105.867 175.213 105.903 175.11 105.9H173.13C173.078 105.903 173.027 105.896 172.978 105.879C172.93 105.863 172.885 105.836 172.847 105.802C172.808 105.767 172.777 105.726 172.755 105.679C172.733 105.633 172.721 105.582 172.719 105.531V95.4712C172.721 95.4198 172.733 95.3694 172.754 95.3227C172.776 95.2761 172.807 95.2342 172.845 95.1996C172.883 95.165 172.928 95.1384 172.976 95.1213C173.025 95.1041 173.076 95.0968 173.127 95.0998H175.108C175.211 95.0964 175.311 95.1333 175.388 95.2027C175.464 95.272 175.51 95.3683 175.517 95.4712V99.5268L179.285 95.2558C179.37 95.1676 179.484 95.1124 179.607 95.0998H181.743C181.812 95.0948 181.88 95.1097 181.941 95.1428C182.001 95.176 182.05 95.2259 182.082 95.2865C182.115 95.3471 182.128 95.4158 182.122 95.4842C182.116 95.5526 182.09 95.6178 182.048 95.6718L178.087 100.19L182.405 105.308C182.446 105.365 182.469 105.432 182.473 105.501C182.477 105.571 182.46 105.64 182.425 105.701C182.39 105.761 182.339 105.81 182.277 105.842C182.215 105.874 182.145 105.887 182.075 105.88Z" fill="black"/>
<path d="M89.8241 105.494L84.5256 95.1171C84.4956 95.0666 84.4533 95.0244 84.4027 94.9945C84.352 94.9647 84.2947 94.9481 84.2359 94.9463H84.0675C84.009 94.9478 83.9519 94.9643 83.9016 94.9942C83.8513 95.0241 83.8096 95.0664 83.7803 95.1171L78.4596 105.494C78.358 105.694 78.4942 105.895 78.7492 105.895H80.6136C80.7402 105.902 80.8659 105.871 80.9748 105.806C81.0837 105.741 81.1708 105.645 81.2252 105.531L81.8342 104.293H86.4494L87.0609 105.511C87.1009 105.633 87.1813 105.738 87.2889 105.808C87.3965 105.878 87.5248 105.91 87.6527 105.897H89.5369C89.7919 105.895 89.9256 105.694 89.8241 105.494ZM82.8519 102.193L84.1245 99.6506H84.1418L85.4318 102.193H82.8519Z" fill="black"/>
<path d="M133.829 100.406C134.626 100.02 135.798 99.1678 135.798 97.9695C135.798 96.3502 134.151 95.0999 132.151 95.0999H128.189C128.107 95.0965 128.028 95.1256 127.967 95.1808C127.907 95.236 127.871 95.3128 127.867 95.3945V105.603C127.869 105.643 127.879 105.683 127.896 105.719C127.913 105.756 127.938 105.788 127.968 105.816C127.997 105.843 128.032 105.864 128.07 105.877C128.108 105.891 128.149 105.897 128.189 105.895H132.398C134.418 105.895 136.097 104.657 136.097 102.924C136.102 101.5 134.728 100.745 133.829 100.406ZM130.521 97.3208H131.844C132.49 97.3208 133.032 97.7541 133.032 98.3706C133.02 98.6749 132.889 98.9622 132.666 99.17C132.444 99.3778 132.148 99.4892 131.844 99.4798H130.521V97.3208ZM132.061 103.689H130.519V101.485H131.893C132.557 101.485 133.299 101.948 133.299 102.56C133.293 102.716 133.256 102.868 133.19 103.01C133.124 103.151 133.031 103.278 132.916 103.383C132.801 103.488 132.666 103.569 132.519 103.621C132.373 103.674 132.217 103.697 132.061 103.689Z" fill="black"/>
<path d="M27.4477 111.916C27.3922 111.994 27.3191 112.057 27.2345 112.1C27.15 112.143 27.0562 112.166 26.9612 112.166C26.8661 112.166 26.7724 112.143 26.6878 112.1C26.6032 112.057 26.5301 111.994 26.4747 111.916L17.7198 101.057C17.5898 100.883 17.5195 100.671 17.5195 100.454C17.5195 100.237 17.5898 100.025 17.7198 99.8512L19.9902 97.0361C20.0454 96.9589 20.1183 96.896 20.2027 96.8526C20.2871 96.8093 20.3806 96.7866 20.4755 96.7866C20.5704 96.7866 20.6639 96.8093 20.7483 96.8526C20.8327 96.896 20.9055 96.9589 20.9608 97.0361L29.7181 107.893C29.8483 108.068 29.9187 108.279 29.9187 108.497C29.9187 108.715 29.8483 108.927 29.7181 109.101L27.4477 111.916Z" fill="black"/>
<path d="M33.9285 103.875C33.8733 103.952 33.8004 104.015 33.716 104.058C33.6316 104.102 33.5381 104.124 33.4432 104.124C33.3483 104.124 33.2548 104.102 33.1704 104.058C33.086 104.015 33.0131 103.952 32.9579 103.875L24.2006 93.0177C24.0703 92.8432 24 92.6313 24 92.4136C24 92.1959 24.0703 91.984 24.2006 91.8095L26.471 88.9943C26.5265 88.9171 26.5995 88.8542 26.6841 88.8109C26.7687 88.7675 26.8624 88.7449 26.9575 88.7449C27.0526 88.7449 27.1463 88.7675 27.2309 88.8109C27.3155 88.8542 27.3885 88.9171 27.444 88.9943L36.1989 99.8537C36.3289 100.028 36.3991 100.239 36.3991 100.457C36.3991 100.674 36.3289 100.885 36.1989 101.06L33.9285 103.875Z" fill="black"/>
</svg>
