<svg width="240" height="240" viewBox="0 0 240 240" fill="none" xmlns="http://www.w3.org/2000/svg">
<rect width="240" height="240" fill="white"/>
<g clip-path="url(#clip0_835_2290)">
<path d="M131.197 176.615C130.843 176.551 130.432 176.518 129.965 176.518C128.964 176.518 128.181 176.615 127.281 177.13C126.465 177.596 125.823 178.115 125.29 179.079L125.152 177.501C125.127 177.167 124.848 176.91 124.514 176.91H120.032C119.678 176.91 119.392 177.196 119.392 177.55V197.378C119.392 197.733 119.678 198.019 120.032 198.019H124.839C125.193 198.019 125.479 197.733 125.479 197.378C125.479 197.378 125.479 186.429 125.479 185.432C125.479 184.436 126.166 183.186 126.953 182.612C127.668 182.088 128.471 181.728 129.558 181.633C129.86 181.607 130.333 181.626 130.973 181.686C131.345 181.719 131.668 181.431 131.675 181.057L131.736 177.257C131.741 176.94 131.512 176.672 131.199 176.615H131.197ZM111.765 177.369C110.471 176.804 108.984 176.52 107.307 176.52C105.499 176.52 103.902 176.819 102.518 177.418C101.132 178.016 100.067 178.837 99.3192 179.875C98.712 180.72 98.3512 181.642 98.2368 182.643C98.1928 183.019 98.4986 183.349 98.877 183.349H103.695C104.007 183.349 104.256 183.114 104.311 182.808C104.399 182.3 104.623 181.89 104.978 181.585C105.453 181.175 106.119 180.971 106.977 180.971C107.939 180.971 108.652 181.235 109.114 181.761C109.576 182.286 109.807 183.026 109.807 183.976V185.127H107.523C104.271 185.127 101.823 185.729 100.177 186.931C98.5316 188.134 97.7088 189.848 97.7088 192.072C97.7088 193.282 98.0278 194.371 98.6636 195.339C99.3016 196.307 100.166 197.062 101.26 197.603C102.353 198.142 103.554 198.412 104.868 198.412C107.079 198.412 108.821 197.658 110.097 196.149V197.381C110.097 197.735 110.383 198.021 110.737 198.021H115.269C115.623 198.021 115.909 197.735 115.909 197.381C115.909 196.195 115.909 193.691 115.909 192.752V184.011C115.909 182.385 115.542 181.015 114.807 179.895C114.072 178.777 113.058 177.935 111.765 177.369ZM109.804 192.01C109.532 192.519 109.078 192.95 108.449 193.308C107.818 193.667 107.087 193.845 106.256 193.845C105.514 193.845 104.92 193.647 104.472 193.249C104.023 192.853 103.798 192.336 103.798 191.698C103.798 190.787 104.111 190.037 104.736 189.445C105.36 188.853 106.322 188.559 107.622 188.559H109.807V192.01H109.804ZM55.3654 181.547L51.2184 179.899C48.7654 178.938 46.9922 178.243 46.9922 176.542C46.9922 174.842 48.4068 173.838 50.774 173.838C52.7694 173.838 54.4788 174.397 56.3686 175.691C56.6436 175.878 57.0176 175.816 57.2244 175.557L59.7698 172.353C59.9854 172.083 59.9436 171.691 59.6818 171.465C57.3036 169.394 54.0344 168.178 50.7762 168.178C44.7548 168.178 40.214 171.946 40.214 176.943C40.214 181.939 44.3346 184.178 46.1056 184.885L50.4154 186.697C52.7188 187.661 54.239 188.297 54.239 190.048C54.239 191.102 53.7066 192.871 50.1382 192.871C48.0526 192.871 45.5402 191.903 43.4194 190.308C43.1466 190.103 42.7638 190.138 42.5482 190.402L39.5804 194.017C39.3604 194.285 39.389 194.688 39.6574 194.91C42.4954 197.246 46.209 198.573 49.9776 198.573C57.6182 198.573 61.0986 193.865 61.0986 189.489C61.0986 185.644 59.277 183.12 55.3676 181.547H55.3654ZM87.9408 176.52C86.5614 176.52 85.347 176.797 84.2932 177.35C83.2394 177.902 82.3682 178.692 81.6796 179.719C81.1736 178.639 80.4498 177.836 79.5148 177.31C78.5776 176.784 77.46 176.52 76.1598 176.52C74.8596 176.52 73.7222 176.76 72.7058 177.242C71.6916 177.724 70.8336 178.412 70.1296 179.31L69.9822 177.499C69.9558 177.167 69.6786 176.912 69.3442 176.912H64.8584C64.5042 176.912 64.2182 177.198 64.2182 177.552V197.381C64.2182 197.735 64.5042 198.021 64.8584 198.021H69.6654C70.0196 198.021 70.3056 197.735 70.3056 197.381V184.176C70.6444 183.591 71.08 183.14 71.6124 182.821C72.1448 182.502 72.7696 182.344 73.4846 182.344C74.1358 182.344 74.6682 182.432 75.084 182.608C75.4998 182.784 75.8188 183.111 76.041 183.593C76.261 184.075 76.3732 184.75 76.3732 185.622V197.383C76.3732 197.737 76.6592 198.023 77.0134 198.023H81.8204C82.1746 198.023 82.4606 197.737 82.4606 197.383V184.412C82.773 183.76 83.1954 183.254 83.7278 182.889C84.2602 182.526 84.9048 182.344 85.6594 182.344C86.3106 182.344 86.8386 182.432 87.25 182.608C87.6592 182.784 87.9738 183.109 88.196 183.584C88.416 184.06 88.5282 184.726 88.5282 185.584V197.385C88.5282 197.739 88.8142 198.025 89.1684 198.025H93.9952C94.3494 198.025 94.6354 197.739 94.6354 197.385V184.68C94.6354 181.794 94.0524 179.712 92.8886 178.436C91.7248 177.163 90.077 176.525 87.943 176.525L87.9408 176.52ZM145.726 193.374C145.433 193.401 145.123 193.414 144.795 193.414C144.014 193.414 143.462 193.264 143.137 192.965C142.811 192.666 142.648 192.101 142.648 191.269V181.69H145.539C145.893 181.69 146.179 181.404 146.179 181.05V177.16C146.179 176.806 145.893 176.52 145.539 176.52H142.648V172.323C142.648 171.968 142.362 171.682 142.008 171.682H137.201C136.847 171.682 136.561 171.968 136.561 172.323V176.52H134.315C133.96 176.52 133.674 176.806 133.674 177.16V181.05C133.674 181.404 133.96 181.69 134.315 181.69H136.561V192.01C136.561 194.221 137.104 195.841 138.189 196.868C139.276 197.895 140.84 198.408 142.881 198.408C144.001 198.408 145.035 198.274 145.981 198.003C146.252 197.926 146.432 197.671 146.432 197.389V194.01C146.432 193.63 146.104 193.341 145.726 193.374ZM201.208 197.088L195.655 186.216C197.281 185.474 198.524 184.467 199.382 183.191C200.24 181.915 200.669 180.251 200.669 178.194C200.669 176.349 200.242 174.782 199.391 173.502C198.539 172.221 197.316 171.251 195.723 170.596C194.13 169.94 192.241 169.61 190.056 169.61H179.828C179.474 169.61 179.188 169.896 179.188 170.25V197.378C179.188 197.733 179.474 198.019 179.828 198.019H184.888C185.242 198.019 185.528 197.733 185.528 197.378V187.188H189.442L194.716 197.669C194.826 197.884 195.046 198.021 195.288 198.021H200.638C201.115 198.021 201.426 197.515 201.208 197.09V197.088ZM193.248 181.041C192.52 181.686 191.46 182.009 190.069 182.009H185.542V174.696H190.069C191.473 174.696 192.538 175.02 193.259 175.664C193.981 176.309 194.342 177.211 194.342 178.373C194.342 179.534 193.976 180.399 193.248 181.043V181.041ZM127.937 88.6258C125.418 87.748 122.663 89.0768 121.783 91.598C120.906 94.117 122.234 96.8714 124.756 97.7514C130.124 99.6236 133.732 104.703 133.732 110.395C133.732 117.776 127.728 123.78 120.347 123.78C114.651 123.78 109.569 120.167 107.699 114.793C106.823 112.271 104.069 110.938 101.548 111.816C99.0266 112.692 97.6934 115.446 98.5712 117.967C101.79 127.225 110.541 133.444 120.347 133.444C133.056 133.444 143.396 123.104 143.396 110.395C143.396 100.598 137.183 91.851 127.939 88.6258H127.937ZM112.77 109.838C113.296 110.021 113.833 110.109 114.361 110.109C116.358 110.109 118.228 108.859 118.923 106.866C119.801 104.347 118.472 101.593 115.951 100.713C110.583 98.8404 106.975 93.7606 106.975 88.0692C106.975 80.6882 112.979 74.6844 120.36 74.6844C126.056 74.6844 131.138 78.2968 133.008 83.6714C133.883 86.1926 136.638 87.5258 139.159 86.648C141.68 85.7724 143.013 83.018 142.136 80.4968C138.917 71.2392 130.165 65.0198 120.36 65.0198C107.651 65.0198 97.3106 75.3598 97.3106 88.0692C97.3106 97.8658 103.523 106.613 112.768 109.838H112.77ZM167.319 52.2664C163.924 48.8718 159.967 46.2032 155.56 44.3398C150.991 42.4082 146.144 41.427 141.152 41.427H99.5568C94.565 41.427 89.7184 42.406 85.149 44.3398C80.7424 46.2032 76.7846 48.8718 73.39 52.2664C69.9954 55.661 67.3268 59.6188 65.4634 64.0254C63.5318 68.5948 62.5506 73.4414 62.5506 78.4332V120.029C62.5506 125.02 63.5296 129.867 65.4634 134.436C67.3268 138.843 69.9954 142.801 73.39 146.195C76.7846 149.59 80.7424 152.259 85.149 154.122C89.7184 156.054 94.565 157.035 99.5568 157.035H141.152C146.144 157.035 150.991 156.056 155.56 154.122C159.969 152.259 163.924 149.59 167.319 146.195C170.714 142.801 173.382 138.843 175.246 134.436C177.177 129.867 178.158 125.02 178.158 120.029V78.4332C178.158 73.4414 177.179 68.5948 175.246 64.0254C173.382 59.6188 170.714 55.661 167.319 52.2664ZM168.507 120.029C168.507 135.136 156.26 147.383 141.152 147.383H99.5568C84.4494 147.383 72.202 135.136 72.202 120.029V78.4332C72.202 63.3258 84.4494 51.0784 99.5568 51.0784H141.152C156.26 51.0784 168.507 63.3258 168.507 78.4332V120.029ZM173.939 169.579H168.892C168.538 169.579 168.252 169.865 168.252 170.219V182.007H157.47V170.219C157.47 169.865 157.184 169.579 156.829 169.579H151.763C151.409 169.579 151.123 169.865 151.123 170.219V197.376C151.123 197.73 151.409 198.016 151.763 198.016H156.829C157.184 198.016 157.47 197.73 157.47 197.376V187.104H168.252V197.376C168.252 197.73 168.538 198.016 168.892 198.016H173.939C174.293 198.016 174.579 197.73 174.579 197.376V170.219C174.579 169.865 174.293 169.579 173.939 169.579Z" fill="#00C4CC"/>
</g>
<defs>
<clipPath id="clip0_835_2290">
<rect width="224.704" height="220" fill="white" transform="translate(8 10)"/>
</clipPath>
</defs>
</svg>
