<?xml version="1.0" encoding="UTF-8"?>
<svg id="SmartHR_Logo_Vertical" xmlns="http://www.w3.org/2000/svg" viewBox="0 0 1021.38 1000">
  <defs>
    <style>
      .cls-1 {
        fill: none;
      }

      .cls-2 {
        fill: #00c4cc;
      }
    </style>
  </defs>
  <rect class="cls-1" width="1021.38" height="1000"/>
  <path class="cls-2" d="M559.98,757.34c-1.61-.29-3.48-.44-5.6-.44-4.55,0-8.11.44-12.2,2.78-3.71,2.12-6.63,4.48-9.05,8.86l-.63-7.17c-.11-1.52-1.38-2.69-2.9-2.69h-20.37c-1.61,0-2.91,1.3-2.91,2.91v90.13c0,1.61,1.3,2.91,2.91,2.91h21.85c1.61,0,2.91-1.3,2.91-2.91,0,0,0-49.77,0-54.3s3.12-10.21,6.7-12.82c3.25-2.38,6.9-4.02,11.84-4.45,1.37-.12,3.52-.03,6.43.24,1.69.15,3.16-1.16,3.19-2.86l.28-17.27c.02-1.44-1.02-2.66-2.44-2.92ZM471.65,760.77c-5.88-2.57-12.64-3.86-20.26-3.86-8.22,0-15.48,1.36-21.77,4.08-6.3,2.72-11.14,6.45-14.54,11.17-2.76,3.84-4.4,8.03-4.92,12.58-.2,1.71,1.19,3.21,2.91,3.21h21.9c1.42,0,2.55-1.07,2.8-2.46.4-2.31,1.42-4.17,3.03-5.56,2.16-1.86,5.19-2.79,9.09-2.79,4.37,0,7.61,1.2,9.71,3.59,2.1,2.39,3.15,5.75,3.15,10.07v5.23h-10.38c-14.78,0-25.91,2.74-33.39,8.2-7.48,5.47-11.22,13.26-11.22,23.37,0,5.5,1.45,10.45,4.34,14.85,2.9,4.4,6.83,7.83,11.8,10.29,4.97,2.45,10.43,3.68,16.4,3.68,10.05,0,17.97-3.43,23.77-10.29v5.6c0,1.61,1.3,2.91,2.91,2.91h20.6c1.61,0,2.91-1.3,2.91-2.91,0-5.39,0-16.77,0-21.04v-39.73c0-7.39-1.67-13.62-5.01-18.71-3.34-5.08-7.95-8.91-13.83-11.48ZM462.74,827.32c-1.24,2.31-3.3,4.27-6.16,5.9-2.87,1.63-6.19,2.44-9.97,2.44-3.37,0-6.07-.9-8.11-2.71-2.04-1.8-3.06-4.15-3.06-7.05,0-4.14,1.42-7.55,4.26-10.24,2.84-2.69,7.21-4.03,13.12-4.03h9.93v15.69ZM215.29,779.76l-18.85-7.49c-11.15-4.37-19.21-7.53-19.21-15.26s6.43-12.29,17.19-12.29c9.07,0,16.84,2.54,25.43,8.42,1.25.85,2.95.57,3.89-.61l11.57-14.56c.98-1.23.79-3.01-.4-4.04-10.81-9.41-25.67-14.94-40.48-14.94-27.37,0-48.01,17.13-48.01,39.84s18.73,32.89,26.78,36.1l19.59,8.24c10.47,4.38,17.38,7.27,17.38,15.23,0,4.79-2.42,12.83-18.64,12.83-9.48,0-20.9-4.4-30.54-11.65-1.24-.93-2.98-.77-3.96.43l-13.49,16.43c-1,1.22-.87,3.05.35,4.06,12.9,10.62,29.78,16.65,46.91,16.65,34.73,0,50.55-21.4,50.55-41.29,0-17.48-8.28-28.95-26.05-36.1ZM363.36,756.91c-6.27,0-11.79,1.26-16.58,3.77-4.79,2.51-8.75,6.1-11.88,10.77-2.3-4.91-5.59-8.56-9.84-10.95-4.26-2.39-9.34-3.59-15.25-3.59s-11.08,1.09-15.7,3.28c-4.61,2.19-8.51,5.32-11.71,9.4l-.67-8.23c-.12-1.51-1.38-2.67-2.9-2.67h-20.39c-1.61,0-2.91,1.3-2.91,2.91v90.13c0,1.61,1.3,2.91,2.91,2.91h21.85c1.61,0,2.91-1.3,2.91-2.91v-60.02c1.54-2.66,3.52-4.71,5.94-6.16,2.42-1.45,5.26-2.17,8.51-2.17,2.96,0,5.38.4,7.27,1.2,1.89.8,3.34,2.29,4.35,4.48,1,2.19,1.51,5.26,1.51,9.22v53.46c0,1.61,1.3,2.91,2.91,2.91h21.85c1.61,0,2.91-1.3,2.91-2.91v-58.96c1.42-2.96,3.34-5.26,5.76-6.92,2.42-1.65,5.35-2.48,8.78-2.48,2.96,0,5.36.4,7.23,1.2,1.86.8,3.29,2.28,4.3,4.44,1,2.16,1.51,5.19,1.51,9.09v53.64c0,1.61,1.3,2.91,2.91,2.91h21.94c1.61,0,2.91-1.3,2.91-2.91v-57.75c0-13.12-2.65-22.58-7.94-28.38-5.29-5.79-12.78-8.69-22.48-8.69ZM626.02,833.52c-1.33.12-2.74.18-4.23.18-3.55,0-6.06-.68-7.54-2.04-1.48-1.36-2.22-3.93-2.22-7.71v-43.54h13.14c1.61,0,2.91-1.3,2.91-2.91v-17.68c0-1.61-1.3-2.91-2.91-2.91h-13.14v-19.08c0-1.61-1.3-2.91-2.91-2.91h-21.85c-1.61,0-2.91,1.3-2.91,2.91v19.08h-10.21c-1.61,0-2.91,1.3-2.91,2.91v17.68c0,1.61,1.3,2.91,2.91,2.91h10.21v46.91c0,10.05,2.47,17.41,7.4,22.08,4.94,4.67,12.05,7,21.33,7,5.09,0,9.79-.61,14.09-1.84,1.23-.35,2.05-1.51,2.05-2.79v-15.36c0-1.73-1.49-3.04-3.21-2.89ZM878.21,850.4l-25.24-49.42c7.39-3.37,13.04-7.95,16.94-13.75,3.9-5.8,5.85-13.36,5.85-22.71,0-8.39-1.94-15.51-5.81-21.33-3.87-5.82-9.43-10.23-16.67-13.21-7.24-2.98-15.83-4.48-25.76-4.48h-46.49c-1.61,0-2.91,1.3-2.91,2.91v123.31c0,1.61,1.3,2.91,2.91,2.91h23c1.61,0,2.91-1.3,2.91-2.91v-46.32h17.79l23.97,47.64c.5.98,1.5,1.6,2.6,1.6h24.32c2.17,0,3.58-2.3,2.59-4.23ZM842.03,777.46c-3.31,2.93-8.13,4.4-14.45,4.4h-20.58v-33.24h20.58c6.38,0,11.22,1.47,14.5,4.4,3.28,2.93,4.92,7.03,4.92,12.31s-1.66,9.21-4.97,12.14ZM545.16,357.39c-11.45-3.99-23.97,2.05-27.97,13.51-3.99,11.45,2.05,23.97,13.51,27.97,24.4,8.51,40.8,31.6,40.8,57.47,0,33.55-27.29,60.84-60.84,60.84-25.89,0-48.99-16.42-57.49-40.85-3.98-11.46-16.5-17.52-27.96-13.53-11.46,3.98-17.52,16.5-13.53,27.96,14.63,42.08,54.41,70.35,98.98,70.35,57.77,0,104.77-47,104.77-104.77,0-44.53-28.24-84.29-70.26-98.95ZM476.22,453.81c2.39.83,4.83,1.23,7.23,1.23,9.08,0,17.58-5.68,20.74-14.74,3.99-11.45-2.05-23.97-13.51-27.97-24.4-8.51-40.8-31.6-40.8-57.47,0-33.55,27.29-60.84,60.84-60.84,25.89,0,48.99,16.42,57.49,40.85,3.98,11.46,16.5,17.52,27.96,13.53,11.46-3.98,17.52-16.5,13.53-27.96-14.63-42.08-54.41-70.35-98.98-70.35-57.77,0-104.77,47-104.77,104.77,0,44.53,28.24,84.29,70.26,98.95ZM724.17,192.12c-15.43-15.43-33.42-27.56-53.45-36.03-20.77-8.78-42.8-13.24-65.49-13.24h-189.07c-22.69,0-44.72,4.45-65.49,13.24-20.03,8.47-38.02,20.6-53.45,36.03-15.43,15.43-27.56,33.42-36.03,53.45-8.78,20.77-13.24,42.8-13.24,65.49v189.07c0,22.69,4.45,44.72,13.24,65.49,8.47,20.03,20.6,38.02,36.03,53.45,15.43,15.43,33.42,27.56,53.45,36.03,20.77,8.78,42.8,13.24,65.49,13.24h189.07c22.69,0,44.72-4.45,65.49-13.24,20.04-8.47,38.02-20.6,53.45-36.03,15.43-15.43,27.56-33.42,36.03-53.45,8.78-20.77,13.24-42.8,13.24-65.49v-189.07c0-22.69-4.45-44.72-13.24-65.49-8.47-20.03-20.6-38.02-36.03-53.45ZM729.57,500.13c0,68.67-55.67,124.34-124.34,124.34h-189.07c-68.67,0-124.34-55.67-124.34-124.34v-189.07c0-68.67,55.67-124.34,124.34-124.34h189.07c68.67,0,124.34,55.67,124.34,124.34v189.07ZM754.26,725.36h-22.94c-1.61,0-2.91,1.3-2.91,2.91v53.58h-49.01v-53.58c0-1.61-1.3-2.91-2.91-2.91h-23.03c-1.61,0-2.91,1.3-2.91,2.91v123.44c0,1.61,1.3,2.91,2.91,2.91h23.03c1.61,0,2.91-1.3,2.91-2.91v-46.69h49.01v46.69c0,1.61,1.3,2.91,2.91,2.91h22.94c1.61,0,2.91-1.3,2.91-2.91v-123.44c0-1.61-1.3-2.91-2.91-2.91Z"/>
</svg>