<svg width="200" height="200" viewBox="0 0 200 200" fill="none" xmlns="http://www.w3.org/2000/svg">
<rect width="200" height="200" fill="white"/>
<g clip-path="url(#clip0_835_2732)">
<path d="M45.0877 75.1965C37.686 77.83 31.2137 82.5793 26.4795 88.8513C15.0804 102.703 18.1332 114.895 40.3421 112.326C51.7337 111.189 47.1809 97.5376 37.3837 104.682C24.1559 114.378 28.9959 130.874 45.5108 121.458C62.3923 111.903 66.726 87.0415 37.9467 92.4974C30.647 94.0011 31.6747 103.103 38.9366 101.675C43.9353 100.621 50.4113 92.9205 50.4113 87.1851C50.4113 83.6146 48.2728 82.0352 46.5008 82.9798C45.1406 83.7052 45.2161 85.7191 46.4932 86.3538C48.4164 87.3097 45.5864 93.6044 39.8094 97.6094C37.1683 99.185 35.7968 96.6082 39.0008 96.1661C51.6959 93.8462 56.3206 97.9608 54.4163 104.622C52.4365 110.894 47.7136 116.089 41.7401 118.847C31.482 123.57 31.4404 114.298 39.1293 107.652C42.5713 104.675 44.5058 107.686 41.332 108.264C34.6255 109.488 17.8272 110.792 26.6382 95.4369C31.7918 86.4634 40.361 80.7393 46.7501 78.869C49.1229 78.1776 48.4013 74.0668 45.0915 75.1965H45.0877Z" fill="url(#paint0_linear_835_2732)"/>
<path d="M91.4212 96.6194H85.4023V92.7126H101.766V96.6194H95.7473V111.978H91.425V96.6194H91.4212Z" fill="#484F5D"/>
<path d="M103.176 102.4V102.344C103.176 96.865 107.498 92.3801 113.441 92.3801C119.385 92.3801 123.654 96.8121 123.654 102.291V102.347C123.654 107.826 119.332 112.311 113.389 112.311C107.445 112.311 103.176 107.879 103.176 102.404V102.4ZM119.222 102.4V102.344C119.222 99.0413 116.8 96.2869 113.389 96.2869C109.977 96.2869 107.608 98.9846 107.608 102.287V102.344C107.608 105.646 110.03 108.4 113.441 108.4C116.853 108.4 119.222 105.702 119.222 102.4Z" fill="#484F5D"/>
<path d="M127.199 92.7126H135.908C138.357 92.7126 140.257 93.4003 141.523 94.666C142.596 95.7391 143.174 97.2542 143.174 99.0715V99.1282C143.174 102.238 141.496 104.191 139.044 105.102L143.752 111.982H138.799L134.669 105.816H131.438V111.982H127.199V92.7164V92.7126ZM135.542 102.072C137.605 102.072 138.791 100.972 138.791 99.3474V99.2907C138.791 97.4733 137.525 96.5401 135.462 96.5401H131.352V102.072H135.545H135.542Z" fill="#484F5D"/>
<path d="M146.934 92.7126H161.367V96.4834H151.146V100.39H160.131V104.161H151.146V108.207H161.507V111.978H146.937V92.7126H146.934Z" fill="#484F5D"/>
<path d="M173.89 100.447C170.561 99.5929 169.734 99.181 169.734 97.9153V97.8586C169.734 96.9216 170.587 96.1811 172.212 96.1811C173.648 96.1811 175.125 96.7403 176.625 97.6848L179.425 94.8851C177.472 93.3171 175.076 92.4368 172.269 92.4368C168.332 92.4368 165.525 94.7491 165.525 98.244V98.3007C165.525 102.128 168.03 103.201 171.91 104.191C175.129 105.019 175.79 105.566 175.79 106.639V106.696C175.79 107.826 174.744 108.513 173.009 108.513C170.924 108.513 169.182 107.697 167.531 106.394L164.75 109.175C167.062 111.238 170.006 112.258 172.926 112.258C177.082 112.258 179.999 110.112 179.999 106.284V106.228C179.999 102.869 177.796 101.467 173.89 100.447Z" fill="#484F5D"/>
<path d="M77.3819 100.447C74.0532 99.5929 73.2258 99.181 73.2258 97.9153V97.8586C73.2258 96.9216 74.0797 96.1811 75.7043 96.1811C77.1401 96.1811 78.6174 96.7403 80.1174 97.6848L82.9171 94.8851C80.9638 93.3171 78.5683 92.4368 75.761 92.4368C71.824 92.4368 69.0167 94.7491 69.0167 98.244V98.3007C69.0167 102.128 71.5218 103.201 75.4021 104.191C78.6212 105.019 79.2824 105.566 79.2824 106.639V106.696C79.2824 107.826 78.2358 108.513 76.5016 108.513C74.4159 108.513 72.6741 107.697 71.023 106.394L68.2422 109.175C70.5545 111.238 73.4978 112.258 76.4184 112.258C80.5746 112.258 83.4914 110.112 83.4914 106.284V106.228C83.4914 102.869 81.2887 101.467 77.3819 100.447Z" fill="#484F5D"/>
</g>
<defs>
<linearGradient id="paint0_linear_835_2732" x1="39.4353" y1="75" x2="39.4353" y2="124.265" gradientUnits="userSpaceOnUse">
<stop stop-color="#00A8C6"/>
<stop offset="0.15" stop-color="#00A9CE"/>
<stop offset="0.19" stop-color="#0BAACE"/>
<stop offset="0.26" stop-color="#2AADD0"/>
<stop offset="0.35" stop-color="#5CB1D3"/>
<stop offset="0.45" stop-color="#A1B8D6"/>
<stop offset="0.54" stop-color="#DBBEDA"/>
<stop offset="0.71" stop-color="#F3A7AC"/>
<stop offset="0.78" stop-color="#F199A0"/>
<stop offset="0.89" stop-color="#ED7782"/>
<stop offset="0.99" stop-color="#E95464"/>
</linearGradient>
<clipPath id="clip0_835_2732">
<rect width="160" height="49.2654" fill="white" transform="translate(20 75)"/>
</clipPath>
</defs>
</svg>
