<svg width="240" height="240" viewBox="0 0 240 240" fill="none" xmlns="http://www.w3.org/2000/svg">
<rect width="240" height="240" fill="white"/>
<g clip-path="url(#clip0_835_2296)">
<path d="M167.869 96.8711C167.869 96.8623 167.869 96.8526 167.869 96.8438V88.4576C167.869 77.9221 163.776 68.0163 156.344 60.5667C148.912 53.1172 139.03 49.0139 128.519 49.0139H108.999C98.4876 49.0139 88.6056 53.1172 81.1734 60.5667C73.7413 68.0163 69.6484 77.9221 69.6484 88.4576V95.7984L69.6834 100.183V100.204C69.6834 110.739 73.7762 120.645 81.2083 128.095C88.6405 135.544 98.5225 139.647 109.034 139.647H128.554C139.065 139.647 148.947 135.544 156.379 128.095C163.808 120.648 167.901 110.748 167.905 100.217L167.87 96.8691L167.869 96.8711Z" fill="#FFD700"/>
<path d="M173.088 100.178L173.053 96.8293V88.4577C173.053 76.5337 168.421 65.3239 160.009 56.893C151.598 48.4621 140.415 43.8186 128.519 43.8186H108.999C97.104 43.8186 85.9204 48.4621 77.5087 56.893C69.0979 65.3239 64.4648 76.5337 64.4648 88.4577V95.8305L64.4998 100.216C64.5027 112.137 69.1348 123.341 77.5436 131.769C85.9543 140.2 97.1379 144.844 109.034 144.844H128.554C140.449 144.844 151.633 140.2 160.045 131.769C168.456 123.339 173.089 112.129 173.089 100.205C173.089 100.196 173.089 100.186 173.089 100.178H173.088ZM128.554 139.648H109.034C98.5229 139.648 88.6408 135.545 81.2087 128.096C73.7766 120.646 69.6837 110.74 69.6837 100.205V100.184L69.6488 95.7994V88.4586C69.6488 77.9231 73.7417 68.0173 81.1738 60.5677C88.6059 53.1182 98.488 49.0149 108.999 49.0149H128.519C139.031 49.0149 148.913 53.1182 156.345 60.5677C163.777 68.0173 167.87 77.9231 167.87 88.4586V96.8449C167.87 96.8536 167.87 96.8633 167.87 96.8721L167.905 100.22C167.901 110.751 163.808 120.651 156.379 128.098C148.947 135.547 139.064 139.65 128.553 139.65L128.554 139.648Z" fill="black"/>
<path d="M88.2815 63.5837C96.1603 63.5837 102.547 57.185 102.547 49.2918C102.547 41.3987 96.1603 35 88.2815 35C80.4027 35 74.0156 41.3987 74.0156 49.2918C74.0156 57.185 80.4027 63.5837 88.2815 63.5837Z" fill="black"/>
<path d="M140.917 79.2999C140.917 82.4558 138.364 85.0151 135.214 85.0151C132.063 85.0151 129.508 82.4558 129.508 79.2999C129.508 76.144 132.061 73.5847 135.214 73.5847C138.366 73.5847 140.917 76.143 140.917 79.2999Z" fill="black"/>
<path d="M107.101 79.2999C107.101 82.4558 104.547 85.0151 101.397 85.0151C98.247 85.0151 95.6914 82.4558 95.6914 79.2999C95.6914 76.144 98.2451 73.5847 101.397 73.5847C104.549 73.5847 107.101 76.143 107.101 79.2999Z" fill="black"/>
<path d="M120.009 89.4613C119.154 89.1611 118.776 88.2973 118.63 87.3714C120.331 87.006 121.608 85.4932 121.608 83.6811C121.608 81.5959 119.919 79.9053 117.835 79.9053C115.752 79.9053 114.062 81.595 114.062 83.6811C114.062 85.4446 115.273 86.9215 116.905 87.3364C117.087 88.8521 117.712 90.4612 119.445 91.0704L119.727 91.119C120.079 91.119 120.407 90.8994 120.53 90.5486C120.686 90.1046 120.452 89.6178 120.008 89.4613H120.009Z" fill="black"/>
<path d="M146.758 63.5837C154.637 63.5837 161.024 57.185 161.024 49.2918C161.024 41.3987 154.637 35 146.758 35C138.879 35 132.492 41.3987 132.492 49.2918C132.492 57.185 138.879 63.5837 146.758 63.5837Z" fill="black"/>
<path d="M180.596 101.94C176.726 105.401 172.991 108.036 169.976 110.395L169.669 111.47C168.181 116.667 165.795 121.362 162.73 125.438C170.614 120.122 179.141 112.147 180.596 101.94Z" fill="#0A0000"/>
<path d="M162.732 125.753C162.648 125.753 162.565 125.719 162.504 125.655C162.399 125.543 162.389 125.371 162.481 125.249C165.608 121.089 167.925 116.424 169.368 111.384L169.676 110.308C169.694 110.244 169.732 110.187 169.784 110.147C170.609 109.501 171.481 108.84 172.405 108.139C174.832 106.299 177.583 104.213 180.388 101.705C180.487 101.617 180.629 101.6 180.746 101.662C180.862 101.724 180.927 101.854 180.909 101.985C180.238 106.686 178.02 111.309 174.315 115.726C171.396 119.207 167.557 122.563 162.907 125.7C162.853 125.736 162.792 125.753 162.731 125.753H162.732ZM170.253 110.581L169.973 111.557C168.679 116.079 166.691 120.303 164.055 124.138C170.804 119.324 178.436 112.005 180.145 102.76C177.553 105.026 175.031 106.938 172.785 108.642C171.893 109.318 171.049 109.958 170.253 110.58V110.581Z" fill="black"/>
<g style="mix-blend-mode:multiply">
<path d="M44 173.536H54.1982V204.1H61.9669V173.536H72.1651V165.937H44V173.536Z" fill="black"/>
<path d="M163.738 192.652C163.922 191.688 164.021 190.693 164.021 189.672C164.021 181.207 157.359 174.345 149.142 174.345C140.924 174.345 134.262 181.207 134.262 189.672C134.262 198.137 140.924 205 149.142 205C155.395 205 160.744 201.024 162.946 195.393H154.567C153.201 196.978 151.276 197.967 149.142 197.967C145.951 197.967 143.227 195.761 142.145 192.652H163.737H163.738ZM149.142 181.377C152.222 181.377 154.866 183.432 156.02 186.369H142.265C143.419 183.432 146.063 181.377 149.142 181.377Z" fill="black"/>
<path d="M195.988 192.652C196.172 191.688 196.271 190.693 196.271 189.672C196.271 181.207 189.609 174.345 181.391 174.345C173.174 174.345 166.512 181.207 166.512 189.672C166.512 198.137 173.174 205 181.391 205C187.645 205 192.994 201.024 195.196 195.393H186.817C185.451 196.978 183.526 197.967 181.391 197.967C178.201 197.967 175.477 195.761 174.395 192.652H195.987H195.988ZM181.391 181.377C184.471 181.377 187.115 183.432 188.269 186.369H174.514C175.668 183.432 178.312 181.377 181.391 181.377Z" fill="black"/>
<path d="M83.1392 176.598H75.5703V204.101H83.1392V176.598Z" fill="black"/>
<path d="M79.3584 165.143C76.861 165.143 74.8281 167.179 74.8281 169.682C74.8281 172.185 76.86 174.22 79.3584 174.22C81.8568 174.22 83.8887 172.185 83.8887 169.682C83.8887 167.179 81.8568 165.143 79.3584 165.143Z" fill="black"/>
<path d="M119.055 174.493C117.599 174.493 113.288 174.493 110.14 178.508C107.205 174.695 101.763 174.493 100.661 174.493C95.8734 174.493 88.2773 177.904 88.2773 187.055V204.1H95.8462V189.797C95.8462 186.907 95.8462 181.527 100.661 181.527C105.067 181.527 105.725 185.738 105.725 188.248V204.1H113.294V189.567C113.292 187.895 113.289 185.368 114.225 183.893C115.078 182.455 116.72 181.526 118.408 181.526C121.615 181.526 123.173 183.725 123.173 188.247V204.099H130.742V187.448C130.742 182.59 129.371 180.053 128.561 178.984C127.365 177.307 124.54 174.492 119.056 174.492L119.055 174.493Z" fill="black"/>
</g>
</g>
<defs>
<clipPath id="clip0_835_2296">
<rect width="152.27" height="170" fill="white" transform="translate(44 35)"/>
</clipPath>
</defs>
</svg>
