<?xml version="1.0" encoding="UTF-8"?>
<svg xmlns="http://www.w3.org/2000/svg" viewBox="0 0 1970 2400">
  <defs>
    <style>
      .cls-1 {
        fill: #0a0000;
      }

      .cls-2 {
        isolation: isolate;
      }

      .cls-3 {
        mix-blend-mode: multiply;
      }

      .cls-4 {
        fill: gold;
      }
    </style>
  </defs>
  <g class="cls-2">
    <g id="logo">
      <g>
        <g>
          <g>
            <path class="cls-4" d="M1477.17,961.96c0-.09,0-.19,0-.28v-86.31c0-108.43-42.2-210.38-118.83-287.05-76.63-76.67-178.52-118.9-286.9-118.9h-201.26c-108.38,0-210.27,42.23-286.9,118.9-76.63,76.67-118.83,178.62-118.83,287.05v75.55l.36,45.13v.21c0,108.43,42.2,210.38,118.83,287.05,76.63,76.67,178.52,118.9,286.9,118.9h201.26c108.38,0,210.27-42.23,286.9-118.9,76.6-76.64,118.8-178.53,118.84-286.91l-.36-34.46Z"/>
            <path d="M1530.96,995.99l-.36-34.46v-86.16c0-122.72-47.76-238.09-134.49-324.86-86.72-86.77-202.03-134.56-324.68-134.56h-201.26c-122.65,0-237.96,47.79-324.69,134.56-86.72,86.77-134.49,202.14-134.49,324.86v75.88l.36,45.14c.03,122.68,47.79,238,134.49,324.74,86.72,86.77,202.03,134.56,324.69,134.56h201.26c122.65,0,237.96-47.79,324.69-134.56,86.73-86.77,134.49-202.14,134.49-324.86,0-.09,0-.19,0-.28ZM1071.79,1402.22h-201.26c-108.38,0-210.27-42.23-286.9-118.9-76.63-76.67-118.83-178.62-118.83-287.05v-.21l-.36-45.13v-75.55c0-108.43,42.2-210.38,118.83-287.05,76.63-76.67,178.52-118.9,286.9-118.9h201.26c108.38,0,210.27,42.23,286.9,118.9,76.63,76.67,118.83,178.62,118.83,287.05v86.31c0,.09,0,.19,0,.28l.36,34.46c-.04,108.38-42.24,210.27-118.84,286.91-76.63,76.67-178.52,118.9-286.9,118.9Z"/>
          </g>
          <circle cx="656.55" cy="472.28" r="147.09"/>
          <path d="M1199.26,781.12c0,32.48-26.33,58.82-58.81,58.82s-58.83-26.34-58.83-58.82,26.33-58.82,58.83-58.82,58.81,26.33,58.81,58.82Z"/>
          <path d="M850.61,781.12c0,32.48-26.33,58.82-58.81,58.82s-58.83-26.34-58.83-58.82,26.33-58.82,58.83-58.82,58.81,26.33,58.81,58.82Z"/>
          <path d="M983.67,885.7c-8.81-3.09-12.71-11.98-14.22-21.51,17.54-3.76,30.71-19.33,30.71-37.98,0-21.46-17.42-38.86-38.9-38.86s-38.9,17.39-38.9,38.86c0,18.15,12.48,33.35,29.31,37.62,1.87,15.6,8.32,32.16,26.19,38.43l2.9.5c3.63,0,7.02-2.26,8.28-5.87,1.61-4.57-.8-9.58-5.38-11.19Z"/>
          <circle cx="1259.48" cy="472.28" r="147.09"/>
          <g>
            <path class="cls-1" d="M1608.41,1014.13c-39.91,35.62-78.42,62.74-109.5,87.02l-3.17,11.06c-15.34,53.49-39.94,101.81-71.54,143.76,81.28-54.72,169.2-136.79,184.21-241.84Z"/>
            <path d="M1424.2,1259.21c-.87,0-1.72-.35-2.35-1.01-1.09-1.15-1.19-2.92-.24-4.18,32.24-42.81,56.13-90.82,71.01-142.7l3.17-11.07c.19-.66.58-1.24,1.12-1.66,8.5-6.64,17.5-13.45,27.02-20.66,25.03-18.94,53.39-40.41,82.31-66.22,1.02-.91,2.49-1.08,3.69-.44,1.2.64,1.87,1.97,1.68,3.32-6.91,48.38-29.78,95.96-67.98,141.42-30.1,35.83-69.68,70.37-117.63,102.65-.55.37-1.18.55-1.81.55ZM1501.74,1103.06l-2.88,10.05c-13.34,46.54-33.84,90.01-61.02,129.48,69.58-49.55,148.28-124.87,165.9-220.02-26.73,23.32-52.73,43-75.89,60.53-9.2,6.96-17.9,13.55-26.11,19.95Z"/>
          </g>
        </g>
        <g class="cls-3">
          <polygon points="200 1750.99 305.15 1750.99 305.15 2065.56 385.25 2065.56 385.25 1751 490.4 1751 490.4 1672.78 200 1672.78 200 1750.99"/>
          <path d="M1434.56,1947.73c1.9-9.92,2.92-20.17,2.92-30.67,0-87.12-68.69-157.75-153.42-157.75s-153.42,70.63-153.42,157.75,68.69,157.75,153.42,157.75c64.48,0,119.63-40.92,142.33-98.87h-86.39c-14.08,16.31-33.93,26.49-55.94,26.49-32.9,0-60.98-22.71-72.14-54.7h222.63ZM1284.07,1831.69c31.75,0,59.01,21.14,70.91,51.37h-141.82c11.9-30.23,39.16-51.37,70.91-51.37Z"/>
          <path d="M1767.08,1947.73c1.9-9.92,2.92-20.17,2.92-30.67,0-87.12-68.69-157.75-153.42-157.75s-153.42,70.63-153.42,157.75,68.69,157.75,153.42,157.75c64.48,0,119.63-40.92,142.33-98.87h-86.39c-14.08,16.31-33.93,26.49-55.94,26.49-32.9,0-60.98-22.71-72.14-54.7h222.63ZM1616.58,1831.69c31.75,0,59.01,21.14,70.91,51.37h-141.82c11.9-30.23,39.16-51.37,70.91-51.37Z"/>
          <rect x="525.53" y="1782.5" width="78.04" height="283.06"/>
          <path d="M564.55,1664.61c-25.75,0-46.71,20.95-46.71,46.71s20.95,46.71,46.71,46.71,46.71-20.95,46.71-46.71-20.95-46.71-46.71-46.71Z"/>
          <path d="M973.86,1760.85c-15.01,0-59.46,0-91.92,41.32-30.26-39.25-86.37-41.32-97.74-41.32-49.36,0-127.68,35.1-127.68,129.28v175.43h78.04v-147.21c0-29.74,0-85.11,49.64-85.11,45.43,0,52.22,43.34,52.22,69.17v163.15h78.04v-149.57c-.02-17.21-.05-43.22,9.6-58.4,8.79-14.8,25.72-24.36,43.13-24.36,33.06,0,49.13,22.63,49.13,69.17v163.15h78.04v-171.37c0-50-14.14-76.11-22.49-87.11-12.33-17.26-41.46-46.23-98-46.23Z"/>
        </g>
      </g>
    </g>
  </g>
</svg>