<svg width="320" height="320" viewBox="0 0 320 320" fill="none" xmlns="http://www.w3.org/2000/svg">
<rect width="320" height="320" fill="white"/>
<path d="M162.641 69.6787H157.355V198.709H162.641V69.6787Z" fill="#333333"/>
<path d="M129.881 112.005V85.5249L124.605 88.5719V109.362L129.881 112.005Z" fill="#333333"/>
<path d="M140.805 117.467V79.2344L135.52 82.2814V114.824L140.805 117.467Z" fill="#333333"/>
<path d="M151.717 122.929V72.9331L146.441 75.9801V120.286L151.717 122.929Z" fill="#333333"/>
<path d="M118.969 106.543V91.8262L113.684 94.8731V103.9L118.969 106.543Z" fill="#333333"/>
<path d="M113.684 164.488V173.514L118.969 176.561V161.845L113.684 164.488Z" fill="#333333"/>
<path d="M146.441 148.102V192.408L151.717 195.455V145.47L146.441 148.102Z" fill="#333333"/>
<path d="M124.605 159.026V179.816L129.881 182.863V156.383L124.605 159.026Z" fill="#333333"/>
<path d="M135.52 153.564V186.107L140.805 189.164V150.921L135.52 153.564Z" fill="#333333"/>
<path d="M102.77 101.174V139.479H116.325L111.568 134.194H108.045V98.1274L102.77 101.174Z" fill="#333333"/>
<path d="M102.77 150.704V167.214L108.045 170.26V148.061L102.77 150.704Z" fill="#333333"/>
<path d="M190.117 112.005V85.5249L195.392 88.5719V109.362L190.117 112.005Z" fill="#333333"/>
<path d="M179.191 117.467V79.2344L184.477 82.2814V114.824L179.191 117.467Z" fill="#333333"/>
<path d="M168.281 122.929V72.9331L173.556 75.9801V120.286L168.281 122.929Z" fill="#333333"/>
<path d="M201.031 106.543V91.8262L206.317 94.8731V103.9L201.031 106.543Z" fill="#333333"/>
<path d="M206.317 164.488V173.514L201.031 176.561V161.845L206.317 164.488Z" fill="#333333"/>
<path d="M173.556 148.102V192.408L168.281 195.455V145.47L173.556 148.102Z" fill="#333333"/>
<path d="M195.392 159.026V179.816L190.117 182.863V156.383L195.392 159.026Z" fill="#333333"/>
<path d="M184.477 153.564V186.107L179.191 189.164V150.921L184.477 153.564Z" fill="#333333"/>
<path d="M217.228 101.174V139.479H203.672L208.429 134.194H211.953V98.1274L217.228 101.174Z" fill="#333333"/>
<path d="M217.228 150.704V167.214L211.953 170.26V148.061L217.228 150.704Z" fill="#333333"/>
<path d="M191.434 124.245V126.494H201.031V119.446L191.434 124.245Z" fill="#333333"/>
<path d="M128.566 124.245V126.494H118.969V119.446L128.566 124.245Z" fill="#333333"/>
<path d="M133.624 218.234C138.982 218.234 143.304 219.633 146.589 222.442C148.434 223.997 149.812 225.914 150.735 228.163C151.491 230.018 151.875 232.018 151.875 234.153C151.875 237.045 151.045 239.76 149.398 242.289C147.584 245.077 145.065 247.098 141.842 248.321C139.438 249.243 136.712 249.699 133.665 249.699C128.338 249.699 124.037 248.3 120.762 245.491C118.938 243.916 117.549 242.009 116.617 239.771C115.86 237.926 115.477 235.988 115.477 233.956C115.477 230.941 116.295 228.163 117.922 225.624C119.705 222.877 122.234 220.867 125.498 219.613C127.789 218.732 130.483 218.276 133.603 218.234H133.624ZM133.624 221.292C129.064 221.292 125.457 222.566 122.793 225.126C120.358 227.469 119.135 230.422 119.135 233.967C119.135 237.511 120.348 240.486 122.793 242.828C125.436 245.377 129.064 246.663 133.665 246.663C138.267 246.663 141.925 245.388 144.578 242.828C147.004 240.486 148.206 237.584 148.206 234.143C148.206 230.412 146.993 227.406 144.578 225.116C143.127 223.748 141.562 222.794 139.904 222.245C138.059 221.623 135.966 221.302 133.624 221.292Z" fill="#333333"/>
<path d="M59.7389 217.633C59.6353 218.089 59.4798 218.39 59.2622 218.545C59.0549 218.701 58.7025 218.773 58.205 218.773H33.0726C32.5752 218.773 32.2228 218.701 32.0155 218.545C31.8082 218.39 31.6528 218.089 31.5388 217.633H30.9688V222.815H31.5388C31.6424 222.359 31.7979 222.048 32.0155 221.903C32.2228 221.748 32.5752 221.675 33.0726 221.675H43.8925V247.088C43.8925 247.585 43.82 247.937 43.6645 248.134C43.5091 248.342 43.2085 248.497 42.7525 248.611V249.181H48.5355V248.611C48.0795 248.497 47.779 248.331 47.6235 248.124C47.4681 247.917 47.3955 247.564 47.3955 247.077V221.665H58.2154C58.7129 221.665 59.0652 221.738 59.2725 221.893C59.4798 222.048 59.6353 222.349 59.7493 222.805H60.3193V217.623H59.7493L59.7389 217.633Z" fill="#333333"/>
<path d="M255.895 217.633C255.792 218.089 255.636 218.39 255.418 218.545C255.211 218.701 254.859 218.773 254.361 218.773H229.229C228.731 218.773 228.379 218.701 228.172 218.545C227.964 218.39 227.809 218.089 227.695 217.633H227.125V222.815H227.695C227.799 222.359 227.954 222.048 228.172 221.903C228.379 221.748 228.731 221.675 229.229 221.675H240.049V247.088C240.049 247.585 239.976 247.937 239.821 248.134C239.665 248.342 239.365 248.497 238.909 248.611V249.181H244.692V248.611C244.236 248.497 243.935 248.331 243.78 248.124C243.624 247.917 243.552 247.564 243.552 247.077V221.665H254.372C254.869 221.665 255.221 221.738 255.429 221.893C255.636 222.048 255.792 222.349 255.906 222.805H256.476V217.623H255.906L255.895 217.633Z" fill="#333333"/>
<path d="M288.458 245.15C288.354 245.606 288.188 245.906 287.981 246.062C287.774 246.217 287.421 246.29 286.924 246.29H266.911V234.993H280.022C280.519 234.993 280.872 235.065 281.079 235.221C281.286 235.376 281.442 235.677 281.556 236.133H282.126V230.951H281.556C281.452 231.407 281.286 231.708 281.079 231.863C280.872 232.018 280.519 232.091 280.022 232.091H266.911V221.665H286.644C287.142 221.665 287.494 221.748 287.701 221.903C287.909 222.059 288.064 222.359 288.178 222.805H288.748V217.623H288.178C288.064 218.079 287.898 218.38 287.701 218.535C287.494 218.691 287.152 218.763 286.655 218.763H262.289V219.333C262.745 219.447 263.046 219.613 263.201 219.81C263.357 220.017 263.429 220.359 263.429 220.857V247.056C263.429 247.554 263.357 247.906 263.211 248.103C263.066 248.311 262.755 248.466 262.289 248.58V249.15H286.934C287.432 249.15 287.784 249.223 287.991 249.378C288.199 249.533 288.365 249.834 288.479 250.29H289.049V249.15V245.118H288.479L288.458 245.15Z" fill="#333333"/>
<path d="M226.13 248.01C225.985 247.834 225.726 247.367 225.353 246.6L225.052 245.958C224.876 245.595 224.679 245.181 224.462 244.714L221.777 238.89L213.787 221.54L213.528 220.991C213.31 220.525 213.206 220.235 213.206 220.1C213.206 219.789 213.497 219.54 214.077 219.354V218.784H207.465V219.354C208.045 219.509 208.335 219.737 208.335 220.048C208.335 220.214 208.232 220.525 208.014 220.991L207.755 221.54L196.614 245.574C196.541 245.74 196.469 245.896 196.396 246.041L196.106 246.673C195.774 247.378 195.495 247.844 195.277 248.082C195.018 248.352 194.655 248.538 194.168 248.621V249.191H200.314V248.621C199.609 248.507 199.257 248.269 199.257 247.906C199.257 247.73 199.36 247.419 199.557 246.984L199.816 246.435L202.49 240.662H218.751L221.238 246.124C221.311 246.279 221.384 246.435 221.446 246.569L221.684 247.098C221.84 247.45 221.912 247.699 221.912 247.844C221.912 248.269 221.57 248.528 220.876 248.632V249.202H227.426V248.632C226.752 248.466 226.306 248.259 226.109 248.031L226.13 248.01ZM203.806 237.75L210.647 222.722L217.497 237.75H203.806Z" fill="#333333"/>
<path d="M113.205 218.774H108.189V219.344C108.853 219.478 109.184 219.768 109.184 220.214C109.184 220.473 109.05 221.012 108.78 221.821L108.521 222.587C108.521 222.587 108.5 222.65 108.49 222.691L105.619 231.148L101.194 244.175L93.825 222.691C93.6902 222.297 93.5762 221.955 93.483 221.665L93.286 221.085C93.1513 220.639 93.0788 220.359 93.0788 220.245C93.0788 219.81 93.4208 219.499 94.0944 219.333V218.763H87.1195V219.333C87.7932 219.447 88.1352 219.727 88.1352 220.152C88.1352 220.245 88.0626 220.515 87.9279 220.95L87.7414 221.499C87.6377 221.821 87.5134 222.214 87.3475 222.681L79.8337 244.165L74.6932 229.573L72.2681 222.681C72.1541 222.37 72.0608 222.09 71.9779 221.841L71.7602 221.23C71.5944 220.712 71.5115 220.38 71.5115 220.245C71.5115 219.727 71.8639 219.416 72.579 219.333V218.763H66.1016V219.333C66.6716 219.437 67.0758 219.654 67.3245 219.965C67.5318 220.235 67.822 220.836 68.1743 221.769L68.4438 222.525C68.5163 222.722 68.5993 222.929 68.6822 223.157L76.8178 245.543C76.8178 245.543 76.8385 245.606 76.8489 245.637L77.108 246.341C77.3567 247.026 77.4707 247.492 77.4707 247.73C77.4707 248.186 77.1287 248.476 76.4551 248.601V249.171H83.0154V248.601C82.3418 248.414 81.9998 248.124 81.9998 247.73C81.9998 247.513 82.0827 247.14 82.2381 246.642L82.4558 246.01C82.4972 245.865 82.5491 245.709 82.6112 245.543L90.3116 223.313L98.2711 245.72C98.354 245.948 98.4265 246.155 98.4887 246.341L98.6856 246.911C98.81 247.274 98.8722 247.513 98.8722 247.627C98.8722 248.124 98.5302 248.456 97.8565 248.611V249.181H104.292V248.611C103.619 248.445 103.277 248.124 103.277 247.647C103.277 247.419 103.391 246.963 103.629 246.279L106.469 238.102L111.661 223.168C111.734 222.961 111.806 222.753 111.868 222.567L112.128 221.81C112.449 220.919 112.718 220.328 112.946 220.038C113.216 219.696 113.641 219.468 114.221 219.354V218.784H113.174L113.205 218.774Z" fill="#333333"/>
<path d="M189.484 240.019V236.496C189.484 235.998 189.556 235.646 189.712 235.449C189.867 235.252 190.168 235.086 190.624 234.972V234.402H178.425C177.928 234.402 177.575 234.33 177.368 234.174C177.161 234.019 177.005 233.718 176.891 233.262H176.321V238.444H176.891C176.995 237.988 177.151 237.688 177.368 237.532C177.575 237.377 177.928 237.304 178.425 237.304H186.146V242.921C184.841 244.113 183.234 245.036 181.327 245.699C179.42 246.362 177.41 246.694 175.306 246.694C171.316 246.694 168.03 245.616 165.46 243.471C162.672 241.139 161.273 238.009 161.273 234.081C161.273 230.153 162.734 226.837 165.657 224.463C168.207 222.37 171.347 221.323 175.078 221.323C178.28 221.323 181.42 222.152 184.478 223.81C186.064 224.65 186.862 225.303 186.862 225.759C186.862 225.976 186.82 226.215 186.613 226.515L187.193 226.919L190.323 221.945L189.722 221.541C189.37 222.059 189.069 222.256 188.768 222.256C188.623 222.256 188.23 222.08 187.587 221.717C185.39 220.483 183.338 219.603 181.441 219.064C179.545 218.525 177.472 218.266 175.244 218.266C172.704 218.266 170.331 218.659 168.113 219.447C164.983 220.577 162.486 222.37 160.631 224.816C158.63 227.479 157.625 230.516 157.625 233.946C157.625 236.34 158.133 238.61 159.159 240.766C160.061 242.652 161.294 244.269 162.838 245.626C165.968 248.373 170.082 249.751 175.161 249.751C179.286 249.751 182.965 248.849 186.188 247.036C187.245 246.445 188.354 245.678 189.504 244.745C189.877 244.445 190.261 244.124 190.644 243.782V243.284C190.188 243.17 189.888 243.004 189.732 242.807C189.577 242.61 189.504 242.258 189.504 241.761V240.061L189.484 240.019Z" fill="#333333"/>
</svg>
