<?xml version="1.0" encoding="UTF-8"?>
<svg id="_レイヤー_1" data-name="レイヤー_1" xmlns="http://www.w3.org/2000/svg" viewBox="0 0 260.52 260.52">
  <defs>
    <style>
      .cls-1 {
        fill: #333;
      }
    </style>
  </defs>
  <g>
    <rect class="cls-1" x="127.71" y="43.11" width="5.1" height="124.5"/>
    <polygon class="cls-1" points="101.2 83.95 101.2 58.4 96.11 61.34 96.11 81.4 101.2 83.95"/>
    <polygon class="cls-1" points="111.74 89.22 111.74 52.33 106.64 55.27 106.64 86.67 111.74 89.22"/>
    <polygon class="cls-1" points="122.27 94.49 122.27 46.25 117.18 49.19 117.18 91.94 122.27 94.49"/>
    <polygon class="cls-1" points="90.67 78.68 90.67 64.48 85.57 67.42 85.57 76.13 90.67 78.68"/>
    <polygon class="cls-1" points="85.57 134.59 85.57 143.3 90.67 146.24 90.67 132.04 85.57 134.59"/>
    <polygon class="cls-1" points="117.18 118.78 117.18 161.53 122.27 164.47 122.27 116.24 117.18 118.78"/>
    <polygon class="cls-1" points="96.11 129.32 96.11 149.38 101.2 152.32 101.2 126.77 96.11 129.32"/>
    <polygon class="cls-1" points="106.64 124.05 106.64 155.45 111.74 158.4 111.74 121.5 106.64 124.05"/>
    <polygon class="cls-1" points="75.04 73.5 75.04 110.46 88.12 110.46 83.53 105.36 80.13 105.36 80.13 70.56 75.04 73.5"/>
    <polygon class="cls-1" points="75.04 121.29 75.04 137.22 80.13 140.16 80.13 118.74 75.04 121.29"/>
    <polygon class="cls-1" points="159.32 83.95 159.32 58.4 164.41 61.34 164.41 81.4 159.32 83.95"/>
    <polygon class="cls-1" points="148.78 89.22 148.78 52.33 153.88 55.27 153.88 86.67 148.78 89.22"/>
    <polygon class="cls-1" points="138.25 94.49 138.25 46.25 143.34 49.19 143.34 91.94 138.25 94.49"/>
    <polygon class="cls-1" points="169.85 78.68 169.85 64.48 174.95 67.42 174.95 76.13 169.85 78.68"/>
    <polygon class="cls-1" points="174.95 134.59 174.95 143.3 169.85 146.24 169.85 132.04 174.95 134.59"/>
    <polygon class="cls-1" points="143.34 118.78 143.34 161.53 138.25 164.47 138.25 116.24 143.34 118.78"/>
    <polygon class="cls-1" points="164.41 129.32 164.41 149.38 159.32 152.32 159.32 126.77 164.41 129.32"/>
    <polygon class="cls-1" points="153.88 124.05 153.88 155.45 148.78 158.4 148.78 121.5 153.88 124.05"/>
    <polygon class="cls-1" points="185.48 73.5 185.48 110.46 172.4 110.46 176.99 105.36 180.39 105.36 180.39 70.56 185.48 73.5"/>
    <polygon class="cls-1" points="185.48 121.29 185.48 137.22 180.39 140.16 180.39 118.74 185.48 121.29"/>
    <polygon class="cls-1" points="160.59 95.76 160.59 97.93 169.85 97.93 169.85 91.13 160.59 95.76"/>
    <polygon class="cls-1" points="99.93 95.76 99.93 97.93 90.67 97.93 90.67 91.13 99.93 95.76"/>
  </g>
  <g>
    <path class="cls-1" d="M104.81,186.45c5.17,0,9.34,1.35,12.51,4.06,1.78,1.5,3.11,3.35,4,5.52.73,1.79,1.1,3.72,1.1,5.78,0,2.79-.8,5.41-2.39,7.85-1.75,2.69-4.18,4.64-7.29,5.82-2.32.89-4.95,1.33-7.89,1.33-5.14,0-9.29-1.35-12.45-4.06-1.76-1.52-3.1-3.36-4-5.52-.73-1.78-1.1-3.65-1.1-5.61,0-2.91.79-5.59,2.36-8.04,1.72-2.65,4.16-4.59,7.31-5.8,2.21-.85,4.81-1.29,7.82-1.33ZM104.81,189.4c-4.4,0-7.88,1.23-10.45,3.7-2.35,2.26-3.53,5.11-3.53,8.53s1.17,6.29,3.53,8.55c2.55,2.46,6.05,3.7,10.49,3.7s7.97-1.23,10.53-3.7c2.34-2.26,3.5-5.06,3.5-8.38,0-3.6-1.17-6.5-3.5-8.71-1.4-1.32-2.91-2.24-4.51-2.77-1.78-.6-3.8-.91-6.06-.92Z"/>
    <path class="cls-1" d="M33.52,185.87c-.1.44-.25.73-.46.88-.2.15-.54.22-1.02.22H7.79c-.48,0-.82-.07-1.02-.22-.2-.15-.35-.44-.46-.88h-.55v5h.55c.1-.44.25-.74.46-.88.2-.15.54-.22,1.02-.22h10.44v24.52c0,.48-.07.82-.22,1.01-.15.2-.44.35-.88.46v.55h5.58v-.55c-.44-.11-.73-.27-.88-.47-.15-.2-.22-.54-.22-1.01v-24.52h10.44c.48,0,.82.07,1.02.22.2.15.35.44.46.88h.55v-5h-.55Z"/>
    <path class="cls-1" d="M222.79,185.87c-.1.44-.25.73-.46.88-.2.15-.54.22-1.02.22h-24.25c-.48,0-.82-.07-1.02-.22-.2-.15-.35-.44-.46-.88h-.55v5h.55c.1-.44.25-.74.46-.88.2-.15.54-.22,1.02-.22h10.44v24.52c0,.48-.07.82-.22,1.01-.15.2-.44.35-.88.46v.55h5.58v-.55c-.44-.11-.73-.27-.88-.47-.15-.2-.22-.54-.22-1.01v-24.52h10.44c.48,0,.82.07,1.02.22.2.15.35.44.46.88h.55v-5h-.55Z"/>
    <path class="cls-1" d="M254.21,212.42c-.1.44-.26.73-.46.88-.2.15-.54.22-1.02.22h-19.31v-10.9h12.65c.48,0,.82.07,1.02.22.2.15.35.44.46.88h.55v-5h-.55c-.1.44-.26.73-.46.88-.2.15-.54.22-1.02.22h-12.65v-10.06h19.04c.48,0,.82.08,1.02.23.2.15.35.44.46.87h.55v-5h-.55c-.11.44-.27.73-.46.88-.2.15-.53.22-1.01.22h-23.51v.55c.44.11.73.27.88.46.15.2.22.53.22,1.01v25.28c0,.48-.07.82-.21,1.01-.14.2-.44.35-.89.46v.55h23.78c.48,0,.82.07,1.02.22.2.15.36.44.47.88h.55v-1.1h0v-3.89h-.55Z"/>
    <path class="cls-1" d="M194.07,215.18c-.14-.17-.39-.62-.75-1.36l-.29-.62c-.17-.35-.36-.75-.57-1.2l-2.59-5.62h0s-7.71-16.74-7.71-16.74c0,0,0,0,0,0l-.25-.53c-.21-.45-.31-.73-.31-.86,0-.3.28-.54.84-.72v-.55h-6.38v.55c.56.15.84.37.84.67,0,.16-.1.46-.31.91l-.25.53h0s-10.75,23.19-10.75,23.19c-.07.16-.14.31-.21.45l-.28.61c-.32.68-.59,1.13-.8,1.36-.25.26-.6.44-1.07.52v.55h5.93v-.55c-.68-.11-1.02-.34-1.02-.69,0-.17.1-.47.29-.89h0l.25-.53h0l2.58-5.57h15.69l2.4,5.27c.07.15.14.3.2.43l.23.51c.15.34.22.58.22.72,0,.41-.33.66-1,.76v.55h6.32v-.55c-.65-.16-1.08-.36-1.27-.58ZM172.53,205.28l6.6-14.5,6.61,14.5h-13.21Z"/>
    <path class="cls-1" d="M85.11,186.97h-4.84v.55c.64.13.96.41.96.84,0,.25-.13.77-.39,1.55l-.25.74s-.02.06-.03.1l-2.77,8.16h0s-4.27,12.57-4.27,12.57l-7.11-20.73c-.13-.38-.24-.71-.33-.99l-.19-.56c-.13-.43-.2-.7-.2-.81,0-.42.33-.72.98-.88v-.55h-6.73v.55c.65.11.98.38.98.79,0,.09-.07.35-.2.77l-.18.53c-.1.31-.22.69-.38,1.14l-7.25,20.73-4.96-14.08h0s-2.34-6.65-2.34-6.65c-.11-.3-.2-.57-.28-.81l-.21-.59h0c-.16-.5-.24-.82-.24-.95,0-.5.34-.8,1.03-.88v-.55h-6.25v.55c.55.1.94.31,1.18.61.2.26.48.84.82,1.74l.26.73c.07.19.15.39.23.61l7.85,21.6s.02.06.03.09l.25.68h0c.24.66.35,1.11.35,1.34,0,.44-.33.72-.98.84v.55h6.33v-.55c-.65-.18-.98-.46-.98-.84,0-.21.08-.57.23-1.05l.21-.61c.04-.14.09-.29.15-.45l7.43-21.45,7.68,21.62c.08.22.15.42.21.6l.19.55c.12.35.18.58.18.69,0,.48-.33.8-.98.95v.55h6.21v-.55c-.65-.16-.98-.47-.98-.93,0-.22.11-.66.34-1.32l2.74-7.89,5.01-14.41c.07-.2.14-.4.2-.58l.25-.73c.31-.86.57-1.43.79-1.71.26-.33.67-.55,1.23-.66v-.55h-1.01Z"/>
    <path class="cls-1" d="M158.71,207.47v-3.4c0-.48.07-.82.22-1.01.15-.19.44-.35.88-.46v-.55h-11.77c-.48,0-.82-.07-1.02-.22-.2-.15-.35-.44-.46-.88h-.55v5h.55c.1-.44.25-.73.46-.88.2-.15.54-.22,1.02-.22h7.45v5.42c-1.26,1.15-2.81,2.04-4.65,2.68-1.84.64-3.78.96-5.81.96-3.85,0-7.02-1.04-9.5-3.11-2.69-2.25-4.04-5.27-4.04-9.06s1.41-6.99,4.23-9.28c2.46-2.02,5.49-3.03,9.09-3.03,3.09,0,6.12.8,9.07,2.4,1.53.81,2.3,1.44,2.3,1.88,0,.21-.04.44-.24.73l.56.39,3.02-4.8-.58-.39c-.34.5-.63.69-.92.69-.14,0-.52-.17-1.14-.52-2.12-1.19-4.1-2.04-5.93-2.56-1.83-.52-3.83-.77-5.98-.77-2.45,0-4.74.38-6.88,1.14-3.02,1.09-5.43,2.82-7.22,5.18-1.93,2.57-2.9,5.5-2.9,8.81,0,2.31.49,4.5,1.48,6.58.87,1.82,2.06,3.38,3.55,4.69,3.02,2.65,6.99,3.98,11.89,3.98,3.98,0,7.53-.87,10.64-2.62,1.02-.57,2.09-1.31,3.2-2.21.36-.29.73-.6,1.1-.93v-.48c-.44-.11-.73-.27-.88-.46-.15-.19-.22-.53-.22-1.01v-1.64Z"/>
  </g>
</svg>