<svg width="16" height="17" viewBox="0 0 16 17" fill="none" xmlns="http://www.w3.org/2000/svg">
<path fill-rule="evenodd" clip-rule="evenodd" d="M15.1384 1.36201C15.3987 1.62236 15.3987 2.04447 15.1384 2.30482L7.80506 9.63815C7.54471 9.8985 7.1226 9.8985 6.86225 9.63815C6.6019 9.3778 6.6019 8.95569 6.86225 8.69534L14.1956 1.36201C14.4559 1.10166 14.878 1.10166 15.1384 1.36201Z" fill="black"/>
<path fill-rule="evenodd" clip-rule="evenodd" d="M8.66699 1.83341C8.66699 1.46522 8.96547 1.16675 9.33366 1.16675H14.667C15.0352 1.16675 15.3337 1.46522 15.3337 1.83341V7.16675C15.3337 7.53494 15.0352 7.83342 14.667 7.83342C14.2988 7.83342 14.0003 7.53494 14.0003 7.16675V2.50008H9.33366C8.96547 2.50008 8.66699 2.2016 8.66699 1.83341Z" fill="black"/>
<path fill-rule="evenodd" clip-rule="evenodd" d="M1.25278 3.08579C1.62785 2.71071 2.13656 2.5 2.66699 2.5H6.00033C6.36852 2.5 6.66699 2.79848 6.66699 3.16667C6.66699 3.53486 6.36852 3.83333 6.00033 3.83333H2.66699C2.49018 3.83333 2.32061 3.90357 2.19559 4.0286C2.07056 4.15362 2.00033 4.32319 2.00033 4.5V13.8333C2.00033 14.0101 2.07056 14.1797 2.19559 14.3047C2.32061 14.4298 2.49018 14.5 2.66699 14.5H12.0003C12.1771 14.5 12.3467 14.4298 12.4717 14.3047C12.5968 14.1797 12.667 14.0101 12.667 13.8333V10.5C12.667 10.1318 12.9655 9.83333 13.3337 9.83333C13.7018 9.83333 14.0003 10.1318 14.0003 10.5V13.8333C14.0003 14.3638 13.7896 14.8725 13.4145 15.2475C13.0395 15.6226 12.5308 15.8333 12.0003 15.8333H2.66699C2.13656 15.8333 1.62785 15.6226 1.25278 15.2475C0.877706 14.8725 0.666992 14.3638 0.666992 13.8333V4.5C0.666992 3.96957 0.877706 3.46086 1.25278 3.08579Z" fill="black"/>
</svg>
