<svg width="24" height="24" viewBox="0 0 24 24" fill="none" xmlns="http://www.w3.org/2000/svg">
<path fill-rule="evenodd" clip-rule="evenodd" d="M22.7071 1.29289C23.0976 1.68342 23.0976 2.31658 22.7071 2.70711L11.7071 13.7071C11.3166 14.0976 10.6834 14.0976 10.2929 13.7071C9.90237 13.3166 9.90237 12.6834 10.2929 12.2929L21.2929 1.29289C21.6834 0.902369 22.3166 0.902369 22.7071 1.29289Z" fill="white"/>
<path fill-rule="evenodd" clip-rule="evenodd" d="M13 2C13 1.44772 13.4477 1 14 1H22C22.5523 1 23 1.44772 23 2V10C23 10.5523 22.5523 11 22 11C21.4477 11 21 10.5523 21 10V3H14C13.4477 3 13 2.55228 13 2Z" fill="white"/>
<path fill-rule="evenodd" clip-rule="evenodd" d="M1.87868 3.87868C2.44129 3.31607 3.20435 3 4 3H9C9.55228 3 10 3.44772 10 4C10 4.55228 9.55228 5 9 5H4C3.73478 5 3.48043 5.10536 3.29289 5.29289C3.10536 5.48043 3 5.73478 3 6V20C3 20.2652 3.10536 20.5196 3.29289 20.7071C3.48043 20.8946 3.73478 21 4 21H18C18.2652 21 18.5196 20.8946 18.7071 20.7071C18.8946 20.5196 19 20.2652 19 20V15C19 14.4477 19.4477 14 20 14C20.5523 14 21 14.4477 21 15V20C21 20.7957 20.6839 21.5587 20.1213 22.1213C19.5587 22.6839 18.7957 23 18 23H4C3.20435 23 2.44129 22.6839 1.87868 22.1213C1.31607 21.5587 1 20.7957 1 20V6C1 5.20435 1.31607 4.44129 1.87868 3.87868Z" fill="white"/>
</svg>
